<?xml version="1.0" encoding="UTF-8" standalone="no"?>
<!-- Created with Inkscape (http://www.inkscape.org/) -->

<svg
   width="66.145836mm"
   height="16.550531mm"
   viewBox="0 0 66.145835 16.550532"
   version="1.1"
   id="svg69678"
   inkscape:version="1.1.2 (0a00cf5339, 2022-02-04)"
   sodipodi:docname="readme.fortls.svg"
   xmlns:inkscape="http://www.inkscape.org/namespaces/inkscape"
   xmlns:sodipodi="http://sodipodi.sourceforge.net/DTD/sodipodi-0.dtd"
   xmlns="http://www.w3.org/2000/svg"
   xmlns:svg="http://www.w3.org/2000/svg">
  <sodipodi:namedview
     id="namedview69680"
     pagecolor="#ffffff"
     bordercolor="#666666"
     borderopacity="1.0"
     inkscape:pageshadow="2"
     inkscape:pageopacity="0.0"
     inkscape:pagecheckerboard="0"
     inkscape:document-units="mm"
     showgrid="false"
     inkscape:zoom="0.7500982"
     inkscape:cx="128.64982"
     inkscape:cy="-217.30488"
     inkscape:window-width="1920"
     inkscape:window-height="1053"
     inkscape:window-x="0"
     inkscape:window-y="0"
     inkscape:window-maximized="1"
     inkscape:current-layer="layer1"
     fit-margin-top="0"
     fit-margin-left="0"
     fit-margin-right="0"
     fit-margin-bottom="0" />
  <defs
     id="defs69675" />
  <g
     inkscape:label="Layer 1"
     inkscape:groupmode="layer"
     id="layer1"
     transform="translate(-70.658956,-205.79591)">
    <g
       id="g47028"
       transform="translate(38.964996,97.38587)">
      <path
         id="rect63265"
         style="fill:#a34e9c;stroke:#1e1e1e;stroke-width:0.221196;paint-order:stroke fill markers"
         d="m 33.904608,108.52064 h 61.724536 c 1.163428,0 2.100051,0.93662 2.100051,2.10005 v 12.12923 c 0,1.16343 -0.936623,2.10005 -2.100051,2.10005 H 33.904608 c -1.163428,0 -2.10005,-0.93662 -2.10005,-2.10005 v -12.12923 c 0,-1.16343 0.936622,-2.10005 2.10005,-2.10005 z" />
      <g
         id="g47001">
        <g
           id="g46783"
           transform="matrix(0.91380754,0,0,0.91380754,0.24528006,5.2975488)">
          <path
             fill="currentColor"
             d="m 47.50137,123.94447 h 0.739857 l 2.782415,-2.94847 v -0.78509 l -1.396411,-1.4685 h -0.72949 l -1.89662,1.99849 h -5.210529 v -1.38029 l 1.938317,-2.04286 v -0.78509 l -2.084205,-2.20841 h -0.750226 l -4.168413,4.41693 v 0.78509 l 2.084219,2.20858 h 0.739858 l 1.187993,-1.27009 v 6.39371 l 0.521012,0.55126 h 4.845773 v 0.57448 l 1.386004,1.47976 h 0.739862 l 2.782411,-2.94826 v -0.78511 l -1.396407,-1.46857 h -0.729494 l -1.938308,2.04293 h -5.210647 v -4.41717 h 4.366402 v 0.52913 z m 1.761144,-4.03066 0.656543,0.6964 -2.084199,2.20853 -0.656539,-0.6964 z m 0,5.52132 0.656543,0.69639 -2.084199,2.20845 -0.656539,-0.6964 z m -10.087541,-4.8698 -1.344303,-1.43551 3.428517,-3.63298 1.354725,1.42453 z"
             id="path2-75"
             style="fill:#ee9d28;fill-opacity:1;stroke-width:1.07272" />
          <path
             id="rect881"
             style="fill:#734f96;stroke-width:0.0326826"
             d="m 46.61177,117.24102 h 4.363789 c 0.715903,0 1.292244,0.57634 1.292244,1.29224 v 4.36379 c 0,0.71591 -0.576341,1.29225 -1.292244,1.29225 H 46.61177 c -0.715903,0 -1.292243,-0.57634 -1.292243,-1.29225 v -4.36379 c 0,-0.7159 0.57634,-1.29224 1.292243,-1.29224 z" />
          <path
             inkscape:connector-curvature="0"
             id="path1412"
             d="m 46.26656,123.12945 c 0,-0.27628 0.002,-0.3009 0.02633,-0.30141 0.01449,-2.8e-4 0.157338,-0.006 0.317473,-0.0142 0.257874,-0.0121 0.299042,-0.0176 0.360225,-0.0483 0.04837,-0.0243 0.07833,-0.0527 0.09996,-0.0948 0.03065,-0.0598 0.03089,-0.0735 0.03089,-1.96301 0,-1.77551 -0.0017,-1.90604 -0.02605,-1.95042 -0.03288,-0.0601 -0.0899,-0.10522 -0.159984,-0.12663 -0.03007,-0.009 -0.188357,-0.0203 -0.351756,-0.0247 l -0.297084,-0.008 v -0.29892 -0.29893 h 2.527106 2.527102 v 1.12065 1.12065 l -0.266998,-10e-4 c -0.146852,-8.1e-4 -0.283924,-0.006 -0.304609,-0.012 -0.03699,-0.0104 -0.03789,-0.0144 -0.05562,-0.24294 -0.02275,-0.2934 -0.04134,-0.42333 -0.08852,-0.61849 -0.101983,-0.42194 -0.317172,-0.65148 -0.668562,-0.71316 -0.147429,-0.0259 -0.790649,-0.0509 -1.319542,-0.0513 l -0.364779,-2.9e-4 v 0.8426 0.84261 l 0.191791,-0.009 c 0.219275,-0.0109 0.391643,-0.0373 0.47485,-0.0729 0.08861,-0.0379 0.182184,-0.13366 0.225984,-0.23127 0.04577,-0.10203 0.07572,-0.23599 0.09974,-0.44638 0.0095,-0.0827 0.02031,-0.16565 0.02413,-0.18427 0.0069,-0.0337 0.0081,-0.0338 0.29999,-0.0338 h 0.293035 v 1.34628 1.34629 h -0.29863 -0.298627 l -0.01001,-0.15531 c -0.01819,-0.28124 -0.07294,-0.54758 -0.138745,-0.67483 -0.08994,-0.17394 -0.266974,-0.25213 -0.622798,-0.27509 -0.07859,-0.005 -0.165357,-0.0127 -0.192802,-0.0169 l -0.0499,-0.007 0.0058,0.84699 c 0.0062,0.89335 0.0089,0.92826 0.0766,1.00313 0.0697,0.077 0.110344,0.0823 0.818364,0.10646 0.01441,4.5e-4 0.0188,0.0712 0.0188,0.3015 v 0.30084 h -1.45158 -1.451582 z"
             style="fill:#ffffff;stroke-width:0.0326829" />
        </g>
        <g
           aria-label="fortls
Language Server"
           id="text35124"
           style="font-size:7.05556px;line-height:0.95;font-family:Helvetica;-inkscape-font-specification:Helvetica;fill:#ffffff;stroke-width:0.264583">
          <path
             d="m 51.617982,111.04334 q 0.08837,0 0.16037,0.007 0.072,0.003 0.19637,0.0131 v 0.7593 q -0.07855,-0.01 -0.2651,-0.0131 -0.183279,-0.007 -0.255282,0.0818 -0.06873,0.0851 -0.06873,0.18982 0,0.10473 0,0.3011 h 0.612021 v 0.65785 h -0.612021 v 2.87682 h -0.929487 v -2.87682 h -0.520382 v -0.65785 h 0.510563 v -0.22909 q 0,-0.57275 0.193098,-0.78876 0.202916,-0.32074 0.978579,-0.32074 z"
             style="font-weight:bold;font-size:6.70278px"
             id="path1013" />
          <path
             d="m 54.134798,115.25876 q 0.409105,0 0.628385,-0.29128 0.219281,-0.29128 0.219281,-0.82803 0,-0.53675 -0.219281,-0.82476 -0.21928,-0.29128 -0.628385,-0.29128 -0.409106,0 -0.631659,0.29128 -0.21928,0.28801 -0.21928,0.82476 0,0.53675 0.21928,0.82803 0.222553,0.29128 0.631659,0.29128 z m 1.826245,-1.11931 q 0,0.78548 -0.451652,1.34514 -0.451652,0.55638 -1.371321,0.55638 -0.919668,0 -1.37132,-0.55638 -0.451652,-0.55966 -0.451652,-1.34514 0,-0.77239 0.451652,-1.33859 0.451652,-0.5662 1.37132,-0.5662 0.919669,0 1.371321,0.5662 0.451652,0.5662 0.451652,1.33859 z m -1.822973,-1.88516 z"
             style="font-weight:bold;font-size:6.70278px"
             id="path1015" />
          <path
             d="m 58.566225,112.26411 q 0.02618,0 0.04255,0.003 0.01964,0 0.08182,0.003 v 0.95567 q -0.08837,-0.01 -0.157096,-0.0131 -0.06873,-0.003 -0.111277,-0.003 -0.562928,0 -0.756026,0.36656 -0.108004,0.20619 -0.108004,0.63493 v 1.70515 h -0.939305 v -3.56739 h 0.890213 v 0.62184 q 0.216007,-0.35674 0.376376,-0.48766 0.261828,-0.21928 0.680751,-0.21928 z"
             style="font-weight:bold;font-size:6.70278px"
             id="path1017" />
          <path
             d="m 58.8706,113.04632 v -0.66439 h 0.497472 v -0.99494 h 0.922941 v 0.99494 h 0.579293 v 0.66439 h -0.579293 v 1.88516 q 0,0.21928 0.05564,0.27492 0.05564,0.0524 0.340375,0.0524 0.04255,0 0.08837,0 0.04909,-0.003 0.09491,-0.007 v 0.69711 l -0.441833,0.0164 q -0.661114,0.0229 -0.903305,-0.2291 -0.157096,-0.16037 -0.157096,-0.4942 v -2.19608 z"
             style="font-weight:bold;font-size:6.70278px"
             id="path1019" />
          <path
             d="m 62.421633,115.9166 h -0.93276 v -4.82417 h 0.93276 z"
             style="font-weight:bold;font-size:6.70278px"
             id="path1021" />
          <path
             d="m 64.058053,114.77765 q 0.02946,0.24874 0.127641,0.35347 0.173461,0.18655 0.641477,0.18655 0.274919,0 0.435288,-0.0818 0.163642,-0.0818 0.163642,-0.24546 0,-0.1571 -0.130914,-0.23892 -0.130913,-0.0818 -0.972034,-0.28146 -0.605475,-0.15055 -0.854211,-0.37638 -0.248736,-0.22255 -0.248736,-0.64148 0,-0.4942 0.386195,-0.84766 0.389468,-0.35674 1.093129,-0.35674 0.66766,0 1.086584,0.26837 0.422196,0.2651 0.48438,0.91967 h -0.93276 q -0.01964,-0.18001 -0.101458,-0.28474 -0.153823,-0.18982 -0.523654,-0.18982 -0.304375,0 -0.435288,0.0949 -0.127641,0.0949 -0.127641,0.22255 0,0.16037 0.137459,0.23237 0.13746,0.0753 0.972034,0.25856 0.556383,0.13091 0.834575,0.39601 0.274918,0.26838 0.274918,0.67094 0,0.5302 -0.396013,0.8673 -0.392741,0.33383 -1.217497,0.33383 -0.841121,0 -1.24368,-0.35347 -0.399287,-0.35674 -0.399287,-0.90658 z m 0.71348,-2.52336 z"
             style="font-weight:bold;font-size:6.70278px"
             id="path1023" />
          <path
             d="m 50.29696,118.57071 h 0.548458 v 3.56636 h 2.05052 v 0.48232 H 50.29696 Z"
             style="font-size:5.64444px"
             id="path1025" />
          <path
             d="m 53.750321,121.8339 q 0,0.21498 0.157096,0.339 0.157096,0.12402 0.37207,0.12402 0.261827,0 0.507118,-0.12126 0.413411,-0.2012 0.413411,-0.6587 v -0.39964 q -0.09095,0.0579 -0.234266,0.0965 -0.143316,0.0386 -0.28112,0.0551 l -0.300412,0.0386 q -0.270095,0.0358 -0.405143,0.113 -0.228754,0.12954 -0.228754,0.41341 z m 1.201648,-1.00321 q 0.170877,-0.0221 0.228754,-0.14331 0.03307,-0.0662 0.03307,-0.19017 0,-0.25356 -0.181901,-0.36656 -0.179144,-0.11576 -0.515386,-0.11576 -0.388606,0 -0.551214,0.20947 -0.09095,0.11575 -0.118512,0.34451 h -0.46302 q 0.01378,-0.54571 0.352777,-0.75792 0.341754,-0.21498 0.790994,-0.21498 0.520898,0 0.846115,0.19844 0.32246,0.19844 0.32246,0.61736 v 1.7005 q 0,0.0772 0.03032,0.12402 0.03307,0.0469 0.135048,0.0469 0.03307,0 0.07441,-0.003 0.04134,-0.006 0.08819,-0.0138 v 0.36656 q -0.115755,0.0331 -0.176389,0.0413 -0.06063,0.008 -0.165364,0.008 -0.256315,0 -0.37207,-0.1819 -0.06063,-0.0965 -0.08544,-0.27285 -0.151585,0.19844 -0.43546,0.34451 -0.283876,0.14607 -0.625629,0.14607 -0.410655,0 -0.672482,-0.24804 -0.259071,-0.25081 -0.259071,-0.62563 0,-0.41066 0.256315,-0.63665 0.256315,-0.226 0.672482,-0.27837 z m -0.410655,-1.23472 z"
             style="font-size:5.64444px"
             id="path1027" />
          <path
             d="m 56.509151,119.66763 h 0.471289 v 0.41892 q 0.209462,-0.25907 0.443728,-0.37207 0.234266,-0.113 0.520898,-0.113 0.628385,0 0.848871,0.43822 0.121267,0.23978 0.121267,0.68626 v 1.89343 h -0.504361 v -1.86036 q 0,-0.27009 -0.07993,-0.43545 -0.132291,-0.27561 -0.479557,-0.27561 -0.176388,0 -0.289387,0.0358 -0.20395,0.0606 -0.35829,0.24253 -0.124023,0.14607 -0.162608,0.30317 -0.03583,0.15434 -0.03583,0.44373 v 1.54616 h -0.496094 z m 1.16582,-0.0717 z"
             style="font-size:5.64444px"
             id="path1029" />
          <path
             d="m 60.690116,119.61526 q 0.347265,0 0.606336,0.17088 0.14056,0.0965 0.286632,0.28112 v -0.37207 h 0.457509 v 2.68442 q 0,0.56224 -0.165365,0.88745 -0.30868,0.60083 -1.165819,0.60083 -0.476801,0 -0.802018,-0.21498 -0.325217,-0.21221 -0.363802,-0.66697 h 0.504362 q 0.03583,0.19844 0.143316,0.30593 0.16812,0.16536 0.529166,0.16536 0.570507,0 0.746896,-0.40239 0.104731,-0.23702 0.09646,-0.84611 -0.148828,0.226 -0.35829,0.33624 -0.209462,0.11024 -0.553971,0.11024 -0.479557,0 -0.840603,-0.33899 -0.358289,-0.34176 -0.358289,-1.12724 0,-0.74138 0.361046,-1.15755 0.363801,-0.41617 0.876431,-0.41617 z m 0.892968,1.51584 q 0,-0.54845 -0.225998,-0.81304 -0.225998,-0.26458 -0.576019,-0.26458 -0.523655,0 -0.71658,0.49058 -0.101974,0.26183 -0.101974,0.68626 0,0.49885 0.201193,0.76068 0.203949,0.25907 0.545703,0.25907 0.534678,0 0.752408,-0.48231 0.121267,-0.27285 0.121267,-0.63666 z m -0.83509,-1.53513 z"
             style="font-size:5.64444px"
             id="path1031" />
          <path
             d="m 63.283582,119.66763 v 1.95957 q 0,0.226 0.07166,0.36931 0.132292,0.26459 0.493337,0.26459 0.518142,0 0.705555,-0.46303 0.101975,-0.24804 0.101975,-0.68075 v -1.44969 h 0.496094 v 2.95176 h -0.468533 l 0.0055,-0.43546 q -0.09646,0.16812 -0.239778,0.28387 -0.283876,0.23151 -0.689019,0.23151 -0.631141,0 -0.859895,-0.42168 -0.124024,-0.226 -0.124024,-0.60358 v -2.00642 z m 0.680751,-0.0717 z"
             style="font-size:5.64444px"
             id="path1033" />
          <path
             d="m 66.306996,121.8339 q 0,0.21498 0.157096,0.339 0.157096,0.12402 0.37207,0.12402 0.261827,0 0.507118,-0.12126 0.413411,-0.2012 0.413411,-0.6587 v -0.39964 q -0.09095,0.0579 -0.234266,0.0965 -0.143316,0.0386 -0.28112,0.0551 l -0.300412,0.0386 q -0.270095,0.0358 -0.405143,0.113 -0.228754,0.12954 -0.228754,0.41341 z m 1.201648,-1.00321 q 0.170877,-0.0221 0.228754,-0.14331 0.03307,-0.0662 0.03307,-0.19017 0,-0.25356 -0.181901,-0.36656 -0.179144,-0.11576 -0.515386,-0.11576 -0.388606,0 -0.551214,0.20947 -0.09095,0.11575 -0.118512,0.34451 h -0.46302 q 0.01378,-0.54571 0.352777,-0.75792 0.341754,-0.21498 0.790994,-0.21498 0.520898,0 0.846115,0.19844 0.32246,0.19844 0.32246,0.61736 v 1.7005 q 0,0.0772 0.03032,0.12402 0.03307,0.0469 0.135048,0.0469 0.03307,0 0.07441,-0.003 0.04134,-0.006 0.08819,-0.0138 v 0.36656 q -0.115755,0.0331 -0.176389,0.0413 -0.06063,0.008 -0.165364,0.008 -0.256315,0 -0.37207,-0.1819 -0.06063,-0.0965 -0.08544,-0.27285 -0.151585,0.19844 -0.43546,0.34451 -0.283876,0.14607 -0.625629,0.14607 -0.410655,0 -0.672482,-0.24804 -0.259071,-0.25081 -0.259071,-0.62563 0,-0.41066 0.256315,-0.63665 0.256315,-0.226 0.672482,-0.27837 z m -0.410655,-1.23472 z"
             style="font-size:5.64444px"
             id="path1035" />
          <path
             d="m 70.107622,119.61526 q 0.347266,0 0.606337,0.17088 0.140559,0.0965 0.286631,0.28112 v -0.37207 h 0.457509 v 2.68442 q 0,0.56224 -0.165365,0.88745 -0.30868,0.60083 -1.165819,0.60083 -0.476801,0 -0.802018,-0.21498 -0.325217,-0.21221 -0.363802,-0.66697 h 0.504362 q 0.03583,0.19844 0.143316,0.30593 0.16812,0.16536 0.529166,0.16536 0.570508,0 0.746896,-0.40239 0.104731,-0.23702 0.09646,-0.84611 -0.148828,0.226 -0.35829,0.33624 -0.209461,0.11024 -0.553971,0.11024 -0.479557,0 -0.840602,-0.33899 -0.35829,-0.34176 -0.35829,-1.12724 0,-0.74138 0.361046,-1.15755 0.363802,-0.41617 0.876431,-0.41617 z m 0.892968,1.51584 q 0,-0.54845 -0.225998,-0.81304 -0.225998,-0.26458 -0.576019,-0.26458 -0.523654,0 -0.71658,0.49058 -0.101974,0.26183 -0.101974,0.68626 0,0.49885 0.201193,0.76068 0.20395,0.25907 0.545703,0.25907 0.534678,0 0.752408,-0.48231 0.121267,-0.27285 0.121267,-0.63666 z m -0.83509,-1.53513 z"
             style="font-size:5.64444px"
             id="path1037" />
          <path
             d="m 73.434205,119.60148 q 0.314193,0 0.609093,0.14883 0.294899,0.14607 0.44924,0.38034 0.148828,0.22324 0.198437,0.5209 0.0441,0.20395 0.0441,0.65043 h -2.163518 q 0.01378,0.44924 0.212218,0.72209 0.198437,0.2701 0.614604,0.2701 0.388607,0 0.620117,-0.25632 0.132291,-0.14882 0.187413,-0.34451 h 0.487825 q -0.01929,0.16261 -0.129535,0.36381 -0.107487,0.19843 -0.242535,0.32521 -0.225998,0.22049 -0.559483,0.29766 -0.179145,0.0441 -0.405143,0.0441 -0.551215,0 -0.934309,-0.39963 -0.383094,-0.40239 -0.383094,-1.12448 0,-0.71107 0.38585,-1.1548 0.38585,-0.44373 1.008723,-0.44373 z m 0.790993,1.30638 q -0.03032,-0.32246 -0.140559,-0.51538 -0.20395,-0.35829 -0.680751,-0.35829 -0.341753,0 -0.573263,0.24804 -0.23151,0.24529 -0.245291,0.62563 z m -0.837846,-1.31189 z"
             style="font-size:5.64444px"
             id="path1039" />
          <path
             d="m 77.336806,121.31301 q 0.01929,0.34451 0.162608,0.55948 0.272852,0.40239 0.96187,0.40239 0.308681,0 0.562239,-0.0882 0.490582,-0.17088 0.490582,-0.61185 0,-0.33073 -0.206706,-0.47129 -0.209462,-0.1378 -0.655946,-0.23977 l -0.548458,-0.12403 q -0.537435,-0.12126 -0.760677,-0.26734 -0.38585,-0.25356 -0.38585,-0.75792 0,-0.5457 0.377582,-0.89572 0.377582,-0.35002 1.069357,-0.35002 0.636653,0 1.080381,0.30868 0.446484,0.30592 0.446484,0.98116 h -0.515386 q -0.04134,-0.32522 -0.176389,-0.49885 -0.250803,-0.31695 -0.851627,-0.31695 -0.485069,0 -0.697287,0.20395 -0.212217,0.20395 -0.212217,0.47405 0,0.29765 0.248046,0.43546 0.162609,0.0882 0.735872,0.22048 l 0.567752,0.12954 q 0.410655,0.0937 0.633897,0.25631 0.38585,0.28388 0.38585,0.82407 0,0.67248 -0.490581,0.96187 -0.487825,0.28939 -1.135503,0.28939 -0.755164,0 -1.182356,-0.38585 -0.427191,-0.3831 -0.418923,-1.03904 z m 1.107942,-2.85254 z"
             style="font-size:5.64444px"
             id="path1041" />
          <path
             d="m 81.906377,119.60148 q 0.314192,0 0.609092,0.14883 0.2949,0.14607 0.44924,0.38034 0.148828,0.22324 0.198438,0.5209 0.0441,0.20395 0.0441,0.65043 h -2.163518 q 0.01378,0.44924 0.212217,0.72209 0.198438,0.2701 0.614605,0.2701 0.388606,0 0.620117,-0.25632 0.132291,-0.14882 0.187413,-0.34451 h 0.487825 q -0.01929,0.16261 -0.129536,0.36381 -0.107487,0.19843 -0.242534,0.32521 -0.225998,0.22049 -0.559483,0.29766 -0.179145,0.0441 -0.405143,0.0441 -0.551215,0 -0.934309,-0.39963 -0.383095,-0.40239 -0.383095,-1.12448 0,-0.71107 0.385851,-1.1548 0.38585,-0.44373 1.008723,-0.44373 z m 0.790993,1.30638 q -0.03032,-0.32246 -0.14056,-0.51538 -0.203949,-0.35829 -0.68075,-0.35829 -0.341753,0 -0.573263,0.24804 -0.231511,0.24529 -0.245291,0.62563 z m -0.837846,-1.31189 z"
             style="font-size:5.64444px"
             id="path1043" />
          <path
             d="m 83.830116,119.66763 h 0.471289 v 0.50987 q 0.05788,-0.14882 0.283875,-0.36104 0.225998,-0.21498 0.520898,-0.21498 0.01378,0 0.04685,0.003 0.03307,0.003 0.112999,0.011 v 0.52366 q -0.0441,-0.008 -0.08268,-0.011 -0.03583,-0.003 -0.07993,-0.003 -0.374826,0 -0.576019,0.24253 -0.201194,0.23978 -0.201194,0.55397 v 1.69775 h -0.496093 z"
             style="font-size:5.64444px"
             id="path1045" />
          <path
             d="m 85.938513,119.66763 0.788237,2.4033 0.824066,-2.4033 h 0.542947 l -1.113454,2.95176 h -0.529167 l -1.088649,-2.95176 z"
             style="font-size:5.64444px"
             id="path1047" />
          <path
             d="m 89.747407,119.60148 q 0.314192,0 0.609092,0.14883 0.2949,0.14607 0.449241,0.38034 0.148828,0.22324 0.198437,0.5209 0.0441,0.20395 0.0441,0.65043 h -2.163518 q 0.01378,0.44924 0.212217,0.72209 0.198438,0.2701 0.614605,0.2701 0.388607,0 0.620117,-0.25632 0.132291,-0.14882 0.187413,-0.34451 h 0.487825 q -0.01929,0.16261 -0.129536,0.36381 -0.107486,0.19843 -0.242534,0.32521 -0.225998,0.22049 -0.559483,0.29766 -0.179145,0.0441 -0.405143,0.0441 -0.551215,0 -0.934309,-0.39963 -0.383095,-0.40239 -0.383095,-1.12448 0,-0.71107 0.385851,-1.1548 0.38585,-0.44373 1.008723,-0.44373 z m 0.790993,1.30638 q -0.03032,-0.32246 -0.140559,-0.51538 -0.20395,-0.35829 -0.680751,-0.35829 -0.341753,0 -0.573263,0.24804 -0.231511,0.24529 -0.245291,0.62563 z m -0.837846,-1.31189 z"
             style="font-size:5.64444px"
             id="path1049" />
          <path
             d="m 91.67115,119.66763 h 0.471289 v 0.50987 q 0.05788,-0.14882 0.283875,-0.36104 0.225998,-0.21498 0.520898,-0.21498 0.01378,0 0.04685,0.003 0.03307,0.003 0.112999,0.011 v 0.52366 q -0.0441,-0.008 -0.08268,-0.011 -0.03583,-0.003 -0.07993,-0.003 -0.374826,0 -0.576019,0.24253 -0.201194,0.23978 -0.201194,0.55397 v 1.69775 H 91.67115 Z"
             style="font-size:5.64444px"
             id="path1051" />
        </g>
      </g>
    </g>
  </g>
</svg>
