<?xml version="1.0" encoding="UTF-8" standalone="no"?>
<!-- Created with Inkscape (http://www.inkscape.org/) -->

<svg
   width="62.177078mm"
   height="16.544832mm"
   viewBox="0 0 62.177077 16.544833"
   version="1.1"
   id="svg69678"
   inkscape:version="1.2 (dc2aedaf03, 2022-05-15)"
   sodipodi:docname="readme.fortls.svg"
   xmlns:inkscape="http://www.inkscape.org/namespaces/inkscape"
   xmlns:sodipodi="http://sodipodi.sourceforge.net/DTD/sodipodi-0.dtd"
   xmlns="http://www.w3.org/2000/svg"
   xmlns:svg="http://www.w3.org/2000/svg">
  <sodipodi:namedview
     id="namedview69680"
     pagecolor="#ffffff"
     bordercolor="#666666"
     borderopacity="1.0"
     inkscape:pageshadow="2"
     inkscape:pageopacity="0.0"
     inkscape:pagecheckerboard="0"
     inkscape:document-units="mm"
     showgrid="false"
     inkscape:zoom="1.0378821"
     inkscape:cx="136.81708"
     inkscape:cy="2.4087514"
     inkscape:window-width="1920"
     inkscape:window-height="1023"
     inkscape:window-x="0"
     inkscape:window-y="0"
     inkscape:window-maximized="1"
     inkscape:current-layer="layer1"
     fit-margin-top="0"
     fit-margin-left="0"
     fit-margin-right="0"
     fit-margin-bottom="0"
     inkscape:showpageshadow="0"
     inkscape:deskcolor="#d1d1d1" />
  <defs
     id="defs69675" />
  <g
     inkscape:label="Layer 1"
     inkscape:groupmode="layer"
     id="layer1"
     transform="translate(-65.804436,-210.29319)">
    <g
       id="readme.fortls"
       transform="translate(34.110474,101.78673)"
       inkscape:label="fortls">
      <g
         id="g38132">
        <path
           id="rect63265"
           style="fill:#a34e9c;stroke:#1e1e1e;stroke-width:0.214453;paint-order:stroke fill markers"
           d="M 33.901372,108.61369 H 91.66363 c 1.163503,0 2.100185,0.93669 2.100185,2.10019 v 12.13001 c 0,1.1635 -0.936682,2.10018 -2.100185,2.10018 H 33.901372 c -1.163502,0 -2.100184,-0.93668 -2.100184,-2.10018 v -12.13001 c 0,-1.1635 0.936682,-2.10019 2.100184,-2.10019 z" />
        <g
           id="g47001"
           transform="translate(0.67727765)">
          <g
             id="g46783"
             transform="matrix(0.91380754,0,0,0.91380754,0.24528006,5.2975488)">
            <path
               fill="currentColor"
               d="m 47.50137,123.94447 h 0.739857 l 2.782415,-2.94847 v -0.78509 l -1.396411,-1.4685 h -0.72949 l -1.89662,1.99849 h -5.210529 v -1.38029 l 1.938317,-2.04286 v -0.78509 l -2.084205,-2.20841 h -0.750226 l -4.168413,4.41693 v 0.78509 l 2.084219,2.20858 h 0.739858 l 1.187993,-1.27009 v 6.39371 l 0.521012,0.55126 h 4.845773 v 0.57448 l 1.386004,1.47976 h 0.739862 l 2.782411,-2.94826 v -0.78511 l -1.396407,-1.46857 h -0.729494 l -1.938308,2.04293 h -5.210647 v -4.41717 h 4.366402 v 0.52913 z m 1.761144,-4.03066 0.656543,0.6964 -2.084199,2.20853 -0.656539,-0.6964 z m 0,5.52132 0.656543,0.69639 -2.084199,2.20845 -0.656539,-0.6964 z m -10.087541,-4.8698 -1.344303,-1.43551 3.428517,-3.63298 1.354725,1.42453 z"
               id="path2-75"
               style="fill:#ee9d28;fill-opacity:1;stroke-width:1.07272" />
            <path
               id="rect881"
               style="fill:#734f96;stroke-width:0.0326826"
               d="m 46.61177,117.24102 h 4.363789 c 0.715903,0 1.292244,0.57634 1.292244,1.29224 v 4.36379 c 0,0.71591 -0.576341,1.29225 -1.292244,1.29225 H 46.61177 c -0.715903,0 -1.292243,-0.57634 -1.292243,-1.29225 v -4.36379 c 0,-0.7159 0.57634,-1.29224 1.292243,-1.29224 z" />
            <path
               inkscape:connector-curvature="0"
               id="path1412"
               d="m 46.26656,123.12945 c 0,-0.27628 0.002,-0.3009 0.02633,-0.30141 0.01449,-2.8e-4 0.157338,-0.006 0.317473,-0.0142 0.257874,-0.0121 0.299042,-0.0176 0.360225,-0.0483 0.04837,-0.0243 0.07833,-0.0527 0.09996,-0.0948 0.03065,-0.0598 0.03089,-0.0735 0.03089,-1.96301 0,-1.77551 -0.0017,-1.90604 -0.02605,-1.95042 -0.03288,-0.0601 -0.0899,-0.10522 -0.159984,-0.12663 -0.03007,-0.009 -0.188357,-0.0203 -0.351756,-0.0247 l -0.297084,-0.008 v -0.29892 -0.29893 h 2.527106 2.527102 v 1.12065 1.12065 l -0.266998,-10e-4 c -0.146852,-8.1e-4 -0.283924,-0.006 -0.304609,-0.012 -0.03699,-0.0104 -0.03789,-0.0144 -0.05562,-0.24294 -0.02275,-0.2934 -0.04134,-0.42333 -0.08852,-0.61849 -0.101983,-0.42194 -0.317172,-0.65148 -0.668562,-0.71316 -0.147429,-0.0259 -0.790649,-0.0509 -1.319542,-0.0513 l -0.364779,-2.9e-4 v 0.8426 0.84261 l 0.191791,-0.009 c 0.219275,-0.0109 0.391643,-0.0373 0.47485,-0.0729 0.08861,-0.0379 0.182184,-0.13366 0.225984,-0.23127 0.04577,-0.10203 0.07572,-0.23599 0.09974,-0.44638 0.0095,-0.0827 0.02031,-0.16565 0.02413,-0.18427 0.0069,-0.0337 0.0081,-0.0338 0.29999,-0.0338 h 0.293035 v 1.34628 1.34629 h -0.29863 -0.298627 l -0.01001,-0.15531 c -0.01819,-0.28124 -0.07294,-0.54758 -0.138745,-0.67483 -0.08994,-0.17394 -0.266974,-0.25213 -0.622798,-0.27509 -0.07859,-0.005 -0.165357,-0.0127 -0.192802,-0.0169 l -0.0499,-0.007 0.0058,0.84699 c 0.0062,0.89335 0.0089,0.92826 0.0766,1.00313 0.0697,0.077 0.110344,0.0823 0.818364,0.10646 0.01441,4.5e-4 0.0188,0.0712 0.0188,0.3015 v 0.30084 h -1.45158 -1.451582 z"
               style="fill:#ffffff;stroke-width:0.0326829" />
          </g>
          <g
             aria-label="fortls
Language Server"
             id="text35124"
             style="font-size:7.05556px;line-height:0.95;font-family:Helvetica;-inkscape-font-specification:Helvetica;fill:#ffffff;stroke-width:0.264583">
            <path
               d="m 51.525825,111.29983 q 0.08372,0 0.151929,0.006 0.06821,0.003 0.186035,0.0124 v 0.71934 q -0.07441,-0.009 -0.251147,-0.0124 -0.173633,-0.006 -0.241846,0.0775 -0.06511,0.0806 -0.06511,0.17984 0,0.0992 0,0.28525 h 0.579809 v 0.62322 h -0.579809 v 2.72541 h -0.880567 v -2.72541 h -0.492993 v -0.62322 h 0.483692 v -0.21704 q 0,-0.5426 0.182934,-0.74724 0.192237,-0.30386 0.927075,-0.30386 z"
               style="font-weight:bold;font-size:6.35px"
               id="path6214" />
            <path
               d="m 53.910176,115.29339 q 0.387573,0 0.595312,-0.27596 0.20774,-0.27595 0.20774,-0.78445 0,-0.50849 -0.20774,-0.78134 -0.207739,-0.27595 -0.595312,-0.27595 -0.387573,0 -0.598413,0.27595 -0.207739,0.27285 -0.207739,0.78134 0,0.5085 0.207739,0.78445 0.21084,0.27596 0.598413,0.27596 z m 1.730127,-1.06041 q 0,0.74415 -0.427881,1.27435 -0.427881,0.5271 -1.299145,0.5271 -0.871265,0 -1.299146,-0.5271 -0.427881,-0.5302 -0.427881,-1.27435 0,-0.73173 0.427881,-1.26813 0.427881,-0.53641 1.299146,-0.53641 0.871264,0 1.299145,0.53641 0.427881,0.5364 0.427881,1.26813 z m -1.727026,-1.78593 z"
               style="font-weight:bold;font-size:6.35px"
               id="path6216" />
            <path
               d="m 58.108369,112.45635 q 0.0248,0 0.04031,0.003 0.0186,0 0.07751,0.003 v 0.90537 q -0.08372,-0.009 -0.148829,-0.0124 -0.06511,-0.003 -0.105419,-0.003 -0.533301,0 -0.716236,0.34726 -0.102319,0.19534 -0.102319,0.60152 v 1.6154 h -0.889868 v -3.37964 h 0.843359 v 0.58912 q 0.204639,-0.33797 0.356567,-0.46199 0.248047,-0.20774 0.644922,-0.20774 z"
               style="font-weight:bold;font-size:6.35px"
               id="path6218" />
            <path
               d="m 58.396724,113.19739 v -0.62942 h 0.471289 v -0.94258 h 0.874365 v 0.94258 h 0.548804 v 0.62942 h -0.548804 v 1.78594 q 0,0.20774 0.05271,0.26045 0.05271,0.0496 0.322461,0.0496 0.04031,0 0.08372,0 0.04651,-0.003 0.08992,-0.006 v 0.66043 l -0.418579,0.0155 q -0.626319,0.0217 -0.855762,-0.21704 -0.148828,-0.15193 -0.148828,-0.46819 v -2.08049 z"
               style="font-weight:bold;font-size:6.35px"
               id="path6220" />
            <path
               d="m 61.760859,115.9166 h -0.883667 v -4.57026 h 0.883667 z"
               style="font-weight:bold;font-size:6.35px"
               id="path6222" />
            <path
               d="m 63.311152,114.8376 q 0.02791,0.23564 0.120923,0.33486 0.164331,0.17674 0.607715,0.17674 0.260449,0 0.412378,-0.0775 0.155029,-0.0775 0.155029,-0.23254 0,-0.14883 -0.124023,-0.22635 -0.124024,-0.0775 -0.920874,-0.26665 -0.573608,-0.14262 -0.809253,-0.35656 -0.235645,-0.21084 -0.235645,-0.60772 0,-0.46819 0.36587,-0.80305 0.368969,-0.33796 1.035595,-0.33796 0.63252,0 1.029395,0.25424 0.399975,0.25115 0.458887,0.87127 h -0.883667 q -0.0186,-0.17053 -0.09612,-0.26975 -0.145727,-0.17984 -0.496093,-0.17984 -0.288355,0 -0.412378,0.0899 -0.120923,0.0899 -0.120923,0.21084 0,0.15193 0.130224,0.22014 0.130225,0.0713 0.920874,0.24495 0.5271,0.12402 0.79065,0.37517 0.260449,0.25425 0.260449,0.63562 0,0.50229 -0.375171,0.82166 -0.37207,0.31625 -1.153418,0.31625 -0.79685,0 -1.178222,-0.33486 -0.378272,-0.33796 -0.378272,-0.85886 z m 0.675928,-2.39055 z"
               style="font-weight:bold;font-size:6.35px"
               id="path6224" />
            <path
               d="m 50.270088,118.82375 h 0.514181 v 3.34347 h 1.922365 v 0.45217 h -2.436546 z"
               style="font-size:5.29167px"
               id="path6226" />
            <path
               d="m 53.507619,121.883 q 0,0.20153 0.147278,0.31781 0.147278,0.11627 0.348816,0.11627 0.245463,0 0.475423,-0.11369 0.387574,-0.18862 0.387574,-0.61753 v -0.37466 q -0.08527,0.0543 -0.219625,0.0904 -0.134359,0.0362 -0.26355,0.0517 l -0.281637,0.0362 q -0.253214,0.0336 -0.379822,0.10593 -0.214457,0.12144 -0.214457,0.38758 z m 1.126547,-0.94052 q 0.160197,-0.0207 0.214457,-0.13435 0.03101,-0.062 0.03101,-0.17829 0,-0.23771 -0.170532,-0.34365 -0.167949,-0.10852 -0.483175,-0.10852 -0.364319,0 -0.516765,0.19637 -0.08527,0.10852 -0.111104,0.32298 H 53.16397 q 0.01292,-0.5116 0.33073,-0.71055 0.320394,-0.20154 0.741557,-0.20154 0.488343,0 0.793234,0.18604 0.302307,0.18603 0.302307,0.57877 v 1.59422 q 0,0.0723 0.02842,0.11627 0.03101,0.0439 0.126607,0.0439 0.03101,0 0.06976,-0.003 0.03876,-0.005 0.08268,-0.0129 v 0.34364 q -0.108521,0.031 -0.165365,0.0388 -0.05684,0.008 -0.155029,0.008 -0.240296,0 -0.348816,-0.17053 -0.05684,-0.0904 -0.0801,-0.2558 -0.14211,0.18604 -0.408244,0.32298 -0.266134,0.13694 -0.586528,0.13694 -0.384989,0 -0.630453,-0.23254 -0.242879,-0.23513 -0.242879,-0.58653 0,-0.38499 0.240296,-0.59686 0.240295,-0.21188 0.630452,-0.26097 z m -0.38499,-1.15755 z"
               style="font-size:5.29167px"
               id="path6228" />
            <path
               d="m 56.094026,119.85211 h 0.441834 v 0.39274 q 0.19637,-0.24288 0.415995,-0.34881 0.219625,-0.10594 0.488343,-0.10594 0.589111,0 0.795817,0.41083 0.113688,0.22479 0.113688,0.64337 v 1.77509 h -0.472839 v -1.74409 q 0,-0.25321 -0.07493,-0.40824 -0.124024,-0.25838 -0.449585,-0.25838 -0.165365,0 -0.271302,0.0336 -0.191203,0.0568 -0.335897,0.22737 -0.116272,0.13695 -0.152445,0.28422 -0.03359,0.1447 -0.03359,0.416 v 1.44953 h -0.465088 z m 1.092957,-0.0672 z"
               style="font-size:5.29167px"
               id="path6230" />
            <path
               d="m 60.013686,119.80302 q 0.325562,0 0.568441,0.16019 0.131775,0.0904 0.268718,0.26355 v -0.34881 h 0.428914 v 2.51664 q 0,0.5271 -0.155029,0.83199 -0.289388,0.56328 -1.092957,0.56328 -0.447002,0 -0.751893,-0.20154 -0.304891,-0.19896 -0.341064,-0.62529 h 0.472839 q 0.03359,0.18604 0.134359,0.28681 0.157613,0.15503 0.496094,0.15503 0.534851,0 0.700216,-0.37724 0.09818,-0.22221 0.09043,-0.79323 -0.139526,0.21187 -0.335897,0.31522 -0.196371,0.10335 -0.519349,0.10335 -0.449585,0 -0.788066,-0.31781 -0.335897,-0.32039 -0.335897,-1.05678 0,-0.69505 0.338481,-1.0852 0.341065,-0.39016 0.821656,-0.39016 z m 0.837159,1.4211 q 0,-0.51418 -0.211874,-0.76223 -0.211873,-0.24804 -0.540019,-0.24804 -0.490926,0 -0.671794,0.45992 -0.0956,0.24546 -0.0956,0.64337 0,0.46767 0.188619,0.71313 0.191203,0.24288 0.511597,0.24288 0.501261,0 0.705384,-0.45217 0.113688,-0.25579 0.113688,-0.59686 z m -0.782899,-1.43919 z"
               style="font-size:5.29167px"
               id="path6232" />
            <path
               d="m 62.445063,119.85211 v 1.8371 q 0,0.21187 0.06718,0.34623 0.124023,0.24805 0.462504,0.24805 0.485759,0 0.661459,-0.43408 0.0956,-0.23255 0.0956,-0.63821 v -1.35909 h 0.465088 v 2.76728 h -0.43925 l 0.0052,-0.40825 q -0.09043,0.15761 -0.224793,0.26613 -0.266133,0.21705 -0.645955,0.21705 -0.591696,0 -0.806153,-0.39533 -0.116272,-0.21187 -0.116272,-0.56586 v -1.88102 z m 0.638204,-0.0672 z"
               style="font-size:5.29167px"
               id="path6234" />
            <path
               d="m 65.279517,121.883 q 0,0.20153 0.147278,0.31781 0.147277,0.11627 0.348816,0.11627 0.245463,0 0.475423,-0.11369 0.387574,-0.18862 0.387574,-0.61753 v -0.37466 q -0.08527,0.0543 -0.219625,0.0904 -0.134359,0.0362 -0.26355,0.0517 l -0.281637,0.0362 q -0.253215,0.0336 -0.379822,0.10593 -0.214457,0.12144 -0.214457,0.38758 z m 1.126547,-0.94052 q 0.160197,-0.0207 0.214457,-0.13435 0.03101,-0.062 0.03101,-0.17829 0,-0.23771 -0.170533,-0.34365 -0.167948,-0.10852 -0.483175,-0.10852 -0.364319,0 -0.516764,0.19637 -0.08527,0.10852 -0.111105,0.32298 h -0.434082 q 0.01292,-0.5116 0.33073,-0.71055 0.320394,-0.20154 0.741557,-0.20154 0.488342,0 0.793233,0.18604 0.302308,0.18603 0.302308,0.57877 v 1.59422 q 0,0.0723 0.02842,0.11627 0.03101,0.0439 0.126607,0.0439 0.03101,0 0.06976,-0.003 0.03876,-0.005 0.08268,-0.0129 v 0.34364 q -0.108521,0.031 -0.165365,0.0388 -0.05684,0.008 -0.155029,0.008 -0.240296,0 -0.348816,-0.17053 -0.05685,-0.0904 -0.0801,-0.2558 -0.14211,0.18604 -0.408244,0.32298 -0.266134,0.13694 -0.586528,0.13694 -0.38499,0 -0.630453,-0.23254 -0.242879,-0.23513 -0.242879,-0.58653 0,-0.38499 0.240295,-0.59686 0.240296,-0.21188 0.630453,-0.26097 z m -0.38499,-1.15755 z"
               style="font-size:5.29167px"
               id="path6236" />
            <path
               d="m 68.84261,119.80302 q 0.325562,0 0.568441,0.16019 0.131775,0.0904 0.268718,0.26355 v -0.34881 h 0.428915 v 2.51664 q 0,0.5271 -0.15503,0.83199 -0.289388,0.56328 -1.092957,0.56328 -0.447001,0 -0.751893,-0.20154 -0.304891,-0.19896 -0.341064,-0.62529 h 0.472839 q 0.03359,0.18604 0.134359,0.28681 0.157613,0.15503 0.496094,0.15503 0.534852,0 0.700216,-0.37724 0.09819,-0.22221 0.09043,-0.79323 -0.139526,0.21187 -0.335897,0.31522 -0.19637,0.10335 -0.519348,0.10335 -0.449586,0 -0.788066,-0.31781 -0.335897,-0.32039 -0.335897,-1.05678 0,-0.69505 0.33848,-1.0852 0.341065,-0.39016 0.821656,-0.39016 z m 0.837159,1.4211 q 0,-0.51418 -0.211874,-0.76223 -0.211873,-0.24804 -0.540019,-0.24804 -0.490926,0 -0.671794,0.45992 -0.0956,0.24546 -0.0956,0.64337 0,0.46767 0.188619,0.71313 0.191203,0.24288 0.511597,0.24288 0.501262,0 0.705384,-0.45217 0.113688,-0.25579 0.113687,-0.59686 z m -0.782899,-1.43919 z"
               style="font-size:5.29167px"
               id="path6238" />
            <path
               d="m 71.961284,119.7901 q 0.294556,0 0.571025,0.13953 0.276469,0.13694 0.421163,0.35656 0.139527,0.20929 0.186036,0.48835 0.04134,0.1912 0.04134,0.60978 h -2.028301 q 0.01292,0.42116 0.198954,0.67696 0.186035,0.25321 0.576193,0.25321 0.364319,0 0.58136,-0.24029 0.124023,-0.13953 0.1757,-0.32298 h 0.457336 q -0.01809,0.15245 -0.121439,0.34107 -0.100769,0.18603 -0.227377,0.30489 -0.211873,0.2067 -0.524516,0.27905 -0.167948,0.0413 -0.379822,0.0413 -0.516764,0 -0.875916,-0.37465 -0.359151,-0.37724 -0.359151,-1.0542 0,-0.66663 0.361735,-1.08263 0.361735,-0.41599 0.945679,-0.41599 z m 0.741558,1.22473 q -0.02842,-0.30231 -0.131775,-0.48317 -0.191203,-0.3359 -0.638205,-0.3359 -0.320394,0 -0.537435,0.23254 -0.217041,0.22996 -0.22996,0.58653 z m -0.785483,-1.2299 z"
               style="font-size:5.29167px"
               id="path6240" />
            <path
               d="m 75.619978,121.39465 q 0.01809,0.32298 0.152445,0.52452 0.255799,0.37724 0.901755,0.37724 0.289388,0 0.5271,-0.0827 0.45992,-0.16019 0.45992,-0.5736 0,-0.31006 -0.193787,-0.44184 -0.19637,-0.12919 -0.61495,-0.22479 l -0.51418,-0.11627 q -0.503846,-0.11369 -0.713136,-0.25063 -0.361735,-0.23771 -0.361735,-0.71055 0,-0.5116 0.353984,-0.83975 0.353984,-0.32814 1.002523,-0.32814 0.596863,0 1.012859,0.28939 0.418579,0.2868 0.418579,0.91984 H 77.56818 q -0.03876,-0.30489 -0.165364,-0.46768 -0.235128,-0.29713 -0.798402,-0.29713 -0.454752,0 -0.653707,0.1912 -0.198954,0.1912 -0.198954,0.44442 0,0.27905 0.232544,0.40824 0.152445,0.0827 0.689881,0.20671 l 0.532267,0.12144 q 0.38499,0.0879 0.59428,0.24029 0.361735,0.26613 0.361735,0.77256 0,0.63046 -0.459921,0.90176 -0.457336,0.2713 -1.064535,0.2713 -0.707967,0 -1.10846,-0.36174 -0.400493,-0.35915 -0.392741,-0.9741 z m 1.038697,-2.67425 z"
               style="font-size:5.29167px"
               id="path6242" />
            <path
               d="m 79.903957,119.7901 q 0.294556,0 0.571025,0.13953 0.276469,0.13694 0.421163,0.35656 0.139527,0.20929 0.186035,0.48835 0.04134,0.1912 0.04134,0.60978 h -2.0283 q 0.01292,0.42116 0.198955,0.67696 0.186035,0.25321 0.576192,0.25321 0.364319,0 0.581361,-0.24029 0.124023,-0.13953 0.175699,-0.32298 h 0.457337 q -0.01809,0.15245 -0.12144,0.34107 -0.100769,0.18603 -0.227376,0.30489 -0.211873,0.2067 -0.524516,0.27905 -0.167949,0.0413 -0.379822,0.0413 -0.516765,0 -0.875916,-0.37465 -0.359152,-0.37724 -0.359152,-1.0542 0,-0.66663 0.361736,-1.08263 0.361735,-0.41599 0.945679,-0.41599 z m 0.741557,1.22473 q -0.02842,-0.30231 -0.131775,-0.48317 -0.191203,-0.3359 -0.638204,-0.3359 -0.320394,0 -0.537435,0.23254 -0.217041,0.22996 -0.229961,0.58653 z m -0.785482,-1.2299 z"
               style="font-size:5.29167px"
               id="path6244" />
            <path
               d="m 81.707465,119.85211 h 0.441834 v 0.47801 q 0.05426,-0.13953 0.266134,-0.33848 0.211873,-0.20154 0.488342,-0.20154 0.01292,0 0.04393,0.003 0.03101,0.003 0.105937,0.0103 v 0.49092 q -0.04134,-0.008 -0.07751,-0.0103 -0.03359,-0.003 -0.07493,-0.003 -0.3514,0 -0.540019,0.22737 -0.188619,0.22479 -0.188619,0.51935 v 1.59164 h -0.465088 z"
               style="font-size:5.29167px"
               id="path6246" />
            <path
               d="m 83.684091,119.85211 0.738974,2.25309 0.772563,-2.25309 h 0.509013 l -1.043865,2.76728 h -0.496094 l -1.02061,-2.76728 z"
               style="font-size:5.29167px"
               id="path6248" />
            <path
               d="m 87.254932,119.7901 q 0.294556,0 0.571025,0.13953 0.276469,0.13694 0.421163,0.35656 0.139527,0.20929 0.186035,0.48835 0.04134,0.1912 0.04134,0.60978 h -2.028302 q 0.01292,0.42116 0.198955,0.67696 0.186035,0.25321 0.576192,0.25321 0.364319,0 0.581361,-0.24029 0.124023,-0.13953 0.1757,-0.32298 h 0.457336 q -0.01809,0.15245 -0.121439,0.34107 -0.10077,0.18603 -0.227377,0.30489 -0.211873,0.2067 -0.524516,0.27905 -0.167949,0.0413 -0.379822,0.0413 -0.516765,0 -0.875916,-0.37465 -0.359151,-0.37724 -0.359151,-1.0542 0,-0.66663 0.361735,-1.08263 0.361735,-0.41599 0.945679,-0.41599 z m 0.741557,1.22473 q -0.02842,-0.30231 -0.131775,-0.48317 -0.191203,-0.3359 -0.638204,-0.3359 -0.320394,0 -0.537435,0.23254 -0.217041,0.22996 -0.229961,0.58653 z m -0.785482,-1.2299 z"
               style="font-size:5.29167px"
               id="path6250" />
            <path
               d="m 89.05844,119.85211 h 0.441834 v 0.47801 q 0.05426,-0.13953 0.266134,-0.33848 0.211873,-0.20154 0.488342,-0.20154 0.01292,0 0.04393,0.003 0.03101,0.003 0.105937,0.0103 v 0.49092 q -0.04134,-0.008 -0.07752,-0.0103 -0.03359,-0.003 -0.07493,-0.003 -0.3514,0 -0.540019,0.22737 -0.188619,0.22479 -0.188619,0.51935 v 1.59164 H 89.05844 Z"
               style="font-size:5.29167px"
               id="path6252" />
          </g>
        </g>
      </g>
    </g>
  </g>
</svg>
