<?xml version="1.0" encoding="UTF-8" standalone="no"?>
<!-- Created with Inkscape (http://www.inkscape.org/) -->

<svg
   width="66.145836mm"
   height="16.550531mm"
   viewBox="0 0 66.145835 16.550532"
   version="1.1"
   id="svg970"
   inkscape:version="1.1.2 (0a00cf5339, 2022-02-04)"
   sodipodi:docname="readme.fpm.svg"
   xmlns:inkscape="http://www.inkscape.org/namespaces/inkscape"
   xmlns:sodipodi="http://sodipodi.sourceforge.net/DTD/sodipodi-0.dtd"
   xmlns="http://www.w3.org/2000/svg"
   xmlns:svg="http://www.w3.org/2000/svg">
  <sodipodi:namedview
     id="namedview972"
     pagecolor="#ffffff"
     bordercolor="#666666"
     borderopacity="1.0"
     inkscape:pageshadow="2"
     inkscape:pageopacity="0.0"
     inkscape:pagecheckerboard="0"
     inkscape:document-units="mm"
     showgrid="false"
     inkscape:zoom="2.1215981"
     inkscape:cx="22.388783"
     inkscape:cy="108.88019"
     inkscape:window-width="1920"
     inkscape:window-height="1053"
     inkscape:window-x="0"
     inkscape:window-y="0"
     inkscape:window-maximized="1"
     inkscape:current-layer="g22615"
     fit-margin-top="0"
     fit-margin-left="0"
     fit-margin-right="0"
     fit-margin-bottom="0" />
  <defs
     id="defs967" />
  <g
     inkscape:label="Layer 1"
     inkscape:groupmode="layer"
     id="layer1"
     transform="translate(-203.53778,-184.51243)">
    <g
       id="g22615"
       transform="translate(159.14837,55.440673)">
      <g
         id="g47017"
         transform="translate(12.695452,0.8758824)">
        <path
           id="rect68273"
           style="fill:#a34e9c;stroke:#1e1e1e;stroke-width:0.221196;paint-order:stroke fill markers"
           d="m 33.904608,128.30647 h 61.724536 c 1.163428,0 2.100051,0.93663 2.100051,2.10005 v 12.12924 c 0,1.16343 -0.936623,2.10005 -2.100051,2.10005 H 33.904608 c -1.163428,0 -2.10005,-0.93662 -2.10005,-2.10005 v -12.12924 c 0,-1.16342 0.936622,-2.10005 2.10005,-2.10005 z" />
        <g
           id="g46807"
           transform="translate(-2.4495888,-6.6458448)">
          <g
             aria-label="
Package Manager"
             id="text50081"
             style="font-size:7.05556px;line-height:1.05;font-family:Helvetica;-inkscape-font-specification:Helvetica;stroke-width:0.264583">
            <path
               d="m 52.385332,144.79291 h 1.821765 q 0.540191,0 0.87092,0.30592 0.330728,0.30317 0.330728,0.85438 0,0.47405 -0.294899,0.82683 -0.2949,0.35002 -0.906749,0.35002 h -1.273306 v 1.71152 h -0.548459 z m 2.469443,1.16306 q 0,-0.44648 -0.330729,-0.60634 -0.181901,-0.0854 -0.49885,-0.0854 h -1.091405 v 1.40284 h 1.091405 q 0.369314,0 0.598068,-0.1571 0.231511,-0.15709 0.231511,-0.55397 z"
               style="fill:#ffffff"
               id="path1001" />
            <path
               d="m 56.411956,148.0561 q 0,0.21497 0.157097,0.339 0.157096,0.12402 0.37207,0.12402 0.261827,0 0.507117,-0.12127 0.413412,-0.20119 0.413412,-0.6587 v -0.39963 q -0.09095,0.0579 -0.234267,0.0965 -0.143316,0.0386 -0.281119,0.0551 l -0.300412,0.0386 q -0.270096,0.0358 -0.405143,0.113 -0.228755,0.12953 -0.228755,0.41341 z m 1.201649,-1.00321 q 0.170876,-0.022 0.228754,-0.14332 0.03307,-0.0661 0.03307,-0.19017 0,-0.25356 -0.181901,-0.36655 -0.179145,-0.11576 -0.515386,-0.11576 -0.388606,0 -0.551215,0.20946 -0.09095,0.11576 -0.118511,0.34451 h -0.46302 q 0.01378,-0.5457 0.352777,-0.75792 0.341753,-0.21497 0.790993,-0.21497 0.520898,0 0.846115,0.19843 0.322461,0.19844 0.322461,0.61737 v 1.70049 q 0,0.0772 0.03032,0.12403 0.03307,0.0468 0.135047,0.0468 0.03307,0 0.07441,-0.003 0.04134,-0.006 0.08819,-0.0138 v 0.36656 q -0.115755,0.0331 -0.176389,0.0413 -0.06063,0.008 -0.165364,0.008 -0.256315,0 -0.37207,-0.1819 -0.06063,-0.0965 -0.08544,-0.27285 -0.151584,0.19844 -0.43546,0.34451 -0.283875,0.14607 -0.625628,0.14607 -0.410655,0 -0.672483,-0.24805 -0.259071,-0.2508 -0.259071,-0.62563 0,-0.41065 0.256315,-0.63665 0.256315,-0.226 0.672483,-0.27836 z m -0.410655,-1.23472 z"
               style="font-size:5.64444px;fill:#ffffff"
               id="path1003" />
            <path
               d="m 60.309045,145.80439 q 0.49885,0 0.810286,0.24253 0.314193,0.24254 0.377582,0.83509 H 61.0146 q -0.0441,-0.27285 -0.201193,-0.45199 -0.157096,-0.18191 -0.504362,-0.18191 -0.474044,0 -0.677994,0.46303 -0.132291,0.30041 -0.132291,0.74138 0,0.44373 0.187413,0.7469 0.187413,0.30316 0.5898,0.30316 0.30868,0 0.487825,-0.18741 0.181901,-0.19017 0.250802,-0.51814 h 0.482313 q -0.08268,0.58704 -0.413411,0.85989 -0.330729,0.2701 -0.846115,0.2701 -0.578775,0 -0.923284,-0.42168 -0.34451,-0.42444 -0.34451,-1.05833 0,-0.77722 0.377582,-1.20992 0.377583,-0.4327 0.96187,-0.4327 z m -0.07717,0.0138 z"
               style="font-size:5.64444px;fill:#ffffff"
               id="path1005" />
            <path
               d="m 61.981983,144.79291 h 0.476801 v 2.35093 l 1.273306,-1.25402 h 0.633897 l -1.12999,1.10519 1.19338,1.84657 H 63.79548 l -0.920529,-1.48828 -0.416167,0.38034 v 1.10794 h -0.476801 z"
               style="font-size:5.64444px;fill:#ffffff"
               id="path1007" />
            <path
               d="m 65.195566,148.0561 q 0,0.21497 0.157096,0.339 0.157096,0.12402 0.37207,0.12402 0.261827,0 0.507118,-0.12127 0.413411,-0.20119 0.413411,-0.6587 v -0.39963 q -0.09095,0.0579 -0.234267,0.0965 -0.143315,0.0386 -0.281119,0.0551 l -0.300412,0.0386 q -0.270096,0.0358 -0.405143,0.113 -0.228754,0.12953 -0.228754,0.41341 z m 1.201648,-1.00321 q 0.170877,-0.022 0.228754,-0.14332 0.03307,-0.0661 0.03307,-0.19017 0,-0.25356 -0.181901,-0.36655 -0.179145,-0.11576 -0.515386,-0.11576 -0.388606,0 -0.551215,0.20946 -0.09095,0.11576 -0.118511,0.34451 h -0.46302 q 0.01378,-0.5457 0.352777,-0.75792 0.341753,-0.21497 0.790994,-0.21497 0.520898,0 0.846114,0.19843 0.322461,0.19844 0.322461,0.61737 v 1.70049 q 0,0.0772 0.03032,0.12403 0.03307,0.0468 0.135048,0.0468 0.03307,0 0.07441,-0.003 0.04134,-0.006 0.08819,-0.0138 v 0.36656 q -0.115755,0.0331 -0.176389,0.0413 -0.06063,0.008 -0.165364,0.008 -0.256315,0 -0.37207,-0.1819 -0.06063,-0.0965 -0.08544,-0.27285 -0.151584,0.19844 -0.435459,0.34451 -0.283876,0.14607 -0.625629,0.14607 -0.410655,0 -0.672482,-0.24805 -0.259071,-0.2508 -0.259071,-0.62563 0,-0.41065 0.256315,-0.63665 0.256314,-0.226 0.672482,-0.27836 z m -0.410655,-1.23472 z"
               style="font-size:5.64444px;fill:#ffffff"
               id="path1009" />
            <path
               d="m 68.996192,145.83746 q 0.347266,0 0.606337,0.17088 0.140559,0.0965 0.286631,0.28112 v -0.37207 h 0.457509 v 2.68441 q 0,0.56224 -0.165365,0.88746 -0.30868,0.60082 -1.165819,0.60082 -0.476801,0 -0.802018,-0.21497 -0.325217,-0.21222 -0.363802,-0.66697 h 0.504362 q 0.03583,0.19844 0.143316,0.30592 0.16812,0.16537 0.529166,0.16537 0.570507,0 0.746896,-0.40239 0.104731,-0.23702 0.09646,-0.84611 -0.148828,0.22599 -0.35829,0.33624 -0.209462,0.11024 -0.553971,0.11024 -0.479557,0 -0.840603,-0.339 -0.358289,-0.34175 -0.358289,-1.12723 0,-0.74139 0.361046,-1.15755 0.363801,-0.41617 0.876431,-0.41617 z m 0.892968,1.51584 q 0,-0.54846 -0.225998,-0.81304 -0.225998,-0.26458 -0.576019,-0.26458 -0.523654,0 -0.71658,0.49058 -0.101974,0.26182 -0.101974,0.68626 0,0.49885 0.201193,0.76068 0.203949,0.25907 0.545703,0.25907 0.534678,0 0.752408,-0.48232 0.121267,-0.27285 0.121267,-0.63665 z m -0.83509,-1.53513 z"
               style="font-size:5.64444px;fill:#ffffff"
               id="path1011" />
            <path
               d="m 72.322774,145.82368 q 0.314192,0 0.609092,0.14883 0.2949,0.14607 0.449241,0.38034 0.148828,0.22324 0.198437,0.52089 0.0441,0.20395 0.0441,0.65044 h -2.163518 q 0.01378,0.44924 0.212217,0.72209 0.198438,0.27009 0.614605,0.27009 0.388606,0 0.620117,-0.25631 0.132291,-0.14883 0.187413,-0.34451 H 73.5823 q -0.01929,0.16261 -0.129536,0.3638 -0.107486,0.19844 -0.242534,0.32522 -0.225998,0.22048 -0.559483,0.29765 -0.179145,0.0441 -0.405143,0.0441 -0.551215,0 -0.934309,-0.39963 -0.383095,-0.40239 -0.383095,-1.12448 0,-0.71106 0.385851,-1.15479 0.38585,-0.44373 1.008723,-0.44373 z m 0.790993,1.30638 q -0.03032,-0.32246 -0.140559,-0.51539 -0.20395,-0.35829 -0.680751,-0.35829 -0.341753,0 -0.573263,0.24805 -0.231511,0.24529 -0.245291,0.62563 z m -0.837846,-1.31189 z"
               style="font-size:5.64444px;fill:#ffffff"
               id="path1013" />
            <path
               d="m 75.853305,144.79291 h 0.785481 l 1.163063,3.42304 1.154795,-3.42304 h 0.777213 v 4.04867 h -0.520898 v -2.38952 q 0,-0.12402 0.0055,-0.41065 0.0055,-0.28663 0.0055,-0.61461 l -1.154795,3.41478 h -0.542947 l -1.163063,-3.41478 v 0.12403 q 0,0.14883 0.0055,0.45475 0.0083,0.30317 0.0083,0.44648 v 2.38952 h -0.523654 z"
               style="font-size:5.64444px;fill:#ffffff"
               id="path1015" />
            <path
               d="m 80.88314,148.0561 q 0,0.21497 0.157096,0.339 0.157096,0.12402 0.37207,0.12402 0.261827,0 0.507118,-0.12127 0.413411,-0.20119 0.413411,-0.6587 v -0.39963 q -0.09095,0.0579 -0.234266,0.0965 -0.143316,0.0386 -0.28112,0.0551 l -0.300412,0.0386 q -0.270095,0.0358 -0.405143,0.113 -0.228754,0.12953 -0.228754,0.41341 z m 1.201648,-1.00321 q 0.170877,-0.022 0.228755,-0.14332 0.03307,-0.0661 0.03307,-0.19017 0,-0.25356 -0.1819,-0.36655 -0.179145,-0.11576 -0.515386,-0.11576 -0.388607,0 -0.551215,0.20946 -0.09095,0.11576 -0.118511,0.34451 h -0.463021 q 0.01378,-0.5457 0.352778,-0.75792 0.341753,-0.21497 0.790993,-0.21497 0.520898,0 0.846115,0.19843 0.32246,0.19844 0.32246,0.61737 v 1.70049 q 0,0.0772 0.03032,0.12403 0.03307,0.0468 0.135048,0.0468 0.03307,0 0.07441,-0.003 0.04134,-0.006 0.08819,-0.0138 v 0.36656 q -0.115755,0.0331 -0.176388,0.0413 -0.06063,0.008 -0.165365,0.008 -0.256315,0 -0.37207,-0.1819 -0.06063,-0.0965 -0.08544,-0.27285 -0.151584,0.19844 -0.43546,0.34451 -0.283876,0.14607 -0.625629,0.14607 -0.410655,0 -0.672482,-0.24805 -0.259071,-0.2508 -0.259071,-0.62563 0,-0.41065 0.256315,-0.63665 0.256315,-0.226 0.672482,-0.27836 z m -0.410655,-1.23472 z"
               style="font-size:5.64444px;fill:#ffffff"
               id="path1017" />
            <path
               d="m 83.641971,145.88982 h 0.471289 v 0.41893 q 0.209462,-0.25907 0.443728,-0.37207 0.234266,-0.113 0.520898,-0.113 0.628385,0 0.848871,0.43822 0.121267,0.23977 0.121267,0.68626 v 1.89342 h -0.504361 v -1.86035 q 0,-0.27009 -0.07993,-0.43546 -0.132292,-0.27561 -0.479557,-0.27561 -0.176389,0 -0.289388,0.0358 -0.20395,0.0606 -0.35829,0.24254 -0.124023,0.14607 -0.162608,0.30316 -0.03583,0.15435 -0.03583,0.44373 v 1.54616 h -0.496094 z m 1.16582,-0.0716 z"
               style="font-size:5.64444px;fill:#ffffff"
               id="path1019" />
            <path
               d="m 87.161479,148.0561 q 0,0.21497 0.157097,0.339 0.157096,0.12402 0.37207,0.12402 0.261827,0 0.507117,-0.12127 0.413411,-0.20119 0.413411,-0.6587 v -0.39963 q -0.09095,0.0579 -0.234266,0.0965 -0.143316,0.0386 -0.281119,0.0551 l -0.300413,0.0386 q -0.270095,0.0358 -0.405142,0.113 -0.228755,0.12953 -0.228755,0.41341 z m 1.201649,-1.00321 q 0.170876,-0.022 0.228754,-0.14332 0.03307,-0.0661 0.03307,-0.19017 0,-0.25356 -0.181901,-0.36655 -0.179145,-0.11576 -0.515386,-0.11576 -0.388606,0 -0.551215,0.20946 -0.09095,0.11576 -0.118511,0.34451 h -0.46302 q 0.01378,-0.5457 0.352777,-0.75792 0.341753,-0.21497 0.790993,-0.21497 0.520898,0 0.846115,0.19843 0.322461,0.19844 0.322461,0.61737 v 1.70049 q 0,0.0772 0.03032,0.12403 0.03307,0.0468 0.135047,0.0468 0.03307,0 0.07441,-0.003 0.04134,-0.006 0.08819,-0.0138 v 0.36656 q -0.115755,0.0331 -0.176389,0.0413 -0.06063,0.008 -0.165365,0.008 -0.256314,0 -0.37207,-0.1819 -0.06063,-0.0965 -0.08544,-0.27285 -0.151584,0.19844 -0.43546,0.34451 -0.283875,0.14607 -0.625628,0.14607 -0.410656,0 -0.672483,-0.24805 -0.259071,-0.2508 -0.259071,-0.62563 0,-0.41065 0.256315,-0.63665 0.256315,-0.226 0.672482,-0.27836 z m -0.410655,-1.23472 z"
               style="font-size:5.64444px;fill:#ffffff"
               id="path1021" />
            <path
               d="m 90.962105,145.83746 q 0.347265,0 0.606336,0.17088 0.14056,0.0965 0.286632,0.28112 v -0.37207 h 0.457508 v 2.68441 q 0,0.56224 -0.165364,0.88746 -0.30868,0.60082 -1.165819,0.60082 -0.476801,0 -0.802018,-0.21497 -0.325217,-0.21222 -0.363802,-0.66697 h 0.504362 q 0.03583,0.19844 0.143316,0.30592 0.16812,0.16537 0.529166,0.16537 0.570507,0 0.746896,-0.40239 0.104731,-0.23702 0.09646,-0.84611 -0.148828,0.22599 -0.35829,0.33624 -0.209462,0.11024 -0.553971,0.11024 -0.479557,0 -0.840603,-0.339 -0.358289,-0.34175 -0.358289,-1.12723 0,-0.74139 0.361045,-1.15755 0.363802,-0.41617 0.876432,-0.41617 z m 0.892968,1.51584 q 0,-0.54846 -0.225998,-0.81304 -0.225998,-0.26458 -0.57602,-0.26458 -0.523654,0 -0.716579,0.49058 -0.101975,0.26182 -0.101975,0.68626 0,0.49885 0.201194,0.76068 0.203949,0.25907 0.545703,0.25907 0.534678,0 0.752408,-0.48232 0.121267,-0.27285 0.121267,-0.63665 z m -0.83509,-1.53513 z"
               style="font-size:5.64444px;fill:#ffffff"
               id="path1023" />
            <path
               d="m 94.288686,145.82368 q 0.314192,0 0.609092,0.14883 0.2949,0.14607 0.44924,0.38034 0.148828,0.22324 0.198438,0.52089 0.0441,0.20395 0.0441,0.65044 h -2.163518 q 0.01378,0.44924 0.212217,0.72209 0.198438,0.27009 0.614605,0.27009 0.388606,0 0.620117,-0.25631 0.132291,-0.14883 0.187413,-0.34451 h 0.487825 q -0.01929,0.16261 -0.129536,0.3638 -0.107487,0.19844 -0.242534,0.32522 -0.225998,0.22048 -0.559483,0.29765 -0.179145,0.0441 -0.405143,0.0441 -0.551215,0 -0.934309,-0.39963 -0.383095,-0.40239 -0.383095,-1.12448 0,-0.71106 0.385851,-1.15479 0.38585,-0.44373 1.008723,-0.44373 z m 0.790993,1.30638 q -0.03032,-0.32246 -0.14056,-0.51539 -0.203949,-0.35829 -0.68075,-0.35829 -0.341753,0 -0.573263,0.24805 -0.231511,0.24529 -0.245291,0.62563 z m -0.837846,-1.31189 z"
               style="font-size:5.64444px;fill:#ffffff"
               id="path1025" />
            <path
               d="m 96.212425,145.88982 h 0.471289 v 0.50988 q 0.05788,-0.14883 0.283875,-0.36105 0.225998,-0.21497 0.520898,-0.21497 0.01378,0 0.04685,0.003 0.03307,0.003 0.112999,0.011 v 0.52365 q -0.0441,-0.008 -0.08268,-0.011 -0.03583,-0.003 -0.07993,-0.003 -0.374826,0 -0.576019,0.24254 -0.201194,0.23978 -0.201194,0.55397 v 1.69774 h -0.496093 z"
               style="font-size:5.64444px;fill:#ffffff"
               id="path1027" />
          </g>
          <g
             id="g39582"
             transform="matrix(0.87759324,0,0,0.87759324,6.4123187,17.705899)">
            <path
               d="m 61.403007,142.57709 0.619428,-4.69236 h 0.89341 l 0.125998,0.49025 c 0.458278,-0.31047 0.951707,-0.55153 1.518045,-0.55153 0.297708,0 0.535671,0.0584 0.713745,0.17508 0.183861,0.1109 0.331268,0.28598 0.442221,0.52527 0.434554,-0.38596 1.190105,-0.70035 1.786966,-0.70035 0.438026,0 0.755696,0.0992 0.953299,0.29765 0.20339,0.1926 0.309424,0.46981 0.318538,0.83166 0.0051,0.20854 -0.0036,0.42518 -0.03703,0.63032 l -0.398679,2.99401 h -1.086096 l 0.399402,-2.96774 c 0.01,-0.0642 0.01418,-0.13424 0.0123,-0.2101 -0.01,-0.40272 -0.239844,-0.60407 -0.689442,-0.60407 -0.405044,0 -0.929286,0.24057 -1.249704,0.46399 0.01649,0.13225 0.0082,0.27313 -0.01635,0.4027 l -0.392024,2.91522 h -1.077272 l 0.382911,-2.92397 c 0.01041,-0.0525 0.01519,-0.0963 0.01432,-0.13132 0.0048,-0.0409 0.0067,-0.0846 0.0055,-0.13132 -0.0046,-0.18675 -0.06076,-0.33266 -0.168526,-0.43772 -0.107626,-0.10505 -0.278324,-0.15758 -0.511947,-0.15758 -0.393326,0 -0.701883,0.22603 -1.021723,0.42897 l -0.451194,3.35294 z"
               fill="#ffffff"
               id="path2"
               style="stroke-width:0.0144658" />
            <path
               d="m 55.98468,144.64803 0.887191,-6.60957 c 0.354557,-0.0642 0.712442,-0.11382 1.073655,-0.14883 0.360922,-0.0409 0.760469,-0.0613 1.19835,-0.0613 0.537262,0 0.928996,0.13717 1.175205,0.41147 0.251995,0.2743 0.384937,0.68867 0.398679,1.24312 0.0036,0.1459 -0.0014,0.29765 -0.01504,0.45523 -0.0136,0.15757 -0.03009,0.31516 -0.04962,0.47274 -0.09866,0.72953 -0.330256,1.28107 -0.69465,1.65458 -0.364395,0.37352 -0.841623,0.56029 -1.431395,0.56029 -0.227693,0 -0.438316,-0.0175 -0.631869,-0.0525 -0.193553,-0.035 -0.37018,-0.0905 -0.529594,-0.16634 l -0.294814,2.24113 z m 2.396991,-2.94148 c 0.373797,0 0.653856,-0.12256 0.840465,-0.36768 0.18661,-0.24512 0.317381,-0.6274 0.392025,-1.14684 0.0098,-0.0759 0.01938,-0.1605 0.02879,-0.25387 0.0094,-0.0934 0.01287,-0.18383 0.0107,-0.27138 -0.008,-0.321 -0.07508,-0.56029 -0.201654,-0.71787 -0.12079,-0.16341 -0.312607,-0.24512 -0.575452,-0.24512 l -1.015791,0.009 -0.385081,2.83643 c 0.164766,0.0525 0.308846,0.0934 0.432239,0.12256 0.129036,0.0233 0.287003,0.035 0.473757,0.035 z"
               fill="#ffffff"
               id="path4"
               style="stroke-width:0.0144658" />
            <path
               d="m 52.805377,142.57328 0.501198,-3.80816 h -0.921243 l 0.09652,-0.70036 0.942956,-0.18383 0.105254,-0.70035 c 0.03423,-0.26848 0.104342,-0.50192 0.210377,-0.70037 0.111719,-0.20425 0.274229,-0.36184 0.487528,-0.47273 0.219143,-0.11089 0.509733,-0.16634 0.871769,-0.16634 0.192685,0 0.629482,0.009 0.816814,0.0263 0.187044,0.0117 0.471587,0.0292 0.606408,0.0525 l -0.103141,0.7879 h -1.114666 c -0.262757,0 -0.445114,0.0642 -0.547026,0.1926 -0.102071,0.12256 -0.167442,0.31225 -0.196113,0.56903 l -0.05111,0.41147 h 1.490561 l -0.118186,0.88419 h -1.490604 l -0.509965,3.80816 z"
               fill="#ffffff"
               id="path6"
               style="stroke-width:0.0144658" />
          </g>
        </g>
        <g
           id="g46798"
           transform="translate(-2.9787555,-6.6458448)">
          <path
             d="m 38.364778,145.62791 h 4.430587 l -0.519152,4.04754 c -0.0082,0.064 -0.06267,0.11188 -0.127173,0.11188 h -4.220645 c -0.0515,0 -0.09129,-0.0452 -0.08477,-0.0962 z"
             fill="#4d41b1"
             id="path8"
             style="stroke-width:0.020005" />
          <path
             d="m 42.958567,140.8861 h -3.943828 l -0.533508,4.15945 h 4.430603 l 0.47148,-3.67599 c -0.265747,-0.003 -0.455536,-0.21838 -0.424747,-0.48346 z"
             fill="#4d41b1"
             id="path10"
             style="stroke-width:0.020005" />
          <path
             d="m 48.461566,140.8861 h -3.886268 c -0.05569,0.30852 -0.333746,0.4866 -0.579168,0.48346 l -0.468659,3.67599 h 4.290891 c 0.06454,0 0.119028,-0.048 0.127188,-0.11202 z"
             fill="#4d41b1"
             id="path12"
             style="stroke-width:0.020005" />
          <path
             fill-rule="evenodd"
             clip-rule="evenodd"
             d="m 44.106998,136.14424 c -2.111537,-0.027 -4.503937,1.50511 -4.98281,4.15943 h 3.915819 c 0.05569,-0.3085 0.333746,-0.48659 0.579188,-0.48347 z m 0.59035,-1.5e-4 h 4.306535 c 0.05151,0 0.09134,0.0452 0.08483,0.0962 l -0.518032,4.06317 -3.916858,-3e-5 c 0.03081,-0.2652 -0.15916,-0.48055 -0.425106,-0.48346 z"
             fill="#4d41b1"
             id="path14"
             style="stroke-width:0.020005" />
        </g>
      </g>
    </g>
  </g>
</svg>
