<?xml version="1.0" encoding="UTF-8" standalone="no"?>
<!-- Created with Inkscape (http://www.inkscape.org/) -->

<svg
   width="66.145836mm"
   height="16.550531mm"
   viewBox="0 0 66.145836 16.550531"
   version="1.1"
   id="svg5"
   inkscape:version="1.1.2 (0a00cf5339, 2022-02-04)"
   sodipodi:docname="readme.discourse.svg"
   xmlns:inkscape="http://www.inkscape.org/namespaces/inkscape"
   xmlns:sodipodi="http://sodipodi.sourceforge.net/DTD/sodipodi-0.dtd"
   xmlns="http://www.w3.org/2000/svg"
   xmlns:svg="http://www.w3.org/2000/svg">
  <sodipodi:namedview
     id="namedview7"
     pagecolor="#ffffff"
     bordercolor="#666666"
     borderopacity="1.0"
     inkscape:pageshadow="2"
     inkscape:pageopacity="0.0"
     inkscape:pagecheckerboard="0"
     inkscape:document-units="mm"
     showgrid="false"
     inkscape:zoom="1"
     inkscape:cx="229.5"
     inkscape:cy="207"
     inkscape:window-width="1920"
     inkscape:window-height="1053"
     inkscape:window-x="0"
     inkscape:window-y="0"
     inkscape:window-maximized="1"
     inkscape:current-layer="layer1"
     fit-margin-top="0"
     fit-margin-left="0"
     fit-margin-right="0"
     fit-margin-bottom="0" />
  <defs
     id="defs2">
    <rect
       x="170.49045"
       y="421.97745"
       width="490.70828"
       height="35.169304"
       id="rect8622" />
  </defs>
  <g
     inkscape:label="Layer 1"
     inkscape:groupmode="layer"
     id="layer1"
     transform="translate(-74.6479,-53.493218)">
    <!--! Font Awesome Pro 6.1.1 by @fontawesome - https://fontawesome.com License - https://fontawesome.com/license (Commercial License) Copyright 2022 Fonticons, Inc. -->
    <!--! Font Awesome Pro 6.1.1 by @fontawesome - https://fontawesome.com License - https://fontawesome.com/license (Commercial License) Copyright 2022 Fonticons, Inc. -->
    <!--! Font Awesome Pro 6.1.1 by @fontawesome - https://fontawesome.com License - https://fontawesome.com/license (Commercial License) Copyright 2022 Fonticons, Inc. -->
    <g
       inkscape:label="Layer 1"
       inkscape:groupmode="layer"
       id="layer1-3"
       transform="matrix(1.0431916,0,0,1.0431916,-52.907141,22.275941)" />
    <!--! Font Awesome Pro 6.1.1 by @fontawesome - https://fontawesome.com License - https://fontawesome.com/license (Commercial License) Copyright 2022 Fonticons, Inc. -->
    <!--! Font Awesome Pro 6.1.1 by @fontawesome - https://fontawesome.com License - https://fontawesome.com/license (Commercial License) Copyright 2022 Fonticons, Inc. -->
    <!--! Font Awesome Pro 6.1.1 by @fontawesome - https://fontawesome.com License - https://fontawesome.com/license (Commercial License) Copyright 2022 Fonticons, Inc. -->
    <a
       id="a47480"
       transform="translate(42.95394,9.515944)">
      <g
         id="g47050">
        <g
           id="g46914">
          <path
             id="rect20357"
             style="fill:#5c3f78;stroke:#1e1e1e;stroke-width:0.221196;paint-order:stroke fill markers"
             d="m 33.904608,44.087872 h 61.724536 c 1.163428,0 2.100051,0.936622 2.100051,2.10005 v 12.129235 c 0,1.163428 -0.936623,2.100051 -2.100051,2.100051 H 33.904608 c -1.163428,0 -2.10005,-0.936623 -2.10005,-2.100051 V 46.187922 c 0,-1.163428 0.936622,-2.10005 2.10005,-2.10005 z" />
          <g
             id="g46907"
             transform="translate(-0.84396508,-0.59283887)">
            <g
               aria-label="Fortran Discourse"
               id="text2564"
               style="font-size:6.70278px;line-height:1.25;font-family:Helvetica;-inkscape-font-specification:Helvetica;stroke-width:0.264583">
              <path
                 d="m 45.147565,50.374382 h 3.335026 v 0.589111 H 45.79886 v 1.459688 h 2.359719 v 0.572747 H 45.79886 v 2.186258 h -0.651295 z"
                 style="fill:#ffffff"
                 id="path832" />
              <path
                 d="m 50.492116,54.802536 q 0.585838,0 0.801846,-0.441833 0.21928,-0.445107 0.21928,-0.988398 0,-0.490927 -0.157096,-0.798574 -0.248736,-0.48438 -0.857485,-0.48438 -0.540019,0 -0.785482,0.412378 -0.245463,0.412378 -0.245463,0.994944 0,0.559656 0.245463,0.93276 0.245463,0.373103 0.778937,0.373103 z m 0.02291,-3.227021 q 0.677479,0 1.145495,0.451652 0.468016,0.451652 0.468016,1.328773 0,0.847666 -0.412378,1.400777 -0.412378,0.55311 -1.279681,0.55311 -0.723298,0 -1.148767,-0.487653 -0.42547,-0.490927 -0.42547,-1.315683 0,-0.883667 0.44838,-1.407322 0.448379,-0.523654 1.204405,-0.523654 z m -0.01964,0.01636 z"
                 style="fill:#ffffff"
                 id="path834" />
              <path
                 d="m 52.845289,51.676973 h 0.559656 v 0.605475 q 0.06873,-0.176733 0.337103,-0.428742 0.268373,-0.255282 0.618567,-0.255282 0.01636,0 0.05564,0.0033 0.03927,0.0033 0.134187,0.01309 v 0.62184 q -0.05237,-0.0098 -0.09819,-0.01309 -0.04255,-0.0033 -0.09491,-0.0033 -0.445107,0 -0.684024,0.28801 -0.238917,0.284738 -0.238917,0.657842 v 2.01607 h -0.589112 z"
                 style="fill:#ffffff"
                 id="path836" />
              <path
                 d="m 55.178825,50.698393 h 0.595657 v 0.97858 h 0.559656 v 0.481107 h -0.559656 v 2.287717 q 0,0.183279 0.124368,0.245463 0.06873,0.036 0.229099,0.036 0.04255,0 0.09164,0 0.04909,-0.0033 0.11455,-0.0098 v 0.464743 q -0.101458,0.02946 -0.212735,0.04255 -0.108004,0.01309 -0.235644,0.01309 -0.412379,0 -0.559656,-0.209461 -0.147278,-0.212735 -0.147278,-0.549838 V 52.15808 h -0.474562 v -0.481107 h 0.474562 z"
                 style="fill:#ffffff"
                 id="path838" />
              <path
                 d="m 56.939614,51.676973 h 0.559656 v 0.605475 q 0.06873,-0.176733 0.337103,-0.428742 0.268373,-0.255282 0.618567,-0.255282 0.01636,0 0.05564,0.0033 0.03927,0.0033 0.134187,0.01309 v 0.62184 q -0.05237,-0.0098 -0.09819,-0.01309 -0.04255,-0.0033 -0.09491,-0.0033 -0.445107,0 -0.684024,0.28801 -0.238917,0.284738 -0.238917,0.657842 v 2.01607 h -0.589112 z"
                 style="fill:#ffffff"
                 id="path840" />
              <path
                 d="m 59.60698,54.249426 q 0,0.255282 0.186552,0.40256 0.186552,0.147278 0.441833,0.147278 0.31092,0 0.602203,-0.144005 0.490926,-0.238918 0.490926,-0.78221 v -0.474562 q -0.108003,0.06873 -0.278191,0.11455 -0.170188,0.04582 -0.33383,0.06546 l -0.35674,0.04582 q -0.320738,0.04255 -0.481108,0.134187 -0.271645,0.153824 -0.271645,0.490926 z m 1.426959,-1.191314 q 0.202916,-0.02618 0.271645,-0.170188 0.03927,-0.07855 0.03927,-0.225826 0,-0.301101 -0.216008,-0.435288 -0.212735,-0.137459 -0.612021,-0.137459 -0.461471,0 -0.654569,0.248736 -0.108003,0.137459 -0.140732,0.409105 h -0.549837 q 0.01636,-0.648023 0.418923,-0.900032 0.405833,-0.255281 0.939306,-0.255281 0.618567,0 1.004762,0.235644 0.382923,0.235645 0.382923,0.733117 v 2.019343 q 0,0.09164 0.036,0.147278 0.03927,0.05564 0.160369,0.05564 0.03927,0 0.08837,-0.0033 0.04909,-0.0065 0.104731,-0.01637 v 0.435288 q -0.137459,0.03927 -0.209462,0.04909 -0.072,0.0098 -0.19637,0.0098 -0.304375,0 -0.441834,-0.216007 -0.072,-0.11455 -0.101458,-0.324011 -0.180006,0.235644 -0.517109,0.409105 -0.337103,0.17346 -0.742935,0.17346 -0.487654,0 -0.798573,-0.294555 -0.307648,-0.297829 -0.307648,-0.742935 0,-0.487654 0.304375,-0.756027 0.304374,-0.268373 0.798573,-0.330557 z m -0.487654,-1.466233 z"
                 style="fill:#ffffff"
                 id="path842" />
              <path
                 d="m 62.883094,51.676973 h 0.559655 v 0.497472 q 0.248736,-0.307647 0.526928,-0.441834 0.278191,-0.134187 0.618567,-0.134187 0.746208,0 1.008035,0.520382 0.144005,0.284738 0.144005,0.814938 v 2.248442 h -0.59893 v -2.209168 q 0,-0.320738 -0.09491,-0.517109 -0.157097,-0.327284 -0.569475,-0.327284 -0.209461,0 -0.343648,0.04255 -0.24219,0.072 -0.425469,0.28801 -0.147278,0.17346 -0.193098,0.360012 -0.04255,0.18328 -0.04255,0.526928 v 1.836064 h -0.589111 z m 1.384412,-0.08509 z"
                 style="fill:#ffffff"
                 id="path844" />
              <path
                 d="m 70.397538,54.625803 q 0.330557,0 0.543292,-0.06873 0.379649,-0.12764 0.62184,-0.490926 0.193097,-0.291283 0.278191,-0.746208 0.04909,-0.271646 0.04909,-0.504017 0,-0.893486 -0.35674,-1.387685 -0.353467,-0.494199 -1.142222,-0.494199 h -1.155313 v 3.691765 z m -1.816427,-4.251421 h 1.947341 q 0.991671,0 1.538235,0.703661 0.487654,0.634931 0.487654,1.626602 0,0.765845 -0.28801,1.384412 -0.507291,1.093129 -1.744425,1.093129 h -1.940795 z"
                 style="fill:#ffffff"
                 id="path846" />
              <path
                 d="m 73.313641,51.693337 h 0.59893 v 3.488849 h -0.59893 z m 0,-1.318955 h 0.59893 v 0.667659 h -0.59893 z"
                 style="fill:#ffffff"
                 id="path848" />
              <path
                 d="m 75.152979,54.082511 q 0.02618,0.294556 0.147278,0.451652 0.222553,0.284738 0.77239,0.284738 0.327284,0 0.57602,-0.140732 0.248736,-0.144006 0.248736,-0.441834 0,-0.225826 -0.199643,-0.343648 -0.127641,-0.072 -0.504018,-0.166915 l -0.468016,-0.117823 q -0.448379,-0.111276 -0.661114,-0.248736 -0.37965,-0.238917 -0.37965,-0.661114 0,-0.497472 0.35674,-0.805119 0.360013,-0.307647 0.965488,-0.307647 0.792028,0 1.142222,0.464744 0.21928,0.294555 0.212735,0.634931 h -0.556383 q -0.01636,-0.199643 -0.140732,-0.363286 -0.202917,-0.232371 -0.703661,-0.232371 -0.33383,0 -0.507291,0.127641 -0.170188,0.12764 -0.170188,0.337102 0,0.229099 0.225826,0.366559 0.130914,0.08182 0.386196,0.144005 l 0.389468,0.09491 q 0.634931,0.153824 0.850939,0.297829 0.343648,0.225826 0.343648,0.710206 0,0.468017 -0.35674,0.808392 -0.353467,0.340376 -1.080037,0.340376 -0.78221,0 -1.109494,-0.353467 -0.324011,-0.35674 -0.346921,-0.880395 z m 0.870576,-2.490632 z"
                 style="fill:#ffffff"
                 id="path850" />
              <path
                 d="m 79.505859,51.575515 q 0.592384,0 0.962216,0.28801 0.373103,0.28801 0.448379,0.991671 h -0.572747 q -0.05237,-0.324012 -0.238918,-0.536746 -0.186552,-0.216008 -0.59893,-0.216008 -0.562929,0 -0.805119,0.549838 -0.157096,0.356739 -0.157096,0.880394 0,0.526927 0.222553,0.88694 0.222553,0.360013 0.700388,0.360013 0.366558,0 0.579293,-0.222554 0.216007,-0.225826 0.297829,-0.615294 h 0.572747 q -0.09819,0.697115 -0.490926,1.021127 -0.392741,0.320738 -1.004763,0.320738 -0.687297,0 -1.096402,-0.500745 -0.409105,-0.504017 -0.409105,-1.256771 0,-0.922941 0.448379,-1.436777 0.44838,-0.513836 1.142222,-0.513836 z m -0.09164,0.01636 z"
                 style="fill:#ffffff"
                 id="path852" />
              <path
                 d="m 82.89652,54.802536 q 0.585839,0 0.801846,-0.441833 0.219281,-0.445107 0.219281,-0.988398 0,-0.490927 -0.157097,-0.798574 -0.248736,-0.48438 -0.857484,-0.48438 -0.540019,0 -0.785482,0.412378 -0.245463,0.412378 -0.245463,0.994944 0,0.559656 0.245463,0.93276 0.245463,0.373103 0.778936,0.373103 z m 0.02291,-3.227021 q 0.677478,0 1.145495,0.451652 0.468016,0.451652 0.468016,1.328773 0,0.847666 -0.412378,1.400777 -0.412378,0.55311 -1.279681,0.55311 -0.723298,0 -1.148768,-0.487653 -0.425469,-0.490927 -0.425469,-1.315683 0,-0.883667 0.448379,-1.407322 0.44838,-0.523654 1.204406,-0.523654 z m -0.01964,0.01636 z"
                 style="fill:#ffffff"
                 id="path854" />
              <path
                 d="m 85.822442,51.676973 v 2.32699 q 0,0.268373 0.08509,0.438561 0.157096,0.314193 0.585838,0.314193 0.615295,0 0.837848,-0.549838 0.121095,-0.294555 0.121095,-0.808392 v -1.721514 h 0.589112 v 3.505213 h -0.556384 l 0.0065,-0.517109 q -0.114549,0.199643 -0.284737,0.337103 -0.337103,0.274919 -0.81821,0.274919 -0.749481,0 -1.021127,-0.500745 -0.147278,-0.268373 -0.147278,-0.716753 v -2.382628 z m 0.808392,-0.08509 z"
                 style="fill:#ffffff"
                 id="path856" />
              <path
                 d="m 88.977463,51.676973 h 0.559655 v 0.605475 q 0.06873,-0.176733 0.337103,-0.428742 0.268373,-0.255282 0.618567,-0.255282 0.01636,0 0.05564,0.0033 0.03927,0.0033 0.134186,0.01309 v 0.62184 q -0.05237,-0.0098 -0.09819,-0.01309 -0.04255,-0.0033 -0.09491,-0.0033 -0.445106,0 -0.684023,0.28801 -0.238918,0.284738 -0.238918,0.657842 v 2.01607 h -0.589111 z"
                 style="fill:#ffffff"
                 id="path858" />
              <path
                 d="m 91.543371,54.082511 q 0.02618,0.294556 0.147278,0.451652 0.222553,0.284738 0.77239,0.284738 0.327285,0 0.576021,-0.140732 0.248736,-0.144006 0.248736,-0.441834 0,-0.225826 -0.199644,-0.343648 -0.127641,-0.072 -0.504017,-0.166915 l -0.468017,-0.117823 q -0.448379,-0.111276 -0.661114,-0.248736 -0.379649,-0.238917 -0.379649,-0.661114 0,-0.497472 0.356739,-0.805119 0.360013,-0.307647 0.965489,-0.307647 0.792027,0 1.142221,0.464744 0.219281,0.294555 0.212735,0.634931 h -0.556383 q -0.01636,-0.199643 -0.140732,-0.363286 -0.202916,-0.232371 -0.703661,-0.232371 -0.33383,0 -0.507291,0.127641 -0.170187,0.12764 -0.170187,0.337102 0,0.229099 0.225826,0.366559 0.130913,0.08182 0.386195,0.144005 l 0.389468,0.09491 q 0.634931,0.153824 0.850939,0.297829 0.343648,0.225826 0.343648,0.710206 0,0.468017 -0.356739,0.808392 -0.353467,0.340376 -1.080038,0.340376 -0.782209,0 -1.109493,-0.353467 -0.324012,-0.35674 -0.346922,-0.880395 z m 0.870576,-2.490632 z"
                 style="fill:#ffffff"
                 id="path860" />
              <path
                 d="m 96.004251,51.598424 q 0.373104,0 0.723298,0.176734 0.350194,0.173461 0.533474,0.451652 0.176733,0.2651 0.235644,0.618567 0.05237,0.24219 0.05237,0.772391 h -2.569181 q 0.01636,0.533473 0.252009,0.857484 0.235644,0.320739 0.729843,0.320739 0.461471,0 0.73639,-0.304374 0.157096,-0.176734 0.222553,-0.409106 h 0.579293 q -0.02291,0.193098 -0.153824,0.432015 -0.12764,0.235645 -0.28801,0.386196 -0.268373,0.261827 -0.664387,0.353467 -0.212734,0.05237 -0.481107,0.05237 -0.654569,0 -1.109494,-0.474562 -0.454925,-0.477835 -0.454925,-1.335319 0,-0.844393 0.458198,-1.371321 0.458198,-0.526928 1.19786,-0.526928 z m 0.939306,1.551327 q -0.036,-0.382922 -0.166915,-0.612021 -0.24219,-0.425469 -0.808392,-0.425469 -0.405832,0 -0.680751,0.294555 -0.274919,0.291283 -0.291283,0.742935 z m -0.994944,-1.557872 z"
                 style="fill:#ffffff"
                 id="path862" />
            </g>
            <path
               d="m 38.658728,47.901284 c -2.706035,0 -4.986078,2.174097 -4.986078,4.858056 0,0.08608 0.0022,5.030223 0.0022,5.030223 l 4.98387,-0.0045 c 2.708241,0 4.902204,-2.257974 4.902204,-4.941937 0,-2.683959 -2.193963,-4.941932 -4.902204,-4.941932 z m -0.04194,7.769362 c -0.428198,0 -0.836531,-0.09491 -1.200719,-0.267071 l -1.790044,0.443645 0.50545,-1.655404 c -0.216307,-0.3995 -0.33991,-0.858602 -0.33991,-1.346395 0,-1.560491 1.264729,-2.825221 2.825223,-2.825221 1.560495,0 2.825224,1.26473 2.825224,2.825221 0,1.560496 -1.264729,2.825225 -2.825224,2.825225 z"
               id="path20326"
               style="fill:#ffffff;stroke-width:0.0220721" />
          </g>
        </g>
      </g>
    </a>
  </g>
</svg>
