<?xml version="1.0" encoding="UTF-8" standalone="no"?>
<!-- Created with Inkscape (http://www.inkscape.org/) -->

<svg
   width="60.854164mm"
   height="16.542847mm"
   viewBox="0 0 60.854164 16.542847"
   version="1.1"
   id="svg5"
   inkscape:version="1.2 (dc2aedaf03, 2022-05-15)"
   sodipodi:docname="readme.github.svg"
   xmlns:inkscape="http://www.inkscape.org/namespaces/inkscape"
   xmlns:sodipodi="http://sodipodi.sourceforge.net/DTD/sodipodi-0.dtd"
   xmlns="http://www.w3.org/2000/svg"
   xmlns:svg="http://www.w3.org/2000/svg">
  <sodipodi:namedview
     id="namedview7"
     pagecolor="#ffffff"
     bordercolor="#666666"
     borderopacity="1.0"
     inkscape:pageshadow="2"
     inkscape:pageopacity="0.0"
     inkscape:pagecheckerboard="0"
     inkscape:document-units="mm"
     showgrid="false"
     inkscape:zoom="1.2379223"
     inkscape:cx="123.19028"
     inkscape:cy="51.295627"
     inkscape:window-width="1920"
     inkscape:window-height="1023"
     inkscape:window-x="0"
     inkscape:window-y="0"
     inkscape:window-maximized="1"
     inkscape:current-layer="layer1"
     fit-margin-top="0"
     fit-margin-left="0"
     fit-margin-right="0"
     fit-margin-bottom="0"
     inkscape:showpageshadow="0"
     inkscape:deskcolor="#d1d1d1" />
  <defs
     id="defs2">
    <rect
       x="170.49045"
       y="421.97745"
       width="490.70828"
       height="35.169304"
       id="rect8622" />
  </defs>
  <g
     inkscape:label="Layer 1"
     inkscape:groupmode="layer"
     id="layer1"
     transform="translate(-129.4984,-75.910701)">
    <!--! Font Awesome Pro 6.1.1 by @fontawesome - https://fontawesome.com License - https://fontawesome.com/license (Commercial License) Copyright 2022 Fonticons, Inc. -->
    <!--! Font Awesome Pro 6.1.1 by @fontawesome - https://fontawesome.com License - https://fontawesome.com/license (Commercial License) Copyright 2022 Fonticons, Inc. -->
    <!--! Font Awesome Pro 6.1.1 by @fontawesome - https://fontawesome.com License - https://fontawesome.com/license (Commercial License) Copyright 2022 Fonticons, Inc. -->
    <g
       inkscape:label="Layer 1"
       inkscape:groupmode="layer"
       id="layer1-3"
       transform="matrix(1.0431916,0,0,1.0431916,-52.907141,22.275941)" />
    <!--! Font Awesome Pro 6.1.1 by @fontawesome - https://fontawesome.com License - https://fontawesome.com/license (Commercial License) Copyright 2022 Fonticons, Inc. -->
    <!--! Font Awesome Pro 6.1.1 by @fontawesome - https://fontawesome.com License - https://fontawesome.com/license (Commercial License) Copyright 2022 Fonticons, Inc. -->
    <!--! Font Awesome Pro 6.1.1 by @fontawesome - https://fontawesome.com License - https://fontawesome.com/license (Commercial License) Copyright 2022 Fonticons, Inc. -->
    <g
       id="readme.github"
       transform="translate(97.804437,8.8878731)"
       inkscape:label="github">
      <g
         id="g38368">
        <path
           id="rect26912"
           style="fill:#5c3f78;stroke:#1e1e1e;stroke-width:0.212157;paint-order:stroke fill markers"
           d="m 33.900264,67.128906 h 56.441557 c 1.163524,0 2.100224,0.9367 2.100224,2.100225 V 81.35937 c 0,1.163525 -0.9367,2.100225 -2.100224,2.100225 H 33.900264 c -1.163525,0 -2.100225,-0.9367 -2.100225,-2.100225 V 69.229131 c 0,-1.163525 0.9367,-2.100225 2.100225,-2.100225 z" />
        <g
           id="g37984"
           transform="translate(-0.27662621,-0.00304751)">
          <g
             aria-label="Ask a Question"
             id="text16482"
             style="font-size:5.99722px;line-height:1.25;font-family:Helvetica;-inkscape-font-specification:Helvetica;stroke-width:0.264583">
            <path
               d="m 51.107293,75.692452 -0.653018,-1.900486 -0.694014,1.900486 z M 50.149729,73.15359 h 0.658874 l 1.5608,4.301717 h -0.638376 l -0.436321,-1.288465 h -1.70136 l -0.465604,1.288465 h -0.59738 z m 0.301618,0 z"
               style="fill:#ffffff"
               id="path1317" />
            <path
               d="m 53.142482,76.471388 q 0.02343,0.26355 0.131775,0.40411 0.199126,0.254764 0.691086,0.254764 0.292833,0 0.515386,-0.125918 0.222553,-0.128846 0.222553,-0.395324 0,-0.202055 -0.178628,-0.307475 -0.114205,-0.06442 -0.450963,-0.149345 L 53.65494,76.04678 q -0.401181,-0.09956 -0.591523,-0.222553 -0.339686,-0.213768 -0.339686,-0.591523 0,-0.445106 0.319188,-0.720369 0.322116,-0.275263 0.863857,-0.275263 0.708656,0 1.021987,0.415823 0.196199,0.26355 0.190342,0.568096 h -0.497816 q -0.01464,-0.178628 -0.125918,-0.325044 -0.181557,-0.207912 -0.629591,-0.207912 -0.29869,0 -0.453892,0.114205 -0.152273,0.114205 -0.152273,0.301618 0,0.204983 0.202055,0.327973 0.117133,0.07321 0.345543,0.128846 l 0.348471,0.08492 q 0.568096,0.137632 0.761366,0.266478 0.307475,0.202055 0.307475,0.635448 0,0.418751 -0.319188,0.723297 -0.31626,0.304547 -0.966349,0.304547 -0.699871,0 -0.992704,-0.31626 -0.289905,-0.319188 -0.310403,-0.787721 z m 0.778936,-2.228459 z"
               style="fill:#ffffff"
               id="path1319" />
            <path
               d="m 55.816047,73.15359 h 0.506602 v 2.497866 l 1.352888,-1.332391 h 0.673516 l -1.200615,1.174261 1.267967,1.961981 h -0.673516 l -0.978063,-1.581298 -0.442177,0.404109 v 1.177189 h -0.506602 z"
               style="fill:#ffffff"
               id="path1321" />
            <path
               d="m 60.896701,76.620733 q 0,0.22841 0.166914,0.360185 0.166915,0.131774 0.395325,0.131774 0.278191,0 0.538813,-0.128846 0.439249,-0.213768 0.439249,-0.699871 v -0.424608 q -0.09663,0.06149 -0.248908,0.102492 -0.152273,0.041 -0.29869,0.05857 l -0.319188,0.041 q -0.286976,0.03807 -0.430464,0.120061 -0.243051,0.137632 -0.243051,0.43925 z m 1.276751,-1.065912 q 0.181557,-0.02343 0.243052,-0.152273 0.03514,-0.07028 0.03514,-0.202055 0,-0.269407 -0.19327,-0.389468 -0.190341,-0.12299 -0.547598,-0.12299 -0.412894,0 -0.585666,0.222553 -0.09663,0.12299 -0.125918,0.366041 h -0.491959 q 0.01464,-0.579809 0.374826,-0.80529 0.363113,-0.22841 0.840431,-0.22841 0.553454,0 0.898997,0.21084 0.342615,0.210839 0.342615,0.655946 v 1.806779 q 0,0.08199 0.03221,0.131775 0.03514,0.04978 0.143488,0.04978 0.03514,0 0.07906,-0.0029 0.04393,-0.0059 0.09371,-0.01464 v 0.389468 q -0.12299,0.03514 -0.187413,0.04393 -0.06442,0.0088 -0.1757,0.0088 -0.272335,0 -0.395325,-0.19327 -0.06442,-0.102492 -0.09078,-0.289905 -0.161058,0.21084 -0.462676,0.366041 -0.301618,0.155202 -0.664731,0.155202 -0.436321,0 -0.714512,-0.26355 -0.275263,-0.266478 -0.275263,-0.664731 0,-0.436321 0.272334,-0.676444 0.272335,-0.240123 0.714513,-0.295761 z m -0.436321,-1.311892 z"
               style="fill:#ffffff"
               id="path1323" />
            <path
               d="m 69.500134,77.443594 -0.292833,0.354328 -0.66473,-0.506601 q -0.240124,0.131774 -0.521243,0.210839 -0.278192,0.07906 -0.609093,0.07906 -1.001489,0 -1.569585,-0.655946 -0.500744,-0.638376 -0.500744,-1.598868 0,-0.872642 0.433393,-1.493448 0.556382,-0.796506 1.645721,-0.796506 1.13912,0 1.686718,0.732082 0.427536,0.571025 0.427536,1.461237 0,0.415823 -0.102491,0.799434 -0.155202,0.585666 -0.524171,0.954636 z m -2.017619,-0.383612 q 0.181556,0 0.339686,-0.02343 0.15813,-0.02636 0.275263,-0.09956 l -0.471461,-0.36897 0.292833,-0.360185 0.56224,0.436322 q 0.266478,-0.304547 0.360184,-0.682301 0.09663,-0.377755 0.09663,-0.723298 0,-0.758437 -0.398253,-1.221114 -0.395324,-0.462676 -1.083482,-0.462676 -0.696943,0 -1.10398,0.445106 -0.407038,0.442178 -0.407038,1.364602 0,0.776008 0.389468,1.235756 0.392396,0.459747 1.147905,0.459747 z"
               style="fill:#ffffff"
               id="path1325" />
            <path
               d="m 70.686108,74.319065 v 2.082043 q 0,0.240123 0.07614,0.392396 0.14056,0.28112 0.524171,0.28112 0.550526,0 0.749653,-0.491959 0.108348,-0.26355 0.108348,-0.723298 v -1.540302 h 0.527099 v 3.136242 h -0.497816 l 0.0059,-0.462676 q -0.102492,0.178628 -0.254765,0.301618 -0.301618,0.24598 -0.732082,0.24598 -0.670588,0 -0.913639,-0.448035 -0.131775,-0.240123 -0.131775,-0.641304 v -2.131825 z m 0.723297,-0.07614 z"
               style="fill:#ffffff"
               id="path1327" />
            <path
               d="m 74.800411,74.248786 q 0.333829,0 0.647161,0.158129 0.313331,0.155202 0.477317,0.40411 0.15813,0.237195 0.21084,0.553454 0.04685,0.216697 0.04685,0.691086 H 73.88384 q 0.01464,0.477318 0.225482,0.767223 0.210839,0.286976 0.653017,0.286976 0.412895,0 0.658875,-0.272335 0.140559,-0.158129 0.199126,-0.366041 h 0.518314 q -0.0205,0.172772 -0.137631,0.38654 -0.114205,0.210839 -0.257693,0.345543 -0.240123,0.234266 -0.594451,0.316259 -0.190342,0.04685 -0.430465,0.04685 -0.585666,0 -0.992704,-0.424608 -0.407037,-0.427537 -0.407037,-1.194759 0,-0.755509 0.409966,-1.22697 0.409966,-0.471461 1.071769,-0.471461 z m 0.84043,1.388028 q -0.03221,-0.342615 -0.149345,-0.547598 -0.216696,-0.380683 -0.723297,-0.380683 -0.363113,0 -0.609093,0.26355 -0.245979,0.260621 -0.260621,0.664731 z m -0.890212,-1.393885 z"
               style="fill:#ffffff"
               id="path1329" />
            <path
               d="m 77.143076,76.471388 q 0.02343,0.26355 0.131775,0.40411 0.199126,0.254764 0.691086,0.254764 0.292833,0 0.515386,-0.125918 0.222553,-0.128846 0.222553,-0.395324 0,-0.202055 -0.178628,-0.307475 -0.114205,-0.06442 -0.450963,-0.149345 l -0.418751,-0.10542 q -0.401182,-0.09956 -0.591523,-0.222553 -0.339686,-0.213768 -0.339686,-0.591523 0,-0.445106 0.319188,-0.720369 0.322116,-0.275263 0.863857,-0.275263 0.708656,0 1.021987,0.415823 0.196198,0.26355 0.190342,0.568096 h -0.497817 q -0.01464,-0.178628 -0.125918,-0.325044 -0.181556,-0.207912 -0.629591,-0.207912 -0.298689,0 -0.453891,0.114205 -0.152273,0.114205 -0.152273,0.301618 0,0.204983 0.202055,0.327973 0.117133,0.07321 0.345543,0.128846 l 0.348471,0.08492 q 0.568096,0.137632 0.761366,0.266478 0.307474,0.202055 0.307474,0.635448 0,0.418751 -0.319188,0.723297 -0.316259,0.304547 -0.966348,0.304547 -0.699871,0 -0.992704,-0.31626 -0.289905,-0.319188 -0.310403,-0.787721 z m 0.778936,-2.228459 z"
               style="fill:#ffffff"
               id="path1331" />
            <path
               d="m 79.933774,73.443495 h 0.532956 v 0.87557 h 0.500744 V 74.74953 H 80.46673 v 2.046903 q 0,0.163986 0.111277,0.219624 0.06149,0.03221 0.204983,0.03221 0.03807,0 0.08199,0 0.04393,-0.0029 0.102491,-0.0088 v 0.415823 q -0.09078,0.02635 -0.190341,0.03807 -0.09664,0.01171 -0.21084,0.01171 -0.368969,0 -0.500744,-0.187414 -0.131775,-0.190341 -0.131775,-0.491959 V 74.74953 h -0.424608 v -0.430465 h 0.424608 z"
               style="fill:#ffffff"
               id="path1333" />
            <path
               d="m 81.494576,74.333707 h 0.535884 v 3.1216 h -0.535884 z m 0,-1.180117 h 0.535884 v 0.597379 h -0.535884 z"
               style="fill:#ffffff"
               id="path1335" />
            <path
               d="m 84.071506,77.115621 q 0.524171,0 0.717441,-0.395325 0.196198,-0.398253 0.196198,-0.884356 0,-0.439249 -0.14056,-0.714512 -0.222553,-0.433393 -0.767223,-0.433393 -0.483174,0 -0.702799,0.36897 -0.219625,0.368969 -0.219625,0.890212 0,0.500744 0.219625,0.834574 0.219625,0.33383 0.696943,0.33383 z m 0.0205,-2.887334 q 0.606164,0 1.024916,0.40411 0.418751,0.404109 0.418751,1.188902 0,0.758437 -0.36897,1.253325 -0.368969,0.494888 -1.144977,0.494888 -0.647161,0 -1.027844,-0.436321 -0.380683,-0.43925 -0.380683,-1.177189 0,-0.790649 0.401182,-1.259182 0.401181,-0.468533 1.077625,-0.468533 z m -0.01757,0.01464 z"
               style="fill:#ffffff"
               id="path1337" />
            <path
               d="m 86.162331,74.319065 h 0.500744 v 0.445107 q 0.222553,-0.275263 0.471461,-0.395325 0.248908,-0.120061 0.553455,-0.120061 0.667659,0 0.901925,0.465604 0.128847,0.254765 0.128847,0.729154 v 2.011763 h -0.535884 v -1.976623 q 0,-0.286976 -0.08492,-0.462676 -0.14056,-0.292833 -0.50953,-0.292833 -0.187413,0 -0.307474,0.03807 -0.216697,0.06442 -0.380683,0.257693 -0.131775,0.155202 -0.172772,0.322117 -0.03807,0.163986 -0.03807,0.471461 v 1.642793 h -0.527099 z m 1.238683,-0.07614 z"
               style="fill:#ffffff"
               id="path1339" />
          </g>
          <path
             d="m 39.602044,78.433731 c 0,0.0424 -0.04888,0.0765 -0.110504,0.0765 -0.07013,0.006 -0.119002,-0.0277 -0.119002,-0.0765 0,-0.0425 0.04888,-0.0765 0.110502,-0.0765 0.06376,-0.006 0.119004,0.0277 0.119004,0.0765 z m -0.660894,-0.0956 c -0.01487,0.0425 0.02762,0.0914 0.09138,0.10413 0.05525,0.0213 0.119003,0 0.131753,-0.0425 0.01275,-0.0424 -0.02762,-0.0914 -0.09138,-0.11049 -0.05525,-0.0149 -0.116877,0.006 -0.131753,0.0489 z m 0.939276,-0.0361 c -0.06163,0.0149 -0.104128,0.0553 -0.09775,0.10412 0.0064,0.0425 0.06163,0.0701 0.125379,0.0553 0.06163,-0.0149 0.104127,-0.0553 0.09775,-0.0978 -0.0064,-0.0403 -0.06376,-0.068 -0.125378,-0.0616 z m 1.398286,-8.143179 c -2.947453,0 -5.202138,2.237681 -5.202138,5.185127 0,2.356665 1.483289,4.373326 3.601972,5.0831 0.272006,0.0489 0.367634,-0.119 0.367634,-0.257137 0,-0.13175 -0.0064,-0.858507 -0.0064,-1.304774 0,0 -1.48754,0.31876 -1.799923,-0.633257 0,0 -0.242257,-0.618393 -0.590767,-0.777773 0,0 -0.486638,-0.33363 0.034,-0.327251 0,0 0.52914,0.0424 0.820273,0.548258 0.465387,0.820267 1.245282,0.584387 1.549166,0.44413 0.04888,-0.34 0.187005,-0.575878 0.340009,-0.716127 -1.187907,-0.13176 -2.386439,-0.303887 -2.386439,-2.348179 0,-0.584384 0.161504,-0.877654 0.501514,-1.25166 -0.05525,-0.13812 -0.235882,-0.707628 0.05525,-1.442898 0.444136,-0.138127 1.466289,0.573761 1.466289,0.573761 0.425011,-0.118996 0.881898,-0.180625 1.334536,-0.180625 0.452637,0 0.909524,0.06161 1.334536,0.180625 0,0 1.022152,-0.714017 1.46629,-0.57376 0.291131,0.73739 0.110502,1.304777 0.05525,1.442897 0.34001,0.376147 0.548265,0.669407 0.548265,1.251661 0,2.050671 -1.251659,2.214288 -2.439565,2.348178 0.195505,0.16787 0.361259,0.486637 0.361259,0.986024 0,0.716137 -0.0064,1.602271 -0.0064,1.776531 0,0.138127 0.09775,0.306007 0.367634,0.257127 2.125057,-0.705524 3.565845,-2.722185 3.565845,-5.07885 0,-2.947446 -2.390688,-5.185127 -5.338141,-5.185127 z m -3.136584,7.329266 c -0.02762,0.0213 -0.02125,0.0701 0.01487,0.11051 0.034,0.034 0.08287,0.0489 0.110502,0.0212 0.02762,-0.0212 0.02125,-0.0701 -0.01487,-0.110501 -0.034,-0.034 -0.08288,-0.0489 -0.110504,-0.0213 z m -0.229505,-0.172121 c -0.01488,0.0277 0.0064,0.0616 0.04888,0.0829 0.034,0.0213 0.0765,0.0149 0.09138,-0.0149 0.01487,-0.0276 -0.0064,-0.0616 -0.04888,-0.0829 -0.04251,-0.0128 -0.0765,-0.006 -0.09138,0.0149 z m 0.688519,0.756517 c -0.03401,0.0276 -0.02125,0.0914 0.02762,0.131748 0.04888,0.0489 0.110503,0.0553 0.138129,0.0213 0.02762,-0.0276 0.01488,-0.0914 -0.02762,-0.131747 -0.04675,-0.0489 -0.110503,-0.0553 -0.138129,-0.0213 z m -0.242257,-0.312389 c -0.03401,0.0213 -0.03401,0.0765 0,0.12538 0.034,0.0489 0.09138,0.0701 0.119003,0.0489 0.03401,-0.0276 0.03401,-0.0829 0,-0.13176 -0.02976,-0.0489 -0.085,-0.0701 -0.119003,-0.0425 z"
             id="path23051"
             style="fill:#ffffff;stroke-width:0.0212506" />
        </g>
      </g>
    </g>
  </g>
</svg>
