<?xml version="1.0" encoding="UTF-8" standalone="no"?>
<!-- Created with Inkscape (http://www.inkscape.org/) -->

<svg
   width="60.854168mm"
   height="16.546577mm"
   viewBox="0 0 60.854168 16.546578"
   version="1.1"
   id="svg5"
   inkscape:version="1.2 (dc2aedaf03, 2022-05-15)"
   sodipodi:docname="readme.discourse.svg"
   xmlns:inkscape="http://www.inkscape.org/namespaces/inkscape"
   xmlns:sodipodi="http://sodipodi.sourceforge.net/DTD/sodipodi-0.dtd"
   xmlns="http://www.w3.org/2000/svg"
   xmlns:svg="http://www.w3.org/2000/svg">
  <sodipodi:namedview
     id="namedview7"
     pagecolor="#ffffff"
     bordercolor="#666666"
     borderopacity="1.0"
     inkscape:pageshadow="2"
     inkscape:pageopacity="0.0"
     inkscape:pagecheckerboard="0"
     inkscape:document-units="mm"
     showgrid="false"
     inkscape:zoom="1"
     inkscape:cx="137.5"
     inkscape:cy="203.5"
     inkscape:window-width="1920"
     inkscape:window-height="1023"
     inkscape:window-x="0"
     inkscape:window-y="0"
     inkscape:window-maximized="1"
     inkscape:current-layer="layer1"
     fit-margin-top="0"
     fit-margin-left="0"
     fit-margin-right="0"
     fit-margin-bottom="0"
     inkscape:showpageshadow="0"
     inkscape:deskcolor="#d1d1d1" />
  <defs
     id="defs2">
    <rect
       x="170.49045"
       y="421.97745"
       width="490.70828"
       height="35.169304"
       id="rect8622" />
  </defs>
  <g
     inkscape:label="Layer 1"
     inkscape:groupmode="layer"
     id="layer1"
     transform="translate(-68.044852,-54.700041)">
    <!--! Font Awesome Pro 6.1.1 by @fontawesome - https://fontawesome.com License - https://fontawesome.com/license (Commercial License) Copyright 2022 Fonticons, Inc. -->
    <!--! Font Awesome Pro 6.1.1 by @fontawesome - https://fontawesome.com License - https://fontawesome.com/license (Commercial License) Copyright 2022 Fonticons, Inc. -->
    <!--! Font Awesome Pro 6.1.1 by @fontawesome - https://fontawesome.com License - https://fontawesome.com/license (Commercial License) Copyright 2022 Fonticons, Inc. -->
    <g
       inkscape:label="Layer 1"
       inkscape:groupmode="layer"
       id="layer1-3"
       transform="matrix(1.0431916,0,0,1.0431916,-52.907141,22.275941)" />
    <!--! Font Awesome Pro 6.1.1 by @fontawesome - https://fontawesome.com License - https://fontawesome.com/license (Commercial License) Copyright 2022 Fonticons, Inc. -->
    <!--! Font Awesome Pro 6.1.1 by @fontawesome - https://fontawesome.com License - https://fontawesome.com/license (Commercial License) Copyright 2022 Fonticons, Inc. -->
    <!--! Font Awesome Pro 6.1.1 by @fontawesome - https://fontawesome.com License - https://fontawesome.com/license (Commercial License) Copyright 2022 Fonticons, Inc. -->
    <g
       id="readme.discourse"
       inkscape:label="discourse"
       style="display:inline"
       transform="translate(36.350894,10.722769)">
      <path
         id="rect20357"
         style="fill:#5c3f78;stroke:#1e1e1e;stroke-width:0.212181;paint-order:stroke fill markers"
         d="m 33.90075,44.083363 h 56.440585 c 1.163788,0 2.100701,0.936912 2.100701,2.100701 v 12.132994 c 0,1.163788 -0.936913,2.100701 -2.100701,2.100701 H 33.90075 c -1.163788,0 -2.100701,-0.936913 -2.100701,-2.100701 V 46.184064 c 0,-1.163789 0.936913,-2.100701 2.100701,-2.100701 z" />
      <g
         id="g38760"
         transform="translate(-0.30393595,-0.12496874)">
        <g
           aria-label="Fortran Discourse"
           id="text2564"
           style="font-size:5.99722px;line-height:1.25;font-family:Helvetica;-inkscape-font-specification:Helvetica;stroke-width:0.264583">
          <path
             d="m 44.314464,50.287631 h 2.983968 v 0.527099 h -2.401231 v 1.306036 h 2.111326 v 0.512457 h -2.111326 v 1.956125 h -0.582737 z"
             style="fill:#ffffff"
             id="path1019" />
          <path
             d="m 49.096427,54.249662 q 0.524171,0 0.717441,-0.395325 0.196198,-0.398253 0.196198,-0.884356 0,-0.439249 -0.14056,-0.714512 -0.222553,-0.433393 -0.767223,-0.433393 -0.483174,0 -0.702799,0.368969 -0.219625,0.36897 -0.219625,0.890213 0,0.500744 0.219625,0.834574 0.219625,0.33383 0.696943,0.33383 z m 0.0205,-2.887334 q 0.606164,0 1.024916,0.40411 0.418751,0.404109 0.418751,1.188902 0,0.758437 -0.36897,1.253325 -0.368969,0.494888 -1.144977,0.494888 -0.647161,0 -1.027844,-0.436321 -0.380683,-0.43925 -0.380683,-1.177189 0,-0.790649 0.401182,-1.259182 0.401181,-0.468533 1.077625,-0.468533 z m -0.01757,0.01464 z"
             style="fill:#ffffff"
             id="path1021" />
          <path
             d="m 51.201896,51.453106 h 0.500744 v 0.541741 q 0.0615,-0.158129 0.301618,-0.383611 0.240123,-0.22841 0.553455,-0.22841 0.01464,0 0.04978,0.0029 0.03514,0.0029 0.120062,0.01171 v 0.556383 q -0.04685,-0.0088 -0.08785,-0.01171 -0.03807,-0.0029 -0.08492,-0.0029 -0.398253,0 -0.612021,0.257693 -0.213768,0.254765 -0.213768,0.588594 v 1.803852 h -0.527099 z"
             style="fill:#ffffff"
             id="path1023" />
          <path
             d="m 53.289796,50.577536 h 0.532956 v 0.87557 h 0.500744 v 0.430465 h -0.500744 v 2.046903 q 0,0.163986 0.111276,0.219624 0.0615,0.03221 0.204983,0.03221 0.03807,0 0.08199,0 0.04393,-0.0029 0.102491,-0.0088 v 0.415823 q -0.09078,0.02636 -0.190341,0.03807 -0.09663,0.01171 -0.21084,0.01171 -0.36897,0 -0.500744,-0.187413 -0.131775,-0.190341 -0.131775,-0.491959 v -2.076186 h -0.424608 v -0.430465 h 0.424608 z"
             style="fill:#ffffff"
             id="path1025" />
          <path
             d="m 54.865237,51.453106 h 0.500745 v 0.541741 q 0.0615,-0.158129 0.301618,-0.383611 0.240123,-0.22841 0.553454,-0.22841 0.01464,0 0.04978,0.0029 0.03514,0.0029 0.120061,0.01171 v 0.556383 q -0.04685,-0.0088 -0.08785,-0.01171 -0.03807,-0.0029 -0.08492,-0.0029 -0.398253,0 -0.612021,0.257693 -0.213768,0.254765 -0.213768,0.588594 v 1.803852 h -0.5271 z"
             style="fill:#ffffff"
             id="path1027" />
          <path
             d="m 57.251826,53.754774 q 0,0.22841 0.166915,0.360184 0.166915,0.131775 0.395324,0.131775 0.278192,0 0.538813,-0.128846 0.43925,-0.213768 0.43925,-0.699871 v -0.424608 q -0.09663,0.0615 -0.248908,0.102491 -0.152274,0.041 -0.29869,0.05857 l -0.319188,0.041 q -0.286976,0.03807 -0.430465,0.120061 -0.243051,0.137632 -0.243051,0.43925 z m 1.276752,-1.065912 q 0.181556,-0.02343 0.243051,-0.152274 0.03514,-0.07028 0.03514,-0.202054 0,-0.269407 -0.19327,-0.389468 -0.190341,-0.12299 -0.547597,-0.12299 -0.412895,0 -0.585666,0.222553 -0.09663,0.12299 -0.125918,0.366041 h -0.49196 q 0.01464,-0.579809 0.374826,-0.805291 0.363113,-0.228409 0.840431,-0.228409 0.553454,0 0.898997,0.210839 0.342615,0.21084 0.342615,0.655946 v 1.80678 q 0,0.08199 0.03221,0.131775 0.03514,0.04978 0.143488,0.04978 0.03514,0 0.07906,-0.0029 0.04393,-0.0059 0.09371,-0.01464 v 0.389467 q -0.12299,0.03514 -0.187413,0.04393 -0.06442,0.0088 -0.1757,0.0088 -0.272334,0 -0.395324,-0.193269 -0.06442,-0.102492 -0.09078,-0.289905 -0.161059,0.21084 -0.462677,0.366041 -0.301618,0.155202 -0.66473,0.155202 -0.436322,0 -0.714513,-0.26355 Q 56.7013,54.16474 56.7013,53.766487 q 0,-0.436321 0.272335,-0.676444 0.272334,-0.240123 0.714512,-0.295762 z M 58.092257,51.37697 Z"
             style="fill:#ffffff"
             id="path1029" />
          <path
             d="m 60.183085,51.453106 h 0.500744 v 0.445106 q 0.222553,-0.275263 0.471461,-0.395324 0.248908,-0.120062 0.553455,-0.120062 0.667659,0 0.901925,0.465605 0.128847,0.254765 0.128847,0.729154 v 2.011763 h -0.535885 v -1.976623 q 0,-0.286976 -0.08492,-0.462676 -0.14056,-0.292833 -0.50953,-0.292833 -0.187413,0 -0.307474,0.03807 -0.216697,0.06442 -0.380683,0.257693 -0.131775,0.155202 -0.172772,0.322117 -0.03807,0.163986 -0.03807,0.471461 v 1.642793 h -0.527099 z m 1.238683,-0.07614 z"
             style="fill:#ffffff"
             id="path1031" />
          <path
             d="m 66.90653,54.091532 q 0.295761,0 0.486102,-0.0615 0.339687,-0.114205 0.556383,-0.43925 0.172772,-0.260621 0.248908,-0.667659 0.04393,-0.243051 0.04393,-0.450963 0,-0.799434 -0.319188,-1.241612 -0.316259,-0.442178 -1.021987,-0.442178 h -1.033701 v 3.303157 z m -1.625224,-3.803901 h 1.742357 q 0.887284,0 1.376315,0.629591 0.436321,0.568096 0.436321,1.45538 0,0.685229 -0.257693,1.238684 -0.453891,0.978062 -1.5608,0.978062 h -1.7365 z"
             style="fill:#ffffff"
             id="path1033" />
          <path
             d="m 69.515673,51.467748 h 0.535884 v 3.1216 h -0.535884 z m 0,-1.180117 h 0.535884 v 0.597379 h -0.535884 z"
             style="fill:#ffffff"
             id="path1035" />
          <path
             d="m 71.161394,53.605429 q 0.02343,0.26355 0.131775,0.404109 0.199126,0.254765 0.691086,0.254765 0.292833,0 0.515386,-0.125918 0.222553,-0.128847 0.222553,-0.395325 0,-0.202054 -0.178628,-0.307474 -0.114205,-0.06442 -0.450963,-0.149345 l -0.418751,-0.10542 q -0.401182,-0.09956 -0.591523,-0.222553 -0.339686,-0.213768 -0.339686,-0.591523 0,-0.445106 0.319188,-0.720369 0.322116,-0.275263 0.863857,-0.275263 0.708656,0 1.021987,0.415823 0.196198,0.26355 0.190342,0.568096 h -0.497816 q -0.01464,-0.178628 -0.125919,-0.325045 -0.181556,-0.207911 -0.629591,-0.207911 -0.298689,0 -0.453891,0.114205 -0.152273,0.114205 -0.152273,0.301618 0,0.204983 0.202055,0.327973 0.117133,0.07321 0.345543,0.128846 l 0.348471,0.08492 q 0.568096,0.137631 0.761366,0.266478 0.307475,0.202055 0.307475,0.635448 0,0.418751 -0.319188,0.723297 -0.31626,0.304546 -0.966349,0.304546 -0.699871,0 -0.992704,-0.316259 -0.289905,-0.319188 -0.310403,-0.787721 z M 71.94033,51.37697 Z"
             style="fill:#ffffff"
             id="path1037" />
          <path
             d="m 75.056073,51.362328 q 0.530027,0 0.860929,0.257693 0.333829,0.257693 0.401181,0.887284 h -0.512458 q -0.04685,-0.289905 -0.213768,-0.480246 -0.166915,-0.19327 -0.535884,-0.19327 -0.503673,0 -0.72037,0.49196 -0.14056,0.319188 -0.14056,0.78772 0,0.471462 0.199127,0.793578 0.199126,0.322116 0.626663,0.322116 0.327973,0 0.518314,-0.199126 0.19327,-0.202055 0.266478,-0.550526 h 0.512458 q -0.08785,0.623734 -0.43925,0.913639 -0.351399,0.286976 -0.898997,0.286976 -0.614949,0 -0.980991,-0.448034 -0.366041,-0.450963 -0.366041,-1.124479 0,-0.825789 0.401181,-1.285537 0.401182,-0.459748 1.021988,-0.459748 z m -0.08199,0.01464 z"
             style="fill:#ffffff"
             id="path1039" />
          <path
             d="m 78.089824,54.249662 q 0.524171,0 0.717441,-0.395325 0.196198,-0.398253 0.196198,-0.884356 0,-0.439249 -0.14056,-0.714512 -0.222553,-0.433393 -0.767222,-0.433393 -0.483175,0 -0.7028,0.368969 -0.219624,0.36897 -0.219624,0.890213 0,0.500744 0.219624,0.834574 0.219625,0.33383 0.696943,0.33383 z m 0.0205,-2.887334 q 0.606165,0 1.024916,0.40411 0.418751,0.404109 0.418751,1.188902 0,0.758437 -0.36897,1.253325 -0.368969,0.494888 -1.144977,0.494888 -0.647161,0 -1.027844,-0.436321 -0.380682,-0.43925 -0.380682,-1.177189 0,-0.790649 0.401181,-1.259182 0.401181,-0.468533 1.077625,-0.468533 z m -0.01757,0.01464 z"
             style="fill:#ffffff"
             id="path1041" />
          <path
             d="m 80.707748,51.453106 v 2.082043 q 0,0.240123 0.07614,0.392396 0.14056,0.28112 0.524171,0.28112 0.550526,0 0.749653,-0.49196 0.108348,-0.263549 0.108348,-0.723297 v -1.540302 h 0.527099 v 3.136242 H 82.19534 l 0.0059,-0.462676 q -0.102492,0.178628 -0.254765,0.301618 -0.301618,0.245979 -0.732083,0.245979 -0.670587,0 -0.913639,-0.448034 -0.131774,-0.240123 -0.131774,-0.641304 v -2.131825 z m 0.723298,-0.07614 z"
             style="fill:#ffffff"
             id="path1043" />
          <path
             d="m 83.53066,51.453106 h 0.500744 v 0.541741 q 0.0615,-0.158129 0.301618,-0.383611 0.240123,-0.22841 0.553455,-0.22841 0.01464,0 0.04978,0.0029 0.03514,0.0029 0.120062,0.01171 v 0.556383 q -0.04685,-0.0088 -0.08785,-0.01171 -0.03807,-0.0029 -0.08492,-0.0029 -0.398253,0 -0.612021,0.257693 -0.213768,0.254765 -0.213768,0.588594 v 1.803852 h -0.5271 z"
             style="fill:#ffffff"
             id="path1045" />
          <path
             d="m 85.826469,53.605429 q 0.02343,0.26355 0.131775,0.404109 0.199127,0.254765 0.691086,0.254765 0.292833,0 0.515386,-0.125918 0.222553,-0.128847 0.222553,-0.395325 0,-0.202054 -0.178628,-0.307474 -0.114205,-0.06442 -0.450963,-0.149345 l -0.418751,-0.10542 q -0.401181,-0.09956 -0.591523,-0.222553 -0.339686,-0.213768 -0.339686,-0.591523 0,-0.445106 0.319188,-0.720369 0.322116,-0.275263 0.863857,-0.275263 0.708656,0 1.021988,0.415823 0.196198,0.26355 0.190341,0.568096 h -0.497816 q -0.01464,-0.178628 -0.125918,-0.325045 -0.181557,-0.207911 -0.629591,-0.207911 -0.29869,0 -0.453891,0.114205 -0.152274,0.114205 -0.152274,0.301618 0,0.204983 0.202055,0.327973 0.117133,0.07321 0.345543,0.128846 l 0.348471,0.08492 q 0.568097,0.137631 0.761366,0.266478 0.307475,0.202055 0.307475,0.635448 0,0.418751 -0.319188,0.723297 -0.31626,0.304546 -0.966349,0.304546 -0.699871,0 -0.992704,-0.316259 -0.289905,-0.319188 -0.310403,-0.787721 z m 0.778936,-2.228459 z"
             style="fill:#ffffff"
             id="path1047" />
          <path
             d="m 89.817785,51.382826 q 0.333829,0 0.647161,0.15813 0.313331,0.155202 0.477317,0.40411 0.15813,0.237194 0.21084,0.553454 0.04685,0.216697 0.04685,0.691086 h -2.298739 q 0.01464,0.477318 0.225482,0.767223 0.210839,0.286976 0.653017,0.286976 0.412895,0 0.658875,-0.272335 0.140559,-0.15813 0.199126,-0.366041 h 0.518314 q -0.0205,0.172771 -0.137631,0.386539 -0.114205,0.21084 -0.257693,0.345543 -0.240123,0.234267 -0.594451,0.31626 -0.190342,0.04685 -0.430465,0.04685 -0.585666,0 -0.992704,-0.424607 -0.407037,-0.427537 -0.407037,-1.194759 0,-0.755509 0.409966,-1.22697 0.409966,-0.471462 1.071769,-0.471462 z m 0.84043,1.388029 q -0.03221,-0.342615 -0.149344,-0.547598 -0.216697,-0.380683 -0.723298,-0.380683 -0.363113,0 -0.609093,0.26355 -0.245979,0.260621 -0.260621,0.664731 z M 89.768003,51.37697 Z"
             style="fill:#ffffff"
             id="path1049" />
        </g>
        <path
           d="m 38.289536,47.775066 c -2.51796,0 -4.639536,2.022993 -4.639536,4.520411 0,0.0801 0.002,4.680613 0.002,4.680613 l 4.637481,-0.0042 c 2.520013,0 4.561492,-2.101041 4.561492,-4.598463 0,-2.497419 -2.041479,-4.598458 -4.561492,-4.598458 z m -0.03903,7.229376 c -0.398438,0 -0.778391,-0.08831 -1.117267,-0.248509 l -1.665632,0.412811 0.47032,-1.540351 c -0.201268,-0.371733 -0.316281,-0.798927 -0.316281,-1.252817 0,-1.452034 1.176828,-2.628863 2.628865,-2.628863 1.452037,0 2.628865,1.176829 2.628865,2.628863 0,1.452038 -1.176828,2.628866 -2.628865,2.628866 z"
           id="path20326"
           style="fill:#ffffff;stroke-width:0.020538" />
      </g>
    </g>
  </g>
</svg>
