<?xml version="1.0" encoding="UTF-8" standalone="no"?>
<!-- Created with Inkscape (http://www.inkscape.org/) -->

<svg
   width="210mm"
   height="297mm"
   viewBox="0 0 210 296.99998"
   version="1.1"
   id="svg5"
   inkscape:version="1.2 (dc2aedaf03, 2022-05-15)"
   sodipodi:docname="readme.workspace.svg"
   xmlns:inkscape="http://www.inkscape.org/namespaces/inkscape"
   xmlns:sodipodi="http://sodipodi.sourceforge.net/DTD/sodipodi-0.dtd"
   xmlns="http://www.w3.org/2000/svg"
   xmlns:svg="http://www.w3.org/2000/svg"
   xmlns:rdf="http://www.w3.org/1999/02/22-rdf-syntax-ns#"
   xmlns:cc="http://creativecommons.org/ns#">
  <sodipodi:namedview
     id="namedview7"
     pagecolor="#ffffff"
     bordercolor="#666666"
     borderopacity="1.0"
     inkscape:pageshadow="2"
     inkscape:pageopacity="0.0"
     inkscape:pagecheckerboard="0"
     inkscape:document-units="mm"
     showgrid="false"
     inkscape:zoom="1.7801987"
     inkscape:cx="185.0917"
     inkscape:cy="260.3642"
     inkscape:window-width="1920"
     inkscape:window-height="1023"
     inkscape:window-x="924"
     inkscape:window-y="1080"
     inkscape:window-maximized="1"
     inkscape:current-layer="layer1"
     inkscape:showpageshadow="0"
     inkscape:deskcolor="#d1d1d1">
    <inkscape:grid
       type="xygrid"
       id="grid906"
       originx="73.30604"
       originy="104.52271" />
  </sodipodi:namedview>
  <defs
     id="defs2">
    <rect
       x="170.49045"
       y="421.97745"
       width="490.70828"
       height="35.169304"
       id="rect8622" />
  </defs>
  <g
     inkscape:label="Layer 1"
     inkscape:groupmode="layer"
     id="layer1"
     transform="translate(-31.693959,-43.977273)">
    <!--! Font Awesome Pro 6.1.1 by @fontawesome - https://fontawesome.com License - https://fontawesome.com/license (Commercial License) Copyright 2022 Fonticons, Inc. -->
    <g
       id="readme.discourse"
       inkscape:label="discourse">
      <rect
         style="fill:#5c3f78;fill-opacity:1;stroke:#1e1e1e;stroke-width:0.216749;paint-order:stroke fill markers"
         id="rect20357"
         width="63.283253"
         height="16.333784"
         x="31.802334"
         y="44.085648"
         ry="2.1006224" />
      <g
         id="g38760"
         transform="translate(-0.37508314)">
        <text
           xml:space="preserve"
           style="font-size:6.35px;line-height:1.25;font-family:Helvetica;-inkscape-font-specification:Helvetica;stroke-width:0.264583"
           x="43.802006"
           y="54.589348"
           id="text2564"><tspan
             sodipodi:role="line"
             id="tspan2562"
             style="font-size:6.35px;fill:#ffffff;stroke-width:0.264583"
             x="43.802006"
             y="54.589348">Fortran Discourse</tspan></text>
        <path
           d="m 38.289536,47.775066 c -2.51796,0 -4.639536,2.022993 -4.639536,4.520411 0,0.0801 0.002,4.680613 0.002,4.680613 l 4.637481,-0.0042 c 2.520013,0 4.561492,-2.101041 4.561492,-4.598463 0,-2.497419 -2.041479,-4.598458 -4.561492,-4.598458 z m -0.03903,7.229376 c -0.398438,0 -0.778391,-0.08831 -1.117267,-0.248509 l -1.665632,0.412811 0.47032,-1.540351 c -0.201268,-0.371733 -0.316281,-0.798927 -0.316281,-1.252817 0,-1.452034 1.176828,-2.628863 2.628865,-2.628863 1.452037,0 2.628865,1.176829 2.628865,2.628863 0,1.452038 -1.176828,2.628866 -2.628865,2.628866 z"
           id="path20326"
           style="fill:#ffffff;stroke-width:0.020538" />
      </g>
    </g>
    <!--! Font Awesome Pro 6.1.1 by @fontawesome - https://fontawesome.com License - https://fontawesome.com/license (Commercial License) Copyright 2022 Fonticons, Inc. -->
    <g
       id="readme.github"
       transform="translate(0,-1.9467872)"
       inkscape:label="github">
      <g
         id="g38368">
        <rect
           style="fill:#5c3f78;fill-opacity:1;stroke:#1e1e1e;stroke-width:0.216724;paint-order:stroke fill markers"
           id="rect26912"
           width="63.283276"
           height="16.330076"
           x="31.802322"
           y="67.130394"
           ry="2.1001456" />
        <g
           id="g37984"
           transform="translate(-0.13831215,-0.00186591)">
          <text
             xml:space="preserve"
             style="font-size:6.35px;line-height:1.25;font-family:Helvetica;-inkscape-font-specification:Helvetica;stroke-width:0.264583"
             x="48.442513"
             y="77.455307"
             id="text16482"><tspan
               sodipodi:role="line"
               id="tspan16480"
               style="font-size:6.35px;fill:#ffffff;stroke-width:0.264583"
               x="48.442513"
               y="77.455307">Ask a Question</tspan></text>
          <path
             d="m 39.602044,78.433731 c 0,0.0424 -0.04888,0.0765 -0.110504,0.0765 -0.07013,0.006 -0.119002,-0.0277 -0.119002,-0.0765 0,-0.0425 0.04888,-0.0765 0.110502,-0.0765 0.06376,-0.006 0.119004,0.0277 0.119004,0.0765 z m -0.660894,-0.0956 c -0.01487,0.0425 0.02762,0.0914 0.09138,0.10413 0.05525,0.0213 0.119003,0 0.131753,-0.0425 0.01275,-0.0424 -0.02762,-0.0914 -0.09138,-0.11049 -0.05525,-0.0149 -0.116877,0.006 -0.131753,0.0489 z m 0.939276,-0.0361 c -0.06163,0.0149 -0.104128,0.0553 -0.09775,0.10412 0.0064,0.0425 0.06163,0.0701 0.125379,0.0553 0.06163,-0.0149 0.104127,-0.0553 0.09775,-0.0978 -0.0064,-0.0403 -0.06376,-0.068 -0.125378,-0.0616 z m 1.398286,-8.143179 c -2.947453,0 -5.202138,2.237681 -5.202138,5.185127 0,2.356665 1.483289,4.373326 3.601972,5.0831 0.272006,0.0489 0.367634,-0.119 0.367634,-0.257137 0,-0.13175 -0.0064,-0.858507 -0.0064,-1.304774 0,0 -1.48754,0.31876 -1.799923,-0.633257 0,0 -0.242257,-0.618393 -0.590767,-0.777773 0,0 -0.486638,-0.33363 0.034,-0.327251 0,0 0.52914,0.0424 0.820273,0.548258 0.465387,0.820267 1.245282,0.584387 1.549166,0.44413 0.04888,-0.34 0.187005,-0.575878 0.340009,-0.716127 -1.187907,-0.13176 -2.386439,-0.303887 -2.386439,-2.348179 0,-0.584384 0.161504,-0.877654 0.501514,-1.25166 -0.05525,-0.13812 -0.235882,-0.707628 0.05525,-1.442898 0.444136,-0.138127 1.466289,0.573761 1.466289,0.573761 0.425011,-0.118996 0.881898,-0.180625 1.334536,-0.180625 0.452637,0 0.909524,0.06161 1.334536,0.180625 0,0 1.022152,-0.714017 1.46629,-0.57376 0.291131,0.73739 0.110502,1.304777 0.05525,1.442897 0.34001,0.376147 0.548265,0.669407 0.548265,1.251661 0,2.050671 -1.251659,2.214288 -2.439565,2.348178 0.195505,0.16787 0.361259,0.486637 0.361259,0.986024 0,0.716137 -0.0064,1.602271 -0.0064,1.776531 0,0.138127 0.09775,0.306007 0.367634,0.257127 2.125057,-0.705524 3.565845,-2.722185 3.565845,-5.07885 0,-2.947446 -2.390688,-5.185127 -5.338141,-5.185127 z m -3.136584,7.329266 c -0.02762,0.0213 -0.02125,0.0701 0.01487,0.11051 0.034,0.034 0.08287,0.0489 0.110502,0.0212 0.02762,-0.0212 0.02125,-0.0701 -0.01487,-0.110501 -0.034,-0.034 -0.08288,-0.0489 -0.110504,-0.0213 z m -0.229505,-0.172121 c -0.01488,0.0277 0.0064,0.0616 0.04888,0.0829 0.034,0.0213 0.0765,0.0149 0.09138,-0.0149 0.01487,-0.0276 -0.0064,-0.0616 -0.04888,-0.0829 -0.04251,-0.0128 -0.0765,-0.006 -0.09138,0.0149 z m 0.688519,0.756517 c -0.03401,0.0276 -0.02125,0.0914 0.02762,0.131748 0.04888,0.0489 0.110503,0.0553 0.138129,0.0213 0.02762,-0.0276 0.01488,-0.0914 -0.02762,-0.131747 -0.04675,-0.0489 -0.110503,-0.0553 -0.138129,-0.0213 z m -0.242257,-0.312389 c -0.03401,0.0213 -0.03401,0.0765 0,0.12538 0.034,0.0489 0.09138,0.0701 0.119003,0.0489 0.03401,-0.0276 0.03401,-0.0829 0,-0.13176 -0.02976,-0.0489 -0.085,-0.0701 -0.119003,-0.0425 z"
             id="path23051"
             style="fill:#ffffff;stroke-width:0.0212506" />
        </g>
      </g>
    </g>
    <!--! Font Awesome Pro 6.1.1 by @fontawesome - https://fontawesome.com License - https://fontawesome.com/license (Commercial License) Copyright 2022 Fonticons, Inc. -->
    <g
       id="readme.tutorial"
       transform="translate(0,-2.4556596)"
       inkscape:label="tutorial">
      <g
         id="g38063">
        <rect
           style="fill:#5c3f78;fill-opacity:1;stroke:#1e1e1e;stroke-width:0.216724;paint-order:stroke fill markers"
           id="rect30387"
           width="63.283276"
           height="16.330076"
           x="31.802322"
           y="88.733505"
           ry="2.1001456" />
        <g
           id="g38056">
          <path
             d="M 47.541424,98.486356 V 92.77025 c 0,-0.52617 -0.426723,-0.9527 -0.952685,-0.9527 h -6.033675 c -1.05232,0 -1.905371,0.85307 -1.905371,1.90538 v 6.35124 c 0,1.05232 0.853051,1.90537 1.905371,1.90537 h 6.351237 c 0.350707,0 0.635123,-0.28442 0.635123,-0.61726 0,-0.23261 -0.131132,-0.42712 -0.31756,-0.53787 v -1.614804 c 0.194506,-0.19133 0.31756,-0.44142 0.31756,-0.72325 z M 41.489887,94.35806 h 3.810742 c 0.192522,0 0.335425,0.1429 0.335425,0.31755 0,0.17466 -0.142903,0.317576 -0.317562,0.317576 h -3.828605 c -0.156797,0 -0.299699,-0.142916 -0.299699,-0.317576 0,-0.17465 0.142902,-0.31755 0.299699,-0.31755 z m 0,1.270246 h 3.810742 c 0.192522,0 0.335425,0.14289 0.335425,0.31755 0,0.17467 -0.142903,0.31757 -0.317562,0.31757 h -3.828605 c -0.156797,0 -0.299699,-0.1429 -0.299699,-0.31757 0,-0.17466 0.142902,-0.31755 0.299699,-0.31755 z m 4.78129,5.080984 h -5.716113 c -0.350707,0 -0.635124,-0.28441 -0.635124,-0.63512 0,-0.350714 0.284417,-0.635124 0.635124,-0.635124 h 5.716113 z"
             id="path26948"
             style="fill:#ffffff;stroke-width:0.0198476" />
          <text
             xml:space="preserve"
             style="font-size:6.35px;line-height:1.25;font-family:Helvetica;-inkscape-font-specification:Helvetica;stroke-width:0.264583"
             x="50.181637"
             y="99.115463"
             id="text28301"><tspan
               sodipodi:role="line"
               id="tspan28299"
               style="font-size:6.35px;fill:#ffffff;stroke-width:0.264583"
               x="50.181637"
               y="99.115463">Learn Fortran</tspan></text>
        </g>
      </g>
    </g>
    <g
       id="readme.fortls"
       transform="translate(0,-1.241769)"
       inkscape:label="fortls">
      <g
         id="g38132">
        <rect
           style="fill:#a34e9c;fill-opacity:1;stroke:#1e1e1e;stroke-width:0.216724;paint-order:stroke fill markers"
           id="rect63265"
           width="63.283276"
           height="16.330076"
           x="31.802322"
           y="108.61385"
           ry="2.1001456" />
        <g
           id="g47001">
          <g
             id="g46783"
             transform="matrix(0.91380754,0,0,0.91380754,0.24528006,5.2975488)">
            <path
               fill="currentColor"
               d="m 47.50137,123.94447 h 0.739857 l 2.782415,-2.94847 v -0.78509 l -1.396411,-1.4685 h -0.72949 l -1.89662,1.99849 h -5.210529 v -1.38029 l 1.938317,-2.04286 v -0.78509 l -2.084205,-2.20841 h -0.750226 l -4.168413,4.41693 v 0.78509 l 2.084219,2.20858 h 0.739858 l 1.187993,-1.27009 v 6.39371 l 0.521012,0.55126 h 4.845773 v 0.57448 l 1.386004,1.47976 h 0.739862 l 2.782411,-2.94826 v -0.78511 l -1.396407,-1.46857 h -0.729494 l -1.938308,2.04293 h -5.210647 v -4.41717 h 4.366402 v 0.52913 z m 1.761144,-4.03066 0.656543,0.6964 -2.084199,2.20853 -0.656539,-0.6964 z m 0,5.52132 0.656543,0.69639 -2.084199,2.20845 -0.656539,-0.6964 z m -10.087541,-4.8698 -1.344303,-1.43551 3.428517,-3.63298 1.354725,1.42453 z"
               id="path2-75"
               style="fill:#ee9d28;fill-opacity:1;stroke-width:1.07272" />
            <rect
               style="fill:#734f96;fill-opacity:1;stroke:none;stroke-width:0.0326826;stroke-miterlimit:4;stroke-dasharray:none;stroke-opacity:1"
               id="rect881"
               width="6.948276"
               height="6.948276"
               x="45.319527"
               y="117.24102"
               ry="1.2922437" />
            <path
               inkscape:connector-curvature="0"
               id="path1412"
               d="m 46.26656,123.12945 c 0,-0.27628 0.002,-0.3009 0.02633,-0.30141 0.01449,-2.8e-4 0.157338,-0.006 0.317473,-0.0142 0.257874,-0.0121 0.299042,-0.0176 0.360225,-0.0483 0.04837,-0.0243 0.07833,-0.0527 0.09996,-0.0948 0.03065,-0.0598 0.03089,-0.0735 0.03089,-1.96301 0,-1.77551 -0.0017,-1.90604 -0.02605,-1.95042 -0.03288,-0.0601 -0.0899,-0.10522 -0.159984,-0.12663 -0.03007,-0.009 -0.188357,-0.0203 -0.351756,-0.0247 l -0.297084,-0.008 v -0.29892 -0.29893 h 2.527106 2.527102 v 1.12065 1.12065 l -0.266998,-10e-4 c -0.146852,-8.1e-4 -0.283924,-0.006 -0.304609,-0.012 -0.03699,-0.0104 -0.03789,-0.0144 -0.05562,-0.24294 -0.02275,-0.2934 -0.04134,-0.42333 -0.08852,-0.61849 -0.101983,-0.42194 -0.317172,-0.65148 -0.668562,-0.71316 -0.147429,-0.0259 -0.790649,-0.0509 -1.319542,-0.0513 l -0.364779,-2.9e-4 v 0.8426 0.84261 l 0.191791,-0.009 c 0.219275,-0.0109 0.391643,-0.0373 0.47485,-0.0729 0.08861,-0.0379 0.182184,-0.13366 0.225984,-0.23127 0.04577,-0.10203 0.07572,-0.23599 0.09974,-0.44638 0.0095,-0.0827 0.02031,-0.16565 0.02413,-0.18427 0.0069,-0.0337 0.0081,-0.0338 0.29999,-0.0338 h 0.293035 v 1.34628 1.34629 h -0.29863 -0.298627 l -0.01001,-0.15531 c -0.01819,-0.28124 -0.07294,-0.54758 -0.138745,-0.67483 -0.08994,-0.17394 -0.266974,-0.25213 -0.622798,-0.27509 -0.07859,-0.005 -0.165357,-0.0127 -0.192802,-0.0169 l -0.0499,-0.007 0.0058,0.84699 c 0.0062,0.89335 0.0089,0.92826 0.0766,1.00313 0.0697,0.077 0.110344,0.0823 0.818364,0.10646 0.01441,4.5e-4 0.0188,0.0712 0.0188,0.3015 v 0.30084 h -1.45158 -1.451582 z"
               style="fill:#ffffff;stroke-width:0.0326829" />
          </g>
          <text
             xml:space="preserve"
             style="font-size:7.05556px;line-height:0.95;font-family:Helvetica;-inkscape-font-specification:Helvetica;fill:#ffffff;stroke-width:0.264583"
             x="49.867012"
             y="115.9166"
             id="text35124"><tspan
               sodipodi:role="line"
               style="font-style:normal;font-weight:bold;font-size:6.35px;fill:#ffffff;stroke-width:0.264583"
               x="49.867012"
               y="115.9166"
               id="tspan36364">fortls</tspan><tspan
               sodipodi:role="line"
               style="font-size:5.29167px;fill:#ffffff;stroke-width:0.264583"
               x="49.867012"
               y="122.61938"
               id="tspan38554">Language Server</tspan></text>
        </g>
      </g>
    </g>
    <!--! Font Awesome Pro 6.1.1 by @fontawesome - https://fontawesome.com License - https://fontawesome.com/license (Commercial License) Copyright 2022 Fonticons, Inc. -->
    <!--! Font Awesome Pro 6.1.1 by @fontawesome - https://fontawesome.com License - https://fontawesome.com/license (Commercial License) Copyright 2022 Fonticons, Inc. -->
    <!--! Font Awesome Pro 6.1.1 by @fontawesome - https://fontawesome.com License - https://fontawesome.com/license (Commercial License) Copyright 2022 Fonticons, Inc. -->
    <g
       id="readme.stdlib"
       inkscape:label="stdlib">
      <g
         id="g38292">
        <rect
           style="fill:#a34e9c;fill-opacity:1;stroke:#1e1e1e;stroke-width:0.216724;paint-order:stroke fill markers"
           id="rect918"
           width="63.283276"
           height="16.330076"
           x="31.802322"
           y="149.56056"
           ry="2.1001456" />
        <g
           id="g46828"
           transform="translate(-0.91096506,-8.3573359)">
          <text
             xml:space="preserve"
             style="font-size:7.05556px;line-height:1.05;font-family:Helvetica;-inkscape-font-specification:Helvetica;stroke-width:0.264583"
             x="52.751194"
             y="164.1107"
             id="text926"><tspan
               sodipodi:role="line"
               id="tspan922"
               style="font-weight:bold;font-size:6.35px;fill:#ffffff;stroke-width:0.264583"
               x="52.751194"
               y="164.1107">stdlib</tspan><tspan
               sodipodi:role="line"
               style="font-size:5.29167px;fill:#ffffff;stroke-width:0.264583"
               x="52.751194"
               y="171.51904"
               id="tspan924">Standard Library</tspan></text>
          <path
             d="m 45.605457,161.36353 -2.686659,9.40351 c -0.102849,0.35682 -0.474363,0.56252 -0.831185,0.46177 -0.356822,-0.10285 -0.562519,-0.47437 -0.461769,-0.83119 l 2.686658,-9.40309 c 0.102849,-0.3567 0.474363,-0.56323 0.831185,-0.46131 0.356822,0.1019 0.562521,0.4737 0.46177,0.83031 z m 2.178713,1.69196 2.350826,2.35083 c 0.26237,0.26236 0.26237,0.68636 0,0.94873 l -2.350826,2.35082 c -0.26237,0.26237 -0.686358,0.26237 -0.948727,0 -0.262369,-0.26237 -0.262369,-0.68636 0,-0.94873 l 1.874365,-1.87646 -1.874365,-1.87646 c -0.262369,-0.26237 -0.262369,-0.68636 0,-0.94873 0.262369,-0.26236 0.686357,-0.26236 0.948727,0 z m -7.388313,0.94873 -1.875414,1.87646 1.875414,1.87646 c 0.26237,0.26237 0.26237,0.68636 0,0.94873 -0.262368,0.26237 -0.686357,0.26237 -0.948725,0 l -2.351415,-2.35082 c -0.262285,-0.26237 -0.262285,-0.68637 0,-0.94873 l 2.351415,-2.35083 c 0.262368,-0.26236 0.686357,-0.26236 0.948725,0 0.26237,0.26237 0.26237,0.68636 0,0.94873 z"
             id="path1022"
             style="fill:#ffffff;stroke-width:0.0209895" />
        </g>
      </g>
    </g>
    <g
       id="readme.fpm"
       transform="translate(0,0.15931647)"
       inkscape:label="fpm"
       style="display:inline">
      <g
         id="g38223">
        <rect
           style="fill:#a34e9c;fill-opacity:1;stroke:#1e1e1e;stroke-width:0.216724;paint-order:stroke fill markers"
           id="rect68273"
           width="63.283276"
           height="16.330076"
           x="31.802322"
           y="128.30701"
           ry="2.1001456" />
        <g
           id="g38206">
          <g
             id="g46807"
             transform="translate(-2.4495888,-6.6458448)"
             inkscape:label="g46807">
            <text
               xml:space="preserve"
               style="font-size:7.05556px;line-height:1.05;font-family:Helvetica;-inkscape-font-specification:Helvetica;stroke-width:0.264583"
               x="51.903019"
               y="141.43324"
               id="text50081"
               inkscape:label="text50081"><tspan
                 sodipodi:role="line"
                 id="tspan50079"
                 style="fill:#ffffff;stroke-width:0.264583"
                 x="51.903019"
                 y="141.43324" /><tspan
                 sodipodi:role="line"
                 style="font-size:5.29167px;fill:#ffffff;stroke-width:0.264583"
                 x="51.903019"
                 y="148.84158"
                 id="tspan50083">Package Manager</tspan></text>
            <g
               id="g39582"
               transform="matrix(0.87759324,0,0,0.87759324,6.4123187,17.705899)">
              <path
                 d="m 61.403007,142.57709 0.619428,-4.69236 h 0.89341 l 0.125998,0.49025 c 0.458278,-0.31047 0.951707,-0.55153 1.518045,-0.55153 0.297708,0 0.535671,0.0584 0.713745,0.17508 0.183861,0.1109 0.331268,0.28598 0.442221,0.52527 0.434554,-0.38596 1.190105,-0.70035 1.786966,-0.70035 0.438026,0 0.755696,0.0992 0.953299,0.29765 0.20339,0.1926 0.309424,0.46981 0.318538,0.83166 0.0051,0.20854 -0.0036,0.42518 -0.03703,0.63032 l -0.398679,2.99401 h -1.086096 l 0.399402,-2.96774 c 0.01,-0.0642 0.01418,-0.13424 0.0123,-0.2101 -0.01,-0.40272 -0.239844,-0.60407 -0.689442,-0.60407 -0.405044,0 -0.929286,0.24057 -1.249704,0.46399 0.01649,0.13225 0.0082,0.27313 -0.01635,0.4027 l -0.392024,2.91522 h -1.077272 l 0.382911,-2.92397 c 0.01041,-0.0525 0.01519,-0.0963 0.01432,-0.13132 0.0048,-0.0409 0.0067,-0.0846 0.0055,-0.13132 -0.0046,-0.18675 -0.06076,-0.33266 -0.168526,-0.43772 -0.107626,-0.10505 -0.278324,-0.15758 -0.511947,-0.15758 -0.393326,0 -0.701883,0.22603 -1.021723,0.42897 l -0.451194,3.35294 z"
                 fill="#ffffff"
                 id="path2"
                 style="stroke-width:0.0144658"
                 inkscape:label="path2" />
              <path
                 d="m 55.98468,144.64803 0.887191,-6.60957 c 0.354557,-0.0642 0.712442,-0.11382 1.073655,-0.14883 0.360922,-0.0409 0.760469,-0.0613 1.19835,-0.0613 0.537262,0 0.928996,0.13717 1.175205,0.41147 0.251995,0.2743 0.384937,0.68867 0.398679,1.24312 0.0036,0.1459 -0.0014,0.29765 -0.01504,0.45523 -0.0136,0.15757 -0.03009,0.31516 -0.04962,0.47274 -0.09866,0.72953 -0.330256,1.28107 -0.69465,1.65458 -0.364395,0.37352 -0.841623,0.56029 -1.431395,0.56029 -0.227693,0 -0.438316,-0.0175 -0.631869,-0.0525 -0.193553,-0.035 -0.37018,-0.0905 -0.529594,-0.16634 l -0.294814,2.24113 z m 2.396991,-2.94148 c 0.373797,0 0.653856,-0.12256 0.840465,-0.36768 0.18661,-0.24512 0.317381,-0.6274 0.392025,-1.14684 0.0098,-0.0759 0.01938,-0.1605 0.02879,-0.25387 0.0094,-0.0934 0.01287,-0.18383 0.0107,-0.27138 -0.008,-0.321 -0.07508,-0.56029 -0.201654,-0.71787 -0.12079,-0.16341 -0.312607,-0.24512 -0.575452,-0.24512 l -1.015791,0.009 -0.385081,2.83643 c 0.164766,0.0525 0.308846,0.0934 0.432239,0.12256 0.129036,0.0233 0.287003,0.035 0.473757,0.035 z"
                 fill="#ffffff"
                 id="path4"
                 style="stroke-width:0.0144658" />
              <path
                 d="m 52.805377,142.57328 0.501198,-3.80816 h -0.921243 l 0.09652,-0.70036 0.942956,-0.18383 0.105254,-0.70035 c 0.03423,-0.26848 0.104342,-0.50192 0.210377,-0.70037 0.111719,-0.20425 0.274229,-0.36184 0.487528,-0.47273 0.219143,-0.11089 0.509733,-0.16634 0.871769,-0.16634 0.192685,0 0.629482,0.009 0.816814,0.0263 0.187044,0.0117 0.471587,0.0292 0.606408,0.0525 l -0.103141,0.7879 h -1.114666 c -0.262757,0 -0.445114,0.0642 -0.547026,0.1926 -0.102071,0.12256 -0.167442,0.31225 -0.196113,0.56903 l -0.05111,0.41147 h 1.490561 l -0.118186,0.88419 h -1.490604 l -0.509965,3.80816 z"
                 fill="#ffffff"
                 id="path6"
                 style="stroke-width:0.0144658" />
            </g>
          </g>
          <g
             id="g46798"
             transform="translate(-2.9787555,-6.6458448)">
            <path
               d="m 38.364778,145.62791 h 4.430587 l -0.519152,4.04754 c -0.0082,0.064 -0.06267,0.11188 -0.127173,0.11188 h -4.220645 c -0.0515,0 -0.09129,-0.0452 -0.08477,-0.0962 z"
               fill="#4d41b1"
               id="path8"
               style="stroke-width:0.020005" />
            <path
               d="m 42.958567,140.8861 h -3.943828 l -0.533508,4.15945 h 4.430603 l 0.47148,-3.67599 c -0.265747,-0.003 -0.455536,-0.21838 -0.424747,-0.48346 z"
               fill="#4d41b1"
               id="path10"
               style="stroke-width:0.020005" />
            <path
               d="m 48.461566,140.8861 h -3.886268 c -0.05569,0.30852 -0.333746,0.4866 -0.579168,0.48346 l -0.468659,3.67599 h 4.290891 c 0.06454,0 0.119028,-0.048 0.127188,-0.11202 z"
               fill="#4d41b1"
               id="path12"
               style="stroke-width:0.020005" />
            <path
               fill-rule="evenodd"
               clip-rule="evenodd"
               d="m 44.106998,136.14424 c -2.111537,-0.027 -4.503937,1.50511 -4.98281,4.15943 h 3.915819 c 0.05569,-0.3085 0.333746,-0.48659 0.579188,-0.48347 z m 0.59035,-1.5e-4 h 4.306535 c 0.05151,0 0.09134,0.0452 0.08483,0.0962 l -0.518032,4.06317 -3.916858,-3e-5 c 0.03081,-0.2652 -0.15916,-0.48055 -0.425106,-0.48346 z"
               fill="#4d41b1"
               id="path14"
               style="stroke-width:0.020005" />
          </g>
        </g>
      </g>
    </g>
  </g>
  <metadata
     id="metadata977">
    <rdf:RDF>
      <cc:Work
         rdf:about="">
        <cc:license
           rdf:resource="http://creativecommons.org/licenses/by-nc-nd/4.0/" />
      </cc:Work>
      <cc:License
         rdf:about="http://creativecommons.org/licenses/by-nc-nd/4.0/">
        <cc:permits
           rdf:resource="http://creativecommons.org/ns#Reproduction" />
        <cc:permits
           rdf:resource="http://creativecommons.org/ns#Distribution" />
        <cc:requires
           rdf:resource="http://creativecommons.org/ns#Notice" />
        <cc:requires
           rdf:resource="http://creativecommons.org/ns#Attribution" />
        <cc:prohibits
           rdf:resource="http://creativecommons.org/ns#CommercialUse" />
      </cc:License>
    </rdf:RDF>
  </metadata>
</svg>
