<?xml version="1.0" encoding="UTF-8" standalone="no"?>
<!-- Created with Inkscape (http://www.inkscape.org/) -->

<svg
   width="66.145836mm"
   height="16.550531mm"
   viewBox="0 0 66.145836 16.550531"
   version="1.1"
   id="svg5"
   inkscape:version="1.1.2 (0a00cf5339, 2022-02-04)"
   sodipodi:docname="readme.tutorial.svg"
   xmlns:inkscape="http://www.inkscape.org/namespaces/inkscape"
   xmlns:sodipodi="http://sodipodi.sourceforge.net/DTD/sodipodi-0.dtd"
   xmlns="http://www.w3.org/2000/svg"
   xmlns:svg="http://www.w3.org/2000/svg">
  <sodipodi:namedview
     id="namedview7"
     pagecolor="#ffffff"
     bordercolor="#666666"
     borderopacity="1.0"
     inkscape:pageshadow="2"
     inkscape:pageopacity="0.0"
     inkscape:pagecheckerboard="0"
     inkscape:document-units="mm"
     showgrid="false"
     inkscape:zoom="1.2379223"
     inkscape:cx="-75.529781"
     inkscape:cy="225.37763"
     inkscape:window-width="1920"
     inkscape:window-height="1053"
     inkscape:window-x="0"
     inkscape:window-y="0"
     inkscape:window-maximized="1"
     inkscape:current-layer="layer1"
     fit-margin-top="0"
     fit-margin-left="0"
     fit-margin-right="0"
     fit-margin-bottom="0" />
  <defs
     id="defs2">
    <rect
       x="170.49045"
       y="421.97745"
       width="490.70828"
       height="35.169304"
       id="rect8622" />
  </defs>
  <g
     inkscape:label="Layer 1"
     inkscape:groupmode="layer"
     id="layer1"
     transform="translate(-81.91478,-48.577387)">
    <!--! Font Awesome Pro 6.1.1 by @fontawesome - https://fontawesome.com License - https://fontawesome.com/license (Commercial License) Copyright 2022 Fonticons, Inc. -->
    <!--! Font Awesome Pro 6.1.1 by @fontawesome - https://fontawesome.com License - https://fontawesome.com/license (Commercial License) Copyright 2022 Fonticons, Inc. -->
    <!--! Font Awesome Pro 6.1.1 by @fontawesome - https://fontawesome.com License - https://fontawesome.com/license (Commercial License) Copyright 2022 Fonticons, Inc. -->
    <g
       inkscape:label="Layer 1"
       inkscape:groupmode="layer"
       id="layer1-3"
       transform="matrix(1.0431916,0,0,1.0431916,-52.907141,22.275941)" />
    <!--! Font Awesome Pro 6.1.1 by @fontawesome - https://fontawesome.com License - https://fontawesome.com/license (Commercial License) Copyright 2022 Fonticons, Inc. -->
    <!--! Font Awesome Pro 6.1.1 by @fontawesome - https://fontawesome.com License - https://fontawesome.com/license (Commercial License) Copyright 2022 Fonticons, Inc. -->
    <!--! Font Awesome Pro 6.1.1 by @fontawesome - https://fontawesome.com License - https://fontawesome.com/license (Commercial License) Copyright 2022 Fonticons, Inc. -->
    <g
       id="g47035"
       transform="translate(50.22082,-40.046779)">
      <path
         id="rect30387"
         style="fill:#5c3f78;stroke:#1e1e1e;stroke-width:0.221196;paint-order:stroke fill markers"
         d="m 33.904608,88.734764 h 61.724536 c 1.163428,0 2.100051,0.936623 2.100051,2.100051 v 12.129235 c 0,1.16343 -0.936623,2.10005 -2.100051,2.10005 H 33.904608 c -1.163428,0 -2.10005,-0.93662 -2.10005,-2.10005 V 90.834815 c 0,-1.163428 0.936622,-2.100051 2.10005,-2.100051 z" />
      <g
         id="g46841"
         transform="translate(-1.3122059,-3.7913448)">
        <path
           d="m 49.119412,102.27859 v -5.716106 c 0,-0.52617 -0.426723,-0.9527 -0.952685,-0.9527 h -6.033675 c -1.05232,0 -1.905371,0.85307 -1.905371,1.90538 v 6.351236 c 0,1.05232 0.853051,1.90537 1.905371,1.90537 h 6.351237 c 0.350707,0 0.635123,-0.28442 0.635123,-0.61726 0,-0.23261 -0.131132,-0.42712 -0.31756,-0.53787 v -1.6148 c 0.194506,-0.19133 0.31756,-0.44142 0.31756,-0.72325 z m -6.051537,-4.128296 h 3.810742 c 0.192522,0 0.335425,0.1429 0.335425,0.31755 0,0.17466 -0.142903,0.317576 -0.317562,0.317576 h -3.828605 c -0.156797,0 -0.299699,-0.142916 -0.299699,-0.317576 0,-0.17465 0.142902,-0.31755 0.299699,-0.31755 z m 0,1.270246 h 3.810742 c 0.192522,0 0.335425,0.14289 0.335425,0.31755 0,0.17467 -0.142903,0.31757 -0.317562,0.31757 h -3.828605 c -0.156797,0 -0.299699,-0.1429 -0.299699,-0.31757 0,-0.17466 0.142902,-0.31755 0.299699,-0.31755 z m 4.78129,5.08098 h -5.716113 c -0.350707,0 -0.635124,-0.28441 -0.635124,-0.63512 0,-0.35071 0.284417,-0.63512 0.635124,-0.63512 h 5.716113 z"
           id="path26948"
           style="fill:#ffffff;stroke-width:0.0198476" />
        <g
           aria-label="Learn Fortran"
           id="text28301"
           style="font-size:6.70278px;line-height:1.25;font-family:Helvetica;-inkscape-font-specification:Helvetica;stroke-width:0.264583">
          <path
             d="m 52.270188,98.223056 h 0.651295 v 4.235054 h 2.434994 v 0.57275 h -3.086289 z"
             style="fill:#ffffff"
             id="path830" />
          <path
             d="m 57.379094,99.447099 q 0.373104,0 0.723298,0.176734 0.350194,0.17346 0.533473,0.451647 0.176733,0.26511 0.235645,0.61857 0.05237,0.24219 0.05237,0.77239 h -2.569181 q 0.01636,0.53348 0.252009,0.85749 0.235645,0.32074 0.729844,0.32074 0.46147,0 0.736389,-0.30438 0.157097,-0.17673 0.222553,-0.4091 h 0.579293 q -0.02291,0.19309 -0.153823,0.43201 -0.127641,0.23565 -0.28801,0.3862 -0.268373,0.26182 -0.664387,0.35346 -0.212735,0.0524 -0.481108,0.0524 -0.654568,0 -1.109493,-0.47456 -0.454925,-0.47784 -0.454925,-1.33532 0,-0.8444 0.458198,-1.371323 0.458198,-0.526928 1.19786,-0.526928 z m 0.939305,1.551331 q -0.036,-0.38293 -0.166915,-0.61203 -0.24219,-0.425465 -0.808392,-0.425465 -0.405832,0 -0.680751,0.294555 -0.274918,0.29128 -0.291283,0.74294 z m -0.994944,-1.557876 z"
             style="fill:#ffffff"
             id="path832" />
          <path
             d="m 60.098825,102.0981 q 0,0.25528 0.186552,0.40256 0.186552,0.14728 0.441834,0.14728 0.31092,0 0.602203,-0.14401 0.490926,-0.23891 0.490926,-0.78221 v -0.47456 q -0.108004,0.0687 -0.278192,0.11455 -0.170187,0.0458 -0.333829,0.0655 l -0.35674,0.0458 q -0.320739,0.0426 -0.481108,0.13418 -0.271646,0.15383 -0.271646,0.49093 z m 1.426959,-1.19131 q 0.202916,-0.0262 0.271646,-0.17019 0.03927,-0.0785 0.03927,-0.22583 0,-0.3011 -0.216007,-0.43529 -0.212735,-0.137454 -0.612022,-0.137454 -0.46147,0 -0.654568,0.248734 -0.108004,0.13746 -0.140732,0.40911 h -0.549838 q 0.01637,-0.648026 0.418924,-0.900035 0.405832,-0.255281 0.939306,-0.255281 0.618567,0 1.004762,0.235644 0.382922,0.235645 0.382922,0.733112 v 2.01935 q 0,0.0916 0.036,0.14728 0.03927,0.0556 0.160369,0.0556 0.03927,0 0.08837,-0.003 0.04909,-0.007 0.104731,-0.0164 v 0.43529 q -0.13746,0.0393 -0.209462,0.0491 -0.072,0.01 -0.196371,0.01 -0.304374,0 -0.441833,-0.21601 -0.072,-0.11455 -0.101458,-0.32401 -0.180007,0.23564 -0.517109,0.4091 -0.337103,0.17346 -0.742936,0.17346 -0.487653,0 -0.798573,-0.29455 -0.307647,-0.29783 -0.307647,-0.74294 0,-0.48765 0.304374,-0.75602 0.304375,-0.26838 0.798574,-0.33056 z m -0.487653,-1.466236 z"
             style="fill:#ffffff"
             id="path834" />
          <path
             d="m 63.391304,99.525647 h 0.559656 v 0.605473 q 0.06873,-0.17673 0.337102,-0.428739 0.268373,-0.255282 0.618568,-0.255282 0.01636,0 0.05564,0.0033 0.03927,0.0033 0.134186,0.01309 v 0.621837 q -0.05236,-0.01 -0.09819,-0.0131 -0.04255,-0.003 -0.09491,-0.003 -0.445107,0 -0.684024,0.28801 -0.238918,0.28474 -0.238918,0.65784 v 2.01607 h -0.589111 z"
             style="fill:#ffffff"
             id="path836" />
          <path
             d="m 65.607018,99.525647 h 0.559656 v 0.497473 q 0.248736,-0.307648 0.526928,-0.441834 0.278191,-0.134187 0.618567,-0.134187 0.746208,0 1.008035,0.520382 0.144005,0.284739 0.144005,0.814939 v 2.24844 h -0.59893 v -2.20917 q 0,-0.32074 -0.09491,-0.51711 -0.157097,-0.32728 -0.569475,-0.32728 -0.209462,0 -0.343648,0.04255 -0.242191,0.072 -0.42547,0.28801 -0.147278,0.17346 -0.193097,0.36001 -0.04255,0.18328 -0.04255,0.52693 v 1.83606 h -0.589112 z m 1.384412,-0.08509 z"
             style="fill:#ffffff"
             id="path838" />
          <path
             d="m 71.337764,98.223056 h 3.335026 v 0.589112 h -2.683731 v 1.459692 h 2.359719 v 0.57274 h -2.359719 v 2.18626 h -0.651295 z"
             style="fill:#ffffff"
             id="path840" />
          <path
             d="m 76.682313,102.65121 q 0.585839,0 0.801847,-0.44183 0.21928,-0.44511 0.21928,-0.9884 0,-0.49093 -0.157096,-0.79857 -0.248736,-0.484384 -0.857485,-0.484384 -0.540019,0 -0.785482,0.412374 -0.245463,0.41238 -0.245463,0.99495 0,0.55965 0.245463,0.93276 0.245463,0.3731 0.778936,0.3731 z m 0.02291,-3.227021 q 0.677479,0 1.145495,0.451653 0.468016,0.451648 0.468016,1.328778 0,0.84766 -0.412378,1.40077 -0.412378,0.55311 -1.279681,0.55311 -0.723298,0 -1.148767,-0.48765 -0.42547,-0.49093 -0.42547,-1.31568 0,-0.88367 0.44838,-1.407326 0.448379,-0.523655 1.204405,-0.523655 z m -0.01964,0.01637 z"
             style="fill:#ffffff"
             id="path842" />
          <path
             d="m 79.035488,99.525647 h 0.559656 v 0.605473 q 0.06873,-0.17673 0.337103,-0.428739 0.268373,-0.255282 0.618567,-0.255282 0.01636,0 0.05564,0.0033 0.03927,0.0033 0.134186,0.01309 v 0.621837 q -0.05237,-0.01 -0.09819,-0.0131 -0.04255,-0.003 -0.09491,-0.003 -0.445107,0 -0.684024,0.28801 -0.238918,0.28474 -0.238918,0.65784 v 2.01607 h -0.589111 z"
             style="fill:#ffffff"
             id="path844" />
          <path
             d="m 81.369025,98.547068 h 0.595657 v 0.978579 h 0.559656 v 0.481113 h -0.559656 v 2.28771 q 0,0.18328 0.124368,0.24546 0.06873,0.036 0.229099,0.036 0.04255,0 0.09164,0 0.04909,-0.003 0.11455,-0.01 v 0.46474 q -0.101458,0.0295 -0.212735,0.0425 -0.108004,0.0131 -0.235645,0.0131 -0.412378,0 -0.559656,-0.20946 -0.147277,-0.21274 -0.147277,-0.54984 v -2.32044 h -0.474562 v -0.481113 h 0.474562 z"
             style="fill:#ffffff"
             id="path846" />
          <path
             d="m 83.129812,99.525647 h 0.559656 v 0.605473 q 0.06873,-0.17673 0.337103,-0.428739 0.268373,-0.255282 0.618567,-0.255282 0.01636,0 0.05564,0.0033 0.03927,0.0033 0.134187,0.01309 v 0.621837 q -0.05237,-0.01 -0.09819,-0.0131 -0.04255,-0.003 -0.09491,-0.003 -0.445107,0 -0.684024,0.28801 -0.238917,0.28474 -0.238917,0.65784 v 2.01607 h -0.589112 z"
             style="fill:#ffffff"
             id="path848" />
          <path
             d="m 85.797177,102.0981 q 0,0.25528 0.186552,0.40256 0.186552,0.14728 0.441833,0.14728 0.31092,0 0.602203,-0.14401 0.490926,-0.23891 0.490926,-0.78221 v -0.47456 q -0.108003,0.0687 -0.278191,0.11455 -0.170188,0.0458 -0.33383,0.0655 l -0.35674,0.0458 q -0.320738,0.0426 -0.481108,0.13418 -0.271645,0.15383 -0.271645,0.49093 z m 1.426959,-1.19131 q 0.202916,-0.0262 0.271645,-0.17019 0.03928,-0.0785 0.03928,-0.22583 0,-0.3011 -0.216008,-0.43529 -0.212735,-0.137454 -0.612021,-0.137454 -0.461471,0 -0.654569,0.248734 -0.108004,0.13746 -0.140732,0.40911 h -0.549837 q 0.01636,-0.648026 0.418923,-0.900035 0.405833,-0.255281 0.939306,-0.255281 0.618567,0 1.004762,0.235644 0.382923,0.235645 0.382923,0.733112 v 2.01935 q 0,0.0916 0.036,0.14728 0.03927,0.0556 0.160369,0.0556 0.03927,0 0.08837,-0.003 0.04909,-0.007 0.104731,-0.0164 v 0.43529 q -0.137459,0.0393 -0.209462,0.0491 -0.072,0.01 -0.19637,0.01 -0.304375,0 -0.441834,-0.21601 -0.072,-0.11455 -0.101458,-0.32401 -0.180006,0.23564 -0.517109,0.4091 -0.337103,0.17346 -0.742935,0.17346 -0.487654,0 -0.798573,-0.29455 -0.307648,-0.29783 -0.307648,-0.74294 0,-0.48765 0.304375,-0.75602 0.304374,-0.26838 0.798573,-0.33056 z m -0.487654,-1.466236 z"
             style="fill:#ffffff"
             id="path850" />
          <path
             d="m 89.073292,99.525647 h 0.559656 v 0.497473 q 0.248736,-0.307648 0.526928,-0.441834 0.278191,-0.134187 0.618567,-0.134187 0.746208,0 1.008035,0.520382 0.144005,0.284739 0.144005,0.814939 v 2.24844 h -0.59893 v -2.20917 q 0,-0.32074 -0.09491,-0.51711 -0.157097,-0.32728 -0.569475,-0.32728 -0.209462,0 -0.343648,0.04255 -0.24219,0.072 -0.425469,0.28801 -0.147278,0.17346 -0.193098,0.36001 -0.04255,0.18328 -0.04255,0.52693 v 1.83606 h -0.589112 z m 1.384412,-0.08509 z"
             style="fill:#ffffff"
             id="path852" />
        </g>
      </g>
    </g>
  </g>
</svg>
