<?xml version="1.0" encoding="UTF-8" standalone="no"?>
<!-- Created with Inkscape (http://www.inkscape.org/) -->

<svg
   width="66.145836mm"
   height="16.550531mm"
   viewBox="0 0 66.145835 16.550532"
   version="1.1"
   id="svg4008"
   inkscape:version="1.1.2 (0a00cf5339, 2022-02-04)"
   sodipodi:docname="readme.stdlib.svg"
   xmlns:inkscape="http://www.inkscape.org/namespaces/inkscape"
   xmlns:sodipodi="http://sodipodi.sourceforge.net/DTD/sodipodi-0.dtd"
   xmlns="http://www.w3.org/2000/svg"
   xmlns:svg="http://www.w3.org/2000/svg">
  <sodipodi:namedview
     id="namedview4010"
     pagecolor="#ffffff"
     bordercolor="#666666"
     borderopacity="1.0"
     inkscape:pageshadow="2"
     inkscape:pageopacity="0.0"
     inkscape:pagecheckerboard="0"
     inkscape:document-units="mm"
     showgrid="false"
     inkscape:zoom="0.7500982"
     inkscape:cx="421.94475"
     inkscape:cy="-199.97382"
     inkscape:window-width="1920"
     inkscape:window-height="1053"
     inkscape:window-x="0"
     inkscape:window-y="0"
     inkscape:window-maximized="1"
     inkscape:current-layer="layer1"
     fit-margin-top="0"
     fit-margin-left="0"
     fit-margin-right="0"
     fit-margin-bottom="0" />
  <defs
     id="defs4005" />
  <g
     inkscape:label="Layer 1"
     inkscape:groupmode="layer"
     id="layer1"
     transform="translate(6.9562472,-200.79494)">
    <g
       id="g48027"
       transform="translate(-38.650207,51.346474)">
      <path
         id="rect918"
         style="fill:#a34e9c;stroke:#1e1e1e;stroke-width:0.221196;paint-order:stroke fill markers"
         d="m 33.904608,149.55907 h 61.724536 c 1.163428,0 2.100051,0.93662 2.100051,2.10005 v 12.12923 c 0,1.16343 -0.936623,2.10005 -2.100051,2.10005 H 33.904608 c -1.163428,0 -2.10005,-0.93662 -2.10005,-2.10005 v -12.12923 c 0,-1.16343 0.936622,-2.10005 2.10005,-2.10005 z" />
      <g
         id="g46828"
         transform="translate(-0.89001017,-8.2692828)">
        <g
           aria-label="stdlib
Standard Library"
           id="text926"
           style="font-size:7.05556px;line-height:1.05;font-family:Helvetica;-inkscape-font-specification:Helvetica;stroke-width:0.264583">
          <path
             d="m 53.913053,162.97175 q 0.02945,0.24874 0.127641,0.35347 0.17346,0.18655 0.641477,0.18655 0.274918,0 0.435288,-0.0818 0.163642,-0.0818 0.163642,-0.24546 0,-0.1571 -0.130914,-0.23892 -0.130914,-0.0818 -0.972034,-0.28146 -0.605476,-0.15055 -0.854212,-0.37638 -0.248736,-0.22255 -0.248736,-0.64148 0,-0.4942 0.386196,-0.84766 0.389468,-0.35674 1.093129,-0.35674 0.667659,0 1.086583,0.26837 0.422197,0.2651 0.484381,0.91967 h -0.93276 q -0.01964,-0.18001 -0.101458,-0.28474 -0.153824,-0.18982 -0.523655,-0.18982 -0.304374,0 -0.435288,0.0949 -0.127641,0.0949 -0.127641,0.22255 0,0.16037 0.13746,0.23237 0.137459,0.0753 0.972034,0.25856 0.556383,0.13091 0.834574,0.39601 0.274919,0.26838 0.274919,0.67093 0,0.53021 -0.396014,0.86731 -0.392741,0.33383 -1.217497,0.33383 -0.84112,0 -1.24368,-0.35347 -0.399286,-0.35674 -0.399286,-0.90658 z m 0.713479,-2.52336 z"
             style="font-weight:bold;font-size:6.70278px;fill:#ffffff"
             id="path962" />
          <path
             d="m 56.54769,161.24042 v -0.66439 h 0.497472 v -0.99494 h 0.922942 v 0.99494 h 0.579293 v 0.66439 h -0.579293 v 1.88516 q 0,0.21928 0.05564,0.27492 0.05564,0.0524 0.340376,0.0524 0.04255,0 0.08837,0 0.04909,-0.003 0.09491,-0.007 v 0.69711 l -0.441834,0.0164 q -0.661114,0.0229 -0.903304,-0.2291 -0.157097,-0.16037 -0.157097,-0.4942 v -2.19608 z"
             style="font-weight:bold;font-size:6.70278px;fill:#ffffff"
             id="path964" />
          <path
             d="m 60.462009,160.45821 q 0.324011,0 0.57602,0.14401 0.252009,0.14073 0.409105,0.39274 v -1.70188 h 0.945851 v 4.81762 h -0.906577 v -0.4942 q -0.199643,0.31747 -0.454925,0.46147 -0.255281,0.14401 -0.634931,0.14401 -0.625113,0 -1.053855,-0.50402 -0.425469,-0.50729 -0.425469,-1.29932 0,-0.91312 0.418923,-1.43677 0.422197,-0.52366 1.125858,-0.52366 z m 0.202916,2.97829 q 0.396014,0 0.602203,-0.29456 0.206189,-0.29455 0.206189,-0.76257 0,-0.65457 -0.330557,-0.93603 -0.202916,-0.17019 -0.471289,-0.17019 -0.409105,0 -0.602203,0.31092 -0.189825,0.30765 -0.189825,0.76584 0,0.4942 0.193098,0.79203 0.19637,0.29456 0.592384,0.29456 z"
             style="font-weight:bold;font-size:6.70278px;fill:#ffffff"
             id="path966" />
          <path
             d="m 64.193049,164.1107 h -0.93276 v -4.82417 h 0.93276 z"
             style="font-weight:bold;font-size:6.70278px;fill:#ffffff"
             id="path968" />
          <path
             d="M 66.061842,160.11784 H 65.11599 v -0.86076 h 0.945852 z m -0.945852,0.42547 h 0.945852 v 3.56739 H 65.11599 Z"
             style="font-weight:bold;font-size:6.70278px;fill:#ffffff"
             id="path970" />
          <path
             d="m 68.892849,160.46476 q 0.703661,0 1.099675,0.50729 0.399287,0.50729 0.399287,1.30913 0,0.83131 -0.392741,1.37787 -0.392741,0.54656 -1.096402,0.54656 -0.441834,0 -0.710207,-0.17673 -0.160369,-0.10473 -0.346921,-0.36656 v 0.44838 h -0.913123 v -4.81762 h 0.929487 v 1.71497 q 0.176734,-0.24874 0.389468,-0.37965 0.252009,-0.16364 0.641477,-0.16364 z m -0.238917,2.97174 q 0.360012,0 0.559656,-0.29129 0.199643,-0.29128 0.199643,-0.76584 0,-0.37965 -0.09819,-0.62839 -0.186552,-0.47129 -0.687297,-0.47129 -0.50729,0 -0.697115,0.46148 -0.09819,0.24546 -0.09819,0.63493 0,0.45819 0.202916,0.7593 0.202916,0.3011 0.618567,0.3011 z"
             style="font-weight:bold;font-size:6.70278px;fill:#ffffff"
             id="path972" />
          <path
             d="m 53.539431,170.21266 q 0.01929,0.34451 0.162609,0.55948 0.272851,0.40239 0.96187,0.40239 0.30868,0 0.562239,-0.0882 0.490581,-0.17088 0.490581,-0.61185 0,-0.33073 -0.206706,-0.47129 -0.209461,-0.1378 -0.655945,-0.23978 L 54.30562,169.6394 q -0.537435,-0.12127 -0.760677,-0.26734 -0.38585,-0.25356 -0.38585,-0.75792 0,-0.5457 0.377582,-0.89573 0.377582,-0.35002 1.069357,-0.35002 0.636653,0 1.080381,0.30868 0.446484,0.30593 0.446484,0.98117 h -0.515386 q -0.04134,-0.32522 -0.176388,-0.49885 -0.250803,-0.31695 -0.851627,-0.31695 -0.48507,0 -0.697287,0.20395 -0.212218,0.20395 -0.212218,0.47404 0,0.29766 0.248047,0.43546 0.162608,0.0882 0.735872,0.22049 l 0.567751,0.12953 q 0.410655,0.0937 0.633897,0.25632 0.38585,0.28387 0.38585,0.82406 0,0.67249 -0.490581,0.96187 -0.487825,0.28939 -1.135502,0.28939 -0.755165,0 -1.182356,-0.38585 -0.427192,-0.38309 -0.418924,-1.03904 z m 1.107942,-2.85254 z"
             style="font-size:5.64444px;fill:#ffffff"
             id="path974" />
          <path
             d="m 56.979012,167.74322 h 0.501605 v 0.82406 h 0.471289 v 0.40515 h -0.471289 v 1.92649 q 0,0.15434 0.104731,0.20671 0.05788,0.0303 0.192925,0.0303 0.03583,0 0.07717,0 0.04134,-0.003 0.09646,-0.008 v 0.39136 q -0.08544,0.0248 -0.179145,0.0358 -0.09095,0.011 -0.198437,0.011 -0.347265,0 -0.471289,-0.17639 -0.124023,-0.17914 -0.124023,-0.46302 v -1.95405 h -0.399631 v -0.40515 h 0.399631 z"
             style="font-size:5.64444px;fill:#ffffff"
             id="path976" />
          <path
             d="m 58.828338,170.73356 q 0,0.21497 0.157096,0.339 0.157097,0.12402 0.37207,0.12402 0.261827,0 0.507118,-0.12127 0.413411,-0.20119 0.413411,-0.6587 v -0.39963 q -0.09095,0.0579 -0.234266,0.0965 -0.143316,0.0386 -0.28112,0.0551 l -0.300412,0.0386 q -0.270095,0.0358 -0.405143,0.113 -0.228754,0.12953 -0.228754,0.41341 z m 1.201648,-1.00321 q 0.170877,-0.022 0.228755,-0.14332 0.03307,-0.0661 0.03307,-0.19017 0,-0.25356 -0.181901,-0.36655 -0.179145,-0.11576 -0.515386,-0.11576 -0.388607,0 -0.551215,0.20946 -0.09095,0.11576 -0.118511,0.34451 H 58.46178 q 0.01378,-0.5457 0.352778,-0.75792 0.341753,-0.21497 0.790993,-0.21497 0.520898,0 0.846115,0.19843 0.322461,0.19844 0.322461,0.61736 v 1.7005 q 0,0.0772 0.03032,0.12403 0.03307,0.0468 0.135048,0.0468 0.03307,0 0.07441,-0.003 0.04134,-0.006 0.08819,-0.0138 v 0.36656 q -0.115755,0.0331 -0.176388,0.0413 -0.06063,0.008 -0.165365,0.008 -0.256315,0 -0.37207,-0.1819 -0.06063,-0.0965 -0.08544,-0.27285 -0.151584,0.19844 -0.43546,0.34451 -0.283876,0.14607 -0.625629,0.14607 -0.410655,0 -0.672482,-0.24805 -0.259071,-0.2508 -0.259071,-0.62563 0,-0.41065 0.256315,-0.63665 0.256315,-0.226 0.672482,-0.27836 z m -0.410655,-1.23472 z"
             style="font-size:5.64444px;fill:#ffffff"
             id="path978" />
          <path
             d="m 61.587169,168.56728 h 0.471288 v 0.41893 q 0.209462,-0.25907 0.443728,-0.37207 0.234267,-0.113 0.520898,-0.113 0.628385,0 0.848871,0.43821 0.121267,0.23978 0.121267,0.68627 v 1.89342 H 63.48886 v -1.86035 q 0,-0.2701 -0.07993,-0.43546 -0.132292,-0.27561 -0.479557,-0.27561 -0.176389,0 -0.289388,0.0358 -0.20395,0.0606 -0.35829,0.24254 -0.124023,0.14607 -0.162608,0.30316 -0.03583,0.15434 -0.03583,0.44373 v 1.54616 h -0.496093 z m 1.165819,-0.0717 z"
             style="font-size:5.64444px;fill:#ffffff"
             id="path980" />
          <path
             d="m 65.04053,170.07761 q 0,0.47405 0.201193,0.79375 0.201194,0.31971 0.644922,0.31971 0.344509,0 0.564995,-0.2949 0.223242,-0.29766 0.223242,-0.85163 0,-0.55948 -0.228754,-0.82682 -0.228755,-0.2701 -0.564996,-0.2701 -0.374826,0 -0.609092,0.28663 -0.23151,0.28664 -0.23151,0.84336 z m 0.746896,-1.56269 q 0.338997,0 0.567751,0.14332 0.132292,0.0827 0.300412,0.28938 v -1.49103 h 0.476801 v 4.06245 h -0.446484 v -0.41065 q -0.173633,0.27285 -0.410655,0.39411 -0.237022,0.12127 -0.542947,0.12127 -0.493337,0 -0.854383,-0.41341 -0.361045,-0.41617 -0.361045,-1.10519 0,-0.64492 0.327972,-1.11621 0.330729,-0.47404 0.942578,-0.47404 z"
             style="font-size:5.64444px;fill:#ffffff"
             id="path982" />
          <path
             d="m 68.245844,170.73356 q 0,0.21497 0.157097,0.339 0.157096,0.12402 0.37207,0.12402 0.261827,0 0.507117,-0.12127 0.413411,-0.20119 0.413411,-0.6587 v -0.39963 q -0.09095,0.0579 -0.234266,0.0965 -0.143316,0.0386 -0.28112,0.0551 l -0.300412,0.0386 q -0.270095,0.0358 -0.405143,0.113 -0.228754,0.12953 -0.228754,0.41341 z m 1.201649,-1.00321 q 0.170876,-0.022 0.228754,-0.14332 0.03307,-0.0661 0.03307,-0.19017 0,-0.25356 -0.181901,-0.36655 -0.179145,-0.11576 -0.515386,-0.11576 -0.388607,0 -0.551215,0.20946 -0.09095,0.11576 -0.118511,0.34451 h -0.463021 q 0.01378,-0.5457 0.352778,-0.75792 0.341753,-0.21497 0.790993,-0.21497 0.520898,0 0.846115,0.19843 0.322461,0.19844 0.322461,0.61736 v 1.7005 q 0,0.0772 0.03032,0.12403 0.03307,0.0468 0.135047,0.0468 0.03307,0 0.07441,-0.003 0.04134,-0.006 0.08819,-0.0138 v 0.36656 q -0.115756,0.0331 -0.176389,0.0413 -0.06063,0.008 -0.165365,0.008 -0.256315,0 -0.37207,-0.1819 -0.06063,-0.0965 -0.08544,-0.27285 -0.151584,0.19844 -0.43546,0.34451 -0.283875,0.14607 -0.625629,0.14607 -0.410655,0 -0.672482,-0.24805 -0.259071,-0.2508 -0.259071,-0.62563 0,-0.41065 0.256315,-0.63665 0.256315,-0.226 0.672482,-0.27836 z m -0.410655,-1.23472 z"
             style="font-size:5.64444px;fill:#ffffff"
             id="path984" />
          <path
             d="m 71.018455,168.56728 h 0.471289 v 0.50988 q 0.05788,-0.14883 0.283875,-0.36105 0.225999,-0.21497 0.520899,-0.21497 0.01378,0 0.04685,0.003 0.03307,0.003 0.112999,0.011 v 0.52365 q -0.0441,-0.008 -0.08268,-0.011 -0.03583,-0.003 -0.07993,-0.003 -0.374826,0 -0.576019,0.24254 -0.201193,0.23978 -0.201193,0.55397 v 1.69774 h -0.496094 z"
             style="font-size:5.64444px;fill:#ffffff"
             id="path986" />
          <path
             d="m 73.19851,170.07761 q 0,0.47405 0.201193,0.79375 0.201194,0.31971 0.644922,0.31971 0.344509,0 0.564995,-0.2949 0.223242,-0.29766 0.223242,-0.85163 0,-0.55948 -0.228754,-0.82682 -0.228755,-0.2701 -0.564996,-0.2701 -0.374826,0 -0.609092,0.28663 -0.23151,0.28664 -0.23151,0.84336 z m 0.746896,-1.56269 q 0.338997,0 0.567751,0.14332 0.132292,0.0827 0.300412,0.28938 v -1.49103 h 0.476801 v 4.06245 h -0.446484 v -0.41065 q -0.173633,0.27285 -0.410655,0.39411 -0.237022,0.12127 -0.542947,0.12127 -0.493337,0 -0.854383,-0.41341 -0.361045,-0.41617 -0.361045,-1.10519 0,-0.64492 0.327972,-1.11621 0.330729,-0.47404 0.942578,-0.47404 z"
             style="font-size:5.64444px;fill:#ffffff"
             id="path988" />
          <path
             d="m 77.657838,167.47037 h 0.548458 v 3.56636 h 2.05052 v 0.48231 h -2.598978 z"
             style="font-size:5.64444px;fill:#ffffff"
             id="path990" />
          <path
             d="m 80.730862,168.58107 h 0.504361 v 2.93797 h -0.504361 z m 0,-1.1107 h 0.504361 v 0.56224 h -0.504361 z"
             style="font-size:5.64444px;fill:#ffffff"
             id="path992" />
          <path
             d="m 81.94629,167.45659 h 0.482313 v 1.46898 q 0.162608,-0.21221 0.388606,-0.32246 0.225998,-0.113 0.490581,-0.113 0.551215,0 0.892968,0.38034 0.34451,0.37759 0.34451,1.11621 0,0.70005 -0.338998,1.16307 -0.338997,0.46302 -0.939821,0.46302 -0.336241,0 -0.567751,-0.16261 -0.137804,-0.0965 -0.2949,-0.30868 v 0.37758 H 81.94629 Z m 1.289842,3.71794 q 0.402387,0 0.600825,-0.3197 0.201193,-0.31971 0.201193,-0.84336 0,-0.46578 -0.201193,-0.7717 -0.198438,-0.30593 -0.587044,-0.30593 -0.338997,0 -0.595312,0.25081 -0.253559,0.2508 -0.253559,0.82682 0,0.41616 0.104731,0.67524 0.195681,0.48782 0.730359,0.48782 z"
             style="font-size:5.64444px;fill:#ffffff"
             id="path994" />
          <path
             d="m 85.137825,168.56728 h 0.471288 v 0.50988 q 0.05788,-0.14883 0.283876,-0.36105 0.225998,-0.21497 0.520898,-0.21497 0.01378,0 0.04685,0.003 0.03307,0.003 0.112999,0.011 v 0.52365 q -0.0441,-0.008 -0.08268,-0.011 -0.03583,-0.003 -0.07993,-0.003 -0.374826,0 -0.57602,0.24254 -0.201193,0.23978 -0.201193,0.55397 v 1.69774 h -0.496093 z"
             style="font-size:5.64444px;fill:#ffffff"
             id="path996" />
          <path
             d="m 87.384025,170.73356 q 0,0.21497 0.157096,0.339 0.157096,0.12402 0.37207,0.12402 0.261827,0 0.507118,-0.12127 0.413411,-0.20119 0.413411,-0.6587 v -0.39963 q -0.09095,0.0579 -0.234266,0.0965 -0.143316,0.0386 -0.28112,0.0551 l -0.300412,0.0386 q -0.270095,0.0358 -0.405143,0.113 -0.228754,0.12953 -0.228754,0.41341 z m 1.201648,-1.00321 q 0.170877,-0.022 0.228755,-0.14332 0.03307,-0.0661 0.03307,-0.19017 0,-0.25356 -0.1819,-0.36655 -0.179145,-0.11576 -0.515386,-0.11576 -0.388607,0 -0.551215,0.20946 -0.09095,0.11576 -0.118511,0.34451 h -0.463021 q 0.01378,-0.5457 0.352778,-0.75792 0.341753,-0.21497 0.790993,-0.21497 0.520898,0 0.846115,0.19843 0.32246,0.19844 0.32246,0.61736 v 1.7005 q 0,0.0772 0.03032,0.12403 0.03307,0.0468 0.135048,0.0468 0.03307,0 0.07441,-0.003 0.04134,-0.006 0.08819,-0.0138 v 0.36656 q -0.115755,0.0331 -0.176388,0.0413 -0.06063,0.008 -0.165365,0.008 -0.256315,0 -0.37207,-0.1819 -0.06063,-0.0965 -0.08544,-0.27285 -0.151584,0.19844 -0.43546,0.34451 -0.283876,0.14607 -0.625629,0.14607 -0.410655,0 -0.672482,-0.24805 -0.259071,-0.2508 -0.259071,-0.62563 0,-0.41065 0.256315,-0.63665 0.256315,-0.226 0.672482,-0.27836 z m -0.410655,-1.23472 z"
             style="font-size:5.64444px;fill:#ffffff"
             id="path998" />
          <path
             d="m 90.156635,168.56728 h 0.471289 v 0.50988 q 0.05788,-0.14883 0.283875,-0.36105 0.225998,-0.21497 0.520898,-0.21497 0.01378,0 0.04685,0.003 0.03307,0.003 0.112999,0.011 v 0.52365 q -0.0441,-0.008 -0.08268,-0.011 -0.03583,-0.003 -0.07993,-0.003 -0.374826,0 -0.576019,0.24254 -0.201194,0.23978 -0.201194,0.55397 v 1.69774 h -0.496093 z"
             style="font-size:5.64444px;fill:#ffffff"
             id="path1000" />
          <path
             d="m 93.866311,168.56728 h 0.548459 q -0.104731,0.28388 -0.465777,1.29536 -0.270095,0.76068 -0.451996,1.24023 -0.429948,1.12999 -0.606337,1.37804 -0.176388,0.24805 -0.606336,0.24805 -0.104731,0 -0.162608,-0.008 -0.05512,-0.008 -0.137804,-0.0303 v -0.45199 q 0.129535,0.0358 0.187413,0.0441 0.05788,0.008 0.101975,0.008 0.137804,0 0.201193,-0.0469 0.06615,-0.0441 0.110243,-0.11025 0.01378,-0.022 0.09922,-0.22599 0.08544,-0.20395 0.124023,-0.30317 l -1.091405,-3.0372 h 0.562239 l 0.790993,2.4033 z m -0.799262,-0.0717 z"
             style="font-size:5.64444px;fill:#ffffff"
             id="path1002" />
        </g>
        <path
           d="m 45.605457,161.36353 -2.686659,9.40351 c -0.102849,0.35682 -0.474363,0.56252 -0.831185,0.46177 -0.356822,-0.10285 -0.562519,-0.47437 -0.461769,-0.83119 l 2.686658,-9.40309 c 0.102849,-0.3567 0.474363,-0.56323 0.831185,-0.46131 0.356822,0.1019 0.562521,0.4737 0.46177,0.83031 z m 2.178713,1.69196 2.350826,2.35083 c 0.26237,0.26236 0.26237,0.68636 0,0.94873 l -2.350826,2.35082 c -0.26237,0.26237 -0.686358,0.26237 -0.948727,0 -0.262369,-0.26237 -0.262369,-0.68636 0,-0.94873 l 1.874365,-1.87646 -1.874365,-1.87646 c -0.262369,-0.26237 -0.262369,-0.68636 0,-0.94873 0.262369,-0.26236 0.686357,-0.26236 0.948727,0 z m -7.388313,0.94873 -1.875414,1.87646 1.875414,1.87646 c 0.26237,0.26237 0.26237,0.68636 0,0.94873 -0.262368,0.26237 -0.686357,0.26237 -0.948725,0 l -2.351415,-2.35082 c -0.262285,-0.26237 -0.262285,-0.68637 0,-0.94873 l 2.351415,-2.35083 c 0.262368,-0.26236 0.686357,-0.26236 0.948725,0 0.26237,0.26237 0.26237,0.68636 0,0.94873 z"
           id="path1022"
           style="fill:#ffffff;stroke-width:0.0209895" />
      </g>
    </g>
  </g>
</svg>
