<?xml version="1.0" encoding="UTF-8" standalone="no"?>
<!-- Created with Inkscape (http://www.inkscape.org/) -->

<svg
   width="60.854164mm"
   height="16.542847mm"
   viewBox="0 0 60.854163 16.542847"
   version="1.1"
   id="svg970"
   inkscape:version="1.2 (dc2aedaf03, 2022-05-15)"
   sodipodi:docname="readme.fpm.svg"
   xmlns:inkscape="http://www.inkscape.org/namespaces/inkscape"
   xmlns:sodipodi="http://sodipodi.sourceforge.net/DTD/sodipodi-0.dtd"
   xmlns="http://www.w3.org/2000/svg"
   xmlns:svg="http://www.w3.org/2000/svg">
  <sodipodi:namedview
     id="namedview972"
     pagecolor="#ffffff"
     bordercolor="#666666"
     borderopacity="1.0"
     inkscape:pageshadow="2"
     inkscape:pageopacity="0.0"
     inkscape:pagecheckerboard="0"
     inkscape:document-units="mm"
     showgrid="false"
     inkscape:zoom="2.1215981"
     inkscape:cx="124.19883"
     inkscape:cy="38.885781"
     inkscape:window-width="1920"
     inkscape:window-height="1023"
     inkscape:window-x="0"
     inkscape:window-y="0"
     inkscape:window-maximized="1"
     inkscape:current-layer="g22615"
     fit-margin-top="0"
     fit-margin-left="0"
     fit-margin-right="0"
     fit-margin-bottom="0"
     inkscape:showpageshadow="0"
     inkscape:deskcolor="#d1d1d1" />
  <defs
     id="defs967" />
  <g
     inkscape:label="Layer 1"
     inkscape:groupmode="layer"
     id="layer1"
     transform="translate(-199.18999,-184.01354)">
    <g
       id="g22615"
       transform="translate(159.14837,55.440673)">
      <g
         id="readme.fpm"
         transform="translate(7.5282106,0.41156784)"
         inkscape:label="fpm"
         style="display:inline">
        <g
           id="g38223">
          <path
             id="rect68273"
             style="fill:#a34e9c;stroke:#1e1e1e;stroke-width:0.212157;paint-order:stroke fill markers"
             d="m 34.719712,128.26738 h 56.441557 c 1.163525,0 2.100225,0.9367 2.100225,2.10022 v 12.13024 c 0,1.16353 -0.9367,2.10023 -2.100225,2.10023 H 34.719712 c -1.163524,0 -2.100224,-0.9367 -2.100224,-2.10023 V 130.3676 c 0,-1.16352 0.9367,-2.10022 2.100224,-2.10022 z" />
          <g
             id="g38206"
             transform="translate(-0.66145739,5.9804473e-4)">
            <g
               id="g46807"
               transform="translate(-2.4495888,-6.6458448)"
               inkscape:label="g46807">
              <g
                 aria-label="
Package Manager"
                 id="text50081"
                 style="font-size:7.05556px;line-height:1.05;font-family:Helvetica;-inkscape-font-specification:Helvetica;stroke-width:0.264583"
                 inkscape:label="text50081">
                <path
                   d="m 52.355188,145.04594 h 1.707907 q 0.506429,0 0.816488,0.28681 0.310059,0.28422 0.310059,0.80098 0,0.44442 -0.276469,0.77515 -0.276469,0.32815 -0.850078,0.32815 h -1.193726 v 1.60455 h -0.514181 z m 2.315106,1.09038 q 0,-0.41858 -0.310059,-0.56844 -0.170533,-0.0801 -0.467672,-0.0801 h -1.023194 v 1.31516 h 1.023194 q 0.346232,0 0.560689,-0.14727 0.217042,-0.14728 0.217042,-0.51935 z"
                   style="fill:#ffffff"
                   id="path2349" />
                <path
                   d="m 56.130154,148.10519 q 0,0.20154 0.147278,0.31781 0.147277,0.11627 0.348816,0.11627 0.245463,0 0.475423,-0.11368 0.387574,-0.18862 0.387574,-0.61754 v -0.37465 q -0.08527,0.0543 -0.219625,0.0904 -0.134359,0.0362 -0.26355,0.0517 l -0.281637,0.0362 q -0.253215,0.0336 -0.379822,0.10594 -0.214457,0.12144 -0.214457,0.38757 z m 1.126546,-0.94051 q 0.160198,-0.0207 0.214458,-0.13436 0.03101,-0.062 0.03101,-0.17828 0,-0.23771 -0.170533,-0.34365 -0.167948,-0.10852 -0.483175,-0.10852 -0.364319,0 -0.516764,0.19637 -0.08527,0.10852 -0.111105,0.32298 h -0.434082 q 0.01292,-0.5116 0.330729,-0.71056 0.320395,-0.20153 0.741558,-0.20153 0.488342,0 0.793233,0.18603 0.302308,0.18604 0.302308,0.57878 v 1.59422 q 0,0.0723 0.02842,0.11627 0.03101,0.0439 0.126607,0.0439 0.03101,0 0.06976,-0.003 0.03876,-0.005 0.08268,-0.0129 v 0.34365 q -0.108521,0.031 -0.165365,0.0388 -0.05684,0.008 -0.155029,0.008 -0.240296,0 -0.348816,-0.17053 -0.05685,-0.0904 -0.0801,-0.2558 -0.14211,0.18603 -0.408244,0.32298 -0.266134,0.13694 -0.586528,0.13694 -0.38499,0 -0.630453,-0.23255 -0.242879,-0.23512 -0.242879,-0.58652 0,-0.38499 0.240295,-0.59687 0.240296,-0.21187 0.630453,-0.26096 z m -0.384989,-1.15755 z"
                   style="font-size:5.29167px;fill:#ffffff"
                   id="path2351" />
                <path
                   d="m 59.78368,145.99421 q 0.467672,0 0.759644,0.22737 0.294555,0.22738 0.353983,0.7829 h -0.452169 q -0.04134,-0.2558 -0.188619,-0.42374 -0.147278,-0.17054 -0.472839,-0.17054 -0.444418,0 -0.635621,0.43409 -0.124023,0.28163 -0.124023,0.69504 0,0.416 0.1757,0.70022 0.175699,0.28422 0.552938,0.28422 0.289388,0 0.457336,-0.1757 0.170533,-0.17828 0.235128,-0.48576 h 0.452169 q -0.07751,0.55036 -0.387573,0.80615 -0.310059,0.25322 -0.793234,0.25322 -0.542603,0 -0.865581,-0.39533 -0.322978,-0.3979 -0.322978,-0.99218 0,-0.72864 0.353984,-1.1343 0.353984,-0.40566 0.901755,-0.40566 z m -0.07235,0.0129 z"
                   style="font-size:5.29167px;fill:#ffffff"
                   id="path2353" />
                <path
                   d="m 61.35206,145.04594 h 0.447002 v 2.20401 l 1.193726,-1.17564 h 0.594279 l -1.059367,1.03611 1.118795,1.73116 h -0.594279 l -0.862997,-1.39526 -0.390157,0.35656 v 1.0387 H 61.35206 Z"
                   style="font-size:5.29167px;fill:#ffffff"
                   id="path2355" />
                <path
                   d="m 64.364798,148.10519 q 0,0.20154 0.147278,0.31781 0.147278,0.11627 0.348816,0.11627 0.245463,0 0.475424,-0.11368 0.387573,-0.18862 0.387573,-0.61754 v -0.37465 q -0.08527,0.0543 -0.219625,0.0904 -0.134359,0.0362 -0.26355,0.0517 l -0.281637,0.0362 q -0.253214,0.0336 -0.379822,0.10594 -0.214457,0.12144 -0.214457,0.38757 z m 1.126547,-0.94051 q 0.160197,-0.0207 0.214457,-0.13436 0.03101,-0.062 0.03101,-0.17828 0,-0.23771 -0.170532,-0.34365 -0.167949,-0.10852 -0.483175,-0.10852 -0.364319,0 -0.516765,0.19637 -0.08527,0.10852 -0.111104,0.32298 H 64.02115 q 0.01292,-0.5116 0.330729,-0.71056 0.320394,-0.20153 0.741557,-0.20153 0.488343,0 0.793234,0.18603 0.302307,0.18604 0.302307,0.57878 v 1.59422 q 0,0.0723 0.02842,0.11627 0.03101,0.0439 0.126608,0.0439 0.031,0 0.06976,-0.003 0.03876,-0.005 0.08268,-0.0129 v 0.34365 q -0.10852,0.031 -0.165365,0.0388 -0.05684,0.008 -0.155029,0.008 -0.240296,0 -0.348816,-0.17053 -0.05684,-0.0904 -0.0801,-0.2558 -0.14211,0.18603 -0.408244,0.32298 -0.266133,0.13694 -0.586528,0.13694 -0.384989,0 -0.630452,-0.23255 -0.24288,-0.23512 -0.24288,-0.58652 0,-0.38499 0.240296,-0.59687 0.240295,-0.21187 0.630453,-0.26096 z m -0.38499,-1.15755 z"
                   style="font-size:5.29167px;fill:#ffffff"
                   id="path2357" />
                <path
                   d="m 67.92789,146.02521 q 0.325561,0 0.568441,0.1602 0.131775,0.0904 0.268717,0.26355 v -0.34882 h 0.428915 v 2.51665 q 0,0.5271 -0.155029,0.83199 -0.289389,0.56327 -1.092958,0.56327 -0.447001,0 -0.751892,-0.20154 -0.304891,-0.19895 -0.341065,-0.62528 h 0.47284 q 0.03359,0.18603 0.134359,0.2868 0.157613,0.15503 0.496094,0.15503 0.534851,0 0.700216,-0.37724 0.09819,-0.2222 0.09043,-0.79323 -0.139527,0.21187 -0.335897,0.31523 -0.196371,0.10335 -0.519349,0.10335 -0.449585,0 -0.788066,-0.31781 -0.335897,-0.32039 -0.335897,-1.05678 0,-0.69505 0.338481,-1.08521 0.341065,-0.39016 0.821656,-0.39016 z m 0.837158,1.42111 q 0,-0.51418 -0.211873,-0.76223 -0.211874,-0.24805 -0.540019,-0.24805 -0.490927,0 -0.671794,0.45992 -0.0956,0.24546 -0.0956,0.64337 0,0.46768 0.188619,0.71314 0.191203,0.24288 0.511597,0.24288 0.501262,0 0.705384,-0.45217 0.113688,-0.2558 0.113688,-0.59686 z m -0.782898,-1.43919 z"
                   style="font-size:5.29167px;fill:#ffffff"
                   id="path2359" />
                <path
                   d="m 71.046566,146.01229 q 0.294555,0 0.571025,0.13953 0.276469,0.13694 0.421163,0.35657 0.139526,0.20929 0.186035,0.48834 0.04134,0.1912 0.04134,0.60978 h -2.028301 q 0.01292,0.42117 0.198954,0.67696 0.186036,0.25322 0.576193,0.25322 0.364319,0 0.58136,-0.2403 0.124024,-0.13952 0.1757,-0.32297 h 0.457337 q -0.01809,0.15244 -0.12144,0.34106 -0.100769,0.18604 -0.227376,0.30489 -0.211874,0.20671 -0.524516,0.27905 -0.167949,0.0414 -0.379822,0.0414 -0.516765,0 -0.875916,-0.37466 -0.359152,-0.37724 -0.359152,-1.0542 0,-0.66662 0.361735,-1.08262 0.361736,-0.416 0.94568,-0.416 z m 0.741557,1.22474 q -0.02842,-0.30231 -0.131775,-0.48318 -0.191203,-0.3359 -0.638204,-0.3359 -0.320394,0 -0.537436,0.23255 -0.217041,0.22996 -0.22996,0.58653 z m -0.785482,-1.2299 z"
                   style="font-size:5.29167px;fill:#ffffff"
                   id="path2361" />
                <path
                   d="m 74.356443,145.04594 h 0.73639 l 1.090373,3.20911 1.082622,-3.20911 h 0.728638 v 3.79564 h -0.488343 v -2.24017 q 0,-0.11628 0.0052,-0.38499 0.0052,-0.26872 0.0052,-0.5762 l -1.082622,3.20136 h -0.509013 l -1.090374,-3.20136 v 0.11628 q 0,0.13952 0.0052,0.42633 0.0078,0.28422 0.0078,0.41858 v 2.24017 h -0.490926 z"
                   style="font-size:5.29167px;fill:#ffffff"
                   id="path2363" />
                <path
                   d="m 79.071919,148.10519 q 0,0.20154 0.147278,0.31781 0.147278,0.11627 0.348816,0.11627 0.245463,0 0.475423,-0.11368 0.387574,-0.18862 0.387574,-0.61754 v -0.37465 q -0.08527,0.0543 -0.219625,0.0904 -0.134359,0.0362 -0.26355,0.0517 l -0.281637,0.0362 q -0.253214,0.0336 -0.379822,0.10594 -0.214457,0.12144 -0.214457,0.38757 z m 1.126547,-0.94051 q 0.160197,-0.0207 0.214457,-0.13436 0.03101,-0.062 0.03101,-0.17828 0,-0.23771 -0.170532,-0.34365 -0.167949,-0.10852 -0.483175,-0.10852 -0.364319,0 -0.516765,0.19637 -0.08527,0.10852 -0.111104,0.32298 H 78.72827 q 0.01292,-0.5116 0.33073,-0.71056 0.320394,-0.20153 0.741557,-0.20153 0.488343,0 0.793234,0.18603 0.302307,0.18604 0.302307,0.57878 v 1.59422 q 0,0.0723 0.02842,0.11627 0.03101,0.0439 0.126607,0.0439 0.03101,0 0.06976,-0.003 0.03876,-0.005 0.08268,-0.0129 v 0.34365 q -0.108521,0.031 -0.165365,0.0388 -0.05684,0.008 -0.155029,0.008 -0.240296,0 -0.348816,-0.17053 -0.05684,-0.0904 -0.0801,-0.2558 -0.14211,0.18603 -0.408244,0.32298 -0.266134,0.13694 -0.586528,0.13694 -0.384989,0 -0.630452,-0.23255 -0.24288,-0.23512 -0.24288,-0.58652 0,-0.38499 0.240296,-0.59687 0.240295,-0.21187 0.630453,-0.26096 z m -0.38499,-1.15755 z"
                   style="font-size:5.29167px;fill:#ffffff"
                   id="path2365" />
                <path
                   d="m 81.658327,146.07431 h 0.441834 v 0.39274 q 0.196371,-0.24288 0.415996,-0.34882 0.219625,-0.10594 0.488342,-0.10594 0.589112,0 0.795818,0.41083 0.113688,0.22479 0.113688,0.64337 v 1.77509 h -0.47284 v -1.74408 q 0,-0.25321 -0.07493,-0.40824 -0.124023,-0.25839 -0.449585,-0.25839 -0.165364,0 -0.271301,0.0336 -0.191203,0.0568 -0.335897,0.22738 -0.116272,0.13694 -0.152446,0.28422 -0.03359,0.14469 -0.03359,0.416 v 1.44952 h -0.465088 z m 1.092958,-0.0672 z"
                   style="font-size:5.29167px;fill:#ffffff"
                   id="path2367" />
                <path
                   d="m 84.957867,148.10519 q 0,0.20154 0.147278,0.31781 0.147278,0.11627 0.348816,0.11627 0.245463,0 0.475424,-0.11368 0.387573,-0.18862 0.387573,-0.61754 v -0.37465 q -0.08527,0.0543 -0.219625,0.0904 -0.134359,0.0362 -0.26355,0.0517 l -0.281637,0.0362 q -0.253214,0.0336 -0.379822,0.10594 -0.214457,0.12144 -0.214457,0.38757 z m 1.126547,-0.94051 q 0.160197,-0.0207 0.214457,-0.13436 0.03101,-0.062 0.03101,-0.17828 0,-0.23771 -0.170532,-0.34365 -0.167949,-0.10852 -0.483175,-0.10852 -0.364319,0 -0.516765,0.19637 -0.08527,0.10852 -0.111104,0.32298 h -0.434082 q 0.01292,-0.5116 0.330729,-0.71056 0.320394,-0.20153 0.741557,-0.20153 0.488343,0 0.793234,0.18603 0.302307,0.18604 0.302307,0.57878 v 1.59422 q 0,0.0723 0.02842,0.11627 0.03101,0.0439 0.126608,0.0439 0.03101,0 0.06976,-0.003 0.03876,-0.005 0.08268,-0.0129 v 0.34365 q -0.10852,0.031 -0.165364,0.0388 -0.05684,0.008 -0.15503,0.008 -0.240295,0 -0.348816,-0.17053 -0.05684,-0.0904 -0.0801,-0.2558 -0.14211,0.18603 -0.408244,0.32298 -0.266133,0.13694 -0.586527,0.13694 -0.38499,0 -0.630453,-0.23255 -0.24288,-0.23512 -0.24288,-0.58652 0,-0.38499 0.240296,-0.59687 0.240295,-0.21187 0.630453,-0.26096 z m -0.38499,-1.15755 z"
                   style="font-size:5.29167px;fill:#ffffff"
                   id="path2369" />
                <path
                   d="m 88.520963,146.02521 q 0.325561,0 0.568441,0.1602 0.131775,0.0904 0.268717,0.26355 v -0.34882 h 0.428915 v 2.51665 q 0,0.5271 -0.155029,0.83199 -0.289389,0.56327 -1.092958,0.56327 -0.447001,0 -0.751892,-0.20154 -0.304891,-0.19895 -0.341065,-0.62528 h 0.47284 q 0.03359,0.18603 0.134359,0.2868 0.157613,0.15503 0.496094,0.15503 0.534851,0 0.700216,-0.37724 0.09819,-0.2222 0.09043,-0.79323 -0.139526,0.21187 -0.335897,0.31523 -0.19637,0.10335 -0.519348,0.10335 -0.449585,0 -0.788066,-0.31781 -0.335897,-0.32039 -0.335897,-1.05678 0,-0.69505 0.338481,-1.08521 0.341064,-0.39016 0.821656,-0.39016 z m 0.837158,1.42111 q 0,-0.51418 -0.211873,-0.76223 -0.211874,-0.24805 -0.540019,-0.24805 -0.490927,0 -0.671794,0.45992 -0.0956,0.24546 -0.0956,0.64337 0,0.46768 0.188619,0.71314 0.191203,0.24288 0.511597,0.24288 0.501262,0 0.705384,-0.45217 0.113688,-0.2558 0.113688,-0.59686 z m -0.782898,-1.43919 z"
                   style="font-size:5.29167px;fill:#ffffff"
                   id="path2371" />
                <path
                   d="m 91.639637,146.01229 q 0.294555,0 0.571025,0.13953 0.276469,0.13694 0.421163,0.35657 0.139526,0.20929 0.186035,0.48834 0.04134,0.1912 0.04134,0.60978 h -2.0283 q 0.01292,0.42117 0.198954,0.67696 0.186036,0.25322 0.576193,0.25322 0.364319,0 0.58136,-0.2403 0.124024,-0.13952 0.1757,-0.32297 h 0.457337 q -0.01809,0.15244 -0.12144,0.34106 -0.100769,0.18604 -0.227376,0.30489 -0.211874,0.20671 -0.524516,0.27905 -0.167949,0.0414 -0.379822,0.0414 -0.516765,0 -0.875916,-0.37466 -0.359152,-0.37724 -0.359152,-1.0542 0,-0.66662 0.361735,-1.08262 0.361736,-0.416 0.94568,-0.416 z m 0.741557,1.22474 q -0.02842,-0.30231 -0.131775,-0.48318 -0.191203,-0.3359 -0.638204,-0.3359 -0.320395,0 -0.537436,0.23255 -0.217041,0.22996 -0.22996,0.58653 z m -0.785482,-1.2299 z"
                   style="font-size:5.29167px;fill:#ffffff"
                   id="path2373" />
                <path
                   d="m 93.443145,146.07431 h 0.441833 v 0.478 q 0.05426,-0.13952 0.266134,-0.33848 0.211874,-0.20154 0.488343,-0.20154 0.01292,0 0.04393,0.003 0.03101,0.003 0.105937,0.0103 v 0.49093 q -0.04134,-0.008 -0.07751,-0.0103 -0.03359,-0.003 -0.07493,-0.003 -0.3514,0 -0.540019,0.22738 -0.188619,0.22479 -0.188619,0.51935 v 1.59163 h -0.465088 z"
                   style="font-size:5.29167px;fill:#ffffff"
                   id="path2375" />
              </g>
              <g
                 id="g39582"
                 transform="matrix(0.87759324,0,0,0.87759324,6.4123187,17.705899)">
                <path
                   d="m 61.403007,142.57709 0.619428,-4.69236 h 0.89341 l 0.125998,0.49025 c 0.458278,-0.31047 0.951707,-0.55153 1.518045,-0.55153 0.297708,0 0.535671,0.0584 0.713745,0.17508 0.183861,0.1109 0.331268,0.28598 0.442221,0.52527 0.434554,-0.38596 1.190105,-0.70035 1.786966,-0.70035 0.438026,0 0.755696,0.0992 0.953299,0.29765 0.20339,0.1926 0.309424,0.46981 0.318538,0.83166 0.0051,0.20854 -0.0036,0.42518 -0.03703,0.63032 l -0.398679,2.99401 h -1.086096 l 0.399402,-2.96774 c 0.01,-0.0642 0.01418,-0.13424 0.0123,-0.2101 -0.01,-0.40272 -0.239844,-0.60407 -0.689442,-0.60407 -0.405044,0 -0.929286,0.24057 -1.249704,0.46399 0.01649,0.13225 0.0082,0.27313 -0.01635,0.4027 l -0.392024,2.91522 h -1.077272 l 0.382911,-2.92397 c 0.01041,-0.0525 0.01519,-0.0963 0.01432,-0.13132 0.0048,-0.0409 0.0067,-0.0846 0.0055,-0.13132 -0.0046,-0.18675 -0.06076,-0.33266 -0.168526,-0.43772 -0.107626,-0.10505 -0.278324,-0.15758 -0.511947,-0.15758 -0.393326,0 -0.701883,0.22603 -1.021723,0.42897 l -0.451194,3.35294 z"
                   fill="#ffffff"
                   id="path2"
                   style="stroke-width:0.0144658"
                   inkscape:label="path2" />
                <path
                   d="m 55.98468,144.64803 0.887191,-6.60957 c 0.354557,-0.0642 0.712442,-0.11382 1.073655,-0.14883 0.360922,-0.0409 0.760469,-0.0613 1.19835,-0.0613 0.537262,0 0.928996,0.13717 1.175205,0.41147 0.251995,0.2743 0.384937,0.68867 0.398679,1.24312 0.0036,0.1459 -0.0014,0.29765 -0.01504,0.45523 -0.0136,0.15757 -0.03009,0.31516 -0.04962,0.47274 -0.09866,0.72953 -0.330256,1.28107 -0.69465,1.65458 -0.364395,0.37352 -0.841623,0.56029 -1.431395,0.56029 -0.227693,0 -0.438316,-0.0175 -0.631869,-0.0525 -0.193553,-0.035 -0.37018,-0.0905 -0.529594,-0.16634 l -0.294814,2.24113 z m 2.396991,-2.94148 c 0.373797,0 0.653856,-0.12256 0.840465,-0.36768 0.18661,-0.24512 0.317381,-0.6274 0.392025,-1.14684 0.0098,-0.0759 0.01938,-0.1605 0.02879,-0.25387 0.0094,-0.0934 0.01287,-0.18383 0.0107,-0.27138 -0.008,-0.321 -0.07508,-0.56029 -0.201654,-0.71787 -0.12079,-0.16341 -0.312607,-0.24512 -0.575452,-0.24512 l -1.015791,0.009 -0.385081,2.83643 c 0.164766,0.0525 0.308846,0.0934 0.432239,0.12256 0.129036,0.0233 0.287003,0.035 0.473757,0.035 z"
                   fill="#ffffff"
                   id="path4"
                   style="stroke-width:0.0144658" />
                <path
                   d="m 52.805377,142.57328 0.501198,-3.80816 h -0.921243 l 0.09652,-0.70036 0.942956,-0.18383 0.105254,-0.70035 c 0.03423,-0.26848 0.104342,-0.50192 0.210377,-0.70037 0.111719,-0.20425 0.274229,-0.36184 0.487528,-0.47273 0.219143,-0.11089 0.509733,-0.16634 0.871769,-0.16634 0.192685,0 0.629482,0.009 0.816814,0.0263 0.187044,0.0117 0.471587,0.0292 0.606408,0.0525 l -0.103141,0.7879 h -1.114666 c -0.262757,0 -0.445114,0.0642 -0.547026,0.1926 -0.102071,0.12256 -0.167442,0.31225 -0.196113,0.56903 l -0.05111,0.41147 h 1.490561 l -0.118186,0.88419 h -1.490604 l -0.509965,3.80816 z"
                   fill="#ffffff"
                   id="path6"
                   style="stroke-width:0.0144658" />
              </g>
            </g>
            <g
               id="g46798"
               transform="translate(-2.9787555,-6.6458448)">
              <path
                 d="m 38.364778,145.62791 h 4.430587 l -0.519152,4.04754 c -0.0082,0.064 -0.06267,0.11188 -0.127173,0.11188 h -4.220645 c -0.0515,0 -0.09129,-0.0452 -0.08477,-0.0962 z"
                 fill="#4d41b1"
                 id="path8"
                 style="stroke-width:0.020005" />
              <path
                 d="m 42.958567,140.8861 h -3.943828 l -0.533508,4.15945 h 4.430603 l 0.47148,-3.67599 c -0.265747,-0.003 -0.455536,-0.21838 -0.424747,-0.48346 z"
                 fill="#4d41b1"
                 id="path10"
                 style="stroke-width:0.020005" />
              <path
                 d="m 48.461566,140.8861 h -3.886268 c -0.05569,0.30852 -0.333746,0.4866 -0.579168,0.48346 l -0.468659,3.67599 h 4.290891 c 0.06454,0 0.119028,-0.048 0.127188,-0.11202 z"
                 fill="#4d41b1"
                 id="path12"
                 style="stroke-width:0.020005" />
              <path
                 fill-rule="evenodd"
                 clip-rule="evenodd"
                 d="m 44.106998,136.14424 c -2.111537,-0.027 -4.503937,1.50511 -4.98281,4.15943 h 3.915819 c 0.05569,-0.3085 0.333746,-0.48659 0.579188,-0.48347 z m 0.59035,-1.5e-4 h 4.306535 c 0.05151,0 0.09134,0.0452 0.08483,0.0962 l -0.518032,4.06317 -3.916858,-3e-5 c 0.03081,-0.2652 -0.15916,-0.48055 -0.425106,-0.48346 z"
                 fill="#4d41b1"
                 id="path14"
                 style="stroke-width:0.020005" />
            </g>
          </g>
        </g>
      </g>
    </g>
  </g>
</svg>
