<?xml version="1.0" encoding="UTF-8" standalone="no"?>
<!-- Created with Inkscape (http://www.inkscape.org/) -->

<svg
   width="63.5mm"
   height="16.550533mm"
   viewBox="0 0 63.5 16.550533"
   version="1.1"
   id="svg5"
   inkscape:version="1.1.2 (0a00cf5339, 2022-02-04)"
   sodipodi:docname="readme.discourse.svg"
   xmlns:inkscape="http://www.inkscape.org/namespaces/inkscape"
   xmlns:sodipodi="http://sodipodi.sourceforge.net/DTD/sodipodi-0.dtd"
   xmlns="http://www.w3.org/2000/svg"
   xmlns:svg="http://www.w3.org/2000/svg">
  <sodipodi:namedview
     id="namedview7"
     pagecolor="#ffffff"
     bordercolor="#666666"
     borderopacity="1.0"
     inkscape:pageshadow="2"
     inkscape:pageopacity="0.0"
     inkscape:pagecheckerboard="0"
     inkscape:document-units="mm"
     showgrid="false"
     inkscape:zoom="1"
     inkscape:cx="225.5"
     inkscape:cy="205"
     inkscape:window-width="1920"
     inkscape:window-height="1023"
     inkscape:window-x="0"
     inkscape:window-y="0"
     inkscape:window-maximized="1"
     inkscape:current-layer="layer1"
     fit-margin-top="0"
     fit-margin-left="0"
     fit-margin-right="0"
     fit-margin-bottom="0" />
  <defs
     id="defs2">
    <rect
       x="170.49045"
       y="421.97745"
       width="490.70828"
       height="35.169304"
       id="rect8622" />
  </defs>
  <g
     inkscape:label="Layer 1"
     inkscape:groupmode="layer"
     id="layer1"
     transform="translate(-75.585476,-54.049696)">
    <!--! Font Awesome Pro 6.1.1 by @fontawesome - https://fontawesome.com License - https://fontawesome.com/license (Commercial License) Copyright 2022 Fonticons, Inc. -->
    <!--! Font Awesome Pro 6.1.1 by @fontawesome - https://fontawesome.com License - https://fontawesome.com/license (Commercial License) Copyright 2022 Fonticons, Inc. -->
    <!--! Font Awesome Pro 6.1.1 by @fontawesome - https://fontawesome.com License - https://fontawesome.com/license (Commercial License) Copyright 2022 Fonticons, Inc. -->
    <g
       inkscape:label="Layer 1"
       inkscape:groupmode="layer"
       id="layer1-3"
       transform="matrix(1.0431916,0,0,1.0431916,-52.907141,22.275941)" />
    <!--! Font Awesome Pro 6.1.1 by @fontawesome - https://fontawesome.com License - https://fontawesome.com/license (Commercial License) Copyright 2022 Fonticons, Inc. -->
    <!--! Font Awesome Pro 6.1.1 by @fontawesome - https://fontawesome.com License - https://fontawesome.com/license (Commercial License) Copyright 2022 Fonticons, Inc. -->
    <!--! Font Awesome Pro 6.1.1 by @fontawesome - https://fontawesome.com License - https://fontawesome.com/license (Commercial License) Copyright 2022 Fonticons, Inc. -->
    <g
       id="g38834"
       transform="translate(43.891517,10.072423)">
      <path
         id="rect20357"
         style="fill:#5c3f78;stroke:#1e1e1e;stroke-width:0.216749;paint-order:stroke fill markers"
         d="m 33.902956,44.085648 h 59.082008 c 1.163745,0 2.100623,0.936877 2.100623,2.100622 v 12.132539 c 0,1.163745 -0.936878,2.100623 -2.100623,2.100623 H 33.902956 c -1.163745,0 -2.100622,-0.936878 -2.100622,-2.100623 V 46.18627 c 0,-1.163745 0.936877,-2.100622 2.100622,-2.100622 z" />
      <g
         id="g38760"
         transform="translate(-0.37508314)">
        <g
           aria-label="Fortran Discourse"
           id="text2564"
           style="font-size:6.35px;line-height:1.25;font-family:Helvetica;-inkscape-font-specification:Helvetica;stroke-width:0.264583">
          <path
             d="m 44.344608,50.034587 h 3.159497 v 0.558106 h -2.54248 v 1.382861 h 2.235522 v 0.542602 h -2.235522 v 2.071192 h -0.617017 z"
             style="fill:#ffffff"
             id="path962" />
          <path
             d="m 49.407865,54.22968 q 0.555005,0 0.759644,-0.418579 0.207739,-0.42168 0.207739,-0.936377 0,-0.465088 -0.148828,-0.756543 -0.235645,-0.458887 -0.812354,-0.458887 -0.511596,0 -0.74414,0.390674 -0.232544,0.390674 -0.232544,0.942578 0,0.5302 0.232544,0.883667 0.232544,0.353467 0.737939,0.353467 z m 0.0217,-3.057178 q 0.641822,0 1.085205,0.427881 0.443384,0.427881 0.443384,1.258838 0,0.803052 -0.390674,1.327051 -0.390674,0.523999 -1.212329,0.523999 -0.685229,0 -1.088305,-0.461988 -0.403077,-0.465087 -0.403077,-1.246435 0,-0.837158 0.424781,-1.333252 0.42478,-0.496094 1.141015,-0.496094 z m -0.0186,0.0155 z"
             style="fill:#ffffff"
             id="path964" />
          <path
             d="m 51.637186,51.26862 h 0.530201 v 0.573609 q 0.06511,-0.167432 0.31936,-0.406177 0.254248,-0.241846 0.586011,-0.241846 0.0155,0 0.05271,0.0031 0.03721,0.0031 0.127124,0.0124 v 0.589112 q -0.04961,-0.0093 -0.09302,-0.0124 -0.04031,-0.0031 -0.08992,-0.0031 -0.42168,0 -0.648022,0.272851 -0.226343,0.269751 -0.226343,0.623218 v 1.909961 h -0.558106 z"
             style="fill:#ffffff"
             id="path966" />
          <path
             d="m 53.847904,50.341545 h 0.564306 v 0.927075 h 0.530201 v 0.455786 H 54.41221 v 2.16731 q 0,0.173633 0.117823,0.232544 0.06511,0.03411 0.217041,0.03411 0.04031,0 0.08682,0 0.04651,-0.0031 0.108521,-0.0093 v 0.440283 q -0.09612,0.0279 -0.201538,0.04031 -0.10232,0.0124 -0.223243,0.0124 -0.390673,0 -0.5302,-0.198438 -0.139526,-0.201538 -0.139526,-0.520898 V 51.724406 H 53.398319 V 51.26862 h 0.449585 z"
             style="fill:#ffffff"
             id="path968" />
          <path
             d="m 55.516019,51.26862 h 0.5302 v 0.573609 q 0.06511,-0.167432 0.319361,-0.406177 0.254248,-0.241846 0.586011,-0.241846 0.0155,0 0.05271,0.0031 0.03721,0.0031 0.127124,0.0124 v 0.589112 q -0.04961,-0.0093 -0.09302,-0.0124 -0.04031,-0.0031 -0.08992,-0.0031 -0.42168,0 -0.648023,0.272851 -0.226342,0.269751 -0.226342,0.623218 v 1.909961 h -0.558106 z"
             style="fill:#ffffff"
             id="path970" />
          <path
             d="m 58.042996,53.705681 q 0,0.241846 0.176734,0.381372 0.176733,0.139526 0.418579,0.139526 0.294556,0 0.570508,-0.136425 0.465088,-0.226343 0.465088,-0.741041 v -0.449584 q -0.10232,0.06511 -0.26355,0.10852 -0.161231,0.04341 -0.31626,0.06201 l -0.337964,0.04341 q -0.303857,0.04031 -0.455786,0.127124 -0.257349,0.145728 -0.257349,0.465088 z m 1.351856,-1.128613 q 0.192236,-0.0248 0.257348,-0.161231 0.03721,-0.07441 0.03721,-0.21394 0,-0.285254 -0.204639,-0.412378 -0.201538,-0.130225 -0.57981,-0.130225 -0.437182,0 -0.620117,0.235645 -0.102319,0.130224 -0.133325,0.387573 h -0.520899 q 0.0155,-0.613916 0.396875,-0.852661 0.384473,-0.241846 0.889869,-0.241846 0.58601,0 0.951879,0.223242 0.362769,0.223242 0.362769,0.694532 v 1.913061 q 0,0.08682 0.03411,0.139526 0.03721,0.05271 0.151929,0.05271 0.03721,0 0.08372,-0.0031 0.04651,-0.0062 0.09922,-0.0155 v 0.412378 q -0.130225,0.03721 -0.198438,0.04651 -0.06821,0.0093 -0.186035,0.0093 -0.288354,0 -0.418579,-0.204638 -0.06821,-0.108521 -0.09612,-0.306958 -0.170532,0.223242 -0.489893,0.387573 -0.31936,0.164331 -0.703833,0.164331 -0.461987,0 -0.756543,-0.279053 -0.291455,-0.282153 -0.291455,-0.703833 0,-0.461987 0.288355,-0.716235 0.288354,-0.254248 0.756543,-0.313159 z m -0.461987,-1.389063 z"
             style="fill:#ffffff"
             id="path972" />
          <path
             d="m 61.146683,51.26862 h 0.5302 v 0.471289 q 0.235645,-0.291455 0.499195,-0.418579 0.263549,-0.127124 0.58601,-0.127124 0.706934,0 0.954981,0.492993 0.136426,0.269751 0.136426,0.772046 v 2.130103 h -0.567408 v -2.092896 q 0,-0.303857 -0.08992,-0.489892 -0.148828,-0.310059 -0.539502,-0.310059 -0.198437,0 -0.325561,0.04031 -0.229443,0.06821 -0.403076,0.272851 -0.139527,0.164331 -0.182935,0.341065 -0.04031,0.173633 -0.04031,0.499194 v 1.739429 h -0.558106 z m 1.311548,-0.08062 z"
             style="fill:#ffffff"
             id="path974" />
          <path
             d="m 68.265629,54.062248 q 0.313159,0 0.514697,-0.06511 0.359668,-0.120923 0.589111,-0.465088 0.182935,-0.275952 0.26355,-0.706934 0.04651,-0.257348 0.04651,-0.47749 0,-0.84646 -0.337964,-1.314648 -0.334863,-0.468189 -1.082104,-0.468189 h -1.094507 v 3.497461 z m -1.720825,-4.027661 h 1.844848 q 0.939478,0 1.457276,0.666626 0.461987,0.601514 0.461987,1.540991 0,0.725537 -0.272852,1.311548 -0.48059,1.035596 -1.652612,1.035596 h -1.838647 z"
             style="fill:#ffffff"
             id="path976" />
          <path
             d="m 71.02825,51.284123 h 0.567407 v 3.305225 H 71.02825 Z m 0,-1.249536 h 0.567407 v 0.63252 H 71.02825 Z"
             style="fill:#ffffff"
             id="path978" />
          <path
             d="m 72.770779,53.547551 q 0.02481,0.279053 0.139527,0.427881 0.21084,0.269751 0.731738,0.269751 0.310059,0 0.545703,-0.133325 0.235645,-0.136426 0.235645,-0.418579 0,-0.213941 -0.189136,-0.325562 -0.120923,-0.06821 -0.47749,-0.15813 l -0.443384,-0.111621 q -0.42478,-0.10542 -0.626318,-0.235645 -0.359668,-0.226342 -0.359668,-0.626318 0,-0.471289 0.337963,-0.762744 0.341065,-0.291455 0.914673,-0.291455 0.750342,0 1.082105,0.440283 0.207739,0.279053 0.201538,0.601514 h -0.5271 q -0.0155,-0.189136 -0.133325,-0.344165 -0.192236,-0.220142 -0.666626,-0.220142 -0.31626,0 -0.480591,0.120923 -0.16123,0.120923 -0.16123,0.31936 0,0.217041 0.21394,0.347266 0.124024,0.07751 0.365869,0.136426 l 0.36897,0.08992 q 0.601514,0.145727 0.806152,0.282153 0.325562,0.213941 0.325562,0.672827 0,0.443384 -0.337964,0.765845 -0.334863,0.322461 -1.023193,0.322461 -0.74104,0 -1.051099,-0.334863 -0.306958,-0.337964 -0.328662,-0.834058 z m 0.824756,-2.359546 z"
             style="fill:#ffffff"
             id="path980" />
          <path
             d="m 76.894558,51.172502 q 0.561206,0 0.911572,0.272852 0.353467,0.272851 0.42478,0.939477 h -0.542602 q -0.04961,-0.306958 -0.226343,-0.508496 -0.176733,-0.204638 -0.567407,-0.204638 -0.533301,0 -0.762744,0.520898 -0.148828,0.337964 -0.148828,0.834058 0,0.499194 0.21084,0.840258 0.210839,0.341065 0.663525,0.341065 0.347266,0 0.548804,-0.21084 0.204638,-0.21394 0.282153,-0.58291 h 0.542602 q -0.09302,0.660425 -0.465087,0.967383 -0.372071,0.303857 -0.95188,0.303857 -0.651123,0 -1.038697,-0.47439 -0.387573,-0.47749 -0.387573,-1.190625 0,-0.874365 0.42478,-1.361157 0.424781,-0.486792 1.082105,-0.486792 z m -0.08682,0.0155 z"
             style="fill:#ffffff"
             id="path982" />
          <path
             d="m 80.106764,54.22968 q 0.555005,0 0.759644,-0.418579 0.207739,-0.42168 0.207739,-0.936377 0,-0.465088 -0.148828,-0.756543 -0.235645,-0.458887 -0.812354,-0.458887 -0.511596,0 -0.74414,0.390674 -0.232544,0.390674 -0.232544,0.942578 0,0.5302 0.232544,0.883667 0.232544,0.353467 0.737939,0.353467 z m 0.0217,-3.057178 q 0.641822,0 1.085205,0.427881 0.443384,0.427881 0.443384,1.258838 0,0.803052 -0.390674,1.327051 -0.390674,0.523999 -1.212329,0.523999 -0.685229,0 -1.088305,-0.461988 -0.403077,-0.465087 -0.403077,-1.246435 0,-0.837158 0.424781,-1.333252 0.42478,-0.496094 1.141015,-0.496094 z m -0.0186,0.0155 z"
             style="fill:#ffffff"
             id="path984" />
          <path
             d="m 82.878691,51.26862 v 2.204517 q 0,0.254248 0.08061,0.415478 0.148828,0.297657 0.555005,0.297657 0.58291,0 0.79375,-0.520899 0.114722,-0.279052 0.114722,-0.765844 V 51.26862 h 0.558105 v 3.320728 h -0.527099 l 0.0062,-0.489893 q -0.108521,0.189136 -0.269751,0.319361 -0.31936,0.260449 -0.775147,0.260449 -0.710034,0 -0.967382,-0.47439 -0.139527,-0.254248 -0.139527,-0.679028 V 51.26862 Z m 0.765845,-0.08062 z"
             style="fill:#ffffff"
             id="path986" />
          <path
             d="m 85.867655,51.26862 h 0.5302 v 0.573609 q 0.06511,-0.167432 0.319361,-0.406177 0.254248,-0.241846 0.58601,-0.241846 0.0155,0 0.05271,0.0031 0.03721,0.0031 0.127124,0.0124 v 0.589112 q -0.04961,-0.0093 -0.09302,-0.0124 -0.04031,-0.0031 -0.08992,-0.0031 -0.42168,0 -0.648023,0.272851 -0.226342,0.269751 -0.226342,0.623218 v 1.909961 h -0.558106 z"
             style="fill:#ffffff"
             id="path988" />
          <path
             d="m 88.298512,53.547551 q 0.02481,0.279053 0.139527,0.427881 0.210839,0.269751 0.731738,0.269751 0.310058,0 0.545703,-0.133325 0.235645,-0.136426 0.235645,-0.418579 0,-0.213941 -0.189136,-0.325562 -0.120923,-0.06821 -0.47749,-0.15813 l -0.443384,-0.111621 q -0.42478,-0.10542 -0.626319,-0.235645 -0.359668,-0.226342 -0.359668,-0.626318 0,-0.471289 0.337964,-0.762744 0.341065,-0.291455 0.914673,-0.291455 0.750342,0 1.082105,0.440283 0.207739,0.279053 0.201538,0.601514 h -0.5271 q -0.0155,-0.189136 -0.133325,-0.344165 -0.192236,-0.220142 -0.666626,-0.220142 -0.31626,0 -0.480591,0.120923 -0.16123,0.120923 -0.16123,0.31936 0,0.217041 0.21394,0.347266 0.124024,0.07751 0.365869,0.136426 l 0.36897,0.08992 q 0.601514,0.145727 0.806152,0.282153 0.325562,0.213941 0.325562,0.672827 0,0.443384 -0.337964,0.765845 -0.334863,0.322461 -1.023193,0.322461 -0.74104,0 -1.051099,-0.334863 -0.306958,-0.337964 -0.328662,-0.834058 z m 0.824756,-2.359546 z"
             style="fill:#ffffff"
             id="path990" />
          <path
             d="m 92.52461,51.194206 q 0.353467,0 0.68523,0.167432 0.331762,0.164331 0.505395,0.427881 0.167432,0.251147 0.223242,0.586011 0.04961,0.229443 0.04961,0.731738 h -2.43396 q 0.0155,0.505395 0.238745,0.812353 0.223242,0.303858 0.69143,0.303858 0.437183,0 0.697632,-0.288355 0.148828,-0.167431 0.21084,-0.387573 h 0.548804 q -0.0217,0.182935 -0.145728,0.409277 -0.120923,0.223243 -0.272851,0.365869 -0.254248,0.248047 -0.629419,0.334864 -0.201538,0.04961 -0.455786,0.04961 -0.620117,0 -1.051099,-0.449585 -0.430981,-0.452685 -0.430981,-1.265039 0,-0.799951 0.434082,-1.299145 0.434082,-0.499195 1.134814,-0.499195 z m 0.889868,1.469678 q -0.03411,-0.362769 -0.15813,-0.57981 -0.229443,-0.403076 -0.765844,-0.403076 -0.384473,0 -0.644922,0.279053 -0.260449,0.275952 -0.275952,0.703833 z M 92.4719,51.188005 Z"
             style="fill:#ffffff"
             id="path992" />
        </g>
        <path
           d="m 38.289536,47.775066 c -2.51796,0 -4.639536,2.022993 -4.639536,4.520411 0,0.0801 0.002,4.680613 0.002,4.680613 l 4.637481,-0.0042 c 2.520013,0 4.561492,-2.101041 4.561492,-4.598463 0,-2.497419 -2.041479,-4.598458 -4.561492,-4.598458 z m -0.03903,7.229376 c -0.398438,0 -0.778391,-0.08831 -1.117267,-0.248509 l -1.665632,0.412811 0.47032,-1.540351 c -0.201268,-0.371733 -0.316281,-0.798927 -0.316281,-1.252817 0,-1.452034 1.176828,-2.628863 2.628865,-2.628863 1.452037,0 2.628865,1.176829 2.628865,2.628863 0,1.452038 -1.176828,2.628866 -2.628865,2.628866 z"
           id="path20326"
           style="fill:#ffffff;stroke-width:0.020538" />
      </g>
    </g>
  </g>
</svg>
