<?xml version="1.0" encoding="UTF-8" standalone="no"?>
<!-- Created with Inkscape (http://www.inkscape.org/) -->

<svg
   width="66.145836mm"
   height="16.550531mm"
   viewBox="0 0 66.145836 16.550531"
   version="1.1"
   id="svg5"
   inkscape:version="1.1.2 (0a00cf5339, 2022-02-04)"
   sodipodi:docname="readme.github.svg"
   xmlns:inkscape="http://www.inkscape.org/namespaces/inkscape"
   xmlns:sodipodi="http://sodipodi.sourceforge.net/DTD/sodipodi-0.dtd"
   xmlns="http://www.w3.org/2000/svg"
   xmlns:svg="http://www.w3.org/2000/svg">
  <sodipodi:namedview
     id="namedview7"
     pagecolor="#ffffff"
     bordercolor="#666666"
     borderopacity="1.0"
     inkscape:pageshadow="2"
     inkscape:pageopacity="0.0"
     inkscape:pagecheckerboard="0"
     inkscape:document-units="mm"
     showgrid="false"
     inkscape:zoom="1.2379223"
     inkscape:cx="-81.992222"
     inkscape:cy="142.17371"
     inkscape:window-width="1920"
     inkscape:window-height="1053"
     inkscape:window-x="0"
     inkscape:window-y="0"
     inkscape:window-maximized="1"
     inkscape:current-layer="layer1"
     fit-margin-top="0"
     fit-margin-left="0"
     fit-margin-right="0"
     fit-margin-bottom="0" />
  <defs
     id="defs2">
    <rect
       x="170.49045"
       y="421.97745"
       width="490.70828"
       height="35.169304"
       id="rect8622" />
  </defs>
  <g
     inkscape:label="Layer 1"
     inkscape:groupmode="layer"
     id="layer1"
     transform="translate(-83.624634,-70.59176)">
    <!--! Font Awesome Pro 6.1.1 by @fontawesome - https://fontawesome.com License - https://fontawesome.com/license (Commercial License) Copyright 2022 Fonticons, Inc. -->
    <!--! Font Awesome Pro 6.1.1 by @fontawesome - https://fontawesome.com License - https://fontawesome.com/license (Commercial License) Copyright 2022 Fonticons, Inc. -->
    <!--! Font Awesome Pro 6.1.1 by @fontawesome - https://fontawesome.com License - https://fontawesome.com/license (Commercial License) Copyright 2022 Fonticons, Inc. -->
    <g
       inkscape:label="Layer 1"
       inkscape:groupmode="layer"
       id="layer1-3"
       transform="matrix(1.0431916,0,0,1.0431916,-52.907141,22.275941)" />
    <!--! Font Awesome Pro 6.1.1 by @fontawesome - https://fontawesome.com License - https://fontawesome.com/license (Commercial License) Copyright 2022 Fonticons, Inc. -->
    <!--! Font Awesome Pro 6.1.1 by @fontawesome - https://fontawesome.com License - https://fontawesome.com/license (Commercial License) Copyright 2022 Fonticons, Inc. -->
    <!--! Font Awesome Pro 6.1.1 by @fontawesome - https://fontawesome.com License - https://fontawesome.com/license (Commercial License) Copyright 2022 Fonticons, Inc. -->
    <g
       id="g47042"
       transform="translate(51.930674,3.5697283)">
      <path
         id="rect26912"
         style="fill:#5c3f78;stroke:#1e1e1e;stroke-width:0.221196;paint-order:stroke fill markers"
         d="m 33.904608,67.132629 h 61.724536 c 1.163428,0 2.100051,0.936623 2.100051,2.100051 v 12.129235 c 0,1.163428 -0.936623,2.100051 -2.100051,2.100051 H 33.904608 c -1.163428,0 -2.10005,-0.936623 -2.10005,-2.100051 V 69.23268 c 0,-1.163428 0.936622,-2.100051 2.10005,-2.100051 z" />
      <g
         id="g46846"
         transform="translate(1.0931701,-2.2437705)">
        <g
           aria-label="Ask a Question"
           id="text16482"
           style="font-size:6.70278px;line-height:1.25;font-family:Helvetica;-inkscape-font-specification:Helvetica;stroke-width:0.264583">
          <path
             d="m 50.327628,77.848711 -0.729843,-2.124074 -0.775664,2.124074 z m -1.070219,-2.837553 h 0.736389 l 1.744425,4.807804 h -0.713479 l -0.487654,-1.44005 h -1.901521 l -0.520382,1.44005 h -0.667659 z m 0.337103,0 z"
             style="fill:#ffffff"
             id="path830" />
          <path
             d="m 52.602253,78.719287 q 0.02618,0.294556 0.147278,0.451652 0.222553,0.284738 0.772391,0.284738 0.327284,0 0.57602,-0.140733 0.248736,-0.144005 0.248736,-0.441833 0,-0.225826 -0.199644,-0.343649 -0.12764,-0.072 -0.504017,-0.166914 L 53.175,78.244725 q -0.448379,-0.111276 -0.661114,-0.248736 -0.379649,-0.238917 -0.379649,-0.661114 0,-0.497472 0.35674,-0.805119 0.360012,-0.307647 0.965488,-0.307647 0.792028,0 1.142222,0.464744 0.21928,0.294555 0.212734,0.634931 h -0.556383 q -0.01636,-0.199643 -0.140732,-0.363286 -0.202916,-0.232371 -0.703661,-0.232371 -0.33383,0 -0.50729,0.127641 -0.170188,0.12764 -0.170188,0.337102 0,0.229099 0.225826,0.366558 0.130914,0.08182 0.386195,0.144006 l 0.389468,0.09491 q 0.634932,0.153823 0.850939,0.297829 0.343649,0.225826 0.343649,0.710206 0,0.468017 -0.35674,0.808392 -0.353467,0.340376 -1.080038,0.340376 -0.782209,0 -1.109493,-0.353467 -0.324012,-0.35674 -0.346921,-0.880395 z m 0.870576,-2.490632 z"
             style="fill:#ffffff"
             id="path832" />
          <path
             d="m 55.590358,75.011158 h 0.566201 v 2.791734 l 1.512053,-1.489143 h 0.752754 l -1.341865,1.312409 1.41714,2.192804 h -0.752754 l -1.093129,-1.767334 -0.494199,0.451652 v 1.315682 h -0.566201 z"
             style="fill:#ffffff"
             id="path834" />
          <path
             d="m 61.268738,78.886202 q 0,0.255282 0.186552,0.40256 0.186552,0.147278 0.441834,0.147278 0.31092,0 0.602203,-0.144005 0.490926,-0.238918 0.490926,-0.78221 v -0.474562 q -0.108004,0.06873 -0.278192,0.11455 -0.170188,0.04582 -0.33383,0.06546 l -0.356739,0.04582 q -0.320739,0.04255 -0.481108,0.134187 -0.271646,0.153824 -0.271646,0.490926 z m 1.426959,-1.191314 q 0.202916,-0.02618 0.271646,-0.170188 0.03927,-0.07855 0.03927,-0.225826 0,-0.301101 -0.216008,-0.435288 -0.212734,-0.137459 -0.612021,-0.137459 -0.461471,0 -0.654568,0.248736 -0.108004,0.137459 -0.140732,0.409105 H 60.83345 q 0.01636,-0.648023 0.418924,-0.900032 0.405832,-0.255281 0.939305,-0.255281 0.618567,0 1.004763,0.235644 0.382922,0.235645 0.382922,0.733117 v 2.019343 q 0,0.09164 0.036,0.147278 0.03927,0.05564 0.160369,0.05564 0.03927,0 0.08837,-0.0033 0.04909,-0.0065 0.10473,-0.01637 v 0.435288 q -0.137459,0.03927 -0.209461,0.04909 -0.072,0.0098 -0.196371,0.0098 -0.304374,0 -0.441834,-0.216007 -0.072,-0.11455 -0.101458,-0.324011 -0.180006,0.235644 -0.517109,0.409105 -0.337102,0.17346 -0.742935,0.17346 -0.487653,0 -0.798573,-0.294555 -0.307647,-0.297829 -0.307647,-0.742935 0,-0.487654 0.304374,-0.756027 0.304374,-0.268373 0.798573,-0.330557 z m -0.487653,-1.466233 z"
             style="fill:#ffffff"
             id="path836" />
          <path
             d="m 70.884347,79.805871 -0.327284,0.396014 -0.742935,-0.566202 q -0.268373,0.147278 -0.582566,0.235645 -0.31092,0.08837 -0.680751,0.08837 -1.119312,0 -1.754243,-0.733116 -0.559656,-0.71348 -0.559656,-1.786972 0,-0.975307 0.48438,-1.669149 0.62184,-0.890213 1.839337,-0.890213 1.273136,0 1.885157,0.81821 0.477835,0.638205 0.477835,1.633148 0,0.464744 -0.11455,0.893486 -0.17346,0.654569 -0.585838,1.066947 z m -2.254988,-0.428743 q 0.202916,0 0.37965,-0.02618 0.176733,-0.02946 0.307647,-0.111277 l -0.526928,-0.412378 0.327284,-0.402559 0.628386,0.487653 q 0.297829,-0.340376 0.402559,-0.762572 0.108004,-0.422197 0.108004,-0.808392 0,-0.847666 -0.445106,-1.364775 -0.441834,-0.517109 -1.210952,-0.517109 -0.778936,0 -1.233861,0.497472 -0.454925,0.494199 -0.454925,1.525144 0,0.867303 0.435288,1.381139 0.438561,0.513836 1.282954,0.513836 z"
             style="fill:#ffffff"
             id="path838" />
          <path
             d="m 72.209847,76.313749 v 2.32699 q 0,0.268373 0.08509,0.438561 0.157097,0.314193 0.585839,0.314193 0.615294,0 0.837847,-0.549838 0.121095,-0.294555 0.121095,-0.808392 v -1.721514 h 0.589112 v 3.505213 h -0.556383 l 0.0065,-0.517109 q -0.11455,0.199643 -0.284738,0.337103 -0.337102,0.274919 -0.81821,0.274919 -0.749481,0 -1.021127,-0.500745 -0.147278,-0.268373 -0.147278,-0.716753 v -2.382628 z m 0.808392,-0.08509 z"
             style="fill:#ffffff"
             id="path840" />
          <path
             d="m 76.808191,76.2352 q 0.373104,0 0.723298,0.176734 0.350194,0.173461 0.533473,0.451652 0.176734,0.2651 0.235645,0.618567 0.05236,0.24219 0.05236,0.772391 h -2.56918 q 0.01636,0.533473 0.252009,0.857484 0.235644,0.320739 0.729843,0.320739 0.461471,0 0.73639,-0.304374 0.157096,-0.176734 0.222553,-0.409106 h 0.579293 q -0.02291,0.193098 -0.153824,0.432015 -0.127641,0.235645 -0.28801,0.386196 -0.268373,0.261827 -0.664387,0.353467 -0.212734,0.05237 -0.481107,0.05237 -0.654569,0 -1.109494,-0.474562 -0.454925,-0.477835 -0.454925,-1.335319 0,-0.844394 0.458198,-1.371321 0.458198,-0.526928 1.19786,-0.526928 z m 0.939306,1.551327 q -0.036,-0.382922 -0.166915,-0.612021 -0.242191,-0.425469 -0.808392,-0.425469 -0.405832,0 -0.680751,0.294555 -0.274919,0.291283 -0.291283,0.742935 z m -0.994944,-1.557872 z"
             style="fill:#ffffff"
             id="path842" />
          <path
             d="m 79.426464,78.719287 q 0.02618,0.294556 0.147278,0.451652 0.222553,0.284738 0.77239,0.284738 0.327285,0 0.57602,-0.140733 0.248736,-0.144005 0.248736,-0.441833 0,-0.225826 -0.199643,-0.343649 -0.127641,-0.072 -0.504017,-0.166914 l -0.468017,-0.117823 q -0.448379,-0.111276 -0.661114,-0.248736 -0.37965,-0.238917 -0.37965,-0.661114 0,-0.497472 0.35674,-0.805119 0.360013,-0.307647 0.965489,-0.307647 0.792027,0 1.142221,0.464744 0.219281,0.294555 0.212735,0.634931 h -0.556383 q -0.01636,-0.199643 -0.140732,-0.363286 -0.202916,-0.232371 -0.703661,-0.232371 -0.33383,0 -0.507291,0.127641 -0.170187,0.12764 -0.170187,0.337102 0,0.229099 0.225826,0.366558 0.130913,0.08182 0.386195,0.144006 l 0.389468,0.09491 q 0.634931,0.153823 0.850939,0.297829 0.343648,0.225826 0.343648,0.710206 0,0.468017 -0.356739,0.808392 -0.353467,0.340376 -1.080038,0.340376 -0.782209,0 -1.109494,-0.353467 -0.324011,-0.35674 -0.346921,-0.880395 z m 0.870576,-2.490632 z"
             style="fill:#ffffff"
             id="path844" />
          <path
             d="m 82.545481,75.335169 h 0.595657 v 0.97858 h 0.559656 v 0.481107 h -0.559656 v 2.287717 q 0,0.183279 0.124368,0.245463 0.06873,0.036 0.229099,0.036 0.04255,0 0.09164,0 0.04909,-0.0033 0.114549,-0.0098 v 0.464743 q -0.101458,0.02946 -0.212735,0.04255 -0.108003,0.01309 -0.235644,0.01309 -0.412378,0 -0.559656,-0.209461 -0.147278,-0.212735 -0.147278,-0.549838 v -2.320445 h -0.474562 v -0.481107 h 0.474562 z"
             style="fill:#ffffff"
             id="path846" />
          <path
             d="m 84.289906,76.330113 h 0.59893 v 3.488849 h -0.59893 z m 0,-1.318955 h 0.59893 v 0.667659 h -0.59893 z"
             style="fill:#ffffff"
             id="path848" />
          <path
             d="m 87.170007,79.439312 q 0.585839,0 0.801846,-0.441833 0.219281,-0.445107 0.219281,-0.988398 0,-0.490927 -0.157097,-0.798574 -0.248735,-0.48438 -0.857484,-0.48438 -0.540019,0 -0.785482,0.412378 -0.245463,0.412378 -0.245463,0.994944 0,0.559656 0.245463,0.93276 0.245463,0.373103 0.778936,0.373103 z m 0.02291,-3.227021 q 0.677478,0 1.145495,0.451652 0.468016,0.451652 0.468016,1.328773 0,0.847666 -0.412378,1.400777 -0.412378,0.55311 -1.279681,0.55311 -0.723298,0 -1.148767,-0.487653 -0.42547,-0.490927 -0.42547,-1.315683 0,-0.883667 0.448379,-1.407322 0.44838,-0.523654 1.204406,-0.523654 z m -0.01964,0.01636 z"
             style="fill:#ffffff"
             id="path850" />
          <path
             d="m 89.506818,76.313749 h 0.559655 v 0.497472 q 0.248736,-0.307648 0.526928,-0.441834 0.278191,-0.134187 0.618567,-0.134187 0.746208,0 1.008035,0.520382 0.144005,0.284738 0.144005,0.814938 v 2.248442 h -0.59893 v -2.209168 q 0,-0.320739 -0.09491,-0.517109 -0.157097,-0.327284 -0.569475,-0.327284 -0.209461,0 -0.343648,0.04255 -0.24219,0.072 -0.425469,0.28801 -0.147278,0.17346 -0.193098,0.360012 -0.04255,0.18328 -0.04255,0.526928 v 1.836064 h -0.589111 z m 1.384412,-0.08509 z"
             style="fill:#ffffff"
             id="path852" />
        </g>
        <path
           d="m 38.508874,80.677501 c 0,0.0424 -0.04888,0.0765 -0.110504,0.0765 -0.07013,0.006 -0.119002,-0.0277 -0.119002,-0.0765 0,-0.0425 0.04888,-0.0765 0.110502,-0.0765 0.06376,-0.006 0.119004,0.0277 0.119004,0.0765 z m -0.660894,-0.0956 c -0.01487,0.0425 0.02762,0.0914 0.09138,0.10413 0.05525,0.0213 0.119003,0 0.131753,-0.0425 0.01275,-0.0424 -0.02762,-0.0914 -0.09138,-0.11049 -0.05525,-0.0149 -0.116877,0.006 -0.131753,0.0489 z m 0.939276,-0.0361 c -0.06163,0.0149 -0.104128,0.0553 -0.09775,0.10412 0.0064,0.0425 0.06163,0.0701 0.125379,0.0553 0.06163,-0.0149 0.104127,-0.0553 0.09775,-0.0978 -0.0064,-0.0403 -0.06376,-0.068 -0.125378,-0.0616 z m 1.398286,-8.143179 c -2.947453,0 -5.202138,2.237681 -5.202138,5.185127 0,2.356665 1.483289,4.373326 3.601972,5.0831 0.272006,0.0489 0.367634,-0.119 0.367634,-0.257137 0,-0.13175 -0.0064,-0.858507 -0.0064,-1.304774 0,0 -1.48754,0.31876 -1.799923,-0.633257 0,0 -0.242257,-0.618394 -0.590767,-0.777774 0,0 -0.486638,-0.33363 0.034,-0.32725 0,0 0.52914,0.0424 0.820273,0.548257 0.465387,0.820267 1.245282,0.584387 1.549166,0.44413 0.04888,-0.34 0.187005,-0.575877 0.340009,-0.716127 -1.187907,-0.13176 -2.386439,-0.303887 -2.386439,-2.348178 0,-0.584384 0.161504,-0.877654 0.501514,-1.251661 -0.05525,-0.13812 -0.235882,-0.707627 0.05525,-1.442897 0.444136,-0.138128 1.466289,0.57376 1.466289,0.57376 0.425011,-0.118996 0.881898,-0.180625 1.334536,-0.180625 0.452637,0 0.909524,0.06161 1.334536,0.180625 0,0 1.022152,-0.714017 1.46629,-0.57376 0.291131,0.73739 0.110502,1.304777 0.05525,1.442897 0.34001,0.376147 0.548265,0.669407 0.548265,1.251661 0,2.050671 -1.251659,2.214288 -2.439565,2.348178 0.195505,0.16787 0.361259,0.486637 0.361259,0.986024 0,0.716137 -0.0064,1.602271 -0.0064,1.776531 0,0.138127 0.09775,0.306007 0.367634,0.257127 2.125057,-0.705524 3.565845,-2.722185 3.565845,-5.07885 0,-2.947446 -2.390688,-5.185127 -5.338141,-5.185127 z m -3.136584,7.329265 c -0.02762,0.0213 -0.02125,0.0701 0.01487,0.11051 0.034,0.034 0.08287,0.0489 0.110502,0.0212 0.02762,-0.0212 0.02125,-0.0701 -0.01487,-0.1105 -0.034,-0.034 -0.08288,-0.0489 -0.110504,-0.0213 z m -0.229505,-0.17212 c -0.01488,0.0277 0.0064,0.0616 0.04888,0.0829 0.034,0.0213 0.0765,0.0149 0.09138,-0.0149 0.01487,-0.0276 -0.0064,-0.0616 -0.04888,-0.0829 -0.04251,-0.0128 -0.0765,-0.006 -0.09138,0.0149 z m 0.688519,0.756517 c -0.03401,0.0276 -0.02125,0.0914 0.02762,0.131747 0.04888,0.0489 0.110503,0.0553 0.138129,0.0213 0.02762,-0.0276 0.01488,-0.0914 -0.02762,-0.131747 -0.04675,-0.0489 -0.110503,-0.0553 -0.138129,-0.0213 z m -0.242257,-0.31239 c -0.03401,0.0213 -0.03401,0.0765 0,0.12538 0.034,0.0489 0.09138,0.0701 0.119003,0.0489 0.03401,-0.0276 0.03401,-0.0829 0,-0.13176 -0.02976,-0.0489 -0.085,-0.0701 -0.119003,-0.0425 z"
           id="path23051"
           style="fill:#ffffff;stroke-width:0.0212506" />
      </g>
    </g>
  </g>
</svg>
