<?xml version="1.0" encoding="UTF-8" standalone="no"?>
<!-- Created with Inkscape (http://www.inkscape.org/) -->

<svg
   width="62.177082mm"
   height="16.544834mm"
   viewBox="0 0 62.177082 16.544834"
   version="1.1"
   id="svg5"
   inkscape:version="1.2 (dc2aedaf03, 2022-05-15)"
   sodipodi:docname="readme.tutorial.svg"
   xmlns:inkscape="http://www.inkscape.org/namespaces/inkscape"
   xmlns:sodipodi="http://sodipodi.sourceforge.net/DTD/sodipodi-0.dtd"
   xmlns="http://www.w3.org/2000/svg"
   xmlns:svg="http://www.w3.org/2000/svg">
  <sodipodi:namedview
     id="namedview7"
     pagecolor="#ffffff"
     bordercolor="#666666"
     borderopacity="1.0"
     inkscape:pageshadow="2"
     inkscape:pageopacity="0.0"
     inkscape:pagecheckerboard="0"
     inkscape:document-units="mm"
     showgrid="false"
     inkscape:zoom="1.2379223"
     inkscape:cx="31.504401"
     inkscape:cy="210.43324"
     inkscape:window-width="1920"
     inkscape:window-height="1023"
     inkscape:window-x="0"
     inkscape:window-y="0"
     inkscape:window-maximized="1"
     inkscape:current-layer="layer1"
     fit-margin-top="0"
     fit-margin-left="0"
     fit-margin-right="0"
     fit-margin-bottom="0"
     inkscape:showpageshadow="0"
     inkscape:deskcolor="#d1d1d1" />
  <defs
     id="defs2">
    <rect
       x="170.49045"
       y="421.97745"
       width="490.70828"
       height="35.169304"
       id="rect8622" />
  </defs>
  <g
     inkscape:label="Layer 1"
     inkscape:groupmode="layer"
     id="layer1"
     transform="translate(-53.487055,-52.977284)">
    <!--! Font Awesome Pro 6.1.1 by @fontawesome - https://fontawesome.com License - https://fontawesome.com/license (Commercial License) Copyright 2022 Fonticons, Inc. -->
    <!--! Font Awesome Pro 6.1.1 by @fontawesome - https://fontawesome.com License - https://fontawesome.com/license (Commercial License) Copyright 2022 Fonticons, Inc. -->
    <!--! Font Awesome Pro 6.1.1 by @fontawesome - https://fontawesome.com License - https://fontawesome.com/license (Commercial License) Copyright 2022 Fonticons, Inc. -->
    <g
       inkscape:label="Layer 1"
       inkscape:groupmode="layer"
       id="layer1-3"
       transform="matrix(1.0431916,0,0,1.0431916,-52.907141,22.275941)" />
    <!--! Font Awesome Pro 6.1.1 by @fontawesome - https://fontawesome.com License - https://fontawesome.com/license (Commercial License) Copyright 2022 Fonticons, Inc. -->
    <!--! Font Awesome Pro 6.1.1 by @fontawesome - https://fontawesome.com License - https://fontawesome.com/license (Commercial License) Copyright 2022 Fonticons, Inc. -->
    <!--! Font Awesome Pro 6.1.1 by @fontawesome - https://fontawesome.com License - https://fontawesome.com/license (Commercial License) Copyright 2022 Fonticons, Inc. -->
    <g
       id="readme.tutorial"
       transform="translate(21.793094,-35.648644)"
       inkscape:label="tutorial">
      <g
         id="g38063">
        <path
           id="rect30387"
           style="fill:#5c3f78;stroke:#1e1e1e;stroke-width:0.214453;paint-order:stroke fill markers"
           d="M 33.901372,88.733154 H 91.66363 c 1.163503,0 2.100185,0.936683 2.100185,2.100185 v 12.130011 c 0,1.1635 -0.936682,2.10019 -2.100185,2.10019 H 33.901372 c -1.163502,0 -2.100184,-0.93669 -2.100184,-2.10019 V 90.833339 c 0,-1.163502 0.936682,-2.100185 2.100184,-2.100185 z" />
        <g
           id="g38056"
           transform="translate(0.39566648,-2.0000641e-4)">
          <path
             d="M 47.541424,98.486356 V 92.77025 c 0,-0.52617 -0.426723,-0.9527 -0.952685,-0.9527 h -6.033675 c -1.05232,0 -1.905371,0.85307 -1.905371,1.90538 v 6.35124 c 0,1.05232 0.853051,1.90537 1.905371,1.90537 h 6.351237 c 0.350707,0 0.635123,-0.28442 0.635123,-0.61726 0,-0.23261 -0.131132,-0.42712 -0.31756,-0.53787 v -1.614804 c 0.194506,-0.19133 0.31756,-0.44142 0.31756,-0.72325 z M 41.489887,94.35806 h 3.810742 c 0.192522,0 0.335425,0.1429 0.335425,0.31755 0,0.17466 -0.142903,0.317576 -0.317562,0.317576 h -3.828605 c -0.156797,0 -0.299699,-0.142916 -0.299699,-0.317576 0,-0.17465 0.142902,-0.31755 0.299699,-0.31755 z m 0,1.270246 h 3.810742 c 0.192522,0 0.335425,0.14289 0.335425,0.31755 0,0.17467 -0.142903,0.31757 -0.317562,0.31757 h -3.828605 c -0.156797,0 -0.299699,-0.1429 -0.299699,-0.31757 0,-0.17466 0.142902,-0.31755 0.299699,-0.31755 z m 4.78129,5.080984 h -5.716113 c -0.350707,0 -0.635124,-0.28441 -0.635124,-0.63512 0,-0.350714 0.284417,-0.635124 0.635124,-0.635124 h 5.716113 z"
             id="path26948"
             style="fill:#ffffff;stroke-width:0.0198476" />
          <g
             aria-label="Learn Fortran"
             id="text28301"
             style="font-size:5.99722px;line-height:1.25;font-family:Helvetica;-inkscape-font-specification:Helvetica;stroke-width:0.264583"
             inkscape:label="text28301">
            <path
               d="m 50.638456,94.813746 h 0.582738 v 3.789259 h 2.178678 v 0.512458 h -2.761416 z"
               style="fill:#ffffff"
               id="path5998" />
            <path
               d="m 55.20958,95.908942 q 0.333829,0 0.64716,0.15813 0.313332,0.155201 0.477318,0.404109 0.15813,0.237195 0.21084,0.553455 0.04685,0.216696 0.04685,0.691085 h -2.298739 q 0.01464,0.477318 0.225482,0.767223 0.210839,0.286976 0.653017,0.286976 0.412895,0 0.658875,-0.272334 0.140559,-0.15813 0.199126,-0.366042 h 0.518314 q -0.0205,0.172772 -0.137631,0.38654 -0.114205,0.21084 -0.257693,0.345543 -0.240123,0.234266 -0.594451,0.31626 -0.190342,0.04685 -0.430465,0.04685 -0.585666,0 -0.992704,-0.424608 -0.407038,-0.427536 -0.407038,-1.194759 0,-0.755509 0.409967,-1.22697 0.409966,-0.471461 1.071769,-0.471461 z m 0.84043,1.388028 q -0.03221,-0.342614 -0.149345,-0.547597 -0.216696,-0.380683 -0.723297,-0.380683 -0.363113,0 -0.609093,0.263549 -0.245979,0.260622 -0.260621,0.664731 z m -0.890212,-1.393885 z"
               style="fill:#ffffff"
               id="path6000" />
            <path
               d="m 57.643022,98.280889 q 0,0.22841 0.166915,0.360185 0.166914,0.131775 0.395324,0.131775 0.278192,0 0.538813,-0.128847 0.439249,-0.213768 0.439249,-0.699871 v -0.424608 q -0.09663,0.06149 -0.248908,0.102492 -0.152273,0.041 -0.298689,0.05857 l -0.319188,0.041 q -0.286977,0.03807 -0.430465,0.120062 -0.243051,0.137631 -0.243051,0.439249 z m 1.276752,-1.065912 q 0.181556,-0.02343 0.243051,-0.152273 0.03514,-0.07028 0.03514,-0.202055 0,-0.269406 -0.19327,-0.389468 -0.190341,-0.12299 -0.547597,-0.12299 -0.412895,0 -0.585666,0.222553 -0.09663,0.12299 -0.125919,0.366042 h -0.491959 q 0.01464,-0.57981 0.374826,-0.805291 0.363113,-0.22841 0.840431,-0.22841 0.553454,0 0.898997,0.21084 0.342615,0.21084 0.342615,0.655946 v 1.80678 q 0,0.08199 0.03221,0.131774 0.03514,0.04978 0.143489,0.04978 0.03514,0 0.07906,-0.0029 0.04392,-0.0059 0.09371,-0.01464 v 0.389468 q -0.12299,0.03514 -0.187413,0.04393 -0.06442,0.0088 -0.1757,0.0088 -0.272335,0 -0.395324,-0.19327 -0.06442,-0.102491 -0.09078,-0.289905 -0.161058,0.21084 -0.462676,0.366042 -0.301618,0.155201 -0.664731,0.155201 -0.436321,0 -0.714512,-0.26355 -0.275263,-0.266478 -0.275263,-0.664731 0,-0.436321 0.272334,-0.676444 0.272335,-0.240123 0.714513,-0.295761 z m -0.436321,-1.311892 z"
               style="fill:#ffffff"
               id="path6002" />
            <path
               d="m 60.588922,95.979222 h 0.500744 v 0.541741 q 0.0615,-0.15813 0.301618,-0.383611 0.240123,-0.22841 0.553454,-0.22841 0.01464,0 0.04978,0.0029 0.03514,0.0029 0.120062,0.01171 v 0.556383 q -0.04685,-0.0088 -0.08785,-0.01171 -0.03807,-0.0029 -0.08492,-0.0029 -0.398253,0 -0.612021,0.257693 -0.213768,0.254764 -0.213768,0.588594 v 1.803851 h -0.527099 z"
               style="fill:#ffffff"
               id="path6004" />
            <path
               d="m 62.571402,95.979222 h 0.500744 v 0.445106 q 0.222553,-0.275263 0.471461,-0.395325 0.248908,-0.120061 0.553455,-0.120061 0.667659,0 0.901925,0.465604 0.128847,0.254765 0.128847,0.729154 v 2.011763 H 64.591949 V 97.13884 q 0,-0.286976 -0.08492,-0.462676 -0.14056,-0.292833 -0.50953,-0.292833 -0.187413,0 -0.307474,0.03807 -0.216697,0.06442 -0.380683,0.257693 -0.131775,0.155201 -0.172772,0.322116 -0.03807,0.163986 -0.03807,0.471461 v 1.642793 h -0.527099 z m 1.238683,-0.07614 z"
               style="fill:#ffffff"
               id="path6006" />
            <path
               d="m 67.698907,94.813746 h 2.983968 v 0.5271 h -2.40123 v 1.306035 h 2.111326 v 0.512458 h -2.111326 v 1.956124 h -0.582738 z"
               style="fill:#ffffff"
               id="path6008" />
            <path
               d="m 72.48087,98.775777 q 0.524172,0 0.717441,-0.395325 0.196198,-0.398252 0.196198,-0.884355 0,-0.43925 -0.140559,-0.714513 -0.222554,-0.433393 -0.767223,-0.433393 -0.483174,0 -0.702799,0.36897 -0.219625,0.368969 -0.219625,0.890212 0,0.500745 0.219625,0.834574 0.219625,0.33383 0.696942,0.33383 z m 0.0205,-2.887334 q 0.606164,0 1.024915,0.40411 0.418751,0.40411 0.418751,1.188902 0,0.758438 -0.368969,1.253325 -0.36897,0.494888 -1.144977,0.494888 -0.647161,0 -1.027844,-0.436321 -0.380683,-0.43925 -0.380683,-1.177189 0,-0.790649 0.401181,-1.259182 0.401181,-0.468533 1.077626,-0.468533 z m -0.01757,0.01464 z"
               style="fill:#ffffff"
               id="path6010" />
            <path
               d="m 74.586339,95.979222 h 0.500744 v 0.541741 q 0.06149,-0.15813 0.301618,-0.383611 0.240124,-0.22841 0.553455,-0.22841 0.01464,0 0.04978,0.0029 0.03514,0.0029 0.120062,0.01171 v 0.556383 q -0.04685,-0.0088 -0.08785,-0.01171 -0.03807,-0.0029 -0.08492,-0.0029 -0.398253,0 -0.612021,0.257693 -0.213769,0.254764 -0.213769,0.588594 v 1.803851 h -0.527099 z"
               style="fill:#ffffff"
               id="path6012" />
            <path
               d="m 76.674239,95.103651 h 0.532956 v 0.875571 h 0.500745 v 0.430464 h -0.500745 v 2.046903 q 0,0.163986 0.111277,0.219625 0.06149,0.03221 0.204983,0.03221 0.03807,0 0.08199,0 0.04393,-0.0029 0.102492,-0.0088 v 0.415823 q -0.09078,0.02635 -0.190342,0.03807 -0.09664,0.01171 -0.21084,0.01171 -0.368969,0 -0.500744,-0.187413 -0.131775,-0.190342 -0.131775,-0.49196 v -2.076186 h -0.424608 v -0.430464 h 0.424608 z"
               style="fill:#ffffff"
               id="path6014" />
            <path
               d="m 78.249681,95.979222 h 0.500744 v 0.541741 q 0.06149,-0.15813 0.301618,-0.383611 0.240123,-0.22841 0.553454,-0.22841 0.01464,0 0.04978,0.0029 0.03514,0.0029 0.120062,0.01171 v 0.556383 q -0.04685,-0.0088 -0.08785,-0.01171 -0.03807,-0.0029 -0.08492,-0.0029 -0.398253,0 -0.612021,0.257693 -0.213768,0.254764 -0.213768,0.588594 v 1.803851 h -0.527099 z"
               style="fill:#ffffff"
               id="path6016" />
            <path
               d="m 80.63627,98.280889 q 0,0.22841 0.166915,0.360185 0.166915,0.131775 0.395325,0.131775 0.278191,0 0.538812,-0.128847 0.43925,-0.213768 0.43925,-0.699871 v -0.424608 q -0.09663,0.06149 -0.248908,0.102492 -0.152273,0.041 -0.29869,0.05857 l -0.319188,0.041 q -0.286976,0.03807 -0.430464,0.120062 -0.243052,0.137631 -0.243052,0.439249 z m 1.276752,-1.065912 q 0.181557,-0.02343 0.243052,-0.152273 0.03514,-0.07028 0.03514,-0.202055 0,-0.269406 -0.19327,-0.389468 -0.190342,-0.12299 -0.547598,-0.12299 -0.412895,0 -0.585666,0.222553 -0.09664,0.12299 -0.125918,0.366042 h -0.49196 q 0.01464,-0.57981 0.374827,-0.805291 0.363113,-0.22841 0.84043,-0.22841 0.553455,0 0.898998,0.21084 0.342614,0.21084 0.342614,0.655946 v 1.80678 q 0,0.08199 0.03221,0.131774 0.03514,0.04978 0.143488,0.04978 0.03514,0 0.07906,-0.0029 0.04392,-0.0059 0.09371,-0.01464 v 0.389468 q -0.12299,0.03514 -0.187414,0.04393 -0.06442,0.0088 -0.175699,0.0088 -0.272335,0 -0.395325,-0.19327 -0.06442,-0.102491 -0.09078,-0.289905 -0.161058,0.21084 -0.462676,0.366042 -0.301618,0.155201 -0.664731,0.155201 -0.436321,0 -0.714513,-0.26355 -0.275263,-0.266478 -0.275263,-0.664731 0,-0.436321 0.272335,-0.676444 0.272335,-0.240123 0.714512,-0.295761 z m -0.436321,-1.311892 z"
               style="fill:#ffffff"
               id="path6018" />
            <path
               d="m 83.567528,95.979222 h 0.500744 v 0.445106 q 0.222553,-0.275263 0.471461,-0.395325 0.248909,-0.120061 0.553455,-0.120061 0.667659,0 0.901926,0.465604 0.128846,0.254765 0.128846,0.729154 v 2.011763 H 85.588076 V 97.13884 q 0,-0.286976 -0.08492,-0.462676 -0.14056,-0.292833 -0.509529,-0.292833 -0.187413,0 -0.307475,0.03807 -0.216696,0.06442 -0.380683,0.257693 -0.131775,0.155201 -0.172771,0.322116 -0.03807,0.163986 -0.03807,0.471461 v 1.642793 h -0.527099 z m 1.238684,-0.07614 z"
               style="fill:#ffffff"
               id="path6020" />
          </g>
        </g>
      </g>
    </g>
  </g>
</svg>
