<?xml version="1.0" encoding="UTF-8" standalone="no"?>
<!-- Created with Inkscape (http://www.inkscape.org/) -->

<svg
   width="62.177078mm"
   height="16.544832mm"
   viewBox="0 0 62.177077 16.544833"
   version="1.1"
   id="svg4008"
   inkscape:version="1.2 (dc2aedaf03, 2022-05-15)"
   sodipodi:docname="readme.stdlib.svg"
   xmlns:inkscape="http://www.inkscape.org/namespaces/inkscape"
   xmlns:sodipodi="http://sodipodi.sourceforge.net/DTD/sodipodi-0.dtd"
   xmlns="http://www.w3.org/2000/svg"
   xmlns:svg="http://www.w3.org/2000/svg">
  <sodipodi:namedview
     id="namedview4010"
     pagecolor="#ffffff"
     bordercolor="#666666"
     borderopacity="1.0"
     inkscape:pageshadow="2"
     inkscape:pageopacity="0.0"
     inkscape:pagecheckerboard="0"
     inkscape:document-units="mm"
     showgrid="false"
     inkscape:zoom="2.3163256"
     inkscape:cx="162.75777"
     inkscape:cy="59.361257"
     inkscape:window-width="1920"
     inkscape:window-height="1023"
     inkscape:window-x="0"
     inkscape:window-y="0"
     inkscape:window-maximized="1"
     inkscape:current-layer="layer1"
     fit-margin-top="0"
     fit-margin-left="0"
     fit-margin-right="0"
     fit-margin-bottom="0"
     inkscape:showpageshadow="0"
     inkscape:deskcolor="#d1d1d1" />
  <defs
     id="defs4005" />
  <g
     inkscape:label="Layer 1"
     inkscape:groupmode="layer"
     id="layer1"
     transform="translate(10.054876,-203.21055)">
    <g
       id="readme.stdlib"
       inkscape:label="stdlib"
       transform="translate(-41.748838,53.756385)">
      <g
         id="g38292">
        <path
           id="rect918"
           style="fill:#a34e9c;stroke:#1e1e1e;stroke-width:0.214453;paint-order:stroke fill markers"
           d="M 33.901372,149.56139 H 91.66363 c 1.163503,0 2.100185,0.93668 2.100185,2.10018 v 12.13001 c 0,1.16351 -0.936682,2.10019 -2.100185,2.10019 H 33.901372 c -1.163502,0 -2.100184,-0.93668 -2.100184,-2.10019 v -12.13001 c 0,-1.1635 0.936682,-2.10018 2.100184,-2.10018 z" />
        <g
           id="g46828"
           transform="translate(-1.572424,-8.3563593)">
          <g
             aria-label="stdlib
Standard Library"
             id="text926"
             style="font-size:7.05556px;line-height:1.05;font-family:Helvetica;-inkscape-font-specification:Helvetica;stroke-width:0.264583">
            <path
               d="m 53.851902,163.0317 q 0.0279,0.23564 0.120923,0.33486 0.164331,0.17674 0.607715,0.17674 0.260449,0 0.412378,-0.0775 0.155029,-0.0775 0.155029,-0.23254 0,-0.14883 -0.124024,-0.22635 -0.124023,-0.0775 -0.920874,-0.26665 -0.573608,-0.14262 -0.809252,-0.35656 -0.235645,-0.21084 -0.235645,-0.60772 0,-0.46819 0.365869,-0.80305 0.36897,-0.33796 1.035596,-0.33796 0.632519,0 1.029394,0.25424 0.399976,0.25115 0.458887,0.87127 h -0.883667 q -0.0186,-0.17053 -0.09612,-0.26975 -0.145728,-0.17984 -0.496094,-0.17984 -0.288354,0 -0.412378,0.0899 -0.120923,0.0899 -0.120923,0.21084 0,0.15193 0.130225,0.22014 0.130225,0.0713 0.920874,0.24495 0.5271,0.12402 0.790649,0.37517 0.26045,0.25425 0.26045,0.63562 0,0.50229 -0.375171,0.82165 -0.372071,0.31626 -1.153418,0.31626 -0.796851,0 -1.178223,-0.33486 -0.378271,-0.33796 -0.378271,-0.85886 z m 0.675928,-2.39055 z"
               style="font-weight:bold;font-size:6.35px;fill:#ffffff"
               id="path6742" />
            <path
               d="m 56.347874,161.39149 v -0.62942 h 0.471289 v -0.94258 h 0.874365 v 0.94258 h 0.548804 v 0.62942 h -0.548804 v 1.78594 q 0,0.20774 0.05271,0.26045 0.05271,0.0496 0.322461,0.0496 0.04031,0 0.08372,0 0.04651,-0.003 0.08992,-0.006 v 0.66043 l -0.418579,0.0155 q -0.626319,0.0217 -0.855762,-0.21704 -0.148828,-0.15193 -0.148828,-0.46819 v -2.08049 z"
               style="font-weight:bold;font-size:6.35px;fill:#ffffff"
               id="path6744" />
            <path
               d="m 60.056174,160.65045 q 0.306958,0 0.545703,0.13642 0.238745,0.13333 0.387574,0.37207 v -1.6123 h 0.896069 v 4.56406 h -0.858862 v -0.46819 q -0.189136,0.30076 -0.430982,0.43719 -0.241846,0.13642 -0.601513,0.13642 -0.592212,0 -0.998389,-0.47749 -0.403076,-0.48059 -0.403076,-1.23093 0,-0.86506 0.396875,-1.36116 0.399975,-0.49609 1.066601,-0.49609 z m 0.192237,2.82153 q 0.37517,0 0.570507,-0.27905 0.195337,-0.27905 0.195337,-0.72244 0,-0.62011 -0.313159,-0.88676 -0.192236,-0.16124 -0.446484,-0.16124 -0.387573,0 -0.570508,0.29456 -0.179834,0.29146 -0.179834,0.72554 0,0.46819 0.182935,0.75034 0.186035,0.27905 0.561206,0.27905 z"
               style="font-weight:bold;font-size:6.35px;fill:#ffffff"
               id="path6746" />
            <path
               d="m 63.590842,164.1107 h -0.883667 v -4.57026 h 0.883667 z"
               style="font-weight:bold;font-size:6.35px;fill:#ffffff"
               id="path6748" />
            <path
               d="m 65.361277,160.32799 h -0.89607 v -0.81546 h 0.89607 z m -0.89607,0.40307 h 0.89607 v 3.37964 h -0.89607 z"
               style="font-weight:bold;font-size:6.35px;fill:#ffffff"
               id="path6750" />
            <path
               d="m 68.043284,160.65665 q 0.666626,0 1.041797,0.48059 0.378271,0.48059 0.378271,1.24024 0,0.78754 -0.37207,1.30534 -0.37207,0.5178 -1.038696,0.5178 -0.41858,0 -0.672828,-0.16743 -0.151928,-0.0992 -0.328662,-0.34727 v 0.42478 h -0.865063 v -4.56406 h 0.880566 v 1.62471 q 0.167432,-0.23565 0.36897,-0.35967 0.238745,-0.15503 0.607715,-0.15503 z m -0.226343,2.81533 q 0.341064,0 0.5302,-0.27595 0.189136,-0.27595 0.189136,-0.72554 0,-0.35967 -0.09302,-0.59531 -0.176733,-0.44648 -0.651123,-0.44648 -0.48059,0 -0.660424,0.43718 -0.09302,0.23254 -0.09302,0.60151 0,0.43408 0.192236,0.71934 0.192237,0.28525 0.586011,0.28525 z"
               style="font-weight:bold;font-size:6.35px;fill:#ffffff"
               id="path6752" />
            <path
               d="m 53.490167,170.29431 q 0.01809,0.32298 0.152446,0.52451 0.255798,0.37724 0.901754,0.37724 0.289388,0 0.5271,-0.0827 0.459921,-0.1602 0.459921,-0.57361 0,-0.31006 -0.193787,-0.44183 -0.196371,-0.12919 -0.61495,-0.2248 l -0.514181,-0.11627 q -0.503845,-0.11369 -0.713135,-0.25063 -0.361735,-0.23771 -0.361735,-0.71055 0,-0.5116 0.353984,-0.83974 0.353983,-0.32815 1.002523,-0.32815 0.596863,0 1.012859,0.28939 0.418579,0.28681 0.418579,0.91984 H 55.43837 q -0.03876,-0.30489 -0.165365,-0.46767 -0.235127,-0.29714 -0.798401,-0.29714 -0.454753,0 -0.653707,0.1912 -0.198955,0.19121 -0.198955,0.44442 0,0.27905 0.232544,0.40824 0.152446,0.0827 0.689881,0.20671 l 0.532268,0.12144 q 0.38499,0.0879 0.594279,0.2403 0.361735,0.26613 0.361735,0.77256 0,0.63045 -0.45992,0.90175 -0.457337,0.2713 -1.064535,0.2713 -0.707968,0 -1.10846,-0.36173 -0.400493,-0.35915 -0.392742,-0.9741 z m 1.038697,-2.67426 z"
               style="font-size:5.29167px;fill:#ffffff"
               id="path6754" />
            <path
               d="m 56.714779,167.9792 h 0.470256 v 0.77257 h 0.441833 v 0.37982 h -0.441833 v 1.80609 q 0,0.14469 0.09819,0.19379 0.05426,0.0284 0.180867,0.0284 0.03359,0 0.07235,0 0.03876,-0.003 0.09043,-0.008 v 0.3669 q -0.0801,0.0233 -0.167948,0.0336 -0.08527,0.0103 -0.186036,0.0103 -0.325561,0 -0.441833,-0.16537 -0.116272,-0.16795 -0.116272,-0.43408 v -1.83193 h -0.374655 v -0.37982 h 0.374655 z"
               style="font-size:5.29167px;fill:#ffffff"
               id="path6756" />
            <path
               d="m 58.448524,170.78265 q 0,0.20154 0.147278,0.31781 0.147278,0.11627 0.348816,0.11627 0.245463,0 0.475423,-0.11369 0.387574,-0.18861 0.387574,-0.61753 v -0.37465 q -0.08527,0.0543 -0.219625,0.0904 -0.134359,0.0362 -0.26355,0.0517 l -0.281637,0.0362 q -0.253214,0.0336 -0.379822,0.10594 -0.214457,0.12144 -0.214457,0.38757 z m 1.126547,-0.94051 q 0.160197,-0.0207 0.214457,-0.13436 0.03101,-0.062 0.03101,-0.17828 0,-0.23772 -0.170532,-0.34365 -0.167949,-0.10852 -0.483175,-0.10852 -0.364319,0 -0.516765,0.19637 -0.08527,0.10852 -0.111104,0.32298 h -0.434083 q 0.01292,-0.5116 0.33073,-0.71056 0.320394,-0.20153 0.741557,-0.20153 0.488343,0 0.793234,0.18603 0.302307,0.18604 0.302307,0.57878 v 1.59422 q 0,0.0723 0.02842,0.11627 0.03101,0.0439 0.126607,0.0439 0.03101,0 0.06976,-0.003 0.03876,-0.005 0.08268,-0.0129 v 0.34365 q -0.108521,0.031 -0.165365,0.0388 -0.05684,0.008 -0.155029,0.008 -0.240296,0 -0.348816,-0.17053 -0.05684,-0.0904 -0.0801,-0.2558 -0.14211,0.18603 -0.408244,0.32298 -0.266134,0.13694 -0.586528,0.13694 -0.384989,0 -0.630452,-0.23255 -0.24288,-0.23512 -0.24288,-0.58652 0,-0.38499 0.240296,-0.59687 0.240295,-0.21187 0.630453,-0.26096 z m -0.38499,-1.15755 z"
               style="font-size:5.29167px;fill:#ffffff"
               id="path6758" />
            <path
               d="m 61.034931,168.75177 h 0.441834 v 0.39274 q 0.19637,-0.24288 0.415995,-0.34882 0.219625,-0.10594 0.488343,-0.10594 0.589111,0 0.795817,0.41083 0.113689,0.22479 0.113689,0.64337 v 1.77509 h -0.47284 v -1.74408 q 0,-0.25322 -0.07493,-0.40824 -0.124023,-0.25839 -0.449585,-0.25839 -0.165365,0 -0.271302,0.0336 -0.191203,0.0568 -0.335897,0.22738 -0.116272,0.13694 -0.152445,0.28422 -0.03359,0.14469 -0.03359,0.416 v 1.44952 h -0.465088 z m 1.092957,-0.0672 z"
               style="font-size:5.29167px;fill:#ffffff"
               id="path6760" />
            <path
               d="m 64.272461,170.1677 q 0,0.44442 0.188619,0.74414 0.18862,0.29973 0.604615,0.29973 0.322978,0 0.529684,-0.27647 0.209289,-0.27906 0.209289,-0.79841 0,-0.52451 -0.214457,-0.77514 -0.214457,-0.25322 -0.529684,-0.25322 -0.3514,0 -0.571025,0.26872 -0.217041,0.26872 -0.217041,0.79065 z m 0.700216,-1.46503 q 0.317811,0 0.532268,0.13436 0.124023,0.0775 0.281637,0.2713 v -1.39785 h 0.447001 v 3.80856 h -0.418579 v -0.38499 q -0.162781,0.2558 -0.38499,0.36949 -0.222209,0.11369 -0.509013,0.11369 -0.462504,0 -0.800985,-0.38758 -0.338481,-0.39016 -0.338481,-1.03611 0,-0.60462 0.307475,-1.04645 0.310059,-0.44442 0.883667,-0.44442 z"
               style="font-size:5.29167px;fill:#ffffff"
               id="path6762" />
            <path
               d="m 67.277448,170.78265 q 0,0.20154 0.147278,0.31781 0.147278,0.11627 0.348816,0.11627 0.245463,0 0.475424,-0.11369 0.387573,-0.18861 0.387573,-0.61753 v -0.37465 q -0.08527,0.0543 -0.219625,0.0904 -0.134359,0.0362 -0.26355,0.0517 l -0.281637,0.0362 q -0.253214,0.0336 -0.379822,0.10594 -0.214457,0.12144 -0.214457,0.38757 z m 1.126547,-0.94051 q 0.160197,-0.0207 0.214457,-0.13436 0.03101,-0.062 0.03101,-0.17828 0,-0.23772 -0.170532,-0.34365 -0.167949,-0.10852 -0.483175,-0.10852 -0.364319,0 -0.516765,0.19637 -0.08527,0.10852 -0.111104,0.32298 H 66.9338 q 0.01292,-0.5116 0.330729,-0.71056 0.320394,-0.20153 0.741557,-0.20153 0.488343,0 0.793234,0.18603 0.302307,0.18604 0.302307,0.57878 v 1.59422 q 0,0.0723 0.02842,0.11627 0.03101,0.0439 0.126608,0.0439 0.03101,0 0.06976,-0.003 0.03876,-0.005 0.08268,-0.0129 v 0.34365 q -0.10852,0.031 -0.165364,0.0388 -0.05684,0.008 -0.15503,0.008 -0.240295,0 -0.348816,-0.17053 -0.05684,-0.0904 -0.0801,-0.2558 -0.142111,0.18603 -0.408245,0.32298 -0.266133,0.13694 -0.586527,0.13694 -0.38499,0 -0.630453,-0.23255 -0.24288,-0.23512 -0.24288,-0.58652 0,-0.38499 0.240296,-0.59687 0.240295,-0.21187 0.630453,-0.26096 z m -0.38499,-1.15755 z"
               style="font-size:5.29167px;fill:#ffffff"
               id="path6764" />
            <path
               d="m 69.876775,168.75177 h 0.441833 v 0.478 q 0.05426,-0.13952 0.266134,-0.33848 0.211874,-0.20154 0.488343,-0.20154 0.01292,0 0.04392,0.003 0.03101,0.003 0.105937,0.0103 v 0.49093 q -0.04134,-0.008 -0.07752,-0.0103 -0.03359,-0.003 -0.07493,-0.003 -0.3514,0 -0.540019,0.22738 -0.188619,0.22479 -0.188619,0.51935 v 1.59163 h -0.465088 z"
               style="font-size:5.29167px;fill:#ffffff"
               id="path6766" />
            <path
               d="m 71.920578,170.1677 q 0,0.44442 0.188619,0.74414 0.18862,0.29973 0.604615,0.29973 0.322978,0 0.529684,-0.27647 0.20929,-0.27906 0.20929,-0.79841 0,-0.52451 -0.214458,-0.77514 -0.214457,-0.25322 -0.529684,-0.25322 -0.3514,0 -0.571024,0.26872 -0.217042,0.26872 -0.217042,0.79065 z m 0.700216,-1.46503 q 0.317811,0 0.532268,0.13436 0.124024,0.0775 0.281637,0.2713 v -1.39785 H 73.8817 v 3.80856 h -0.418579 v -0.38499 q -0.162781,0.2558 -0.38499,0.36949 -0.222209,0.11369 -0.509013,0.11369 -0.462504,0 -0.800985,-0.38758 -0.338481,-0.39016 -0.338481,-1.03611 0,-0.60462 0.307475,-1.04645 0.310059,-0.44442 0.883667,-0.44442 z"
               style="font-size:5.29167px;fill:#ffffff"
               id="path6768" />
            <path
               d="m 76.101204,167.7234 h 0.514181 v 3.34347 h 1.922364 v 0.45217 h -2.436545 z"
               style="font-size:5.29167px;fill:#ffffff"
               id="path6770" />
            <path
               d="m 78.982166,168.76468 h 0.47284 v 2.75436 h -0.47284 z m 0,-1.04128 h 0.47284 v 0.5271 h -0.47284 z"
               style="font-size:5.29167px;fill:#ffffff"
               id="path6772" />
            <path
               d="m 80.121633,167.71048 h 0.452169 v 1.37718 q 0.152446,-0.19895 0.364319,-0.3023 0.211874,-0.10594 0.459921,-0.10594 0.516764,0 0.837158,0.35657 0.322978,0.35398 0.322978,1.04644 0,0.6563 -0.31781,1.09038 -0.31781,0.43408 -0.881084,0.43408 -0.315226,0 -0.532267,-0.15245 -0.129191,-0.0904 -0.276469,-0.28938 v 0.35398 h -0.428915 z m 1.209229,3.48558 q 0.377239,0 0.563274,-0.29972 0.188619,-0.29972 0.188619,-0.79065 0,-0.43667 -0.188619,-0.72347 -0.186035,-0.28681 -0.550355,-0.28681 -0.31781,0 -0.558105,0.23513 -0.237712,0.23513 -0.237712,0.77515 0,0.39016 0.09819,0.63304 0.183452,0.45733 0.684713,0.45733 z"
               style="font-size:5.29167px;fill:#ffffff"
               id="path6774" />
            <path
               d="m 83.1137,168.75177 h 0.441834 v 0.478 q 0.05426,-0.13952 0.266133,-0.33848 0.211874,-0.20154 0.488343,-0.20154 0.01292,0 0.04393,0.003 0.03101,0.003 0.105937,0.0103 v 0.49093 q -0.04134,-0.008 -0.07752,-0.0103 -0.03359,-0.003 -0.07493,-0.003 -0.3514,0 -0.540019,0.22738 -0.188619,0.22479 -0.188619,0.51935 v 1.59163 H 83.1137 Z"
               style="font-size:5.29167px;fill:#ffffff"
               id="path6776" />
            <path
               d="m 85.219515,170.78265 q 0,0.20154 0.147278,0.31781 0.147278,0.11627 0.348816,0.11627 0.245464,0 0.475424,-0.11369 0.387573,-0.18861 0.387573,-0.61753 v -0.37465 q -0.08527,0.0543 -0.219625,0.0904 -0.134359,0.0362 -0.26355,0.0517 l -0.281636,0.0362 q -0.253215,0.0336 -0.379822,0.10594 -0.214458,0.12144 -0.214458,0.38757 z m 1.126547,-0.94051 q 0.160197,-0.0207 0.214457,-0.13436 0.03101,-0.062 0.03101,-0.17828 0,-0.23772 -0.170532,-0.34365 -0.167948,-0.10852 -0.483175,-0.10852 -0.364319,0 -0.516765,0.19637 -0.08527,0.10852 -0.111104,0.32298 h -0.434082 q 0.01292,-0.5116 0.330729,-0.71056 0.320394,-0.20153 0.741557,-0.20153 0.488343,0 0.793234,0.18603 0.302307,0.18604 0.302307,0.57878 v 1.59422 q 0,0.0723 0.02842,0.11627 0.03101,0.0439 0.126608,0.0439 0.03101,0 0.06976,-0.003 0.03876,-0.005 0.08268,-0.0129 v 0.34365 q -0.10852,0.031 -0.165364,0.0388 -0.05684,0.008 -0.15503,0.008 -0.240295,0 -0.348816,-0.17053 -0.05684,-0.0904 -0.0801,-0.2558 -0.142111,0.18603 -0.408244,0.32298 -0.266134,0.13694 -0.586528,0.13694 -0.38499,0 -0.630453,-0.23255 -0.242879,-0.23512 -0.242879,-0.58652 0,-0.38499 0.240295,-0.59687 0.240296,-0.21187 0.630453,-0.26096 z m -0.384989,-1.15755 z"
               style="font-size:5.29167px;fill:#ffffff"
               id="path6778" />
            <path
               d="m 87.818843,168.75177 h 0.441834 v 0.478 q 0.05426,-0.13952 0.266133,-0.33848 0.211874,-0.20154 0.488343,-0.20154 0.01292,0 0.04393,0.003 0.03101,0.003 0.105937,0.0103 v 0.49093 q -0.04134,-0.008 -0.07751,-0.0103 -0.03359,-0.003 -0.07493,-0.003 -0.3514,0 -0.540019,0.22738 -0.188619,0.22479 -0.188619,0.51935 v 1.59163 h -0.465088 z"
               style="font-size:5.29167px;fill:#ffffff"
               id="path6780" />
            <path
               d="m 91.296666,168.75177 h 0.514181 q -0.09819,0.26613 -0.436666,1.21439 -0.253215,0.71314 -0.423747,1.16272 -0.403076,1.05937 -0.568441,1.29191 -0.165365,0.23255 -0.568441,0.23255 -0.09819,0 -0.152446,-0.008 -0.05168,-0.008 -0.129191,-0.0284 v -0.42375 q 0.12144,0.0336 0.1757,0.0413 0.05426,0.008 0.0956,0.008 0.129191,0 0.188619,-0.0439 0.06201,-0.0413 0.103353,-0.10336 0.01292,-0.0207 0.09302,-0.21187 0.0801,-0.1912 0.116272,-0.28422 l -1.023194,-2.84737 h 0.5271 l 0.741558,2.25309 z m -0.749308,-0.0672 z"
               style="font-size:5.29167px;fill:#ffffff"
               id="path6782" />
          </g>
          <path
             d="m 45.605457,161.36353 -2.686659,9.40351 c -0.102849,0.35682 -0.474363,0.56252 -0.831185,0.46177 -0.356822,-0.10285 -0.562519,-0.47437 -0.461769,-0.83119 l 2.686658,-9.40309 c 0.102849,-0.3567 0.474363,-0.56323 0.831185,-0.46131 0.356822,0.1019 0.562521,0.4737 0.46177,0.83031 z m 2.178713,1.69196 2.350826,2.35083 c 0.26237,0.26236 0.26237,0.68636 0,0.94873 l -2.350826,2.35082 c -0.26237,0.26237 -0.686358,0.26237 -0.948727,0 -0.262369,-0.26237 -0.262369,-0.68636 0,-0.94873 l 1.874365,-1.87646 -1.874365,-1.87646 c -0.262369,-0.26237 -0.262369,-0.68636 0,-0.94873 0.262369,-0.26236 0.686357,-0.26236 0.948727,0 z m -7.388313,0.94873 -1.875414,1.87646 1.875414,1.87646 c 0.26237,0.26237 0.26237,0.68636 0,0.94873 -0.262368,0.26237 -0.686357,0.26237 -0.948725,0 l -2.351415,-2.35082 c -0.262285,-0.26237 -0.262285,-0.68637 0,-0.94873 l 2.351415,-2.35083 c 0.262368,-0.26236 0.686357,-0.26236 0.948725,0 0.26237,0.26237 0.26237,0.68636 0,0.94873 z"
             id="path1022"
             style="fill:#ffffff;stroke-width:0.0209895" />
        </g>
      </g>
    </g>
  </g>
</svg>
