<?xml version="1.0" encoding="UTF-8" standalone="no"?>
<!-- Created with Inkscape (http://www.inkscape.org/) -->

<svg
   width="63.5mm"
   height="16.546801mm"
   viewBox="0 0 63.5 16.5468"
   version="1.1"
   id="svg5"
   inkscape:version="1.1.2 (0a00cf5339, 2022-02-04)"
   sodipodi:docname="readme.github.svg"
   xmlns:inkscape="http://www.inkscape.org/namespaces/inkscape"
   xmlns:sodipodi="http://sodipodi.sourceforge.net/DTD/sodipodi-0.dtd"
   xmlns="http://www.w3.org/2000/svg"
   xmlns:svg="http://www.w3.org/2000/svg">
  <sodipodi:namedview
     id="namedview7"
     pagecolor="#ffffff"
     bordercolor="#666666"
     borderopacity="1.0"
     inkscape:pageshadow="2"
     inkscape:pageopacity="0.0"
     inkscape:pagecheckerboard="0"
     inkscape:document-units="mm"
     showgrid="false"
     inkscape:zoom="1.2379223"
     inkscape:cx="14.944395"
     inkscape:cy="47.660503"
     inkscape:window-width="1920"
     inkscape:window-height="1023"
     inkscape:window-x="0"
     inkscape:window-y="0"
     inkscape:window-maximized="1"
     inkscape:current-layer="layer1"
     fit-margin-top="0"
     fit-margin-left="0"
     fit-margin-right="0"
     fit-margin-bottom="0" />
  <defs
     id="defs2">
    <rect
       x="170.49045"
       y="421.97745"
       width="490.70828"
       height="35.169304"
       id="rect8622" />
  </defs>
  <g
     inkscape:label="Layer 1"
     inkscape:groupmode="layer"
     id="layer1"
     transform="translate(-130.74166,-76.424657)">
    <!--! Font Awesome Pro 6.1.1 by @fontawesome - https://fontawesome.com License - https://fontawesome.com/license (Commercial License) Copyright 2022 Fonticons, Inc. -->
    <!--! Font Awesome Pro 6.1.1 by @fontawesome - https://fontawesome.com License - https://fontawesome.com/license (Commercial License) Copyright 2022 Fonticons, Inc. -->
    <!--! Font Awesome Pro 6.1.1 by @fontawesome - https://fontawesome.com License - https://fontawesome.com/license (Commercial License) Copyright 2022 Fonticons, Inc. -->
    <g
       inkscape:label="Layer 1"
       inkscape:groupmode="layer"
       id="layer1-3"
       transform="matrix(1.0431916,0,0,1.0431916,-52.907141,22.275941)" />
    <!--! Font Awesome Pro 6.1.1 by @fontawesome - https://fontawesome.com License - https://fontawesome.com/license (Commercial License) Copyright 2022 Fonticons, Inc. -->
    <!--! Font Awesome Pro 6.1.1 by @fontawesome - https://fontawesome.com License - https://fontawesome.com/license (Commercial License) Copyright 2022 Fonticons, Inc. -->
    <!--! Font Awesome Pro 6.1.1 by @fontawesome - https://fontawesome.com License - https://fontawesome.com/license (Commercial License) Copyright 2022 Fonticons, Inc. -->
    <g
       id="g37991"
       transform="translate(99.0477,9.4026252)">
      <g
         id="g38368">
        <path
           id="rect26912"
           style="fill:#5c3f78;stroke:#1e1e1e;stroke-width:0.216724;paint-order:stroke fill markers"
           d="m 33.902468,67.130394 h 59.082984 c 1.163481,0 2.100146,0.936665 2.100146,2.100146 v 12.129785 c 0,1.16348 -0.936665,2.100145 -2.100146,2.100145 H 33.902468 c -1.163481,0 -2.100146,-0.936665 -2.100146,-2.100145 V 69.23054 c 0,-1.163481 0.936665,-2.100146 2.100146,-2.100146 z" />
        <g
           id="g37984"
           transform="translate(-0.13831215,-0.00186591)">
          <g
             aria-label="Ask a Question"
             id="text16482"
             style="font-size:6.35px;line-height:1.25;font-family:Helvetica;-inkscape-font-specification:Helvetica;stroke-width:0.264583">
            <path
               d="m 51.264046,75.588754 -0.691431,-2.01228 -0.734839,2.01228 z m -1.013892,-2.688208 h 0.697632 l 1.652612,4.554761 H 51.92447 l -0.461987,-1.364258 h -1.80144 l -0.492993,1.364258 h -0.63252 z m 0.31936,0 z"
               style="fill:#ffffff"
               id="path947" />
            <path
               d="m 53.418953,76.41351 q 0.0248,0.279053 0.139526,0.427881 0.21084,0.269751 0.731738,0.269751 0.310059,0 0.545703,-0.133325 0.235645,-0.136426 0.235645,-0.418579 0,-0.213941 -0.189136,-0.325562 -0.120923,-0.06821 -0.47749,-0.15813 l -0.443384,-0.111621 q -0.42478,-0.10542 -0.626318,-0.235644 -0.359668,-0.226343 -0.359668,-0.626319 0,-0.471289 0.337964,-0.762744 0.341064,-0.291455 0.914673,-0.291455 0.750341,0 1.082104,0.440283 0.207739,0.279053 0.201538,0.601514 h -0.527099 q -0.0155,-0.189136 -0.133326,-0.344165 -0.192236,-0.220142 -0.666626,-0.220142 -0.316259,0 -0.48059,0.120923 -0.161231,0.120923 -0.161231,0.319361 0,0.217041 0.213941,0.347265 0.124023,0.07751 0.365869,0.136426 l 0.368969,0.08992 q 0.601514,0.145727 0.806153,0.282153 0.325561,0.213941 0.325561,0.672827 0,0.443384 -0.337964,0.765845 -0.334863,0.322461 -1.023193,0.322461 -0.74104,0 -1.051099,-0.334863 -0.306958,-0.337964 -0.328662,-0.834058 z m 0.824756,-2.359546 z"
               style="fill:#ffffff"
               id="path949" />
            <path
               d="m 56.249788,72.900546 h 0.536401 v 2.6448 L 58.21866,74.13458 h 0.713135 l -1.271241,1.243334 1.342554,2.077393 h -0.713135 l -1.035595,-1.674316 -0.468189,0.42788 v 1.246436 h -0.536401 z"
               style="fill:#ffffff"
               id="path951" />
            <path
               d="m 61.629304,76.57164 q 0,0.241846 0.176733,0.381372 0.176734,0.139526 0.418579,0.139526 0.294556,0 0.570508,-0.136425 0.465088,-0.226343 0.465088,-0.74104 v -0.449585 q -0.102319,0.06511 -0.26355,0.10852 -0.16123,0.04341 -0.316259,0.06201 l -0.337964,0.04341 q -0.303858,0.04031 -0.455786,0.127124 -0.257349,0.145728 -0.257349,0.465088 z m 1.351855,-1.128613 q 0.192237,-0.02481 0.257349,-0.161231 0.03721,-0.07441 0.03721,-0.21394 0,-0.285254 -0.204639,-0.412378 -0.201538,-0.130225 -0.579809,-0.130225 -0.437183,0 -0.620117,0.235645 -0.10232,0.130224 -0.133326,0.387573 h -0.520898 q 0.0155,-0.613916 0.396875,-0.852661 0.384473,-0.241846 0.889868,-0.241846 0.586011,0 0.95188,0.223242 0.362769,0.223243 0.362769,0.694532 v 1.913061 q 0,0.08682 0.03411,0.139527 0.03721,0.05271 0.151929,0.05271 0.03721,0 0.08372,-0.0031 0.04651,-0.0062 0.09922,-0.0155 v 0.412378 q -0.130224,0.03721 -0.198437,0.04651 -0.06821,0.0093 -0.186035,0.0093 -0.288355,0 -0.418579,-0.204638 -0.06821,-0.108521 -0.09612,-0.306958 -0.170532,0.223242 -0.489892,0.387573 -0.319361,0.164331 -0.703833,0.164331 -0.461987,0 -0.756543,-0.279053 -0.291455,-0.282153 -0.291455,-0.703833 0,-0.461987 0.288354,-0.716235 0.288355,-0.254248 0.756543,-0.313159 z m -0.461987,-1.389063 z"
               style="fill:#ffffff"
               id="path953" />
            <path
               d="m 70.738825,77.442905 -0.310059,0.375171 -0.703833,-0.536402 q -0.254248,0.139527 -0.551904,0.223242 -0.294556,0.08372 -0.644922,0.08372 -1.0604,0 -1.661914,-0.694531 -0.5302,-0.675928 -0.5302,-1.69292 0,-0.923975 0.458887,-1.581299 0.589111,-0.843359 1.742529,-0.843359 1.206128,0 1.785937,0.775146 0.452686,0.604615 0.452686,1.547193 0,0.440283 -0.108521,0.84646 -0.164331,0.620117 -0.555005,1.010791 z m -2.136304,-0.406177 q 0.192236,0 0.359668,-0.02481 0.167432,-0.0279 0.291455,-0.10542 l -0.499194,-0.390674 0.310058,-0.381372 0.595313,0.461988 q 0.282153,-0.322461 0.381372,-0.722437 0.102319,-0.399975 0.102319,-0.765845 0,-0.803051 -0.421679,-1.292944 -0.418579,-0.489892 -1.147217,-0.489892 -0.73794,0 -1.168921,0.471289 -0.430981,0.468188 -0.430981,1.444873 0,0.821655 0.412377,1.308447 0.415479,0.486792 1.21543,0.486792 z"
               style="fill:#ffffff"
               id="path955" />
            <path
               d="m 71.994563,74.13458 v 2.204516 q 0,0.254248 0.08061,0.415479 0.148828,0.297656 0.555005,0.297656 0.58291,0 0.79375,-0.520899 0.114721,-0.279052 0.114721,-0.765844 V 74.13458 h 0.558106 v 3.320727 h -0.5271 l 0.0062,-0.489893 q -0.10852,0.189136 -0.269751,0.319361 -0.31936,0.260449 -0.775146,0.260449 -0.710034,0 -0.967383,-0.47439 -0.139526,-0.254248 -0.139526,-0.679028 V 74.13458 Z m 0.765844,-0.08062 z"
               style="fill:#ffffff"
               id="path957" />
            <path
               d="m 76.350885,74.060165 q 0.353467,0 0.685229,0.167432 0.331763,0.164331 0.505396,0.427881 0.167432,0.251147 0.223242,0.586011 0.04961,0.229443 0.04961,0.731738 h -2.43396 q 0.0155,0.505395 0.238745,0.812353 0.223242,0.303858 0.69143,0.303858 0.437183,0 0.697632,-0.288355 0.148828,-0.167431 0.21084,-0.387573 h 0.548804 q -0.0217,0.182935 -0.145728,0.409277 -0.120923,0.223243 -0.272851,0.36587 -0.254248,0.248046 -0.629419,0.334863 -0.201538,0.04961 -0.455786,0.04961 -0.620118,0 -1.051099,-0.449585 -0.430981,-0.452685 -0.430981,-1.265039 0,-0.799951 0.434082,-1.299145 0.434082,-0.499195 1.134814,-0.499195 z m 0.889868,1.469678 q -0.03411,-0.362768 -0.15813,-0.579809 -0.229443,-0.403077 -0.765844,-0.403077 -0.384473,0 -0.644922,0.279053 -0.26045,0.275952 -0.275952,0.703833 z m -0.942578,-1.475879 z"
               style="fill:#ffffff"
               id="path959" />
            <path
               d="m 78.831355,76.41351 q 0.02481,0.279053 0.139526,0.427881 0.21084,0.269751 0.731739,0.269751 0.310058,0 0.545703,-0.133325 0.235644,-0.136426 0.235644,-0.418579 0,-0.213941 -0.189136,-0.325562 -0.120922,-0.06821 -0.47749,-0.15813 l -0.443384,-0.111621 q -0.42478,-0.10542 -0.626318,-0.235644 -0.359668,-0.226343 -0.359668,-0.626319 0,-0.471289 0.337964,-0.762744 0.341064,-0.291455 0.914673,-0.291455 0.750342,0 1.082104,0.440283 0.20774,0.279053 0.201538,0.601514 h -0.527099 q -0.0155,-0.189136 -0.133325,-0.344165 -0.192237,-0.220142 -0.666626,-0.220142 -0.31626,0 -0.480591,0.120923 -0.161231,0.120923 -0.161231,0.319361 0,0.217041 0.213941,0.347265 0.124023,0.07751 0.365869,0.136426 l 0.36897,0.08992 q 0.601513,0.145727 0.806152,0.282153 0.325561,0.213941 0.325561,0.672827 0,0.443384 -0.337963,0.765845 -0.334864,0.322461 -1.023194,0.322461 -0.74104,0 -1.051098,-0.334863 -0.306958,-0.337964 -0.328662,-0.834058 z m 0.824756,-2.359546 z"
               style="fill:#ffffff"
               id="path961" />
            <path
               d="m 81.786214,73.207504 h 0.564307 v 0.927076 h 0.5302 v 0.455786 h -0.5302 v 2.167309 q 0,0.173633 0.117822,0.232544 0.06511,0.03411 0.217041,0.03411 0.04031,0 0.08682,0 0.04651,-0.0031 0.10852,-0.0093 v 0.440283 q -0.09612,0.0279 -0.201538,0.04031 -0.102319,0.0124 -0.223242,0.0124 -0.390674,0 -0.5302,-0.198438 -0.139527,-0.201538 -0.139527,-0.520898 V 74.590366 H 81.336629 V 74.13458 h 0.449585 z"
               style="fill:#ffffff"
               id="path963" />
            <path
               d="m 83.438826,74.150082 h 0.567407 v 3.305225 h -0.567407 z m 0,-1.249536 h 0.567407 v 0.63252 h -0.567407 z"
               style="fill:#ffffff"
               id="path965" />
            <path
               d="m 86.167342,77.095639 q 0.555004,0 0.759643,-0.418579 0.207739,-0.42168 0.207739,-0.936377 0,-0.465088 -0.148828,-0.756543 -0.235644,-0.458887 -0.812353,-0.458887 -0.511597,0 -0.744141,0.390674 -0.232544,0.390674 -0.232544,0.942578 0,0.5302 0.232544,0.883667 0.232544,0.353467 0.73794,0.353467 z m 0.0217,-3.057178 q 0.641821,0 1.085205,0.427881 0.443384,0.427881 0.443384,1.258838 0,0.803052 -0.390674,1.327051 -0.390674,0.523999 -1.212329,0.523999 -0.68523,0 -1.088306,-0.461987 -0.403076,-0.465088 -0.403076,-1.246436 0,-0.837158 0.42478,-1.333252 0.42478,-0.496094 1.141016,-0.496094 z m -0.0186,0.0155 z"
               style="fill:#ffffff"
               id="path967" />
            <path
               d="m 88.381159,74.13458 h 0.5302 v 0.471289 q 0.235645,-0.291456 0.499195,-0.41858 0.26355,-0.127124 0.58601,-0.127124 0.706934,0 0.954981,0.492994 0.136426,0.269751 0.136426,0.772045 v 2.130103 h -0.567408 v -2.092895 q 0,-0.303858 -0.08992,-0.489893 -0.148828,-0.310059 -0.539501,-0.310059 -0.198438,0 -0.325562,0.04031 -0.229443,0.06821 -0.403076,0.272852 -0.139527,0.164331 -0.182935,0.341064 -0.04031,0.173633 -0.04031,0.499194 v 1.739429 h -0.558106 z m 1.311548,-0.08062 z"
               style="fill:#ffffff"
               id="path969" />
          </g>
          <path
             d="m 39.602044,78.433731 c 0,0.0424 -0.04888,0.0765 -0.110504,0.0765 -0.07013,0.006 -0.119002,-0.0277 -0.119002,-0.0765 0,-0.0425 0.04888,-0.0765 0.110502,-0.0765 0.06376,-0.006 0.119004,0.0277 0.119004,0.0765 z m -0.660894,-0.0956 c -0.01487,0.0425 0.02762,0.0914 0.09138,0.10413 0.05525,0.0213 0.119003,0 0.131753,-0.0425 0.01275,-0.0424 -0.02762,-0.0914 -0.09138,-0.11049 -0.05525,-0.0149 -0.116877,0.006 -0.131753,0.0489 z m 0.939276,-0.0361 c -0.06163,0.0149 -0.104128,0.0553 -0.09775,0.10412 0.0064,0.0425 0.06163,0.0701 0.125379,0.0553 0.06163,-0.0149 0.104127,-0.0553 0.09775,-0.0978 -0.0064,-0.0403 -0.06376,-0.068 -0.125378,-0.0616 z m 1.398286,-8.143179 c -2.947453,0 -5.202138,2.237681 -5.202138,5.185127 0,2.356665 1.483289,4.373326 3.601972,5.0831 0.272006,0.0489 0.367634,-0.119 0.367634,-0.257137 0,-0.13175 -0.0064,-0.858507 -0.0064,-1.304774 0,0 -1.48754,0.31876 -1.799923,-0.633257 0,0 -0.242257,-0.618393 -0.590767,-0.777773 0,0 -0.486638,-0.33363 0.034,-0.327251 0,0 0.52914,0.0424 0.820273,0.548258 0.465387,0.820267 1.245282,0.584387 1.549166,0.44413 0.04888,-0.34 0.187005,-0.575878 0.340009,-0.716127 -1.187907,-0.13176 -2.386439,-0.303887 -2.386439,-2.348179 0,-0.584384 0.161504,-0.877654 0.501514,-1.25166 -0.05525,-0.13812 -0.235882,-0.707628 0.05525,-1.442898 0.444136,-0.138127 1.466289,0.573761 1.466289,0.573761 0.425011,-0.118996 0.881898,-0.180625 1.334536,-0.180625 0.452637,0 0.909524,0.06161 1.334536,0.180625 0,0 1.022152,-0.714017 1.46629,-0.57376 0.291131,0.73739 0.110502,1.304777 0.05525,1.442897 0.34001,0.376147 0.548265,0.669407 0.548265,1.251661 0,2.050671 -1.251659,2.214288 -2.439565,2.348178 0.195505,0.16787 0.361259,0.486637 0.361259,0.986024 0,0.716137 -0.0064,1.602271 -0.0064,1.776531 0,0.138127 0.09775,0.306007 0.367634,0.257127 2.125057,-0.705524 3.565845,-2.722185 3.565845,-5.07885 0,-2.947446 -2.390688,-5.185127 -5.338141,-5.185127 z m -3.136584,7.329266 c -0.02762,0.0213 -0.02125,0.0701 0.01487,0.11051 0.034,0.034 0.08287,0.0489 0.110502,0.0212 0.02762,-0.0212 0.02125,-0.0701 -0.01487,-0.110501 -0.034,-0.034 -0.08288,-0.0489 -0.110504,-0.0213 z m -0.229505,-0.172121 c -0.01488,0.0277 0.0064,0.0616 0.04888,0.0829 0.034,0.0213 0.0765,0.0149 0.09138,-0.0149 0.01487,-0.0276 -0.0064,-0.0616 -0.04888,-0.0829 -0.04251,-0.0128 -0.0765,-0.006 -0.09138,0.0149 z m 0.688519,0.756517 c -0.03401,0.0276 -0.02125,0.0914 0.02762,0.131748 0.04888,0.0489 0.110503,0.0553 0.138129,0.0213 0.02762,-0.0276 0.01488,-0.0914 -0.02762,-0.131747 -0.04675,-0.0489 -0.110503,-0.0553 -0.138129,-0.0213 z m -0.242257,-0.312389 c -0.03401,0.0213 -0.03401,0.0765 0,0.12538 0.034,0.0489 0.09138,0.0701 0.119003,0.0489 0.03401,-0.0276 0.03401,-0.0829 0,-0.13176 -0.02976,-0.0489 -0.085,-0.0701 -0.119003,-0.0425 z"
             id="path23051"
             style="fill:#ffffff;stroke-width:0.0212506" />
        </g>
      </g>
    </g>
  </g>
</svg>
