<?xml version="1.0" encoding="UTF-8" standalone="no"?>
<!-- Created with Inkscape (http://www.inkscape.org/) -->

<svg
   width="123.83447mm"
   height="15.736053mm"
   viewBox="0 0 123.83447 15.736053"
   version="1.1"
   id="svg11879"
   sodipodi:docname="modern-fortran-logo.svg"
   inkscape:version="1.1.2 (0a00cf5339, 2022-02-04)"
   xmlns:inkscape="http://www.inkscape.org/namespaces/inkscape"
   xmlns:sodipodi="http://sodipodi.sourceforge.net/DTD/sodipodi-0.dtd"
   xmlns="http://www.w3.org/2000/svg"
   xmlns:svg="http://www.w3.org/2000/svg">
  <sodipodi:namedview
     id="namedview11881"
     pagecolor="#ffffff"
     bordercolor="#666666"
     borderopacity="1.0"
     inkscape:pageshadow="2"
     inkscape:pageopacity="0.0"
     inkscape:pagecheckerboard="0"
     inkscape:document-units="mm"
     showgrid="false"
     inkscape:zoom="1.2640146"
     inkscape:cx="173.65306"
     inkscape:cy="-17.800427"
     inkscape:window-width="1920"
     inkscape:window-height="1053"
     inkscape:window-x="1920"
     inkscape:window-y="0"
     inkscape:window-maximized="1"
     inkscape:current-layer="layer1"
     fit-margin-top="0"
     fit-margin-left="0"
     fit-margin-right="0"
     fit-margin-bottom="0" />
  <defs
     id="defs11876" />
  <g
     inkscape:label="Layer 1"
     inkscape:groupmode="layer"
     id="layer1"
     transform="translate(-46.397192,-158.01401)">
    <g
       id="g1015">
      <path
         id="rect3876-9"
         style="fill:#734f96;stroke-width:0.144767"
         d="m 112.96282,158.01401 h 54.34225 c 1.62133,0 2.9266,1.30526 2.9266,2.9266 v 9.88285 c 0,1.62134 -1.30527,2.9266 -2.9266,2.9266 h -54.34225 c -1.62134,0 -2.9266,-1.30526 -2.9266,-2.9266 v -9.88285 c 0,-1.62134 1.30526,-2.9266 2.9266,-2.9266 z" />
      <path
         d="m 111.45936,161.13112 h 1.26753 c 0.0447,0 0.10439,0 0.14912,0 0.47719,0.0447 0.56667,0.16404 0.56667,0.85 v 6.29295 0.53684 c 0,0.68596 -0.0746,0.80525 -0.56667,0.84999 -0.0447,0 -0.10438,0.0149 -0.14912,0.0149 h -1.25262 v 1.08859 h 6.114 v -1.08859 h -1.13333 c -0.0596,0 -0.1193,-0.0149 -0.17894,-0.0149 -0.70088,-0.0447 -0.79035,-0.14912 -0.79035,-0.84999 v -2.95262 h 1.5956 c 1.07368,0 1.4614,0.35789 1.4614,1.40175 v 0.50701 h 0.95438 v -4.93594 h -0.9842 v 0.53684 c 0,0.10439 0,0.20877 -0.0149,0.31316 -0.10438,0.84999 -0.46227,1.11841 -1.52104,1.11841 h -1.49122 v -3.6684 h 3.23595 c 1.84911,0 2.53507,0.52193 2.74384,1.92368 0.0298,0.16403 0.0447,0.31315 0.0447,0.47719 l 0.0149,0.70087 h 1.01403 v -4.20524 h -11.07976 z"
         style="font-size:14.9122px;line-height:1.25;font-family:Clarendon;-inkscape-font-specification:Clarendon;fill:#ffffff;stroke-width:0.372806"
         id="path830" />
      <path
         d="m 121.0777,167.12583 c 0,2.26665 1.62543,3.89208 4.20524,3.89208 2.207,-0.0149 3.69822,-1.19297 4.07103,-3.02717 0.55175,-2.60964 -1.20789,-4.757 -4.08595,-4.757 -2.54998,0 -4.17541,1.64035 -4.19032,3.89209 z m 1.93858,0 c 0,-0.19386 0.0149,-0.37281 0.0447,-0.56667 0.17895,-1.55086 1.05876,-2.38595 2.207,-2.38595 1.14824,0 2.01315,0.83509 2.20701,2.38595 0.0447,0.37281 0.0447,0.76053 0,1.13333 -0.17895,1.55087 -1.05877,2.40087 -2.20701,2.40087 -1.16315,0 -2.02805,-0.85 -2.207,-2.40087 -0.0298,-0.19386 -0.0447,-0.38772 -0.0447,-0.56666 z"
         style="font-size:14.9122px;line-height:1.25;font-family:Clarendon;-inkscape-font-specification:Clarendon;fill:#ffffff;stroke-width:0.372806"
         id="path832" />
      <path
         d="m 130.05484,164.41181 h 0.7307 c 0.67104,0 0.76052,0.0895 0.76052,0.74561 v 3.35524 l 0.0149,0.52193 c 0.0149,0.6114 -0.13421,0.74561 -0.7307,0.74561 h -0.74561 v 0.9842 h 5.0105 v -0.9842 h -0.82017 c -0.76052,0 -0.89473,-0.1193 -0.89473,-0.74561 v -2.25174 c 0,-1.04386 0.22368,-1.68508 0.71578,-2.20701 0.47719,-0.50701 0.89474,-0.67105 1.3421,-0.59649 -0.14912,0.1193 -0.26842,0.28334 -0.32807,0.46228 -0.19385,0.62631 0.2386,1.2228 0.90965,1.23771 0.62631,0.0149 1.13333,-0.55175 1.01403,-1.31227 -0.0895,-0.59649 -0.52193,-1.04385 -1.25263,-1.17806 -0.11929,-0.0298 -0.23859,-0.0298 -0.35789,-0.0298 -0.67105,0 -1.23771,0.31316 -1.87894,1.16315 -0.0596,0.0746 -0.11929,0.14913 -0.16403,0.22369 v -1.13333 h -3.32542 z"
         style="font-size:14.9122px;line-height:1.25;font-family:Clarendon;-inkscape-font-specification:Clarendon;fill:#ffffff;stroke-width:0.372806"
         id="path834" />
      <path
         d="m 136.88458,164.38198 h 1.29736 v 3.81753 c 0,1.87893 0.70088,2.71402 2.25175,2.72893 1.43157,0.0149 2.207,-0.79035 2.207,-2.26666 v -0.74561 h -0.89473 v 0.56667 c 0,0.0746 0,0.14912 0,0.22368 -0.0447,0.58158 -0.19386,0.87982 -0.43245,1.05877 -0.40263,0.29824 -1.01403,0.11929 -1.20789,-0.38772 -0.0447,-0.13421 -0.0746,-0.29824 -0.0746,-0.50702 l -0.0149,-0.3728 v -0.19386 -3.92191 h 2.23683 v -0.96929 h -2.23683 v -2.57981 h -0.93947 c 0,0.16403 0,0.31316 -0.0298,0.47719 -0.17894,1.26754 -0.71578,1.90876 -1.67016,2.08771 -0.16404,0.0298 -0.32807,0.0447 -0.49211,0.0298 z"
         style="font-size:14.9122px;line-height:1.25;font-family:Clarendon;-inkscape-font-specification:Clarendon;fill:#ffffff;stroke-width:0.372806"
         id="path836" />
      <path
         d="m 142.92402,164.41181 h 0.7307 c 0.67105,0 0.76052,0.0895 0.76052,0.74561 v 3.35524 l 0.0149,0.52193 c 0.0149,0.6114 -0.13421,0.74561 -0.7307,0.74561 h -0.74561 v 0.9842 h 5.0105 v -0.9842 h -0.82017 c -0.76052,0 -0.89473,-0.1193 -0.89473,-0.74561 v -2.25174 c 0,-1.04386 0.22368,-1.68508 0.71579,-2.20701 0.47719,-0.50701 0.89473,-0.67105 1.34209,-0.59649 -0.14912,0.1193 -0.26841,0.28334 -0.32806,0.46228 -0.19386,0.62631 0.23859,1.2228 0.90964,1.23771 0.62631,0.0149 1.13333,-0.55175 1.01403,-1.31227 -0.0895,-0.59649 -0.52193,-1.04385 -1.25262,-1.17806 -0.1193,-0.0298 -0.2386,-0.0298 -0.3579,-0.0298 -0.67105,0 -1.23771,0.31316 -1.87893,1.16315 -0.0597,0.0746 -0.1193,0.14913 -0.16404,0.22369 v -1.13333 h -3.32542 z"
         style="font-size:14.9122px;line-height:1.25;font-family:Clarendon;-inkscape-font-specification:Clarendon;fill:#ffffff;stroke-width:0.372806"
         id="path838" />
      <path
         d="m 151.63271,164.44163 c 0.38772,-0.25351 0.80526,-0.3728 1.50613,-0.40263 0.22368,-0.0149 0.43245,0 0.62631,0.0298 0.93947,0.14912 1.35701,0.4921 1.4614,0.96929 0.14912,0.6114 0,1.02894 -0.35789,1.26754 -0.25351,0.16403 -0.40263,0.22368 -0.53684,0.2535 -0.0746,0.0149 -0.16404,0.0298 -0.2386,0.0447 -3.74296,0.80526 -4.38418,1.23771 -4.08594,2.78858 0.23859,1.37192 2.07279,2.23683 4.36927,1.13333 0.46228,-0.22368 0.76053,-0.46228 0.98421,-0.80526 0.0149,0.0597 0.0298,0.10439 0.0597,0.16403 0.28333,0.76053 0.79034,1.11842 1.72981,1.0886 1.07368,-0.0149 1.55087,-0.55176 1.65526,-1.92368 0.0149,-0.19386 0.0298,-0.41754 0.0298,-0.7307 0,-0.10438 -0.0149,-0.20877 -0.0149,-0.31315 h -0.85 v 0.20877 l -0.0149,0.43245 c -0.0149,0.43246 -0.0298,0.62631 -0.0597,0.76052 -0.0596,0.20877 -0.0746,0.28334 -0.11929,0.3579 -0.0895,0.19386 -0.31316,0.23859 -0.49211,0.0895 -0.13421,-0.1193 -0.19386,-0.25351 -0.19386,-0.53684 l -0.0149,-0.43245 v -0.19386 -2.96753 c 0,-1.68508 -1.13333,-2.65437 -3.71314,-2.47542 -0.44736,0.0298 -0.80525,0.0895 -1.14824,0.19385 -1.29736,0.34298 -1.8342,0.86491 -1.95349,1.55087 -0.1193,0.67105 0.35789,1.23772 1.01403,1.25263 0.17894,0.0149 0.3728,-0.0298 0.53684,-0.1193 0.52192,-0.28333 0.62631,-0.90964 0.23859,-1.37192 -0.1193,-0.13421 -0.26842,-0.2386 -0.41754,-0.31316 z m 3.60875,2.59472 v 0.76053 c -0.0149,1.11841 -0.41754,1.74472 -1.37192,2.0877 -0.19386,0.0746 -0.38772,0.1193 -0.58158,0.1193 -0.74561,0.0298 -1.23771,-0.31315 -1.37192,-0.80526 -0.17895,-0.68596 0.0746,-1.1035 0.95438,-1.43157 0.20877,-0.0746 0.46228,-0.14912 1.78947,-0.50701 0.0746,-0.0149 0.16403,-0.0447 0.58157,-0.22369 z"
         style="font-size:14.9122px;line-height:1.25;font-family:Clarendon;-inkscape-font-specification:Clarendon;fill:#ffffff;stroke-width:0.372806"
         id="path840" />
      <path
         d="m 159.223,164.41181 h 0.84999 c 0.43246,0 0.58158,0.10438 0.6114,0.3728 l 0.0149,0.0895 v 0.28333 3.35524 l 0.0149,0.52193 c 0,0.6114 -0.1193,0.74561 -0.68596,0.74561 h -0.79035 v 0.9842 h 4.56313 v -0.9842 h -0.74561 -0.1193 l -0.0895,-0.0149 c -0.17894,-0.0149 -0.28333,-0.14913 -0.29824,-0.3579 v -0.11929 -0.25351 -2.40087 c 0,-1.02894 0.41754,-1.74472 1.2228,-2.11753 1.1035,-0.52192 2.19209,0.0895 2.29648,1.07368 0.0149,0.1193 0.0149,0.29824 0.0149,0.65614 v 2.78858 c 0,0.0447 0,0.0895 0,0.14912 -0.0447,0.44737 -0.10439,0.55175 -0.29825,0.59649 h -0.0596 -0.14913 -0.70087 v 0.9842 h 4.32454 v -0.9842 h -0.71579 c -0.38771,0 -0.52192,-0.10439 -0.53684,-0.37281 l -0.0149,-0.13421 v -0.23859 -2.80349 c 0,-2.34122 -1.44648,-3.65349 -3.96664,-2.78859 -0.59649,0.19386 -1.07368,0.53684 -1.44649,0.99912 v -1.02894 H 159.223 Z"
         style="font-size:14.9122px;line-height:1.25;font-family:Clarendon;-inkscape-font-specification:Clarendon;fill:#ffffff;stroke-width:0.372806"
         id="path842" />
      <path
         d="m 46.397192,161.09685 0.551751,0.0149 h 0.26842 c 0.894732,0.0149 1.192976,0.23859 1.192976,0.68596 v 7.23241 c 0,0.0597 0,0.1193 -0.01491,0.17895 -0.05965,0.40263 -0.13421,0.4921 -0.432454,0.50702 H 47.60508 47.455958 46.412104 v 1.05876 h 4.995587 v -1.05876 h -1.073678 -0.13421 l -0.08947,-0.0149 c -0.13421,-0.0149 -0.238596,-0.11929 -0.253508,-0.26842 l -0.01491,-0.0746 v -0.34298 -7.03856 l 3.504367,8.7982 h 1.535957 l 3.340332,-8.94732 v 7.18768 c 0,0.0597 0,0.1193 -0.01491,0.19386 -0.02982,0.41754 -0.104385,0.4921 -0.447366,0.4921 h -1.028942 v 1.07368 h 5.457866 v -1.07368 h -1.192976 -0.178947 l -0.149122,-0.0149 c -0.283332,-0.0149 -0.402629,-0.17895 -0.402629,-0.67105 v -7.20259 c 0,-0.34298 0.05965,-0.4921 0.178946,-0.59649 0.05965,-0.0447 0.13421,-0.0746 0.193859,-0.0895 h 0.07456 l 0.223683,-0.0149 h 1.252625 v -1.07368 h -4.637695 l -3.086825,8.11223 -3.235947,-8.11223 h -4.831553 z"
         style="font-size:14.9122px;line-height:1.25;font-family:Clarendon;-inkscape-font-specification:Clarendon;fill:#734f96;stroke-width:0.372806"
         id="path845" />
      <path
         d="m 62.502331,167.1363 c 0,2.26665 1.62543,3.89208 4.20524,3.89208 2.207006,-0.0149 3.698226,-1.19298 4.071031,-3.02718 0.551751,-2.60963 -1.207888,-4.75699 -4.085943,-4.75699 -2.549986,0 -4.175416,1.64034 -4.190328,3.89209 z m 1.938586,0 c 0,-0.19386 0.01491,-0.37281 0.04474,-0.56667 0.178946,-1.55087 1.058766,-2.38595 2.207005,-2.38595 1.14824,0 2.013147,0.83508 2.207006,2.38595 0.04474,0.37281 0.04474,0.76052 0,1.13333 -0.178947,1.55087 -1.058766,2.40086 -2.207006,2.40086 -1.163151,0 -2.028059,-0.84999 -2.207005,-2.40086 -0.02983,-0.19386 -0.04474,-0.38772 -0.04474,-0.56666 z"
         style="font-size:14.9122px;line-height:1.25;font-family:Clarendon;-inkscape-font-specification:Clarendon;fill:#734f96;stroke-width:0.372806"
         id="path847" />
      <path
         d="m 77.787332,164.25824 c -0.07456,-0.0597 -0.149122,-0.1193 -0.223683,-0.17895 -1.938586,-1.58069 -4.682431,-0.82017 -5.517514,1.44649 -0.08947,0.23859 -0.149122,0.47719 -0.193859,0.71578 -0.372805,2.1921 0.47719,3.75788 2.072796,4.41401 1.35701,0.53684 2.609635,0.28334 3.72805,-0.74561 0.05965,-0.0447 0.104385,-0.0895 0.149122,-0.14912 v 1.01403 h 3.206123 v -0.9842 h -0.700874 c -0.581575,0 -0.671049,-0.1193 -0.685961,-0.74561 v -9.00697 h -3.549103 v 0.9842 h 0.805258 c 0.790347,0 0.909645,0.10439 0.909645,0.74561 z m -4.13068,2.77367 c 0.01491,-0.16403 0.02983,-0.34298 0.04474,-0.50702 0.268419,-1.86402 1.386834,-2.62454 2.654371,-2.207 0.894732,0.28333 1.506133,1.17806 1.521045,2.63946 0.02982,1.75964 -0.596488,2.66928 -1.62543,2.92279 -1.401747,0.34298 -2.654372,-0.7307 -2.594723,-2.84823 z"
         style="font-size:14.9122px;line-height:1.25;font-family:Clarendon;-inkscape-font-specification:Clarendon;fill:#734f96;stroke-width:0.372806"
         id="path849" />
      <path
         d="m 89.359177,167.28542 c 0,-0.20877 0,-0.41754 -0.01491,-0.62632 -0.208771,-2.40086 -2.102621,-3.87717 -4.563134,-3.39998 -1.640342,0.31316 -2.833318,1.53596 -3.086825,2.98244 -0.447366,2.41578 0.820171,4.29472 3.071913,4.68243 2.311391,0.38772 3.936821,-0.64122 4.428924,-2.35612 0.02982,-0.13421 0.05965,-0.26842 0.07456,-0.40263 h -1.073679 c -0.01491,0.0746 -0.04474,0.14912 -0.05965,0.22368 -0.417541,1.32719 -1.580693,1.96841 -2.922791,1.59561 -1.014029,-0.28334 -1.655254,-1.10351 -1.744727,-2.34122 0,-0.1193 0,-0.2386 0,-0.35789 z m -5.83067,-0.99912 c 0,-0.13421 0.01491,-0.25351 0.04474,-0.38772 0.164034,-0.95438 0.790347,-1.61052 1.521045,-1.78946 1.297361,-0.31316 2.281566,0.43245 2.430688,1.87894 0,0.10438 0.01491,0.19385 0.01491,0.29824 z"
         style="font-size:14.9122px;line-height:1.25;font-family:Clarendon;-inkscape-font-specification:Clarendon;fill:#734f96;stroke-width:0.372806"
         id="path851" />
      <path
         d="m 89.851278,164.42227 h 0.730698 c 0.671049,0 0.760522,0.0895 0.760522,0.74561 v 3.35525 l 0.01491,0.52193 c 0.01491,0.6114 -0.13421,0.74561 -0.730698,0.74561 H 89.8811 v 0.9842 h 5.0105 v -0.9842 h -0.820171 c -0.760523,0 -0.894732,-0.1193 -0.894732,-0.74561 v -2.25175 c 0,-1.04385 0.223683,-1.68507 0.715785,-2.207 0.477191,-0.50702 0.894732,-0.67105 1.342098,-0.59649 -0.149122,0.1193 -0.268419,0.28333 -0.328068,0.46228 -0.193859,0.62631 0.238595,1.2228 0.909644,1.23771 0.626312,0.0149 1.133327,-0.55175 1.01403,-1.31227 -0.08947,-0.59649 -0.521927,-1.04386 -1.252625,-1.17807 -0.119298,-0.0298 -0.238595,-0.0298 -0.357893,-0.0298 -0.671049,0 -1.237713,0.31316 -1.878937,1.16315 -0.05965,0.0746 -0.119298,0.14912 -0.164034,0.22368 v -1.13332 h -3.325421 z"
         style="font-size:14.9122px;line-height:1.25;font-family:Clarendon;-inkscape-font-specification:Clarendon;fill:#734f96;stroke-width:0.372806"
         id="path853" />
      <path
         d="m 96.755609,164.42227 h 0.849995 c 0.432454,0 0.581576,0.10439 0.6114,0.37281 l 0.01491,0.0895 v 0.28333 3.35525 l 0.01491,0.52193 c 0,0.6114 -0.119298,0.74561 -0.685961,0.74561 h -0.790347 v 0.9842 h 4.563134 v -0.9842 h -0.74561 -0.11929 l -0.0895,-0.0149 c -0.17894,-0.0149 -0.28333,-0.14912 -0.29824,-0.35789 v -0.1193 -0.2535 -2.40087 c 0,-1.02894 0.41754,-1.74472 1.2228,-2.11753 1.1035,-0.52193 2.19209,0.0895 2.29648,1.07368 0.0149,0.1193 0.0149,0.29824 0.0149,0.65614 v 2.78858 c 0,0.0447 0,0.0895 0,0.14912 -0.0447,0.44736 -0.10438,0.55175 -0.29824,0.59649 h -0.0597 -0.14911 -0.70088 v 0.9842 h 4.32454 v -0.9842 h -0.7158 c -0.38771,0 -0.52192,-0.10439 -0.53683,-0.37281 l -0.0149,-0.13421 v -0.23859 -2.8035 c 0,-2.34121 -1.44648,-3.65349 -3.96664,-2.78858 -0.59649,0.19386 -1.07368,0.53684 -1.44649,0.99912 v -1.02894 h -3.295596 z"
         style="font-size:14.9122px;line-height:1.25;font-family:Clarendon;-inkscape-font-specification:Clarendon;fill:#734f96;stroke-width:0.372806"
         id="path855" />
    </g>
  </g>
</svg>
