<?xml version="1.0" encoding="UTF-8" standalone="no"?>
<!-- Created with Inkscape (http://www.inkscape.org/) -->

<svg
   width="70.884521mm"
   height="17.73621mm"
   viewBox="0 0 70.884521 17.73621"
   version="1.1"
   id="svg68942"
   inkscape:version="1.1.2 (0a00cf5339, 2022-02-04)"
   sodipodi:docname="readme.discourse.svg"
   xmlns:inkscape="http://www.inkscape.org/namespaces/inkscape"
   xmlns:sodipodi="http://sodipodi.sourceforge.net/DTD/sodipodi-0.dtd"
   xmlns="http://www.w3.org/2000/svg"
   xmlns:svg="http://www.w3.org/2000/svg">
  <sodipodi:namedview
     id="namedview68944"
     pagecolor="#ffffff"
     bordercolor="#666666"
     borderopacity="1.0"
     inkscape:pageshadow="2"
     inkscape:pageopacity="0.0"
     inkscape:pagecheckerboard="0"
     inkscape:document-units="mm"
     showgrid="false"
     inkscape:zoom="1.5001964"
     inkscape:cx="116.98468"
     inkscape:cy="8.9988218"
     inkscape:window-width="1920"
     inkscape:window-height="1053"
     inkscape:window-x="1920"
     inkscape:window-y="0"
     inkscape:window-maximized="1"
     inkscape:current-layer="layer1"
     fit-margin-top="0"
     fit-margin-left="0"
     fit-margin-right="0"
     fit-margin-bottom="0" />
  <defs
     id="defs68939" />
  <g
     inkscape:label="Layer 1"
     inkscape:groupmode="layer"
     id="layer1"
     transform="translate(-26.638501,-109.64971)">
    <g
       id="g1099">
      <path
         id="rect20357"
         style="fill:#5c3f78;stroke:#1e1e1e;stroke-width:0.237042;paint-order:stroke fill markers"
         d="m 29.00752,109.76823 h 66.146481 c 1.24677,0 2.2505,1.00372 2.2505,2.2505 v 12.99817 c 0,1.24678 -1.00373,2.2505 -2.2505,2.2505 H 29.00752 c -1.246776,0 -2.250498,-1.00372 -2.250498,-2.2505 v -12.99817 c 0,-1.24678 1.003722,-2.2505 2.250498,-2.2505 z" />
      <g
         aria-label="Fortran Discourse"
         id="text2564"
         style="font-size:7.05556px;line-height:1.25;font-family:Helvetica;-inkscape-font-specification:Helvetica;stroke-width:0.264583"
         transform="translate(-5.0554589,65.516098)">
        <path
           d="m 45.17771,50.400669 h 3.510554 v 0.620117 h -2.82498 V 52.5573 H 48.3472 v 0.602892 h -2.483916 v 2.301325 H 45.17771 Z"
           style="fill:#ffffff"
           id="path828" />
        <path
           d="m 50.803554,55.061886 q 0.616673,0 0.844049,-0.465088 0.230822,-0.468533 0.230822,-1.04042 0,-0.516764 -0.165365,-0.840604 -0.261827,-0.509874 -0.902615,-0.509874 -0.568442,0 -0.826824,0.434082 -0.258382,0.434083 -0.258382,1.04731 0,0.589112 0.258382,0.981853 0.258382,0.392741 0.819933,0.392741 z m 0.02412,-3.396866 q 0.713135,0 1.205784,0.475423 0.492649,0.475424 0.492649,1.39871 0,0.89228 -0.434082,1.474502 -0.434082,0.582221 -1.347033,0.582221 -0.761367,0 -1.20923,-0.513319 -0.447862,-0.516765 -0.447862,-1.38493 0,-0.930176 0.471978,-1.481392 0.471979,-0.551215 1.267796,-0.551215 z m -0.02067,0.01723 z"
           style="fill:#ffffff"
           id="path830" />
        <path
           d="m 53.28058,51.771818 h 0.589111 v 0.637343 q 0.07235,-0.186036 0.354846,-0.451308 0.282498,-0.268718 0.651123,-0.268718 0.01722,0 0.05857,0.0034 0.04134,0.0034 0.141249,0.01378 v 0.654568 q -0.05512,-0.01033 -0.103353,-0.01378 -0.04479,-0.0034 -0.09991,-0.0034 -0.468533,0 -0.720026,0.303169 -0.251492,0.299723 -0.251492,0.692464 v 2.12218 H 53.28058 Z"
           style="fill:#ffffff"
           id="path832" />
        <path
           d="m 55.736935,50.741733 h 0.627008 v 1.030085 h 0.589111 v 0.506429 h -0.589111 v 2.408123 q 0,0.192926 0.130913,0.258383 0.07235,0.0379 0.241157,0.0379 0.04479,0 0.09646,0 0.05168,-0.0034 0.120578,-0.01034 v 0.489204 q -0.106798,0.03101 -0.223931,0.04479 -0.113688,0.01378 -0.248047,0.01378 -0.434082,0 -0.589112,-0.220486 -0.155029,-0.223932 -0.155029,-0.578777 V 52.27825 h -0.499539 v -0.506429 h 0.499539 z"
           style="fill:#ffffff"
           id="path834" />
        <path
           d="m 57.590397,51.771818 h 0.589112 v 0.637343 q 0.07235,-0.186036 0.354845,-0.451308 0.282498,-0.268718 0.651123,-0.268718 0.01723,0 0.05857,0.0034 0.04134,0.0034 0.141249,0.01378 v 0.654568 q -0.05512,-0.01033 -0.103353,-0.01378 -0.04479,-0.0034 -0.09991,-0.0034 -0.468533,0 -0.720025,0.303169 -0.251492,0.299723 -0.251492,0.692464 v 2.12218 h -0.620118 z"
           style="fill:#ffffff"
           id="path836" />
        <path
           d="m 60.398152,54.479664 q 0,0.268718 0.196371,0.423748 0.19637,0.155029 0.465088,0.155029 0.327284,0 0.633898,-0.151584 0.516764,-0.251493 0.516764,-0.823379 v -0.499539 q -0.113688,0.07235 -0.292833,0.120579 -0.179145,0.04823 -0.3514,0.0689 l -0.375516,0.04823 q -0.337619,0.04479 -0.506429,0.141249 -0.285943,0.161919 -0.285943,0.516764 z m 1.502063,-1.254015 q 0.213596,-0.02756 0.285943,-0.179145 0.04134,-0.08268 0.04134,-0.237712 0,-0.316949 -0.227377,-0.458198 Q 61.77619,52.2059 61.355888,52.2059 q -0.485759,0 -0.689019,0.261827 -0.113689,0.144695 -0.14814,0.430638 h -0.578776 q 0.01722,-0.68213 0.440973,-0.947402 0.427192,-0.268718 0.988743,-0.268718 0.651123,0 1.057645,0.248047 0.403076,0.248047 0.403076,0.771702 v 2.125625 q 0,0.09646 0.0379,0.15503 0.04134,0.05857 0.16881,0.05857 0.04134,0 0.09302,-0.0034 0.05168,-0.0069 0.110244,-0.01723 v 0.458198 q -0.144694,0.04134 -0.220487,0.05168 -0.07579,0.01034 -0.206706,0.01034 -0.320394,0 -0.465088,-0.227377 -0.07579,-0.120578 -0.106798,-0.341065 -0.18948,0.248047 -0.544325,0.430638 -0.354845,0.18259 -0.782037,0.18259 -0.51332,0 -0.840604,-0.310059 -0.323839,-0.313504 -0.323839,-0.782037 0,-0.51332 0.320394,-0.795818 0.320394,-0.282498 0.840604,-0.347955 z m -0.51332,-1.543404 z"
           style="fill:#ffffff"
           id="path838" />
        <path
           d="m 63.846694,51.771818 h 0.589112 v 0.523655 q 0.261827,-0.32384 0.55466,-0.465089 0.292834,-0.141249 0.651124,-0.141249 0.785482,0 1.06109,0.547771 0.151584,0.299723 0.151584,0.857829 v 2.366782 h -0.630453 v -2.325441 q 0,-0.337619 -0.09991,-0.544325 -0.165365,-0.34451 -0.599447,-0.34451 -0.220487,0 -0.361736,0.04479 -0.254937,0.07579 -0.447862,0.303169 -0.15503,0.18259 -0.203261,0.378961 -0.04479,0.192925 -0.04479,0.554661 v 1.932699 h -0.620118 z m 1.457276,-0.08957 z"
           style="fill:#ffffff"
           id="path840" />
        <path
           d="m 71.756639,54.875851 q 0.347955,0 0.571886,-0.07235 0.399632,-0.134359 0.654569,-0.516765 0.203261,-0.306614 0.292833,-0.785482 0.05168,-0.285943 0.05168,-0.530545 0,-0.940512 -0.375516,-1.460722 -0.37207,-0.520209 -1.202339,-0.520209 h -1.21612 v 3.88607 z M 69.84461,50.400669 h 2.049833 q 1.043865,0 1.619196,0.740696 0.51332,0.668349 0.51332,1.712213 0,0.806153 -0.303169,1.457277 -0.53399,1.150662 -1.836237,1.150662 H 69.84461 Z"
           style="fill:#ffffff"
           id="path842" />
        <path
           d="m 74.82622,51.789043 h 0.630453 v 3.672474 H 74.82622 Z m 0,-1.388374 h 0.630453 v 0.7028 H 74.82622 Z"
           style="fill:#ffffff"
           id="path844" />
        <path
           d="m 76.762366,54.303965 q 0.02756,0.310058 0.155029,0.475423 0.234267,0.299723 0.813044,0.299723 0.344509,0 0.606337,-0.148139 0.261827,-0.151584 0.261827,-0.465088 0,-0.237712 -0.210151,-0.361735 -0.134359,-0.07579 -0.530545,-0.1757 l -0.492649,-0.124024 q -0.471978,-0.117133 -0.69591,-0.261827 -0.399631,-0.251492 -0.399631,-0.69591 0,-0.523655 0.375516,-0.847494 0.378961,-0.323839 1.016304,-0.323839 0.833713,0 1.202339,0.489204 0.230821,0.310059 0.223931,0.668349 H 78.50214 Q 78.484915,52.622757 78.354001,52.450502 78.140405,52.2059 77.613305,52.2059 q -0.3514,0 -0.53399,0.134359 -0.179145,0.134359 -0.179145,0.354845 0,0.241157 0.237712,0.385851 0.137804,0.08613 0.406521,0.151584 l 0.409967,0.09991 q 0.668349,0.16192 0.895725,0.313504 0.361736,0.237712 0.361736,0.747586 0,0.492649 -0.375516,0.850939 -0.372071,0.35829 -1.136882,0.35829 -0.823379,0 -1.167888,-0.37207 -0.341065,-0.375516 -0.365181,-0.926731 z m 0.916396,-2.62172 z"
           style="fill:#ffffff"
           id="path846" />
        <path
           d="m 81.344345,51.66502 q 0.623562,0 1.012858,0.303168 0.392741,0.303169 0.471979,1.043865 H 82.22629 q -0.05512,-0.341065 -0.251493,-0.564996 -0.19637,-0.227377 -0.630452,-0.227377 -0.592557,0 -0.847494,0.578777 -0.165365,0.375515 -0.165365,0.926731 0,0.554661 0.234267,0.933622 0.234266,0.37896 0.73725,0.37896 0.385851,0 0.609783,-0.234266 0.227376,-0.237712 0.313504,-0.647679 h 0.602892 q -0.103353,0.733806 -0.516765,1.074871 -0.413412,0.337619 -1.057645,0.337619 -0.72347,0 -1.154108,-0.5271 -0.430637,-0.530545 -0.430637,-1.322917 0,-0.971518 0.471979,-1.512398 0.471978,-0.54088 1.202339,-0.54088 z m -0.09646,0.01723 z"
           style="fill:#ffffff"
           id="path848" />
        <path
           d="m 84.913468,55.061886 q 0.616673,0 0.844049,-0.465088 0.230822,-0.468533 0.230822,-1.04042 0,-0.516764 -0.165365,-0.840604 -0.261827,-0.509874 -0.902616,-0.509874 -0.568441,0 -0.826823,0.434082 -0.258382,0.434083 -0.258382,1.04731 0,0.589112 0.258382,0.981853 0.258382,0.392741 0.819933,0.392741 z m 0.02412,-3.396866 q 0.713135,0 1.205784,0.475423 0.492649,0.475424 0.492649,1.39871 0,0.89228 -0.434082,1.474502 -0.434083,0.582221 -1.347033,0.582221 -0.761367,0 -1.20923,-0.513319 -0.447862,-0.516765 -0.447862,-1.38493 0,-0.930176 0.471978,-1.481392 0.471978,-0.551215 1.267796,-0.551215 z m -0.02067,0.01723 z"
           style="fill:#ffffff"
           id="path850" />
        <path
           d="m 87.993385,51.771818 v 2.449464 q 0,0.282498 0.08957,0.461643 0.165365,0.33073 0.616673,0.33073 0.647678,0 0.881945,-0.578777 0.127468,-0.310059 0.127468,-0.850939 v -1.812121 h 0.620118 v 3.689699 h -0.585667 l 0.0069,-0.544325 q -0.120579,0.210151 -0.299724,0.354845 -0.354845,0.289388 -0.861274,0.289388 -0.788928,0 -1.074871,-0.5271 -0.155029,-0.282498 -0.155029,-0.754476 v -2.508031 z m 0.850939,-0.08957 z"
           style="fill:#ffffff"
           id="path852" />
        <path
           d="m 91.314458,51.771818 h 0.589112 v 0.637343 q 0.07235,-0.186036 0.354845,-0.451308 0.282498,-0.268718 0.651123,-0.268718 0.01723,0 0.05857,0.0034 0.04134,0.0034 0.141249,0.01378 v 0.654568 q -0.05512,-0.01033 -0.103353,-0.01378 -0.04479,-0.0034 -0.09991,-0.0034 -0.468533,0 -0.720025,0.303169 -0.251492,0.299723 -0.251492,0.692464 v 2.12218 h -0.620118 z"
           style="fill:#ffffff"
           id="path854" />
        <path
           d="m 94.015414,54.303965 q 0.02756,0.310058 0.155029,0.475423 0.234267,0.299723 0.813043,0.299723 0.34451,0 0.606338,-0.148139 0.261827,-0.151584 0.261827,-0.465088 0,-0.237712 -0.210151,-0.361735 -0.134359,-0.07579 -0.530545,-0.1757 l -0.492649,-0.124024 q -0.471978,-0.117133 -0.69591,-0.261827 -0.399631,-0.251492 -0.399631,-0.69591 0,-0.523655 0.375516,-0.847494 0.37896,-0.323839 1.016304,-0.323839 0.833713,0 1.202339,0.489204 0.230821,0.310059 0.223931,0.668349 H 95.755188 Q 95.737963,52.622757 95.607049,52.450502 95.393453,52.2059 94.866353,52.2059 q -0.3514,0 -0.53399,0.134359 -0.179145,0.134359 -0.179145,0.354845 0,0.241157 0.237712,0.385851 0.137804,0.08613 0.406521,0.151584 l 0.409967,0.09991 q 0.668349,0.16192 0.895725,0.313504 0.361736,0.237712 0.361736,0.747586 0,0.492649 -0.375516,0.850939 -0.372071,0.35829 -1.136882,0.35829 -0.823379,0 -1.167889,-0.37207 -0.341064,-0.375516 -0.36518,-0.926731 z m 0.916396,-2.62172 z"
           style="fill:#ffffff"
           id="path856" />
        <path
           d="m 98.711085,51.689135 q 0.392741,0 0.761366,0.186036 0.368626,0.18259 0.561549,0.475423 0.18604,0.279053 0.24805,0.651124 0.0551,0.254937 0.0551,0.813043 h -2.704401 q 0.01723,0.561551 0.265273,0.902615 0.248047,0.33762 0.768256,0.33762 0.485759,0 0.775147,-0.320394 0.165365,-0.186036 0.234267,-0.430637 h 0.609778 q -0.0241,0.20326 -0.16192,0.454752 -0.134354,0.248047 -0.303164,0.406522 -0.282498,0.275608 -0.699355,0.37207 -0.223931,0.05512 -0.506429,0.05512 -0.68902,0 -1.167888,-0.499539 -0.478869,-0.502984 -0.478869,-1.4056 0,-0.888835 0.482314,-1.443496 0.482314,-0.554661 1.260906,-0.554661 z m 0.988743,1.632977 q -0.0379,-0.403077 -0.1757,-0.644234 -0.254938,-0.447862 -0.850939,-0.447862 -0.427193,0 -0.716581,0.310058 -0.289388,0.306614 -0.306614,0.782038 z m -1.04731,-1.639867 z"
           style="fill:#ffffff"
           id="path858" />
      </g>
      <path
         d="m 33.603269,113.57372 c -2.706035,0 -4.986078,2.1741 -4.986078,4.85806 0,0.0861 0.0022,5.03022 0.0022,5.03022 l 4.98387,-0.005 c 2.708241,0 4.902204,-2.25798 4.902204,-4.94194 0,-2.68396 -2.193963,-4.94193 -4.902204,-4.94193 z m -0.04194,7.76936 c -0.428198,0 -0.836531,-0.0949 -1.200719,-0.26707 l -1.790044,0.44365 0.50545,-1.65541 c -0.216307,-0.3995 -0.33991,-0.8586 -0.33991,-1.34639 0,-1.56049 1.264729,-2.82522 2.825223,-2.82522 1.560495,0 2.825224,1.26473 2.825224,2.82522 0,1.56049 -1.264729,2.82522 -2.825224,2.82522 z"
         id="path20326"
         style="fill:#ffffff;stroke-width:0.0220721" />
    </g>
  </g>
</svg>
