<?xml version="1.0" encoding="UTF-8" standalone="no"?>
<!-- Created with Inkscape (http://www.inkscape.org/) -->

<svg
   width="70.884521mm"
   height="17.73621mm"
   viewBox="0 0 70.884521 17.73621"
   version="1.1"
   id="svg69418"
   inkscape:version="1.1.2 (0a00cf5339, 2022-02-04)"
   sodipodi:docname="readme.tutorial.svg"
   xmlns:inkscape="http://www.inkscape.org/namespaces/inkscape"
   xmlns:sodipodi="http://sodipodi.sourceforge.net/DTD/sodipodi-0.dtd"
   xmlns="http://www.w3.org/2000/svg"
   xmlns:svg="http://www.w3.org/2000/svg">
  <sodipodi:namedview
     id="namedview69420"
     pagecolor="#ffffff"
     bordercolor="#666666"
     borderopacity="1.0"
     inkscape:pageshadow="2"
     inkscape:pageopacity="0.0"
     inkscape:pagecheckerboard="0"
     inkscape:document-units="mm"
     showgrid="false"
     inkscape:zoom="0.7500982"
     inkscape:cx="151.31352"
     inkscape:cy="161.97879"
     inkscape:window-width="1920"
     inkscape:window-height="1053"
     inkscape:window-x="1920"
     inkscape:window-y="0"
     inkscape:window-maximized="1"
     inkscape:current-layer="layer1"
     fit-margin-top="0"
     fit-margin-left="0"
     fit-margin-right="0"
     fit-margin-bottom="0" />
  <defs
     id="defs69415" />
  <g
     inkscape:label="Layer 1"
     inkscape:groupmode="layer"
     id="layer1"
     transform="translate(-64.733513,-105.41693)">
    <g
       id="g69318"
       transform="translate(32.044276,13.594259)">
      <path
         id="rect30387"
         style="fill:#5c3f78;stroke:#1e1e1e;stroke-width:0.237042;paint-order:stroke fill markers"
         d="m 35.058256,91.941193 h 66.146484 c 1.24677,0 2.25049,1.003722 2.25049,2.250498 v 12.998169 c 0,1.24678 -1.00372,2.2505 -2.25049,2.2505 H 35.058256 c -1.246776,0 -2.250498,-1.00372 -2.250498,-2.2505 V 94.191691 c 0,-1.246776 1.003722,-2.250498 2.250498,-2.250498 z" />
      <g
         id="g68475"
         transform="translate(1.9600047)">
        <path
           d="m 48.154685,102.27859 v -5.716106 c 0,-0.52617 -0.426723,-0.9527 -0.952685,-0.9527 h -6.033675 c -1.05232,0 -1.905371,0.85307 -1.905371,1.90538 v 6.351236 c 0,1.05232 0.853051,1.90537 1.905371,1.90537 h 6.351237 c 0.350707,0 0.635123,-0.28442 0.635123,-0.61726 0,-0.23261 -0.131132,-0.42712 -0.31756,-0.53787 v -1.6148 c 0.194506,-0.19133 0.31756,-0.44142 0.31756,-0.72325 z m -6.051537,-4.128296 h 3.810742 c 0.192522,0 0.335425,0.1429 0.335425,0.31755 0,0.17466 -0.142903,0.317576 -0.317562,0.317576 h -3.828605 c -0.156797,0 -0.299699,-0.142916 -0.299699,-0.317576 0,-0.17465 0.142902,-0.31755 0.299699,-0.31755 z m 0,1.270246 h 3.810742 c 0.192522,0 0.335425,0.14289 0.335425,0.31755 0,0.17467 -0.142903,0.31757 -0.317562,0.31757 h -3.828605 c -0.156797,0 -0.299699,-0.1429 -0.299699,-0.31757 0,-0.17466 0.142902,-0.31755 0.299699,-0.31755 z m 4.78129,5.08098 h -5.716113 c -0.350707,0 -0.635124,-0.28441 -0.635124,-0.63512 0,-0.35071 0.284417,-0.63512 0.635124,-0.63512 h 5.716113 z"
           id="path26948"
           style="fill:#ffffff;stroke-width:0.0198476" />
        <g
           aria-label="Learn Fortran"
           id="text28301"
           style="font-size:7.05556px;line-height:1.25;font-family:Helvetica;-inkscape-font-specification:Helvetica;stroke-width:0.264583">
          <path
             d="m 51.332334,98.093174 h 0.685575 v 4.457956 h 2.563152 v 0.60289 h -3.248727 z"
             style="fill:#ffffff"
             id="path828" />
          <path
             d="m 56.710132,99.38164 q 0.392741,0 0.761366,0.186035 0.368626,0.182591 0.561551,0.475425 0.186036,0.27905 0.248047,0.65112 0.05512,0.25494 0.05512,0.81305 h -2.704402 q 0.01723,0.56155 0.265273,0.90261 0.248047,0.33762 0.768257,0.33762 0.485758,0 0.775147,-0.32039 0.165364,-0.18604 0.234266,-0.43064 h 0.609783 q -0.02412,0.20326 -0.16192,0.45475 -0.134359,0.24805 -0.303169,0.40652 -0.282498,0.27561 -0.699355,0.37207 -0.223931,0.0551 -0.506429,0.0551 -0.689019,0 -1.167888,-0.49954 -0.478869,-0.50299 -0.478869,-1.4056 0,-0.88884 0.482314,-1.443499 0.482314,-0.554661 1.260906,-0.554661 z m 0.988743,1.63298 q -0.0379,-0.40308 -0.1757,-0.64424 -0.254937,-0.447859 -0.850939,-0.447859 -0.427192,0 -0.716581,0.310059 -0.289388,0.30661 -0.306613,0.78204 z m -1.04731,-1.63987 z"
             style="fill:#ffffff"
             id="path830" />
          <path
             d="m 59.573008,102.17217 q 0,0.26872 0.196371,0.42375 0.19637,0.15503 0.465088,0.15503 0.327284,0 0.633898,-0.15159 0.516765,-0.25149 0.516765,-0.82338 v -0.49954 q -0.113689,0.0724 -0.292834,0.12058 -0.179145,0.0482 -0.3514,0.0689 l -0.375515,0.0482 q -0.33762,0.0448 -0.50643,0.14124 -0.285943,0.16192 -0.285943,0.51677 z m 1.502063,-1.25402 q 0.213596,-0.0276 0.285943,-0.17914 0.04134,-0.0827 0.04134,-0.23771 0,-0.31695 -0.227376,-0.4582 -0.223932,-0.144695 -0.644234,-0.144695 -0.485758,0 -0.689019,0.261825 -0.113688,0.1447 -0.148139,0.43064 H 59.11481 q 0.01723,-0.68213 0.440973,-0.947402 0.427192,-0.268718 0.988743,-0.268718 0.651123,0 1.057645,0.248047 0.403076,0.248047 0.403076,0.771703 v 2.12562 q 0,0.0965 0.0379,0.15503 0.04134,0.0586 0.16881,0.0586 0.04134,0 0.09302,-0.003 0.05168,-0.007 0.110243,-0.0172 v 0.4582 q -0.144694,0.0413 -0.220486,0.0517 -0.07579,0.0103 -0.206706,0.0103 -0.320394,0 -0.465089,-0.22738 -0.07579,-0.12058 -0.106798,-0.34106 -0.18948,0.24805 -0.544325,0.43064 -0.354845,0.18259 -0.782037,0.18259 -0.51332,0 -0.840604,-0.31006 -0.323839,-0.31351 -0.323839,-0.78204 0,-0.51332 0.320394,-0.79582 0.320394,-0.2825 0.840604,-0.34795 z m -0.51332,-1.5434 z"
             style="fill:#ffffff"
             id="path832" />
          <path
             d="m 63.038777,99.464323 h 0.589111 v 0.637347 q 0.07235,-0.18604 0.354845,-0.451312 0.282498,-0.268718 0.651124,-0.268718 0.01722,0 0.05857,0.0034 0.04134,0.0034 0.14125,0.01378 v 0.654564 q -0.05512,-0.0103 -0.103353,-0.0138 -0.04479,-0.003 -0.09991,-0.003 -0.468534,0 -0.720026,0.30317 -0.251492,0.29972 -0.251492,0.69246 v 2.12218 h -0.620117 z"
             style="fill:#ffffff"
             id="path834" />
          <path
             d="m 65.371108,99.464323 h 0.589112 v 0.523654 q 0.261827,-0.323839 0.55466,-0.465088 0.292834,-0.141249 0.651124,-0.141249 0.785482,0 1.06109,0.547771 0.151584,0.299719 0.151584,0.857829 v 2.36678 h -0.630453 v -2.32544 q 0,-0.33762 -0.09991,-0.54432 -0.165365,-0.344514 -0.599447,-0.344514 -0.220487,0 -0.361736,0.04479 -0.254937,0.07579 -0.447862,0.303168 -0.15503,0.18259 -0.203261,0.37896 -0.04479,0.19293 -0.04479,0.55466 v 1.9327 h -0.620118 z m 1.457276,-0.08957 z"
             style="fill:#ffffff"
             id="path836" />
          <path
             d="m 71.403475,98.093174 h 3.510555 v 0.620117 h -2.824981 v 1.536509 h 2.483916 v 0.6029 h -2.483916 v 2.30132 h -0.685574 z"
             style="fill:#ffffff"
             id="path838" />
          <path
             d="m 77.029319,102.75439 q 0.616672,0 0.844049,-0.46509 0.230821,-0.46853 0.230821,-1.04042 0,-0.51676 -0.165365,-0.8406 -0.261827,-0.509875 -0.902615,-0.509875 -0.568441,0 -0.826824,0.434085 -0.258382,0.43408 -0.258382,1.04731 0,0.58911 0.258382,0.98185 0.258383,0.39274 0.819934,0.39274 z m 0.02411,-3.396865 q 0.713136,0 1.205785,0.475423 0.492649,0.475422 0.492649,1.398712 0,0.89228 -0.434083,1.4745 -0.434082,0.58222 -1.347033,0.58222 -0.761367,0 -1.209229,-0.51332 -0.447863,-0.51676 -0.447863,-1.38493 0,-0.93017 0.471978,-1.48139 0.471979,-0.551215 1.267796,-0.551215 z m -0.02067,0.01723 z"
             style="fill:#ffffff"
             id="path840" />
          <path
             d="m 79.506345,99.464323 h 0.589112 v 0.637347 q 0.07235,-0.18604 0.354845,-0.451312 0.282498,-0.268718 0.651123,-0.268718 0.01723,0 0.05857,0.0034 0.04134,0.0034 0.141249,0.01378 v 0.654564 q -0.05512,-0.0103 -0.103353,-0.0138 -0.04479,-0.003 -0.09991,-0.003 -0.468533,0 -0.720025,0.30317 -0.251492,0.29972 -0.251492,0.69246 v 2.12218 h -0.620118 z"
             style="fill:#ffffff"
             id="path842" />
          <path
             d="m 81.962699,98.434238 h 0.627008 v 1.030085 h 0.589111 v 0.506429 h -0.589111 v 2.408128 q 0,0.19292 0.130913,0.25838 0.07235,0.0379 0.241157,0.0379 0.04479,0 0.09646,0 0.05168,-0.003 0.120578,-0.0103 v 0.4892 q -0.106798,0.031 -0.223931,0.0448 -0.113688,0.0138 -0.248047,0.0138 -0.434082,0 -0.589112,-0.22049 -0.155029,-0.22393 -0.155029,-0.57877 V 99.970752 H 81.46316 v -0.506429 h 0.499539 z"
             style="fill:#ffffff"
             id="path844" />
          <path
             d="m 83.816163,99.464323 h 0.589112 v 0.637347 q 0.07235,-0.18604 0.354845,-0.451312 0.282498,-0.268718 0.651124,-0.268718 0.01723,0 0.05857,0.0034 0.04134,0.0034 0.141249,0.01378 v 0.654564 q -0.05512,-0.0103 -0.103353,-0.0138 -0.04479,-0.003 -0.09991,-0.003 -0.468533,0 -0.720025,0.30317 -0.251492,0.29972 -0.251492,0.69246 v 2.12218 h -0.620118 z"
             style="fill:#ffffff"
             id="path846" />
          <path
             d="m 86.623917,102.17217 q 0,0.26872 0.196371,0.42375 0.19637,0.15503 0.465088,0.15503 0.327284,0 0.633898,-0.15159 0.516765,-0.25149 0.516765,-0.82338 v -0.49954 q -0.113689,0.0724 -0.292834,0.12058 -0.179145,0.0482 -0.3514,0.0689 l -0.375515,0.0482 q -0.33762,0.0448 -0.50643,0.14124 -0.285943,0.16192 -0.285943,0.51677 z m 1.502063,-1.25402 q 0.213596,-0.0276 0.285943,-0.17914 0.04134,-0.0827 0.04134,-0.23771 0,-0.31695 -0.227376,-0.4582 -0.223932,-0.144695 -0.644234,-0.144695 -0.485758,0 -0.689019,0.261825 -0.113688,0.1447 -0.148139,0.43064 h -0.578777 q 0.01723,-0.68213 0.440973,-0.947402 0.427192,-0.268718 0.988743,-0.268718 0.651123,0 1.057645,0.248047 0.403076,0.248047 0.403076,0.771703 v 2.12562 q 0,0.0965 0.0379,0.15503 0.04134,0.0586 0.16881,0.0586 0.04134,0 0.09302,-0.003 0.05168,-0.007 0.110243,-0.0172 v 0.4582 q -0.144694,0.0413 -0.220486,0.0517 -0.07579,0.0103 -0.206706,0.0103 -0.320394,0 -0.465088,-0.22738 -0.07579,-0.12058 -0.106798,-0.34106 -0.189481,0.24805 -0.544326,0.43064 -0.354845,0.18259 -0.782037,0.18259 -0.51332,0 -0.840604,-0.31006 -0.323839,-0.31351 -0.323839,-0.78204 0,-0.51332 0.320394,-0.79582 0.320394,-0.2825 0.840604,-0.34795 z m -0.51332,-1.5434 z"
             style="fill:#ffffff"
             id="path848" />
          <path
             d="m 90.072459,99.464323 h 0.589112 v 0.523654 q 0.261827,-0.323839 0.554661,-0.465088 0.292833,-0.141249 0.651123,-0.141249 0.785482,0 1.06109,0.547771 0.151584,0.299719 0.151584,0.857829 v 2.36678 h -0.630452 v -2.32544 q 0,-0.33762 -0.09991,-0.54432 -0.165365,-0.344514 -0.599447,-0.344514 -0.220486,0 -0.361735,0.04479 -0.254938,0.07579 -0.447863,0.303168 -0.15503,0.18259 -0.203261,0.37896 -0.04479,0.19293 -0.04479,0.55466 v 1.9327 h -0.620118 z m 1.457277,-0.08957 z"
             style="fill:#ffffff"
             id="path850" />
        </g>
      </g>
    </g>
  </g>
</svg>
