<?xml version="1.0" encoding="UTF-8" standalone="no"?>
<!-- Created with Inkscape (http://www.inkscape.org/) -->

<svg
   width="70.884521mm"
   height="17.73621mm"
   viewBox="0 0 70.884521 17.73621"
   version="1.1"
   id="svg69129"
   inkscape:version="1.1.2 (0a00cf5339, 2022-02-04)"
   sodipodi:docname="readme.github.svg"
   xmlns:inkscape="http://www.inkscape.org/namespaces/inkscape"
   xmlns:sodipodi="http://sodipodi.sourceforge.net/DTD/sodipodi-0.dtd"
   xmlns="http://www.w3.org/2000/svg"
   xmlns:svg="http://www.w3.org/2000/svg">
  <sodipodi:namedview
     id="namedview69131"
     pagecolor="#ffffff"
     bordercolor="#666666"
     borderopacity="1.0"
     inkscape:pageshadow="2"
     inkscape:pageopacity="0.0"
     inkscape:pagecheckerboard="0"
     inkscape:document-units="mm"
     showgrid="false"
     inkscape:zoom="0.7500982"
     inkscape:cx="320.62468"
     inkscape:cy="205.97303"
     inkscape:window-width="1920"
     inkscape:window-height="1053"
     inkscape:window-x="1920"
     inkscape:window-y="0"
     inkscape:window-maximized="1"
     inkscape:current-layer="layer1"
     fit-margin-top="0"
     fit-margin-left="0"
     fit-margin-right="0"
     fit-margin-bottom="0" />
  <defs
     id="defs69126" />
  <g
     inkscape:label="Layer 1"
     inkscape:groupmode="layer"
     id="layer1"
     transform="translate(-19.9366,-93.776788)">
    <g
       id="g68779"
       transform="translate(-12.815694,25.103828)">
      <rect
         style="fill:#5c3f78;fill-opacity:1;stroke:#1e1e1e;stroke-width:0.237042;paint-order:stroke fill markers"
         id="rect26912"
         width="70.647476"
         height="17.499168"
         x="32.870815"
         y="68.791481"
         ry="2.2504981" />
      <g
         id="g68394">
        <text
           xml:space="preserve"
           style="font-size:7.05556px;line-height:1.25;font-family:Helvetica;-inkscape-font-specification:Helvetica;stroke-width:0.264583"
           x="48.407677"
           y="79.938904"
           id="text16482"><tspan
             sodipodi:role="line"
             id="tspan16480"
             style="fill:#ffffff;stroke-width:0.264583"
             x="48.407677"
             y="79.938904">Ask a Question</tspan></text>
        <path
           d="m 39.567208,80.677501 c 0,0.0424 -0.04888,0.0765 -0.110504,0.0765 -0.07013,0.006 -0.119002,-0.0277 -0.119002,-0.0765 0,-0.0425 0.04888,-0.0765 0.110502,-0.0765 0.06376,-0.006 0.119004,0.0277 0.119004,0.0765 z m -0.660894,-0.0956 c -0.01487,0.0425 0.02762,0.0914 0.09138,0.10413 0.05525,0.0213 0.119003,0 0.131753,-0.0425 0.01275,-0.0424 -0.02762,-0.0914 -0.09138,-0.11049 -0.05525,-0.0149 -0.116877,0.006 -0.131753,0.0489 z m 0.939276,-0.0361 c -0.06163,0.0149 -0.104128,0.0553 -0.09775,0.10412 0.0064,0.0425 0.06163,0.0701 0.125379,0.0553 0.06163,-0.0149 0.104127,-0.0553 0.09775,-0.0978 -0.0064,-0.0403 -0.06376,-0.068 -0.125378,-0.0616 z m 1.398286,-8.143179 c -2.947453,0 -5.202138,2.237681 -5.202138,5.185127 0,2.356665 1.483289,4.373326 3.601972,5.0831 0.272006,0.0489 0.367634,-0.119 0.367634,-0.257137 0,-0.13175 -0.0064,-0.858507 -0.0064,-1.304774 0,0 -1.48754,0.31876 -1.799923,-0.633257 0,0 -0.242257,-0.618394 -0.590767,-0.777774 0,0 -0.486638,-0.33363 0.034,-0.32725 0,0 0.52914,0.0424 0.820273,0.548257 0.465387,0.820267 1.245282,0.584387 1.549166,0.44413 0.04888,-0.34 0.187005,-0.575877 0.340009,-0.716127 -1.187907,-0.13176 -2.386439,-0.303887 -2.386439,-2.348178 0,-0.584384 0.161504,-0.877654 0.501514,-1.251661 -0.05525,-0.13812 -0.235882,-0.707627 0.05525,-1.442897 0.444136,-0.138128 1.466289,0.57376 1.466289,0.57376 0.425011,-0.118996 0.881898,-0.180625 1.334536,-0.180625 0.452637,0 0.909524,0.06161 1.334536,0.180625 0,0 1.022152,-0.714017 1.46629,-0.57376 0.291131,0.73739 0.110502,1.304777 0.05525,1.442897 0.34001,0.376147 0.548265,0.669407 0.548265,1.251661 0,2.050671 -1.251659,2.214288 -2.439565,2.348178 0.195505,0.16787 0.361259,0.486637 0.361259,0.986024 0,0.716137 -0.0064,1.602271 -0.0064,1.776531 0,0.138127 0.09775,0.306007 0.367634,0.257127 2.125057,-0.705524 3.565845,-2.722185 3.565845,-5.07885 0,-2.947446 -2.390688,-5.185127 -5.338141,-5.185127 z m -3.136584,7.329265 c -0.02762,0.0213 -0.02125,0.0701 0.01487,0.11051 0.034,0.034 0.08287,0.0489 0.110502,0.0212 0.02762,-0.0212 0.02125,-0.0701 -0.01487,-0.1105 -0.034,-0.034 -0.08288,-0.0489 -0.110504,-0.0213 z m -0.229505,-0.17212 c -0.01488,0.0277 0.0064,0.0616 0.04888,0.0829 0.034,0.0213 0.0765,0.0149 0.09138,-0.0149 0.01487,-0.0276 -0.0064,-0.0616 -0.04888,-0.0829 -0.04251,-0.0128 -0.0765,-0.006 -0.09138,0.0149 z m 0.688519,0.756517 c -0.03401,0.0276 -0.02125,0.0914 0.02762,0.131747 0.04888,0.0489 0.110503,0.0553 0.138129,0.0213 0.02762,-0.0276 0.01488,-0.0914 -0.02762,-0.131747 -0.04675,-0.0489 -0.110503,-0.0553 -0.138129,-0.0213 z m -0.242257,-0.31239 c -0.03401,0.0213 -0.03401,0.0765 0,0.12538 0.034,0.0489 0.09138,0.0701 0.119003,0.0489 0.03401,-0.0276 0.03401,-0.0829 0,-0.13176 -0.02976,-0.0489 -0.085,-0.0701 -0.119003,-0.0425 z"
           id="path23051"
           style="fill:#ffffff;stroke-width:0.0212506" />
      </g>
    </g>
  </g>
</svg>
