<?xml version="1.0" encoding="UTF-8" standalone="no"?>
<!-- Created with Inkscape (http://www.inkscape.org/) -->

<svg
   width="70.884521mm"
   height="17.73621mm"
   viewBox="0 0 70.884521 17.73621"
   version="1.1"
   id="svg4008"
   inkscape:version="1.1.2 (0a00cf5339, 2022-02-04)"
   sodipodi:docname="readme.stdlib.svg"
   xmlns:inkscape="http://www.inkscape.org/namespaces/inkscape"
   xmlns:sodipodi="http://sodipodi.sourceforge.net/DTD/sodipodi-0.dtd"
   xmlns="http://www.w3.org/2000/svg"
   xmlns:svg="http://www.w3.org/2000/svg">
  <sodipodi:namedview
     id="namedview4010"
     pagecolor="#ffffff"
     bordercolor="#666666"
     borderopacity="1.0"
     inkscape:pageshadow="2"
     inkscape:pageopacity="0.0"
     inkscape:pagecheckerboard="0"
     inkscape:document-units="mm"
     showgrid="false"
     inkscape:zoom="0.7500982"
     inkscape:cx="333.95627"
     inkscape:cy="-205.97303"
     inkscape:window-width="1920"
     inkscape:window-height="1053"
     inkscape:window-x="1920"
     inkscape:window-y="0"
     inkscape:window-maximized="1"
     inkscape:current-layer="layer1"
     fit-margin-top="0"
     fit-margin-left="0"
     fit-margin-right="0"
     fit-margin-bottom="0" />
  <defs
     id="defs4005" />
  <g
     inkscape:label="Layer 1"
     inkscape:groupmode="layer"
     id="layer1"
     transform="translate(-16.240185,-202.72104)">
    <g
       id="g22685"
       transform="translate(-15.453775,45.716616)">
      <path
         id="rect918"
         style="fill:#a34e9c;stroke:#1e1e1e;stroke-width:0.237042;paint-order:stroke fill markers"
         d="m 34.062979,157.12294 h 66.146481 c 1.24677,0 2.2505,1.00372 2.2505,2.2505 v 12.99817 c 0,1.24678 -1.00373,2.2505 -2.2505,2.2505 H 34.062979 c -1.246776,0 -2.250498,-1.00372 -2.250498,-2.2505 v -12.99817 c 0,-1.24678 1.003722,-2.2505 2.250498,-2.2505 z" />
      <g
         id="g3839">
        <g
           aria-label="stdlib
Standard Library"
           id="text926"
           style="font-size:7.05556px;line-height:1.05;font-family:Helvetica;-inkscape-font-specification:Helvetica;stroke-width:0.264583">
          <path
             d="m 53.974204,162.91181 q 0.03101,0.26183 0.134358,0.37207 0.182591,0.19637 0.67524,0.19637 0.289388,0 0.458198,-0.0861 0.172255,-0.0861 0.172255,-0.25838 0,-0.16536 -0.137804,-0.25149 -0.137804,-0.0861 -1.023194,-0.29628 -0.637343,-0.15848 -0.899171,-0.39619 -0.261827,-0.23426 -0.261827,-0.67524 0,-0.52021 0.406521,-0.89228 0.409967,-0.37551 1.150663,-0.37551 0.7028,0 1.143772,0.2825 0.444418,0.27905 0.509875,0.96807 h -0.981853 q -0.02067,-0.18948 -0.106798,-0.29973 -0.16192,-0.19981 -0.551216,-0.19981 -0.320394,0 -0.458198,0.0999 -0.134359,0.0999 -0.134359,0.23426 0,0.16881 0.144695,0.24461 0.144694,0.0792 1.023194,0.27216 0.585666,0.1378 0.878499,0.41686 0.289389,0.28249 0.289389,0.70624 0,0.55811 -0.416857,0.91295 -0.413412,0.3514 -1.281576,0.3514 -0.885391,0 -1.309138,-0.37207 -0.420302,-0.37552 -0.420302,-0.95429 z m 0.751031,-2.65617 z"
             style="font-weight:bold;fill:#ffffff"
             id="path829" />
          <path
             d="M 56.747507,161.08935 V 160.39 h 0.523655 v -1.04731 H 58.24268 V 160.39 h 0.609782 v 0.69935 H 58.24268 v 1.98438 q 0,0.23082 0.05857,0.28939 0.05857,0.0551 0.35829,0.0551 0.04479,0 0.09302,0 0.05168,-0.003 0.09991,-0.007 v 0.7338 l -0.465088,0.0172 q -0.69591,0.0241 -0.950847,-0.24116 -0.165365,-0.16881 -0.165365,-0.52021 v -2.31166 z"
             style="font-weight:bold;fill:#ffffff"
             id="path831" />
          <path
             d="m 60.867845,160.26597 q 0.341064,0 0.606337,0.15159 0.265272,0.14814 0.430637,0.41341 v -1.79145 h 0.995633 v 5.07118 H 61.94616 v -0.52021 q -0.210151,0.33418 -0.478868,0.48576 -0.268718,0.15159 -0.668349,0.15159 -0.658014,0 -1.109322,-0.53055 -0.447863,-0.53399 -0.447863,-1.3677 0,-0.96119 0.440973,-1.5124 0.444418,-0.55122 1.185114,-0.55122 z m 0.213596,3.13504 q 0.416856,0 0.633898,-0.31006 0.217041,-0.31006 0.217041,-0.8027 0,-0.68902 -0.347955,-0.9853 -0.213596,-0.17915 -0.496094,-0.17915 -0.430637,0 -0.633898,0.32729 -0.199816,0.32384 -0.199816,0.80615 0,0.52021 0.203261,0.83371 0.206706,0.31006 0.623563,0.31006 z"
             style="font-weight:bold;fill:#ffffff"
             id="path833" />
          <path
             d="m 64.795256,164.1107 h -0.981853 v -5.07807 h 0.981853 z"
             style="font-weight:bold;fill:#ffffff"
             id="path835" />
          <path
             d="m 66.762407,159.90768 h -0.995634 v -0.90606 h 0.995634 z m -0.995634,0.44787 h 0.995634 v 3.75515 h -0.995634 z"
             style="font-weight:bold;fill:#ffffff"
             id="path837" />
          <path
             d="m 69.742416,160.27286 q 0.740696,0 1.157553,0.53399 0.420302,0.53399 0.420302,1.37804 0,0.87506 -0.413412,1.45039 -0.413412,0.57533 -1.154108,0.57533 -0.465088,0 -0.747586,-0.18603 -0.16881,-0.11025 -0.36518,-0.38586 v 0.47198 h -0.961183 v -5.07118 h 0.978408 v 1.80523 q 0.186035,-0.26183 0.409967,-0.39963 0.265272,-0.17226 0.675239,-0.17226 z m -0.251492,3.12815 q 0.378961,0 0.589112,-0.30661 0.210151,-0.30662 0.210151,-0.80615 0,-0.39964 -0.103353,-0.66146 -0.196371,-0.4961 -0.723471,-0.4961 -0.53399,0 -0.733806,0.48576 -0.103353,0.25838 -0.103353,0.66835 0,0.48231 0.213596,0.79926 0.213596,0.31695 0.651124,0.31695 z"
             style="font-weight:bold;fill:#ffffff"
             id="path839" />
          <path
             d="m 53.539431,170.21266 q 0.01929,0.34451 0.162609,0.55948 0.272851,0.40239 0.96187,0.40239 0.30868,0 0.562239,-0.0882 0.490581,-0.17088 0.490581,-0.61185 0,-0.33073 -0.206706,-0.47129 -0.209461,-0.1378 -0.655945,-0.23978 L 54.30562,169.6394 q -0.537435,-0.12127 -0.760677,-0.26734 -0.38585,-0.25356 -0.38585,-0.75792 0,-0.5457 0.377582,-0.89573 0.377582,-0.35002 1.069357,-0.35002 0.636653,0 1.080381,0.30868 0.446484,0.30593 0.446484,0.98117 h -0.515386 q -0.04134,-0.32522 -0.176388,-0.49885 -0.250803,-0.31695 -0.851627,-0.31695 -0.48507,0 -0.697287,0.20395 -0.212218,0.20395 -0.212218,0.47404 0,0.29766 0.248047,0.43546 0.162608,0.0882 0.735872,0.22049 l 0.567751,0.12953 q 0.410655,0.0937 0.633897,0.25632 0.38585,0.28387 0.38585,0.82406 0,0.67249 -0.490581,0.96187 -0.487825,0.28939 -1.135502,0.28939 -0.755165,0 -1.182356,-0.38585 -0.427192,-0.38309 -0.418924,-1.03904 z m 1.107942,-2.85254 z"
             style="font-size:5.64444px;fill:#ffffff"
             id="path841" />
          <path
             d="m 56.979012,167.74322 h 0.501605 v 0.82406 h 0.471289 v 0.40515 h -0.471289 v 1.92649 q 0,0.15434 0.104731,0.20671 0.05788,0.0303 0.192925,0.0303 0.03583,0 0.07717,0 0.04134,-0.003 0.09646,-0.008 v 0.39136 q -0.08544,0.0248 -0.179145,0.0358 -0.09095,0.011 -0.198437,0.011 -0.347265,0 -0.471289,-0.17639 -0.124023,-0.17914 -0.124023,-0.46302 v -1.95405 h -0.399631 v -0.40515 h 0.399631 z"
             style="font-size:5.64444px;fill:#ffffff"
             id="path843" />
          <path
             d="m 58.828338,170.73356 q 0,0.21497 0.157096,0.339 0.157097,0.12402 0.37207,0.12402 0.261827,0 0.507118,-0.12127 0.413411,-0.20119 0.413411,-0.6587 v -0.39963 q -0.09095,0.0579 -0.234266,0.0965 -0.143316,0.0386 -0.28112,0.0551 l -0.300412,0.0386 q -0.270095,0.0358 -0.405143,0.113 -0.228754,0.12953 -0.228754,0.41341 z m 1.201648,-1.00321 q 0.170877,-0.022 0.228755,-0.14332 0.03307,-0.0661 0.03307,-0.19017 0,-0.25356 -0.181901,-0.36655 -0.179145,-0.11576 -0.515386,-0.11576 -0.388607,0 -0.551215,0.20946 -0.09095,0.11576 -0.118511,0.34451 H 58.46178 q 0.01378,-0.5457 0.352778,-0.75792 0.341753,-0.21497 0.790993,-0.21497 0.520898,0 0.846115,0.19843 0.322461,0.19844 0.322461,0.61736 v 1.7005 q 0,0.0772 0.03032,0.12403 0.03307,0.0468 0.135048,0.0468 0.03307,0 0.07441,-0.003 0.04134,-0.006 0.08819,-0.0138 v 0.36656 q -0.115755,0.0331 -0.176388,0.0413 -0.06063,0.008 -0.165365,0.008 -0.256315,0 -0.37207,-0.1819 -0.06063,-0.0965 -0.08544,-0.27285 -0.151584,0.19844 -0.43546,0.34451 -0.283876,0.14607 -0.625629,0.14607 -0.410655,0 -0.672482,-0.24805 -0.259071,-0.2508 -0.259071,-0.62563 0,-0.41065 0.256315,-0.63665 0.256315,-0.226 0.672482,-0.27836 z m -0.410655,-1.23472 z"
             style="font-size:5.64444px;fill:#ffffff"
             id="path845" />
          <path
             d="m 61.587169,168.56728 h 0.471288 v 0.41893 q 0.209462,-0.25907 0.443728,-0.37207 0.234267,-0.113 0.520898,-0.113 0.628385,0 0.848871,0.43821 0.121267,0.23978 0.121267,0.68627 v 1.89342 H 63.48886 v -1.86035 q 0,-0.2701 -0.07993,-0.43546 -0.132292,-0.27561 -0.479557,-0.27561 -0.176389,0 -0.289388,0.0358 -0.20395,0.0606 -0.35829,0.24254 -0.124023,0.14607 -0.162608,0.30316 -0.03583,0.15434 -0.03583,0.44373 v 1.54616 h -0.496093 z m 1.165819,-0.0717 z"
             style="font-size:5.64444px;fill:#ffffff"
             id="path847" />
          <path
             d="m 65.04053,170.07761 q 0,0.47405 0.201193,0.79375 0.201194,0.31971 0.644922,0.31971 0.344509,0 0.564995,-0.2949 0.223242,-0.29766 0.223242,-0.85163 0,-0.55948 -0.228754,-0.82682 -0.228755,-0.2701 -0.564996,-0.2701 -0.374826,0 -0.609092,0.28663 -0.23151,0.28664 -0.23151,0.84336 z m 0.746896,-1.56269 q 0.338997,0 0.567751,0.14332 0.132292,0.0827 0.300412,0.28938 v -1.49103 h 0.476801 v 4.06245 h -0.446484 v -0.41065 q -0.173633,0.27285 -0.410655,0.39411 -0.237022,0.12127 -0.542947,0.12127 -0.493337,0 -0.854383,-0.41341 -0.361045,-0.41617 -0.361045,-1.10519 0,-0.64492 0.327972,-1.11621 0.330729,-0.47404 0.942578,-0.47404 z"
             style="font-size:5.64444px;fill:#ffffff"
             id="path849" />
          <path
             d="m 68.245844,170.73356 q 0,0.21497 0.157097,0.339 0.157096,0.12402 0.37207,0.12402 0.261827,0 0.507117,-0.12127 0.413411,-0.20119 0.413411,-0.6587 v -0.39963 q -0.09095,0.0579 -0.234266,0.0965 -0.143316,0.0386 -0.28112,0.0551 l -0.300412,0.0386 q -0.270095,0.0358 -0.405143,0.113 -0.228754,0.12953 -0.228754,0.41341 z m 1.201649,-1.00321 q 0.170876,-0.022 0.228754,-0.14332 0.03307,-0.0661 0.03307,-0.19017 0,-0.25356 -0.181901,-0.36655 -0.179145,-0.11576 -0.515386,-0.11576 -0.388607,0 -0.551215,0.20946 -0.09095,0.11576 -0.118511,0.34451 h -0.463021 q 0.01378,-0.5457 0.352778,-0.75792 0.341753,-0.21497 0.790993,-0.21497 0.520898,0 0.846115,0.19843 0.322461,0.19844 0.322461,0.61736 v 1.7005 q 0,0.0772 0.03032,0.12403 0.03307,0.0468 0.135047,0.0468 0.03307,0 0.07441,-0.003 0.04134,-0.006 0.08819,-0.0138 v 0.36656 q -0.115756,0.0331 -0.176389,0.0413 -0.06063,0.008 -0.165365,0.008 -0.256315,0 -0.37207,-0.1819 -0.06063,-0.0965 -0.08544,-0.27285 -0.151584,0.19844 -0.43546,0.34451 -0.283875,0.14607 -0.625629,0.14607 -0.410655,0 -0.672482,-0.24805 -0.259071,-0.2508 -0.259071,-0.62563 0,-0.41065 0.256315,-0.63665 0.256315,-0.226 0.672482,-0.27836 z m -0.410655,-1.23472 z"
             style="font-size:5.64444px;fill:#ffffff"
             id="path851" />
          <path
             d="m 71.018455,168.56728 h 0.471289 v 0.50988 q 0.05788,-0.14883 0.283875,-0.36105 0.225999,-0.21497 0.520899,-0.21497 0.01378,0 0.04685,0.003 0.03307,0.003 0.112999,0.011 v 0.52365 q -0.0441,-0.008 -0.08268,-0.011 -0.03583,-0.003 -0.07993,-0.003 -0.374826,0 -0.576019,0.24254 -0.201193,0.23978 -0.201193,0.55397 v 1.69774 h -0.496094 z"
             style="font-size:5.64444px;fill:#ffffff"
             id="path853" />
          <path
             d="m 73.19851,170.07761 q 0,0.47405 0.201193,0.79375 0.201194,0.31971 0.644922,0.31971 0.344509,0 0.564995,-0.2949 0.223242,-0.29766 0.223242,-0.85163 0,-0.55948 -0.228754,-0.82682 -0.228755,-0.2701 -0.564996,-0.2701 -0.374826,0 -0.609092,0.28663 -0.23151,0.28664 -0.23151,0.84336 z m 0.746896,-1.56269 q 0.338997,0 0.567751,0.14332 0.132292,0.0827 0.300412,0.28938 v -1.49103 h 0.476801 v 4.06245 h -0.446484 v -0.41065 q -0.173633,0.27285 -0.410655,0.39411 -0.237022,0.12127 -0.542947,0.12127 -0.493337,0 -0.854383,-0.41341 -0.361045,-0.41617 -0.361045,-1.10519 0,-0.64492 0.327972,-1.11621 0.330729,-0.47404 0.942578,-0.47404 z"
             style="font-size:5.64444px;fill:#ffffff"
             id="path855" />
          <path
             d="m 77.657838,167.47037 h 0.548458 v 3.56636 h 2.05052 v 0.48231 h -2.598978 z"
             style="font-size:5.64444px;fill:#ffffff"
             id="path857" />
          <path
             d="m 80.730862,168.58107 h 0.504361 v 2.93797 h -0.504361 z m 0,-1.1107 h 0.504361 v 0.56224 h -0.504361 z"
             style="font-size:5.64444px;fill:#ffffff"
             id="path859" />
          <path
             d="m 81.94629,167.45659 h 0.482313 v 1.46898 q 0.162608,-0.21221 0.388606,-0.32246 0.225998,-0.113 0.490581,-0.113 0.551215,0 0.892968,0.38034 0.34451,0.37759 0.34451,1.11621 0,0.70005 -0.338998,1.16307 -0.338997,0.46302 -0.939821,0.46302 -0.336241,0 -0.567751,-0.16261 -0.137804,-0.0965 -0.2949,-0.30868 v 0.37758 H 81.94629 Z m 1.289842,3.71794 q 0.402387,0 0.600825,-0.3197 0.201193,-0.31971 0.201193,-0.84336 0,-0.46578 -0.201193,-0.7717 -0.198438,-0.30593 -0.587044,-0.30593 -0.338997,0 -0.595312,0.25081 -0.253559,0.2508 -0.253559,0.82682 0,0.41616 0.104731,0.67524 0.195681,0.48782 0.730359,0.48782 z"
             style="font-size:5.64444px;fill:#ffffff"
             id="path861" />
          <path
             d="m 85.137825,168.56728 h 0.471288 v 0.50988 q 0.05788,-0.14883 0.283876,-0.36105 0.225998,-0.21497 0.520898,-0.21497 0.01378,0 0.04685,0.003 0.03307,0.003 0.112999,0.011 v 0.52365 q -0.0441,-0.008 -0.08268,-0.011 -0.03583,-0.003 -0.07993,-0.003 -0.374826,0 -0.57602,0.24254 -0.201193,0.23978 -0.201193,0.55397 v 1.69774 h -0.496093 z"
             style="font-size:5.64444px;fill:#ffffff"
             id="path863" />
          <path
             d="m 87.384025,170.73356 q 0,0.21497 0.157096,0.339 0.157096,0.12402 0.37207,0.12402 0.261827,0 0.507118,-0.12127 0.413411,-0.20119 0.413411,-0.6587 v -0.39963 q -0.09095,0.0579 -0.234266,0.0965 -0.143316,0.0386 -0.28112,0.0551 l -0.300412,0.0386 q -0.270095,0.0358 -0.405143,0.113 -0.228754,0.12953 -0.228754,0.41341 z m 1.201648,-1.00321 q 0.170877,-0.022 0.228755,-0.14332 0.03307,-0.0661 0.03307,-0.19017 0,-0.25356 -0.1819,-0.36655 -0.179145,-0.11576 -0.515386,-0.11576 -0.388607,0 -0.551215,0.20946 -0.09095,0.11576 -0.118511,0.34451 h -0.463021 q 0.01378,-0.5457 0.352778,-0.75792 0.341753,-0.21497 0.790993,-0.21497 0.520898,0 0.846115,0.19843 0.32246,0.19844 0.32246,0.61736 v 1.7005 q 0,0.0772 0.03032,0.12403 0.03307,0.0468 0.135048,0.0468 0.03307,0 0.07441,-0.003 0.04134,-0.006 0.08819,-0.0138 v 0.36656 q -0.115755,0.0331 -0.176388,0.0413 -0.06063,0.008 -0.165365,0.008 -0.256315,0 -0.37207,-0.1819 -0.06063,-0.0965 -0.08544,-0.27285 -0.151584,0.19844 -0.43546,0.34451 -0.283876,0.14607 -0.625629,0.14607 -0.410655,0 -0.672482,-0.24805 -0.259071,-0.2508 -0.259071,-0.62563 0,-0.41065 0.256315,-0.63665 0.256315,-0.226 0.672482,-0.27836 z m -0.410655,-1.23472 z"
             style="font-size:5.64444px;fill:#ffffff"
             id="path865" />
          <path
             d="m 90.156635,168.56728 h 0.471289 v 0.50988 q 0.05788,-0.14883 0.283875,-0.36105 0.225998,-0.21497 0.520898,-0.21497 0.01378,0 0.04685,0.003 0.03307,0.003 0.112999,0.011 v 0.52365 q -0.0441,-0.008 -0.08268,-0.011 -0.03583,-0.003 -0.07993,-0.003 -0.374826,0 -0.576019,0.24254 -0.201194,0.23978 -0.201194,0.55397 v 1.69774 h -0.496093 z"
             style="font-size:5.64444px;fill:#ffffff"
             id="path867" />
          <path
             d="m 93.866311,168.56728 h 0.548459 q -0.104731,0.28388 -0.465777,1.29536 -0.270095,0.76068 -0.451996,1.24023 -0.429948,1.12999 -0.606337,1.37804 -0.176388,0.24805 -0.606336,0.24805 -0.104731,0 -0.162608,-0.008 -0.05512,-0.008 -0.137804,-0.0303 v -0.45199 q 0.129535,0.0358 0.187413,0.0441 0.05788,0.008 0.101975,0.008 0.137804,0 0.201193,-0.0469 0.06615,-0.0441 0.110243,-0.11025 0.01378,-0.022 0.09922,-0.22599 0.08544,-0.20395 0.124023,-0.30317 l -1.091405,-3.0372 h 0.562239 l 0.790993,2.4033 z m -0.799262,-0.0717 z"
             style="font-size:5.64444px;fill:#ffffff"
             id="path869" />
        </g>
        <path
           d="m 45.605457,161.36353 -2.686659,9.40351 c -0.102849,0.35682 -0.474363,0.56252 -0.831185,0.46177 -0.356822,-0.10285 -0.562519,-0.47437 -0.461769,-0.83119 l 2.686658,-9.40309 c 0.102849,-0.3567 0.474363,-0.56323 0.831185,-0.46131 0.356822,0.1019 0.562521,0.4737 0.46177,0.83031 z m 2.178713,1.69196 2.350826,2.35083 c 0.26237,0.26236 0.26237,0.68636 0,0.94873 l -2.350826,2.35082 c -0.26237,0.26237 -0.686358,0.26237 -0.948727,0 -0.262369,-0.26237 -0.262369,-0.68636 0,-0.94873 l 1.874365,-1.87646 -1.874365,-1.87646 c -0.262369,-0.26237 -0.262369,-0.68636 0,-0.94873 0.262369,-0.26236 0.686357,-0.26236 0.948727,0 z m -7.388313,0.94873 -1.875414,1.87646 1.875414,1.87646 c 0.26237,0.26237 0.26237,0.68636 0,0.94873 -0.262368,0.26237 -0.686357,0.26237 -0.948725,0 l -2.351415,-2.35082 c -0.262285,-0.26237 -0.262285,-0.68637 0,-0.94873 l 2.351415,-2.35083 c 0.262368,-0.26236 0.686357,-0.26236 0.948725,0 0.26237,0.26237 0.26237,0.68636 0,0.94873 z"
           id="path1022"
           style="fill:#ffffff;stroke-width:0.0209895" />
      </g>
    </g>
  </g>
</svg>
