<?xml version="1.0" encoding="UTF-8" standalone="no"?>
<!-- Created with Inkscape (http://www.inkscape.org/) -->

<svg
   width="70.884514mm"
   height="17.73621mm"
   viewBox="0 0 70.884513 17.73621"
   version="1.1"
   id="svg69129"
   inkscape:version="1.1.2 (0a00cf5339, 2022-02-04)"
   sodipodi:docname="readme.github.svg"
   xmlns:inkscape="http://www.inkscape.org/namespaces/inkscape"
   xmlns:sodipodi="http://sodipodi.sourceforge.net/DTD/sodipodi-0.dtd"
   xmlns="http://www.w3.org/2000/svg"
   xmlns:svg="http://www.w3.org/2000/svg">
  <sodipodi:namedview
     id="namedview69131"
     pagecolor="#ffffff"
     bordercolor="#666666"
     borderopacity="1.0"
     inkscape:pageshadow="2"
     inkscape:pageopacity="0.0"
     inkscape:pagecheckerboard="0"
     inkscape:document-units="mm"
     showgrid="false"
     inkscape:zoom="0.7500982"
     inkscape:cx="320.62469"
     inkscape:cy="205.97303"
     inkscape:window-width="1920"
     inkscape:window-height="1053"
     inkscape:window-x="1920"
     inkscape:window-y="0"
     inkscape:window-maximized="1"
     inkscape:current-layer="layer1"
     fit-margin-top="0"
     fit-margin-left="0"
     fit-margin-right="0"
     fit-margin-bottom="0" />
  <defs
     id="defs69126" />
  <g
     inkscape:label="Layer 1"
     inkscape:groupmode="layer"
     id="layer1"
     transform="translate(-19.9366,-93.776788)">
    <g
       id="g68779"
       transform="translate(-12.815694,25.103828)">
      <path
         id="rect26912"
         style="fill:#5c3f78;stroke:#1e1e1e;stroke-width:0.237042;paint-order:stroke fill markers"
         d="m 35.121313,68.791481 h 66.146477 c 1.24678,0 2.2505,1.003722 2.2505,2.250498 v 12.998172 c 0,1.246776 -1.00372,2.250498 -2.2505,2.250498 H 35.121313 c -1.246776,0 -2.250498,-1.003722 -2.250498,-2.250498 V 71.041979 c 0,-1.246776 1.003722,-2.250498 2.250498,-2.250498 z" />
      <g
         id="g68394">
        <g
           aria-label="Ask a Question"
           id="text16482"
           style="font-size:7.05556px;line-height:1.25;font-family:Helvetica;-inkscape-font-specification:Helvetica;stroke-width:0.264583">
          <path
             d="m 51.542716,77.864955 -0.768257,-2.235868 -0.816488,2.235868 z m -1.126547,-2.9869 h 0.775147 l 1.836237,5.060849 H 52.276521 L 51.763202,78.423061 H 49.7616 l -0.54777,1.515843 h -0.7028 z m 0.354845,0 z"
             style="fill:#ffffff"
             id="path828" />
          <path
             d="m 53.937059,78.781351 q 0.02756,0.310059 0.155029,0.475423 0.234267,0.299724 0.813043,0.299724 0.34451,0 0.606337,-0.148139 0.261828,-0.151585 0.261828,-0.465088 0,-0.237712 -0.210151,-0.361736 -0.134359,-0.07579 -0.530545,-0.1757 l -0.492649,-0.124023 q -0.471979,-0.117134 -0.69591,-0.261828 -0.399631,-0.251492 -0.399631,-0.695909 0,-0.523655 0.375515,-0.847494 0.378961,-0.32384 1.016304,-0.32384 0.833714,0 1.202339,0.489204 0.230822,0.310059 0.223932,0.668349 h -0.585667 q -0.01723,-0.210151 -0.148139,-0.382406 -0.213596,-0.244602 -0.740696,-0.244602 -0.3514,0 -0.53399,0.134359 -0.179145,0.134359 -0.179145,0.354845 0,0.241157 0.237711,0.385851 0.137804,0.08613 0.406522,0.151585 l 0.409967,0.09991 q 0.668348,0.16192 0.895725,0.313504 0.361735,0.237712 0.361735,0.747587 0,0.492648 -0.375515,0.850939 -0.372071,0.35829 -1.136883,0.35829 -0.823378,0 -1.167888,-0.372071 -0.341065,-0.375515 -0.36518,-0.926731 z m 0.916396,-2.621719 z"
             style="fill:#ffffff"
             id="path830" />
          <path
             d="m 57.082433,74.878055 h 0.596002 v 2.938669 l 1.591635,-1.56752 h 0.792372 l -1.41249,1.381484 1.491728,2.308216 h -0.792373 l -1.150662,-1.860353 -0.52021,0.475424 v 1.384929 h -0.596002 z"
             style="fill:#ffffff"
             id="path832" />
          <path
             d="m 63.059678,78.957051 q 0,0.268718 0.19637,0.423747 0.196371,0.155029 0.465088,0.155029 0.327285,0 0.633898,-0.151584 0.516765,-0.251492 0.516765,-0.823378 v -0.499539 q -0.113688,0.07235 -0.292833,0.120578 -0.179145,0.04823 -0.3514,0.0689 l -0.375516,0.04823 q -0.337619,0.04479 -0.506429,0.141249 -0.285943,0.16192 -0.285943,0.516765 z m 1.502062,-1.254016 q 0.213596,-0.02756 0.285943,-0.179145 0.04134,-0.08268 0.04134,-0.237711 0,-0.316949 -0.227377,-0.458198 -0.223931,-0.144695 -0.644233,-0.144695 -0.485759,0 -0.68902,0.261828 -0.113688,0.144694 -0.148139,0.430637 H 62.60148 q 0.01722,-0.682129 0.440972,-0.947402 0.427192,-0.268717 0.988743,-0.268717 0.651124,0 1.057645,0.248047 0.403077,0.248047 0.403077,0.771702 v 2.125625 q 0,0.09646 0.0379,0.155029 0.04134,0.05857 0.16881,0.05857 0.04134,0 0.09302,-0.0034 0.05168,-0.0069 0.110243,-0.01723 v 0.458198 q -0.144694,0.04134 -0.220486,0.05168 -0.07579,0.01033 -0.206706,0.01033 -0.320394,0 -0.465088,-0.227376 -0.07579,-0.120579 -0.106798,-0.341065 -0.18948,0.248047 -0.544325,0.430637 -0.354846,0.18259 -0.782038,0.18259 -0.513319,0 -0.840603,-0.310058 -0.32384,-0.313504 -0.32384,-0.782038 0,-0.513319 0.320394,-0.795817 0.320395,-0.282498 0.840604,-0.347955 z m -0.513319,-1.543403 z"
             style="fill:#ffffff"
             id="path834" />
          <path
             d="m 73.181376,79.925123 -0.34451,0.416857 -0.782037,-0.596002 q -0.282498,0.15503 -0.613228,0.248047 -0.327284,0.09302 -0.71658,0.09302 -1.178223,0 -1.846572,-0.771702 -0.589112,-0.751031 -0.589112,-1.881023 0,-1.026639 0.509874,-1.757 0.654569,-0.937067 1.936145,-0.937067 1.340143,0 1.984377,0.861275 0.502984,0.671794 0.502984,1.719104 0,0.489203 -0.120579,0.940511 -0.18259,0.68902 -0.616672,1.123102 z m -2.373673,-0.451307 q 0.213596,0 0.399632,-0.02756 0.186035,-0.03101 0.323839,-0.117133 l -0.554661,-0.434083 0.34451,-0.423747 0.661459,0.51332 q 0.313504,-0.35829 0.423747,-0.802708 0.113688,-0.444418 0.113688,-0.850939 0,-0.89228 -0.468533,-1.436606 -0.465089,-0.544325 -1.274687,-0.544325 -0.819933,0 -1.298801,0.523655 -0.478869,0.520209 -0.478869,1.605415 0,0.912951 0.458198,1.453831 0.461643,0.540881 1.350478,0.54088 z"
             style="fill:#ffffff"
             id="path836" />
          <path
             d="m 74.576639,76.249204 v 2.449465 q 0,0.282498 0.08957,0.461643 0.165365,0.330729 0.616673,0.330729 0.647678,0 0.881945,-0.578776 0.127468,-0.310059 0.127468,-0.850939 v -1.812122 h 0.620118 v 3.6897 h -0.585667 l 0.0069,-0.544326 q -0.120578,0.210151 -0.299723,0.354845 -0.354845,0.289389 -0.861274,0.289389 -0.788928,0 -1.074871,-0.5271 -0.155029,-0.282498 -0.155029,-0.754477 v -2.508031 z m 0.850939,-0.08957 z"
             style="fill:#ffffff"
             id="path838" />
          <path
             d="m 79.417002,76.166522 q 0.392741,0 0.761367,0.186035 0.368625,0.18259 0.56155,0.475424 0.186036,0.279052 0.248048,0.651123 0.05512,0.254937 0.05512,0.813043 h -2.704402 q 0.01723,0.561551 0.265273,0.902616 0.248047,0.337619 0.768257,0.337619 0.485758,0 0.775147,-0.320394 0.165364,-0.186035 0.234266,-0.430637 h 0.609783 q -0.02412,0.203261 -0.16192,0.454753 -0.134359,0.248047 -0.303169,0.406521 -0.282498,0.275608 -0.699354,0.372071 -0.223932,0.05512 -0.50643,0.05512 -0.689019,0 -1.167888,-0.49954 -0.478868,-0.502984 -0.478868,-1.4056 0,-0.888835 0.482313,-1.443495 0.482314,-0.554661 1.260906,-0.554661 z m 0.988743,1.632976 q -0.0379,-0.403076 -0.1757,-0.644233 -0.254937,-0.447863 -0.850939,-0.447863 -0.427192,0 -0.71658,0.310059 -0.289389,0.306614 -0.306614,0.782037 z m -1.04731,-1.639866 z"
             style="fill:#ffffff"
             id="path840" />
          <path
             d="m 82.173079,78.781351 q 0.02756,0.310059 0.15503,0.475423 0.234266,0.299724 0.813043,0.299724 0.34451,0 0.606337,-0.148139 0.261827,-0.151585 0.261827,-0.465088 0,-0.237712 -0.210151,-0.361736 -0.134358,-0.07579 -0.530545,-0.1757 l -0.492649,-0.124023 q -0.471978,-0.117134 -0.695909,-0.261828 -0.399632,-0.251492 -0.399632,-0.695909 0,-0.523655 0.375516,-0.847494 0.378961,-0.32384 1.016304,-0.32384 0.833713,0 1.202339,0.489204 0.230821,0.310059 0.223931,0.668349 h -0.585666 q -0.01723,-0.210151 -0.14814,-0.382406 -0.213596,-0.244602 -0.740696,-0.244602 -0.3514,0 -0.53399,0.134359 -0.179145,0.134359 -0.179145,0.354845 0,0.241157 0.237712,0.385851 0.137804,0.08613 0.406521,0.151585 l 0.409967,0.09991 q 0.668349,0.16192 0.895725,0.313504 0.361736,0.237712 0.361736,0.747587 0,0.492648 -0.375516,0.850939 -0.37207,0.35829 -1.136882,0.35829 -0.823378,0 -1.167888,-0.372071 -0.341065,-0.375515 -0.365181,-0.926731 z m 0.916396,-2.621719 z"
             style="fill:#ffffff"
             id="path842" />
          <path
             d="m 85.456256,75.21912 h 0.627008 v 1.030084 h 0.589111 v 0.50643 h -0.589111 v 2.408123 q 0,0.192925 0.130913,0.258382 0.07235,0.0379 0.241157,0.0379 0.04479,0 0.09646,0 0.05168,-0.0034 0.120578,-0.01033 v 0.489204 q -0.106798,0.03101 -0.223931,0.04479 -0.113688,0.01378 -0.248047,0.01378 -0.434082,0 -0.589112,-0.220486 -0.155029,-0.223931 -0.155029,-0.578776 v -2.442574 h -0.499539 v -0.50643 h 0.499539 z"
             style="fill:#ffffff"
             id="path844" />
          <path
             d="m 87.292495,76.26643 h 0.630453 v 3.672474 h -0.630453 z m 0,-1.388375 h 0.630453 v 0.7028 h -0.630453 z"
             style="fill:#ffffff"
             id="path846" />
          <path
             d="m 90.324181,79.539272 q 0.616673,0 0.844049,-0.465088 0.230822,-0.468533 0.230822,-1.040419 0,-0.516765 -0.165365,-0.840604 -0.261827,-0.509875 -0.902615,-0.509875 -0.568442,0 -0.826824,0.434083 -0.258382,0.434082 -0.258382,1.047309 0,0.589112 0.258382,0.981853 0.258382,0.392741 0.819933,0.392741 z m 0.02412,-3.396866 q 0.713135,0 1.205784,0.475424 0.492649,0.475423 0.492649,1.398709 0,0.892281 -0.434082,1.474502 -0.434082,0.582222 -1.347033,0.582222 -0.761367,0 -1.20923,-0.51332 -0.447862,-0.516765 -0.447862,-1.384929 0,-0.930177 0.471978,-1.481392 0.471979,-0.551216 1.267796,-0.551216 z m -0.02067,0.01723 z"
             style="fill:#ffffff"
             id="path848" />
          <path
             d="m 92.78398,76.249204 h 0.589112 v 0.523655 q 0.261827,-0.323839 0.554661,-0.465088 0.292833,-0.141249 0.651123,-0.141249 0.785483,0 1.06109,0.54777 0.151585,0.299724 0.151585,0.85783 v 2.366782 h -0.630453 v -2.325441 q 0,-0.33762 -0.09991,-0.544326 -0.165365,-0.344509 -0.599447,-0.344509 -0.220486,0 -0.361735,0.04479 -0.254938,0.07579 -0.447863,0.303169 -0.155029,0.18259 -0.203261,0.37896 -0.04479,0.192926 -0.04479,0.554661 v 1.9327 H 92.78398 Z m 1.457277,-0.08957 z"
             style="fill:#ffffff"
             id="path850" />
        </g>
        <path
           d="m 39.567208,80.677501 c 0,0.0424 -0.04888,0.0765 -0.110504,0.0765 -0.07013,0.006 -0.119002,-0.0277 -0.119002,-0.0765 0,-0.0425 0.04888,-0.0765 0.110502,-0.0765 0.06376,-0.006 0.119004,0.0277 0.119004,0.0765 z m -0.660894,-0.0956 c -0.01487,0.0425 0.02762,0.0914 0.09138,0.10413 0.05525,0.0213 0.119003,0 0.131753,-0.0425 0.01275,-0.0424 -0.02762,-0.0914 -0.09138,-0.11049 -0.05525,-0.0149 -0.116877,0.006 -0.131753,0.0489 z m 0.939276,-0.0361 c -0.06163,0.0149 -0.104128,0.0553 -0.09775,0.10412 0.0064,0.0425 0.06163,0.0701 0.125379,0.0553 0.06163,-0.0149 0.104127,-0.0553 0.09775,-0.0978 -0.0064,-0.0403 -0.06376,-0.068 -0.125378,-0.0616 z m 1.398286,-8.143179 c -2.947453,0 -5.202138,2.237681 -5.202138,5.185127 0,2.356665 1.483289,4.373326 3.601972,5.0831 0.272006,0.0489 0.367634,-0.119 0.367634,-0.257137 0,-0.13175 -0.0064,-0.858507 -0.0064,-1.304774 0,0 -1.48754,0.31876 -1.799923,-0.633257 0,0 -0.242257,-0.618394 -0.590767,-0.777774 0,0 -0.486638,-0.33363 0.034,-0.32725 0,0 0.52914,0.0424 0.820273,0.548257 0.465387,0.820267 1.245282,0.584387 1.549166,0.44413 0.04888,-0.34 0.187005,-0.575877 0.340009,-0.716127 -1.187907,-0.13176 -2.386439,-0.303887 -2.386439,-2.348178 0,-0.584384 0.161504,-0.877654 0.501514,-1.251661 -0.05525,-0.13812 -0.235882,-0.707627 0.05525,-1.442897 0.444136,-0.138128 1.466289,0.57376 1.466289,0.57376 0.425011,-0.118996 0.881898,-0.180625 1.334536,-0.180625 0.452637,0 0.909524,0.06161 1.334536,0.180625 0,0 1.022152,-0.714017 1.46629,-0.57376 0.291131,0.73739 0.110502,1.304777 0.05525,1.442897 0.34001,0.376147 0.548265,0.669407 0.548265,1.251661 0,2.050671 -1.251659,2.214288 -2.439565,2.348178 0.195505,0.16787 0.361259,0.486637 0.361259,0.986024 0,0.716137 -0.0064,1.602271 -0.0064,1.776531 0,0.138127 0.09775,0.306007 0.367634,0.257127 2.125057,-0.705524 3.565845,-2.722185 3.565845,-5.07885 0,-2.947446 -2.390688,-5.185127 -5.338141,-5.185127 z m -3.136584,7.329265 c -0.02762,0.0213 -0.02125,0.0701 0.01487,0.11051 0.034,0.034 0.08287,0.0489 0.110502,0.0212 0.02762,-0.0212 0.02125,-0.0701 -0.01487,-0.1105 -0.034,-0.034 -0.08288,-0.0489 -0.110504,-0.0213 z m -0.229505,-0.17212 c -0.01488,0.0277 0.0064,0.0616 0.04888,0.0829 0.034,0.0213 0.0765,0.0149 0.09138,-0.0149 0.01487,-0.0276 -0.0064,-0.0616 -0.04888,-0.0829 -0.04251,-0.0128 -0.0765,-0.006 -0.09138,0.0149 z m 0.688519,0.756517 c -0.03401,0.0276 -0.02125,0.0914 0.02762,0.131747 0.04888,0.0489 0.110503,0.0553 0.138129,0.0213 0.02762,-0.0276 0.01488,-0.0914 -0.02762,-0.131747 -0.04675,-0.0489 -0.110503,-0.0553 -0.138129,-0.0213 z m -0.242257,-0.31239 c -0.03401,0.0213 -0.03401,0.0765 0,0.12538 0.034,0.0489 0.09138,0.0701 0.119003,0.0489 0.03401,-0.0276 0.03401,-0.0829 0,-0.13176 -0.02976,-0.0489 -0.085,-0.0701 -0.119003,-0.0425 z"
           id="path23051"
           style="fill:#ffffff;stroke-width:0.0212506" />
      </g>
    </g>
  </g>
</svg>
