<?xml version="1.0" encoding="UTF-8" standalone="no"?>
<!-- Created with Inkscape (http://www.inkscape.org/) -->

<svg
   width="70.884521mm"
   height="17.73621mm"
   viewBox="0 0 70.884521 17.73621"
   version="1.1"
   id="svg68942"
   inkscape:version="1.1.2 (0a00cf5339, 2022-02-04)"
   sodipodi:docname="readme.discourse.svg"
   xmlns:inkscape="http://www.inkscape.org/namespaces/inkscape"
   xmlns:sodipodi="http://sodipodi.sourceforge.net/DTD/sodipodi-0.dtd"
   xmlns="http://www.w3.org/2000/svg"
   xmlns:svg="http://www.w3.org/2000/svg">
  <sodipodi:namedview
     id="namedview68944"
     pagecolor="#ffffff"
     bordercolor="#666666"
     borderopacity="1.0"
     inkscape:pageshadow="2"
     inkscape:pageopacity="0.0"
     inkscape:pagecheckerboard="0"
     inkscape:document-units="mm"
     showgrid="false"
     inkscape:zoom="0.7500982"
     inkscape:cx="295.29467"
     inkscape:cy="145.98089"
     inkscape:window-width="1920"
     inkscape:window-height="1053"
     inkscape:window-x="1920"
     inkscape:window-y="0"
     inkscape:window-maximized="1"
     inkscape:current-layer="layer1"
     fit-margin-top="0"
     fit-margin-left="0"
     fit-margin-right="0"
     fit-margin-bottom="0" />
  <defs
     id="defs68939" />
  <g
     inkscape:label="Layer 1"
     inkscape:groupmode="layer"
     id="layer1"
     transform="translate(-26.638501,-109.64971)">
    <g
       id="g68733"
       transform="translate(-5.0554589,65.672436)">
      <rect
         style="fill:#5c3f78;fill-opacity:1;stroke:#1e1e1e;stroke-width:0.237042;paint-order:stroke fill markers"
         id="rect20357"
         width="70.647476"
         height="17.499168"
         x="31.812481"
         y="44.095795"
         ry="2.2504981" />
      <g
         id="g68434"
         transform="translate(0,-0.15633762)">
        <text
           xml:space="preserve"
           style="font-size:7.05556px;line-height:1.25;font-family:Helvetica;-inkscape-font-specification:Helvetica;stroke-width:0.264583"
           x="44.574818"
           y="55.461517"
           id="text2564"><tspan
             sodipodi:role="line"
             id="tspan2562"
             style="fill:#ffffff;stroke-width:0.264583"
             x="44.574818"
             y="55.461517">Fortran Discourse</tspan></text>
        <path
           d="m 38.658728,48.057622 c -2.706035,0 -4.986078,2.174097 -4.986078,4.858056 0,0.08608 0.0022,5.030223 0.0022,5.030223 l 4.98387,-0.0045 c 2.708241,0 4.902204,-2.257974 4.902204,-4.941937 0,-2.683959 -2.193963,-4.941932 -4.902204,-4.941932 z m -0.04194,7.769362 c -0.428198,0 -0.836531,-0.09491 -1.200719,-0.267071 l -1.790044,0.443645 0.50545,-1.655404 c -0.216307,-0.3995 -0.33991,-0.858602 -0.33991,-1.346395 0,-1.560491 1.264729,-2.825221 2.825223,-2.825221 1.560495,0 2.825224,1.26473 2.825224,2.825221 0,1.560496 -1.264729,2.825225 -2.825224,2.825225 z"
           id="path20326"
           style="fill:#ffffff;stroke-width:0.0220721" />
      </g>
    </g>
  </g>
</svg>
