<?xml version="1.0" encoding="UTF-8" standalone="no"?>
<!-- Created with Inkscape (http://www.inkscape.org/) -->

<svg
   width="70.884521mm"
   height="17.73621mm"
   viewBox="0 0 70.884521 17.73621"
   version="1.1"
   id="svg970"
   inkscape:version="1.1.2 (0a00cf5339, 2022-02-04)"
   sodipodi:docname="readme.fpm.svg"
   xmlns:inkscape="http://www.inkscape.org/namespaces/inkscape"
   xmlns:sodipodi="http://sodipodi.sourceforge.net/DTD/sodipodi-0.dtd"
   xmlns="http://www.w3.org/2000/svg"
   xmlns:svg="http://www.w3.org/2000/svg">
  <sodipodi:namedview
     id="namedview972"
     pagecolor="#ffffff"
     bordercolor="#666666"
     borderopacity="1.0"
     inkscape:pageshadow="2"
     inkscape:pageopacity="0.0"
     inkscape:pagecheckerboard="0"
     inkscape:document-units="mm"
     showgrid="false"
     inkscape:zoom="0.7500982"
     inkscape:cx="-325.95732"
     inkscape:cy="-155.313"
     inkscape:window-width="1920"
     inkscape:window-height="1053"
     inkscape:window-x="1920"
     inkscape:window-y="0"
     inkscape:window-maximized="1"
     inkscape:current-layer="layer1"
     fit-margin-top="0"
     fit-margin-left="0"
     fit-margin-right="0"
     fit-margin-bottom="0" />
  <defs
     id="defs967" />
  <g
     inkscape:label="Layer 1"
     inkscape:groupmode="layer"
     id="layer1"
     transform="translate(-190.84233,-189.66996)">
    <g
       id="g22615"
       transform="translate(159.14837,55.440673)">
      <rect
         style="fill:#a34e9c;fill-opacity:1;stroke:#1e1e1e;stroke-width:0.237042;paint-order:stroke fill markers"
         id="rect68273"
         width="70.647476"
         height="17.499168"
         x="31.812481"
         y="134.34781"
         ry="2.2504981" />
      <g
         id="g22159">
        <g
           id="g22144"
           transform="translate(0,-0.30209806)">
          <text
             xml:space="preserve"
             style="font-size:7.05556px;line-height:1.05;font-family:Helvetica;-inkscape-font-specification:Helvetica;stroke-width:0.264583"
             x="51.903019"
             y="141.73534"
             id="text50081"><tspan
               sodipodi:role="line"
               id="tspan50079"
               style="fill:#ffffff;stroke-width:0.264583"
               x="51.903019"
               y="141.73534" /><tspan
               sodipodi:role="line"
               style="font-size:5.64444px;fill:#ffffff;stroke-width:0.264583"
               x="51.903019"
               y="149.14368"
               id="tspan50083">Package Manager</tspan></text>
          <g
             id="g22075"
             transform="translate(0.29860395)">
            <path
               d="m 61.104403,142.87919 0.619428,-4.69236 h 0.89341 l 0.125998,0.49025 c 0.458278,-0.31047 0.951707,-0.55153 1.518045,-0.55153 0.297708,0 0.535671,0.0584 0.713745,0.17508 0.183861,0.1109 0.331268,0.28598 0.442221,0.52527 0.434554,-0.38596 1.190105,-0.70035 1.786966,-0.70035 0.438026,0 0.755696,0.0992 0.953299,0.29765 0.20339,0.1926 0.309424,0.46981 0.318538,0.83166 0.0051,0.20854 -0.0036,0.42518 -0.03703,0.63032 l -0.398679,2.99401 h -1.086096 l 0.399402,-2.96774 c 0.01,-0.0642 0.01418,-0.13424 0.0123,-0.2101 -0.01,-0.40272 -0.239844,-0.60407 -0.689442,-0.60407 -0.405044,0 -0.929286,0.24057 -1.249704,0.46399 0.01649,0.13225 0.0082,0.27313 -0.01635,0.4027 l -0.392024,2.91522 h -1.077272 l 0.382911,-2.92397 c 0.01041,-0.0525 0.01519,-0.0963 0.01432,-0.13132 0.0048,-0.0409 0.0067,-0.0846 0.0055,-0.13132 -0.0046,-0.18675 -0.06076,-0.33266 -0.168526,-0.43772 -0.107626,-0.10505 -0.278324,-0.15758 -0.511947,-0.15758 -0.393326,0 -0.701883,0.22603 -1.021723,0.42897 l -0.451194,3.35294 z"
               fill="#ffffff"
               id="path2"
               style="stroke-width:0.0144658" />
            <path
               d="m 55.686076,144.95013 0.887191,-6.60957 c 0.354557,-0.0642 0.712442,-0.11382 1.073655,-0.14883 0.360922,-0.0409 0.760469,-0.0613 1.19835,-0.0613 0.537262,0 0.928996,0.13717 1.175205,0.41147 0.251995,0.2743 0.384937,0.68867 0.398679,1.24312 0.0036,0.1459 -0.0014,0.29765 -0.01504,0.45523 -0.0136,0.15757 -0.03009,0.31516 -0.04962,0.47274 -0.09866,0.72953 -0.330256,1.28107 -0.69465,1.65458 -0.364395,0.37352 -0.841623,0.56029 -1.431395,0.56029 -0.227693,0 -0.438316,-0.0175 -0.631869,-0.0525 -0.193553,-0.035 -0.37018,-0.0905 -0.529594,-0.16634 l -0.294814,2.24113 z m 2.396991,-2.94148 c 0.373797,0 0.653856,-0.12256 0.840465,-0.36768 0.18661,-0.24512 0.317381,-0.6274 0.392025,-1.14684 0.0098,-0.0759 0.01938,-0.1605 0.02879,-0.25387 0.0094,-0.0934 0.01287,-0.18383 0.0107,-0.27138 -0.008,-0.321 -0.07508,-0.56029 -0.201654,-0.71787 -0.12079,-0.16341 -0.312607,-0.24512 -0.575452,-0.24512 l -1.015791,0.009 -0.385081,2.83643 c 0.164766,0.0525 0.308846,0.0934 0.432239,0.12256 0.129036,0.0233 0.287003,0.035 0.473757,0.035 z"
               fill="#ffffff"
               id="path4"
               style="stroke-width:0.0144658" />
            <path
               d="m 52.506773,142.87538 0.501198,-3.80816 h -0.921243 l 0.09652,-0.70036 0.942956,-0.18383 0.105254,-0.70035 c 0.03423,-0.26848 0.104342,-0.50192 0.210377,-0.70037 0.111719,-0.20425 0.274229,-0.36184 0.487528,-0.47273 0.219143,-0.11089 0.509733,-0.16634 0.871769,-0.16634 0.192685,0 0.629482,0.009 0.816814,0.0263 0.187044,0.0117 0.471587,0.0292 0.606408,0.0525 l -0.103141,0.7879 h -1.114666 c -0.262757,0 -0.445114,0.0642 -0.547026,0.1926 -0.102071,0.12256 -0.167442,0.31225 -0.196113,0.56903 l -0.05111,0.41147 h 1.490561 l -0.118186,0.88419 h -1.490604 l -0.509965,3.80816 z"
               fill="#ffffff"
               id="path6"
               style="stroke-width:0.0144658" />
          </g>
        </g>
        <g
           id="g5631"
           transform="matrix(1.3829188,0,0,1.3829188,-20.641311,-50.666903)">
          <path
             d="m 42.66779,141.9424 h 3.203794 l -0.375403,2.92681 c -0.0059,0.0463 -0.04532,0.0809 -0.09196,0.0809 h -3.051983 c -0.03724,0 -0.06601,-0.0327 -0.0613,-0.0696 z"
             fill="#4d41b1"
             id="path8"
             style="stroke-width:0.0144658" />
          <path
             d="m 45.989597,138.51356 h -2.851815 l -0.385784,3.00773 h 3.203806 l 0.340931,-2.65814 c -0.192164,-0.002 -0.329402,-0.15791 -0.307138,-0.34959 z"
             fill="#4d41b1"
             id="path10"
             style="stroke-width:0.0144658" />
          <path
             d="m 49.968861,138.51356 h -2.810193 c -0.04027,0.22309 -0.241334,0.35186 -0.418801,0.34959 l -0.338891,2.65814 h 3.102779 c 0.04667,0 0.08607,-0.0347 0.09197,-0.081 z"
             fill="#4d41b1"
             id="path12"
             style="stroke-width:0.0144658" />
          <path
             fill-rule="evenodd"
             clip-rule="evenodd"
             d="m 46.820037,135.08468 c -1.52687,-0.0195 -3.256834,1.08836 -3.603111,3.00772 h 2.831561 c 0.04027,-0.22308 0.241334,-0.35186 0.418815,-0.3496 z m 0.426887,-1.1e-4 h 3.114091 c 0.03725,0 0.06605,0.0327 0.06134,0.0696 l -0.374593,2.93811 -2.832312,-2e-5 c 0.02228,-0.19177 -0.11509,-0.34749 -0.307398,-0.34959 z"
             fill="#4d41b1"
             id="path14"
             style="stroke-width:0.0144658" />
        </g>
      </g>
    </g>
  </g>
</svg>
