<?xml version="1.0" encoding="UTF-8" standalone="no"?>
<!-- Created with Inkscape (http://www.inkscape.org/) -->

<svg
   width="70.884521mm"
   height="17.73621mm"
   viewBox="0 0 70.884521 17.73621"
   version="1.1"
   id="svg69678"
   inkscape:version="1.1.2 (0a00cf5339, 2022-02-04)"
   sodipodi:docname="readme.fortls.svg"
   xmlns:inkscape="http://www.inkscape.org/namespaces/inkscape"
   xmlns:sodipodi="http://sodipodi.sourceforge.net/DTD/sodipodi-0.dtd"
   xmlns="http://www.w3.org/2000/svg"
   xmlns:svg="http://www.w3.org/2000/svg">
  <sodipodi:namedview
     id="namedview69680"
     pagecolor="#ffffff"
     bordercolor="#666666"
     borderopacity="1.0"
     inkscape:pageshadow="2"
     inkscape:pageopacity="0.0"
     inkscape:pagecheckerboard="0"
     inkscape:document-units="mm"
     showgrid="false"
     inkscape:zoom="0.7500982"
     inkscape:cx="124.65035"
     inkscape:cy="-219.30462"
     inkscape:window-width="1920"
     inkscape:window-height="1053"
     inkscape:window-x="1920"
     inkscape:window-y="0"
     inkscape:window-maximized="1"
     inkscape:current-layer="layer1"
     fit-margin-top="0"
     fit-margin-left="0"
     fit-margin-right="0"
     fit-margin-bottom="0" />
  <defs
     id="defs69675" />
  <g
     inkscape:label="Layer 1"
     inkscape:groupmode="layer"
     id="layer1"
     transform="translate(-71.619045,-206.60108)">
    <g
       id="g22537"
       transform="translate(39.925085,93.575081)">
      <path
         id="rect63265"
         style="fill:#a34e9c;stroke:#1e1e1e;stroke-width:0.237042;paint-order:stroke fill markers"
         d="m 34.062979,113.14452 h 66.146481 c 1.24677,0 2.2505,1.00373 2.2505,2.2505 v 12.99817 c 0,1.24678 -1.00373,2.2505 -2.2505,2.2505 H 34.062979 c -1.246776,0 -2.250498,-1.00372 -2.250498,-2.2505 v -12.99817 c 0,-1.24677 1.003722,-2.2505 2.250498,-2.2505 z" />
      <path
         fill="currentColor"
         d="m 47.50137,123.94447 h 0.739857 l 2.782415,-2.94847 v -0.78509 l -1.396411,-1.4685 h -0.72949 l -1.89662,1.99849 h -5.210529 v -1.38029 l 1.938317,-2.04286 v -0.78509 l -2.084205,-2.20841 h -0.750226 l -4.168413,4.41693 v 0.78509 l 2.084219,2.20858 h 0.739858 l 1.187993,-1.27009 v 6.39371 l 0.521012,0.55126 h 4.845773 v 0.57448 l 1.386004,1.47976 h 0.739862 l 2.782411,-2.94826 v -0.78511 l -1.396407,-1.46857 h -0.729494 l -1.938308,2.04293 h -5.210647 v -4.41717 h 4.366402 v 0.52913 z m 1.761144,-4.03066 0.656543,0.6964 -2.084199,2.20853 -0.656539,-0.6964 z m 0,5.52132 0.656543,0.69639 -2.084199,2.20845 -0.656539,-0.6964 z m -10.087541,-4.8698 -1.344303,-1.43551 3.428517,-3.63298 1.354725,1.42453 z"
         id="path2-75"
         style="fill:#ee9d28;fill-opacity:1;stroke-width:1.07272" />
      <path
         id="rect881"
         style="fill:#734f96;stroke-width:0.0326826"
         d="m 46.61177,117.24102 h 4.363789 c 0.715903,0 1.292244,0.57634 1.292244,1.29224 v 4.36379 c 0,0.71591 -0.576341,1.29225 -1.292244,1.29225 H 46.61177 c -0.715903,0 -1.292243,-0.57634 -1.292243,-1.29225 v -4.36379 c 0,-0.7159 0.57634,-1.29224 1.292243,-1.29224 z" />
      <path
         inkscape:connector-curvature="0"
         id="path1412"
         d="m 46.26656,123.12945 c 0,-0.27628 0.002,-0.3009 0.02633,-0.30141 0.01449,-2.8e-4 0.157338,-0.006 0.317473,-0.0142 0.257874,-0.0121 0.299042,-0.0176 0.360225,-0.0483 0.04837,-0.0243 0.07833,-0.0527 0.09996,-0.0948 0.03065,-0.0598 0.03089,-0.0735 0.03089,-1.96301 0,-1.77551 -0.0017,-1.90604 -0.02605,-1.95042 -0.03288,-0.0601 -0.0899,-0.10522 -0.159984,-0.12663 -0.03007,-0.009 -0.188357,-0.0203 -0.351756,-0.0247 l -0.297084,-0.008 v -0.29892 -0.29893 h 2.527106 2.527102 v 1.12065 1.12065 l -0.266998,-10e-4 c -0.146852,-8.1e-4 -0.283924,-0.006 -0.304609,-0.012 -0.03699,-0.0104 -0.03789,-0.0144 -0.05562,-0.24294 -0.02275,-0.2934 -0.04134,-0.42333 -0.08852,-0.61849 -0.101983,-0.42194 -0.317172,-0.65148 -0.668562,-0.71316 -0.147429,-0.0259 -0.790649,-0.0509 -1.319542,-0.0513 l -0.364779,-2.9e-4 v 0.8426 0.84261 l 0.191791,-0.009 c 0.219275,-0.0109 0.391643,-0.0373 0.47485,-0.0729 0.08861,-0.0379 0.182184,-0.13366 0.225984,-0.23127 0.04577,-0.10203 0.07572,-0.23599 0.09974,-0.44638 0.0095,-0.0827 0.02031,-0.16565 0.02413,-0.18427 0.0069,-0.0337 0.0081,-0.0338 0.29999,-0.0338 h 0.293035 v 1.34628 1.34629 h -0.29863 -0.298627 l -0.01001,-0.15531 c -0.01819,-0.28124 -0.07294,-0.54758 -0.138745,-0.67483 -0.08994,-0.17394 -0.266974,-0.25213 -0.622798,-0.27509 -0.07859,-0.005 -0.165357,-0.0127 -0.192802,-0.0169 l -0.0499,-0.007 0.0058,0.84699 c 0.0062,0.89335 0.0089,0.92826 0.0766,1.00313 0.0697,0.077 0.110344,0.0823 0.818364,0.10646 0.01441,4.5e-4 0.0188,0.0712 0.0188,0.3015 v 0.30084 h -1.45158 -1.451582 z"
         style="fill:#ffffff;stroke-width:0.0326829" />
      <g
         aria-label="fortls
Language Server"
         id="text35124"
         style="font-size:7.05556px;line-height:0.95;font-family:Helvetica;-inkscape-font-specification:Helvetica;fill:#ffffff;stroke-width:0.264583">
        <path
           d="m 57.081668,115.99565 q 0.09302,0 0.16881,0.007 0.07579,0.003 0.206706,0.0138 v 0.79926 q -0.08268,-0.0103 -0.279053,-0.0138 -0.192926,-0.007 -0.268718,0.0861 -0.07235,0.0896 -0.07235,0.19981 0,0.11025 0,0.31695 h 0.644233 v 0.69247 h -0.644233 v 3.02824 h -0.978408 v -3.02824 h -0.54777 v -0.69247 h 0.537435 v -0.24116 q 0,-0.60289 0.203261,-0.83026 0.213596,-0.33762 1.030084,-0.33762 z"
           style="font-weight:bold"
           id="path831" />
        <path
           d="m 59.730948,120.43293 q 0.430637,0 0.661459,-0.30661 0.230821,-0.30662 0.230821,-0.87161 0,-0.565 -0.230821,-0.86817 -0.230822,-0.30661 -0.661459,-0.30661 -0.430637,0 -0.664904,0.30661 -0.230821,0.30317 -0.230821,0.86817 0,0.56499 0.230821,0.87161 0.234267,0.30661 0.664904,0.30661 z m 1.922365,-1.17822 q 0,0.82682 -0.475424,1.41593 -0.475423,0.58567 -1.443496,0.58567 -0.968072,0 -1.443496,-0.58567 -0.475423,-0.58911 -0.475423,-1.41593 0,-0.81304 0.475423,-1.40905 0.475424,-0.596 1.443496,-0.596 0.968073,0 1.443496,0.596 0.475424,0.59601 0.475424,1.40905 z m -1.91892,-1.98438 z"
           style="font-weight:bold"
           id="path833" />
        <path
           d="m 64.395611,117.28067 q 0.02756,0 0.04479,0.003 0.02067,0 0.08613,0.003 v 1.00597 q -0.09302,-0.0103 -0.165364,-0.0138 -0.07235,-0.003 -0.117134,-0.003 -0.592556,0 -0.795817,0.38585 -0.113688,0.21704 -0.113688,0.66835 v 1.7949 h -0.988743 v -3.75516 h 0.937066 v 0.65457 q 0.227377,-0.37552 0.396186,-0.51332 0.275608,-0.23082 0.716581,-0.23082 z"
           style="font-weight:bold"
           id="path835" />
        <path
           d="m 64.716005,118.10405 v -0.69936 h 0.523655 v -1.04731 h 0.971517 v 1.04731 h 0.609782 v 0.69936 h -0.609782 v 1.98437 q 0,0.23082 0.05857,0.28939 0.05857,0.0551 0.35829,0.0551 0.04479,0 0.09302,0 0.05168,-0.003 0.09991,-0.007 v 0.73381 l -0.465088,0.0172 q -0.695909,0.0241 -0.950847,-0.24115 -0.165364,-0.16881 -0.165364,-0.52021 v -2.31166 z"
           style="font-weight:bold"
           id="path837" />
        <path
           d="m 68.453935,121.1254 h -0.981853 v -5.07808 h 0.981853 z"
           style="font-weight:bold"
           id="path839" />
        <path
           d="m 70.176485,119.9265 q 0.03101,0.26183 0.134358,0.37207 0.182591,0.19637 0.67524,0.19637 0.289388,0 0.458198,-0.0861 0.172255,-0.0861 0.172255,-0.25839 0,-0.16536 -0.137804,-0.25149 -0.137804,-0.0861 -1.023194,-0.29628 -0.637343,-0.15847 -0.899171,-0.39618 -0.261827,-0.23427 -0.261827,-0.67524 0,-0.52021 0.406521,-0.89228 0.409967,-0.37552 1.150663,-0.37552 0.7028,0 1.143772,0.2825 0.444418,0.27905 0.509875,0.96807 h -0.981853 q -0.02067,-0.18948 -0.106798,-0.29972 -0.16192,-0.19982 -0.551216,-0.19982 -0.320394,0 -0.458198,0.0999 -0.134359,0.0999 -0.134359,0.23427 0,0.16881 0.144695,0.2446 0.144694,0.0792 1.023194,0.27216 0.585666,0.13781 0.878499,0.41686 0.289389,0.2825 0.289389,0.70624 0,0.55811 -0.416857,0.91296 -0.413412,0.3514 -1.281577,0.3514 -0.88539,0 -1.309137,-0.37208 -0.420302,-0.37551 -0.420302,-0.95429 z m 0.751031,-2.65617 z"
           style="font-weight:bold"
           id="path841" />
        <path
           d="m 55.668488,123.77951 h 0.548459 v 3.56636 h 2.050519 v 0.48231 h -2.598978 z"
           style="font-size:5.64444px"
           id="path843" />
        <path
           d="m 59.121849,127.0427 q 0,0.21497 0.157097,0.33899 0.157096,0.12403 0.37207,0.12403 0.261827,0 0.507117,-0.12127 0.413412,-0.20119 0.413412,-0.6587 v -0.39963 q -0.09095,0.0579 -0.234267,0.0965 -0.143316,0.0386 -0.281119,0.0551 l -0.300412,0.0386 q -0.270096,0.0358 -0.405143,0.113 -0.228755,0.12953 -0.228755,0.41341 z m 1.201649,-1.00321 q 0.170876,-0.0221 0.228754,-0.14332 0.03307,-0.0661 0.03307,-0.19017 0,-0.25356 -0.181901,-0.36656 -0.179145,-0.11575 -0.515386,-0.11575 -0.388606,0 -0.551215,0.20946 -0.09095,0.11576 -0.118511,0.34451 h -0.46302 q 0.01378,-0.5457 0.352777,-0.75792 0.341753,-0.21497 0.790993,-0.21497 0.520898,0 0.846115,0.19843 0.322461,0.19844 0.322461,0.61736 v 1.7005 q 0,0.0772 0.03032,0.12402 0.03307,0.0469 0.135047,0.0469 0.03307,0 0.07441,-0.003 0.04134,-0.006 0.08819,-0.0138 v 0.36656 q -0.115755,0.0331 -0.176389,0.0413 -0.06063,0.008 -0.165364,0.008 -0.256315,0 -0.37207,-0.1819 -0.06063,-0.0965 -0.08544,-0.27285 -0.151584,0.19843 -0.43546,0.34451 -0.283875,0.14607 -0.625628,0.14607 -0.410655,0 -0.672483,-0.24805 -0.259071,-0.2508 -0.259071,-0.62563 0,-0.41065 0.256315,-0.63665 0.256315,-0.226 0.672483,-0.27836 z m -0.410655,-1.23472 z"
           style="font-size:5.64444px"
           id="path845" />
        <path
           d="m 61.88068,124.87642 h 0.471289 v 0.41893 q 0.209461,-0.25907 0.443728,-0.37207 0.234266,-0.113 0.520898,-0.113 0.628385,0 0.848871,0.43821 0.121267,0.23978 0.121267,0.68627 v 1.89342 h -0.504362 v -1.86035 q 0,-0.2701 -0.07993,-0.43546 -0.132292,-0.27561 -0.479557,-0.27561 -0.176389,0 -0.289388,0.0358 -0.203949,0.0606 -0.358289,0.24253 -0.124024,0.14608 -0.162609,0.30317 -0.03583,0.15434 -0.03583,0.44373 v 1.54616 H 61.88068 Z m 1.165819,-0.0716 z"
           style="font-size:5.64444px"
           id="path847" />
        <path
           d="m 66.061645,124.82406 q 0.347265,0 0.606336,0.17087 0.14056,0.0965 0.286632,0.28112 v -0.37207 h 0.457508 v 2.68442 q 0,0.56224 -0.165364,0.88746 -0.308681,0.60082 -1.16582,0.60082 -0.476801,0 -0.802017,-0.21497 -0.325217,-0.21222 -0.363802,-0.66697 h 0.504361 q 0.03583,0.19843 0.143316,0.30592 0.168121,0.16537 0.529167,0.16537 0.570507,0 0.746896,-0.40239 0.104731,-0.23702 0.09646,-0.84612 -0.148828,0.226 -0.358289,0.33624 -0.209462,0.11025 -0.553971,0.11025 -0.479557,0 -0.840603,-0.339 -0.35829,-0.34175 -0.35829,-1.12723 0,-0.74139 0.361046,-1.15756 0.363802,-0.41616 0.876432,-0.41616 z m 0.892968,1.51584 q 0,-0.54846 -0.225998,-0.81304 -0.225998,-0.26459 -0.57602,-0.26459 -0.523654,0 -0.716579,0.49058 -0.101975,0.26183 -0.101975,0.68627 0,0.49885 0.201194,0.76067 0.203949,0.25907 0.545702,0.25907 0.534679,0 0.752409,-0.48231 0.121267,-0.27285 0.121267,-0.63665 z m -0.835091,-1.53513 z"
           style="font-size:5.64444px"
           id="path849" />
        <path
           d="m 68.655111,124.87642 v 1.95957 q 0,0.226 0.07166,0.36932 0.132291,0.26458 0.493337,0.26458 0.518142,0 0.705555,-0.46302 0.101975,-0.24805 0.101975,-0.68075 v -1.4497 h 0.496093 v 2.95176 h -0.468532 l 0.0055,-0.43546 q -0.09646,0.16812 -0.239779,0.28387 -0.283875,0.23151 -0.689018,0.23151 -0.631141,0 -0.859896,-0.42167 -0.124023,-0.226 -0.124023,-0.60358 v -2.00643 z m 0.68075,-0.0716 z"
           style="font-size:5.64444px"
           id="path851" />
        <path
           d="m 71.678524,127.0427 q 0,0.21497 0.157097,0.33899 0.157096,0.12403 0.37207,0.12403 0.261827,0 0.507117,-0.12127 0.413411,-0.20119 0.413411,-0.6587 v -0.39963 q -0.09095,0.0579 -0.234266,0.0965 -0.143316,0.0386 -0.281119,0.0551 l -0.300413,0.0386 q -0.270095,0.0358 -0.405142,0.113 -0.228755,0.12953 -0.228755,0.41341 z m 1.201649,-1.00321 q 0.170876,-0.0221 0.228754,-0.14332 0.03307,-0.0661 0.03307,-0.19017 0,-0.25356 -0.181901,-0.36656 -0.179145,-0.11575 -0.515386,-0.11575 -0.388606,0 -0.551215,0.20946 -0.09095,0.11576 -0.118511,0.34451 h -0.46302 q 0.01378,-0.5457 0.352777,-0.75792 0.341753,-0.21497 0.790993,-0.21497 0.520898,0 0.846115,0.19843 0.322461,0.19844 0.322461,0.61736 v 1.7005 q 0,0.0772 0.03032,0.12402 0.03307,0.0469 0.135047,0.0469 0.03307,0 0.07441,-0.003 0.04134,-0.006 0.08819,-0.0138 v 0.36656 q -0.115755,0.0331 -0.176389,0.0413 -0.06063,0.008 -0.165365,0.008 -0.256314,0 -0.37207,-0.1819 -0.06063,-0.0965 -0.08544,-0.27285 -0.151584,0.19843 -0.43546,0.34451 -0.283875,0.14607 -0.625628,0.14607 -0.410656,0 -0.672483,-0.24805 -0.259071,-0.2508 -0.259071,-0.62563 0,-0.41065 0.256315,-0.63665 0.256315,-0.226 0.672482,-0.27836 z m -0.410655,-1.23472 z"
           style="font-size:5.64444px"
           id="path853" />
        <path
           d="m 75.479151,124.82406 q 0.347265,0 0.606336,0.17087 0.14056,0.0965 0.286632,0.28112 v -0.37207 h 0.457508 v 2.68442 q 0,0.56224 -0.165364,0.88746 -0.30868,0.60082 -1.165819,0.60082 -0.476801,0 -0.802018,-0.21497 -0.325217,-0.21222 -0.363802,-0.66697 h 0.504362 q 0.03583,0.19843 0.143316,0.30592 0.16812,0.16537 0.529166,0.16537 0.570507,0 0.746896,-0.40239 0.104731,-0.23702 0.09646,-0.84612 -0.148828,0.226 -0.35829,0.33624 -0.209462,0.11025 -0.553971,0.11025 -0.479557,0 -0.840603,-0.339 -0.358289,-0.34175 -0.358289,-1.12723 0,-0.74139 0.361045,-1.15756 0.363802,-0.41616 0.876432,-0.41616 z m 0.892968,1.51584 q 0,-0.54846 -0.225998,-0.81304 -0.225998,-0.26459 -0.57602,-0.26459 -0.523654,0 -0.716579,0.49058 -0.101975,0.26183 -0.101975,0.68627 0,0.49885 0.201194,0.76067 0.203949,0.25907 0.545703,0.25907 0.534678,0 0.752408,-0.48231 0.121267,-0.27285 0.121267,-0.63665 z m -0.83509,-1.53513 z"
           style="font-size:5.64444px"
           id="path855" />
        <path
           d="m 78.805734,124.81028 q 0.314192,0 0.609092,0.14883 0.2949,0.14607 0.44924,0.38033 0.148828,0.22325 0.198438,0.5209 0.0441,0.20395 0.0441,0.65044 h -2.163519 q 0.01378,0.44924 0.212218,0.72209 0.198438,0.27009 0.614605,0.27009 0.388606,0 0.620116,-0.25631 0.132292,-0.14883 0.187414,-0.34451 h 0.487825 q -0.01929,0.16261 -0.129536,0.3638 -0.107487,0.19844 -0.242534,0.32522 -0.225998,0.22048 -0.559483,0.29765 -0.179145,0.0441 -0.405143,0.0441 -0.551215,0 -0.93431,-0.39963 -0.383094,-0.40239 -0.383094,-1.12448 0,-0.71107 0.385851,-1.15479 0.38585,-0.44373 1.008723,-0.44373 z m 0.790993,1.30638 q -0.03032,-0.32246 -0.14056,-0.51539 -0.203949,-0.35829 -0.68075,-0.35829 -0.341753,0 -0.573264,0.24805 -0.23151,0.24529 -0.24529,0.62563 z m -0.837847,-1.31189 z"
           style="font-size:5.64444px"
           id="path857" />
        <path
           d="m 82.708335,126.5218 q 0.01929,0.34451 0.162608,0.55948 0.272851,0.40239 0.96187,0.40239 0.30868,0 0.562239,-0.0882 0.490581,-0.17088 0.490581,-0.61185 0,-0.33073 -0.206705,-0.47129 -0.209462,-0.13781 -0.655946,-0.23978 l -0.548459,-0.12402 q -0.537434,-0.12127 -0.760676,-0.26734 -0.385851,-0.25356 -0.385851,-0.75792 0,-0.54571 0.377583,-0.89573 0.377582,-0.35002 1.069356,-0.35002 0.636654,0 1.080381,0.30868 0.446485,0.30593 0.446485,0.98116 h -0.515386 q -0.04134,-0.32521 -0.176389,-0.49885 -0.250803,-0.31694 -0.851627,-0.31694 -0.485069,0 -0.697287,0.20395 -0.212218,0.20394 -0.212218,0.47404 0,0.29766 0.248047,0.43546 0.162608,0.0882 0.735872,0.22049 l 0.567751,0.12953 q 0.410655,0.0937 0.633897,0.25632 0.385851,0.28387 0.385851,0.82406 0,0.67248 -0.490582,0.96187 -0.487825,0.28939 -1.135502,0.28939 -0.755164,0 -1.182356,-0.38585 -0.427192,-0.38309 -0.418923,-1.03904 z m 1.107941,-2.85254 z"
           style="font-size:5.64444px"
           id="path859" />
        <path
           d="m 87.277906,124.81028 q 0.314192,0 0.609092,0.14883 0.2949,0.14607 0.44924,0.38033 0.148828,0.22325 0.198437,0.5209 0.0441,0.20395 0.0441,0.65044 h -2.163519 q 0.01378,0.44924 0.212218,0.72209 0.198437,0.27009 0.614605,0.27009 0.388606,0 0.620116,-0.25631 0.132292,-0.14883 0.187413,-0.34451 h 0.487825 q -0.01929,0.16261 -0.129535,0.3638 -0.107487,0.19844 -0.242535,0.32522 -0.225998,0.22048 -0.559483,0.29765 -0.179144,0.0441 -0.405143,0.0441 -0.551214,0 -0.934309,-0.39963 -0.383094,-0.40239 -0.383094,-1.12448 0,-0.71107 0.38585,-1.15479 0.385851,-0.44373 1.008724,-0.44373 z m 0.790993,1.30638 q -0.03032,-0.32246 -0.14056,-0.51539 -0.203949,-0.35829 -0.68075,-0.35829 -0.341754,0 -0.573264,0.24805 -0.23151,0.24529 -0.24529,0.62563 z m -0.837847,-1.31189 z"
           style="font-size:5.64444px"
           id="path861" />
        <path
           d="m 89.201645,124.87642 h 0.471288 v 0.50988 q 0.05788,-0.14883 0.283876,-0.36105 0.225998,-0.21497 0.520898,-0.21497 0.01378,0 0.04685,0.003 0.03307,0.003 0.112999,0.011 v 0.52365 q -0.0441,-0.008 -0.08268,-0.011 -0.03583,-0.003 -0.07993,-0.003 -0.374826,0 -0.57602,0.24254 -0.201193,0.23977 -0.201193,0.55397 v 1.69774 h -0.496093 z"
           style="font-size:5.64444px"
           id="path863" />
        <path
           d="m 91.310041,124.87642 0.788237,2.4033 0.824067,-2.4033 h 0.542946 l -1.113454,2.95176 h -0.529166 l -1.088649,-2.95176 z"
           style="font-size:5.64444px"
           id="path865" />
        <path
           d="m 95.118936,124.81028 q 0.314192,0 0.609092,0.14883 0.2949,0.14607 0.44924,0.38033 0.148828,0.22325 0.198438,0.5209 0.0441,0.20395 0.0441,0.65044 h -2.163519 q 0.01378,0.44924 0.212218,0.72209 0.198437,0.27009 0.614605,0.27009 0.388606,0 0.620116,-0.25631 0.132292,-0.14883 0.187413,-0.34451 h 0.487826 q -0.01929,0.16261 -0.129536,0.3638 -0.107487,0.19844 -0.242534,0.32522 -0.225999,0.22048 -0.559484,0.29765 -0.179144,0.0441 -0.405142,0.0441 -0.551215,0 -0.93431,-0.39963 -0.383094,-0.40239 -0.383094,-1.12448 0,-0.71107 0.38585,-1.15479 0.385851,-0.44373 1.008724,-0.44373 z m 0.790993,1.30638 q -0.03032,-0.32246 -0.14056,-0.51539 -0.203949,-0.35829 -0.68075,-0.35829 -0.341753,0 -0.573264,0.24805 -0.23151,0.24529 -0.24529,0.62563 z m -0.837847,-1.31189 z"
           style="font-size:5.64444px"
           id="path867" />
        <path
           d="m 97.042678,124.87642 h 0.471289 v 0.50988 q 0.05788,-0.14883 0.283876,-0.36105 0.225998,-0.21497 0.520898,-0.21497 0.01378,0 0.04685,0.003 0.03307,0.003 0.112999,0.011 v 0.52365 q -0.0441,-0.008 -0.08268,-0.011 -0.03583,-0.003 -0.07993,-0.003 -0.374826,0 -0.57602,0.24254 -0.201193,0.23977 -0.201193,0.55397 v 1.69774 h -0.496094 z"
           style="font-size:5.64444px"
           id="path869" />
      </g>
    </g>
  </g>
</svg>
